G04 #@! TF.GenerationSoftware,KiCad,Pcbnew,10.0.3*
G04 #@! TF.CreationDate,2026-06-02T13:38:18+05:45*
G04 #@! TF.ProjectId,pcb-2,7063622d-322e-46b6-9963-61645f706362,rev?*
G04 #@! TF.SameCoordinates,Original*
G04 #@! TF.FileFunction,Soldermask,Bot*
G04 #@! TF.FilePolarity,Negative*
%FSLAX46Y46*%
G04 Gerber Fmt 4.6, Leading zero omitted, Abs format (unit mm)*
G04 Created by KiCad (PCBNEW 10.0.3) date 2026-06-02 13:38:18*
%MOMM*%
%LPD*%
G01*
G04 APERTURE LIST*
G04 Aperture macros list*
%AMRoundRect*
0 Rectangle with rounded corners*
0 $1 Rounding radius*
0 $2 $3 $4 $5 $6 $7 $8 $9 X,Y pos of 4 corners*
0 Add a 4 corners polygon primitive as box body*
4,1,4,$2,$3,$4,$5,$6,$7,$8,$9,$2,$3,0*
0 Add four circle primitives for the rounded corners*
1,1,$1+$1,$2,$3*
1,1,$1+$1,$4,$5*
1,1,$1+$1,$6,$7*
1,1,$1+$1,$8,$9*
0 Add four rect primitives between the rounded corners*
20,1,$1+$1,$2,$3,$4,$5,0*
20,1,$1+$1,$4,$5,$6,$7,0*
20,1,$1+$1,$6,$7,$8,$9,0*
20,1,$1+$1,$8,$9,$2,$3,0*%
G04 Aperture macros list end*
%ADD10C,1.900000*%
%ADD11C,3.050000*%
%ADD12C,3.450000*%
%ADD13RoundRect,0.250000X-1.025000X-1.000000X1.025000X-1.000000X1.025000X1.000000X-1.025000X1.000000X0*%
%ADD14RoundRect,0.225000X0.375000X-0.225000X0.375000X0.225000X-0.375000X0.225000X-0.375000X-0.225000X0*%
%ADD15C,0.800000*%
%ADD16O,1.600000X2.000000*%
%ADD17R,1.752600X1.752600*%
%ADD18C,1.752600*%
G04 APERTURE END LIST*
D10*
G04 #@! TO.C,S9*
X80225000Y-58287500D03*
D11*
X85725000Y-52387500D03*
D12*
X85725000Y-58287500D03*
D11*
X90725000Y-54487500D03*
D10*
X91225000Y-58287500D03*
D13*
X82225000Y-52287500D03*
X94225000Y-54487500D03*
G04 #@! TD*
D10*
G04 #@! TO.C,S16*
X99275000Y-69687500D03*
D11*
X104775000Y-63787500D03*
D12*
X104775000Y-69687500D03*
D11*
X109775000Y-65887500D03*
D10*
X110275000Y-69687500D03*
D13*
X101275000Y-63687500D03*
X113275000Y-65887500D03*
G04 #@! TD*
D10*
G04 #@! TO.C,S20*
X118325000Y-98262500D03*
D11*
X123825000Y-92362500D03*
D12*
X123825000Y-98262500D03*
D11*
X128825000Y-94462500D03*
D10*
X129325000Y-98262500D03*
D13*
X120325000Y-92262500D03*
X132325000Y-94462500D03*
G04 #@! TD*
D10*
G04 #@! TO.C,S5*
X118325000Y-36350000D03*
D11*
X123825000Y-30450000D03*
D12*
X123825000Y-36350000D03*
D11*
X128825000Y-32550000D03*
D10*
X129325000Y-36350000D03*
D13*
X120325000Y-30350000D03*
X132325000Y-32550000D03*
G04 #@! TD*
D10*
G04 #@! TO.C,S7*
X42125000Y-71437500D03*
D11*
X47625000Y-65537500D03*
D12*
X47625000Y-71437500D03*
D11*
X52625000Y-67637500D03*
D10*
X53125000Y-71437500D03*
D13*
X44125000Y-65437500D03*
X56125000Y-67637500D03*
G04 #@! TD*
D10*
G04 #@! TO.C,S2*
X61175000Y-47625000D03*
D11*
X66675000Y-41725000D03*
D12*
X66675000Y-47625000D03*
D11*
X71675000Y-43825000D03*
D10*
X72175000Y-47625000D03*
D13*
X63175000Y-41625000D03*
X75175000Y-43825000D03*
G04 #@! TD*
D10*
G04 #@! TO.C,S1*
X42125000Y-52387500D03*
D11*
X47625000Y-46487500D03*
D12*
X47625000Y-52387500D03*
D11*
X52625000Y-48587500D03*
D10*
X53125000Y-52387500D03*
D13*
X44125000Y-46387500D03*
X56125000Y-48587500D03*
G04 #@! TD*
D10*
G04 #@! TO.C,S12*
X137375000Y-60162500D03*
D11*
X142875000Y-54262500D03*
D12*
X142875000Y-60162500D03*
D11*
X147875000Y-56362500D03*
D10*
X148375000Y-60162500D03*
D13*
X139375000Y-54162500D03*
X151375000Y-56362500D03*
G04 #@! TD*
D10*
G04 #@! TO.C,S15*
X80225000Y-77337500D03*
D11*
X85725000Y-71437500D03*
D12*
X85725000Y-77337500D03*
D11*
X90725000Y-73537500D03*
D10*
X91225000Y-77337500D03*
D13*
X82225000Y-71337500D03*
X94225000Y-73537500D03*
G04 #@! TD*
D10*
G04 #@! TO.C,S10*
X99275000Y-50637500D03*
D11*
X104775000Y-44737500D03*
D12*
X104775000Y-50637500D03*
D11*
X109775000Y-46837500D03*
D10*
X110275000Y-50637500D03*
D13*
X101275000Y-44637500D03*
X113275000Y-46837500D03*
G04 #@! TD*
D10*
G04 #@! TO.C,S14*
X61175000Y-85725000D03*
D11*
X66675000Y-79825000D03*
D12*
X66675000Y-85725000D03*
D11*
X71675000Y-81925000D03*
D10*
X72175000Y-85725000D03*
D13*
X63175000Y-79725000D03*
X75175000Y-81925000D03*
G04 #@! TD*
D10*
G04 #@! TO.C,S19*
X99275000Y-98262500D03*
D11*
X104775000Y-92362500D03*
D12*
X104775000Y-98262500D03*
D11*
X109775000Y-94462500D03*
D10*
X110275000Y-98262500D03*
D13*
X101275000Y-92262500D03*
X113275000Y-94462500D03*
G04 #@! TD*
D10*
G04 #@! TO.C,S21*
X137375000Y-98262500D03*
D11*
X142875000Y-92362500D03*
D12*
X142875000Y-98262500D03*
D11*
X147875000Y-94462500D03*
D10*
X148375000Y-98262500D03*
D13*
X139375000Y-92262500D03*
X151375000Y-94462500D03*
G04 #@! TD*
D10*
G04 #@! TO.C,S8*
X61175000Y-66675000D03*
D11*
X66675000Y-60775000D03*
D12*
X66675000Y-66675000D03*
D11*
X71675000Y-62875000D03*
D10*
X72175000Y-66675000D03*
D13*
X63175000Y-60675000D03*
X75175000Y-62875000D03*
G04 #@! TD*
D10*
G04 #@! TO.C,S4*
X99275000Y-31587500D03*
D11*
X104775000Y-25687500D03*
D12*
X104775000Y-31587500D03*
D11*
X109775000Y-27787500D03*
D10*
X110275000Y-31587500D03*
D13*
X101275000Y-25587500D03*
X113275000Y-27787500D03*
G04 #@! TD*
D10*
G04 #@! TO.C,S13*
X42125000Y-90487500D03*
D11*
X47625000Y-84587500D03*
D12*
X47625000Y-90487500D03*
D11*
X52625000Y-86687500D03*
D10*
X53125000Y-90487500D03*
D13*
X44125000Y-84487500D03*
X56125000Y-86687500D03*
G04 #@! TD*
D10*
G04 #@! TO.C,S18*
X137375000Y-79212500D03*
D11*
X142875000Y-73312500D03*
D12*
X142875000Y-79212500D03*
D11*
X147875000Y-75412500D03*
D10*
X148375000Y-79212500D03*
D13*
X139375000Y-73212500D03*
X151375000Y-75412500D03*
G04 #@! TD*
D10*
G04 #@! TO.C,S3*
X80225000Y-39237500D03*
D11*
X85725000Y-33337500D03*
D12*
X85725000Y-39237500D03*
D11*
X90725000Y-35437500D03*
D10*
X91225000Y-39237500D03*
D13*
X82225000Y-33237500D03*
X94225000Y-35437500D03*
G04 #@! TD*
D10*
G04 #@! TO.C,S6*
X137375000Y-41112500D03*
D11*
X142875000Y-35212500D03*
D12*
X142875000Y-41112500D03*
D11*
X147875000Y-37312500D03*
D10*
X148375000Y-41112500D03*
D13*
X139375000Y-35112500D03*
X151375000Y-37312500D03*
G04 #@! TD*
D10*
G04 #@! TO.C,S17*
X118325000Y-74450000D03*
D11*
X123825000Y-68550000D03*
D12*
X123825000Y-74450000D03*
D11*
X128825000Y-70650000D03*
D10*
X129325000Y-74450000D03*
D13*
X120325000Y-68450000D03*
X132325000Y-70650000D03*
G04 #@! TD*
D10*
G04 #@! TO.C,S11*
X118325000Y-55400000D03*
D11*
X123825000Y-49500000D03*
D12*
X123825000Y-55400000D03*
D11*
X128825000Y-51600000D03*
D10*
X129325000Y-55400000D03*
D13*
X120325000Y-49400000D03*
X132325000Y-51600000D03*
G04 #@! TD*
D14*
G04 #@! TO.C,D6*
X152400000Y-52900000D03*
X152400000Y-49600000D03*
G04 #@! TD*
G04 #@! TO.C,D5*
X133350000Y-40381250D03*
X133350000Y-37081250D03*
G04 #@! TD*
G04 #@! TO.C,D16*
X114300000Y-78481250D03*
X114300000Y-75181250D03*
G04 #@! TD*
G04 #@! TO.C,D10*
X114300000Y-57050000D03*
X114300000Y-53750000D03*
G04 #@! TD*
G04 #@! TO.C,D2*
X76000000Y-52400000D03*
X76000000Y-49100000D03*
G04 #@! TD*
G04 #@! TO.C,D9*
X95250000Y-64700000D03*
X95250000Y-61400000D03*
G04 #@! TD*
G04 #@! TO.C,D4*
X114300000Y-40381250D03*
X114300000Y-37081250D03*
G04 #@! TD*
G04 #@! TO.C,D18*
X152400000Y-83243750D03*
X152400000Y-79943750D03*
G04 #@! TD*
G04 #@! TO.C,D8*
X76200000Y-70706250D03*
X76200000Y-67406250D03*
G04 #@! TD*
G04 #@! TO.C,D15*
X95250000Y-81368750D03*
X95250000Y-78068750D03*
G04 #@! TD*
G04 #@! TO.C,D14*
X76000000Y-94450000D03*
X76000000Y-91150000D03*
G04 #@! TD*
G04 #@! TO.C,D1*
X57150000Y-54037500D03*
X57150000Y-50737500D03*
G04 #@! TD*
G04 #@! TO.C,D13*
X57150000Y-94518750D03*
X57150000Y-91218750D03*
G04 #@! TD*
D15*
G04 #@! TO.C,U2*
X180340000Y-42487500D03*
X180340000Y-35487500D03*
D16*
X182640000Y-45187500D03*
X178040000Y-44087500D03*
X178040000Y-40087500D03*
X178040000Y-37087500D03*
G04 #@! TD*
D14*
G04 #@! TO.C,D7*
X57150000Y-74737500D03*
X57150000Y-71437500D03*
G04 #@! TD*
D17*
G04 #@! TO.C,U1*
X175120000Y-35920000D03*
D18*
X175120000Y-38460000D03*
X175120000Y-41000000D03*
X175120000Y-43540000D03*
X175120000Y-46080000D03*
X175120000Y-48620000D03*
X175120000Y-51160000D03*
X175120000Y-53700000D03*
X175120000Y-56240000D03*
X175120000Y-58780000D03*
X175120000Y-61320000D03*
X175120000Y-63860000D03*
X159880000Y-63860000D03*
X159880000Y-61320000D03*
X159880000Y-58780000D03*
X159880000Y-56240000D03*
X159880000Y-53700000D03*
X159880000Y-51160000D03*
X159880000Y-48620000D03*
X159880000Y-46080000D03*
X159880000Y-43540000D03*
X159880000Y-41000000D03*
X159880000Y-38460000D03*
X159880000Y-35920000D03*
G04 #@! TD*
D14*
G04 #@! TO.C,D3*
X95250000Y-43268750D03*
X95250000Y-39968750D03*
G04 #@! TD*
G04 #@! TO.C,D17*
X133350000Y-78481250D03*
X133350000Y-75181250D03*
G04 #@! TD*
G04 #@! TO.C,D20*
X133350000Y-104675000D03*
X133350000Y-101375000D03*
G04 #@! TD*
G04 #@! TO.C,D12*
X152400000Y-64193750D03*
X152400000Y-60893750D03*
G04 #@! TD*
G04 #@! TO.C,D21*
X152400000Y-104675000D03*
X152400000Y-101375000D03*
G04 #@! TD*
G04 #@! TO.C,D11*
X133350000Y-59431250D03*
X133350000Y-56131250D03*
G04 #@! TD*
G04 #@! TO.C,D19*
X114300000Y-104675000D03*
X114300000Y-101375000D03*
G04 #@! TD*
M02*
