G04 #@! TF.GenerationSoftware,KiCad,Pcbnew,10.0.3*
G04 #@! TF.CreationDate,2026-06-02T13:38:18+05:45*
G04 #@! TF.ProjectId,pcb-2,7063622d-322e-46b6-9963-61645f706362,rev?*
G04 #@! TF.SameCoordinates,Original*
G04 #@! TF.FileFunction,Legend,Bot*
G04 #@! TF.FilePolarity,Positive*
%FSLAX46Y46*%
G04 Gerber Fmt 4.6, Leading zero omitted, Abs format (unit mm)*
G04 Created by KiCad (PCBNEW 10.0.3) date 2026-06-02 13:38:18*
%MOMM*%
%LPD*%
G01*
G04 APERTURE LIST*
G04 Aperture macros list*
%AMRoundRect*
0 Rectangle with rounded corners*
0 $1 Rounding radius*
0 $2 $3 $4 $5 $6 $7 $8 $9 X,Y pos of 4 corners*
0 Add a 4 corners polygon primitive as box body*
4,1,4,$2,$3,$4,$5,$6,$7,$8,$9,$2,$3,0*
0 Add four circle primitives for the rounded corners*
1,1,$1+$1,$2,$3*
1,1,$1+$1,$4,$5*
1,1,$1+$1,$6,$7*
1,1,$1+$1,$8,$9*
0 Add four rect primitives between the rounded corners*
20,1,$1+$1,$2,$3,$4,$5,0*
20,1,$1+$1,$4,$5,$6,$7,0*
20,1,$1+$1,$6,$7,$8,$9,0*
20,1,$1+$1,$8,$9,$2,$3,0*%
G04 Aperture macros list end*
%ADD10C,0.150000*%
%ADD11C,0.120000*%
%ADD12C,0.200000*%
%ADD13R,1.752600X1.752600*%
%ADD14C,1.752600*%
%ADD15C,1.900000*%
%ADD16C,3.050000*%
%ADD17C,3.450000*%
%ADD18RoundRect,0.250000X-1.025000X-1.000000X1.025000X-1.000000X1.025000X1.000000X-1.025000X1.000000X0*%
%ADD19RoundRect,0.225000X0.375000X-0.225000X0.375000X0.225000X-0.375000X0.225000X-0.375000X-0.225000X0*%
%ADD20C,0.800000*%
%ADD21O,1.600000X2.000000*%
G04 APERTURE END LIST*
D10*
X162300213Y-41294200D02*
X162185927Y-41332295D01*
X162185927Y-41332295D02*
X161995451Y-41332295D01*
X161995451Y-41332295D02*
X161919260Y-41294200D01*
X161919260Y-41294200D02*
X161881165Y-41256104D01*
X161881165Y-41256104D02*
X161843070Y-41179914D01*
X161843070Y-41179914D02*
X161843070Y-41103723D01*
X161843070Y-41103723D02*
X161881165Y-41027533D01*
X161881165Y-41027533D02*
X161919260Y-40989438D01*
X161919260Y-40989438D02*
X161995451Y-40951342D01*
X161995451Y-40951342D02*
X162147832Y-40913247D01*
X162147832Y-40913247D02*
X162224022Y-40875152D01*
X162224022Y-40875152D02*
X162262117Y-40837057D01*
X162262117Y-40837057D02*
X162300213Y-40760866D01*
X162300213Y-40760866D02*
X162300213Y-40684676D01*
X162300213Y-40684676D02*
X162262117Y-40608485D01*
X162262117Y-40608485D02*
X162224022Y-40570390D01*
X162224022Y-40570390D02*
X162147832Y-40532295D01*
X162147832Y-40532295D02*
X161957355Y-40532295D01*
X161957355Y-40532295D02*
X161843070Y-40570390D01*
X161614498Y-40532295D02*
X161157355Y-40532295D01*
X161385927Y-41332295D02*
X161385927Y-40532295D01*
X162591380Y-36282295D02*
X162858047Y-35901342D01*
X163048523Y-36282295D02*
X163048523Y-35482295D01*
X163048523Y-35482295D02*
X162743761Y-35482295D01*
X162743761Y-35482295D02*
X162667571Y-35520390D01*
X162667571Y-35520390D02*
X162629476Y-35558485D01*
X162629476Y-35558485D02*
X162591380Y-35634676D01*
X162591380Y-35634676D02*
X162591380Y-35748961D01*
X162591380Y-35748961D02*
X162629476Y-35825152D01*
X162629476Y-35825152D02*
X162667571Y-35863247D01*
X162667571Y-35863247D02*
X162743761Y-35901342D01*
X162743761Y-35901342D02*
X163048523Y-35901342D01*
X162286619Y-36053723D02*
X161905666Y-36053723D01*
X162362809Y-36282295D02*
X162096142Y-35482295D01*
X162096142Y-35482295D02*
X161829476Y-36282295D01*
X161639000Y-35482295D02*
X161448524Y-36282295D01*
X161448524Y-36282295D02*
X161296143Y-35710866D01*
X161296143Y-35710866D02*
X161143762Y-36282295D01*
X161143762Y-36282295D02*
X160953286Y-35482295D01*
X162648523Y-38060390D02*
X162724713Y-38022295D01*
X162724713Y-38022295D02*
X162838999Y-38022295D01*
X162838999Y-38022295D02*
X162953285Y-38060390D01*
X162953285Y-38060390D02*
X163029475Y-38136580D01*
X163029475Y-38136580D02*
X163067570Y-38212771D01*
X163067570Y-38212771D02*
X163105666Y-38365152D01*
X163105666Y-38365152D02*
X163105666Y-38479438D01*
X163105666Y-38479438D02*
X163067570Y-38631819D01*
X163067570Y-38631819D02*
X163029475Y-38708009D01*
X163029475Y-38708009D02*
X162953285Y-38784200D01*
X162953285Y-38784200D02*
X162838999Y-38822295D01*
X162838999Y-38822295D02*
X162762808Y-38822295D01*
X162762808Y-38822295D02*
X162648523Y-38784200D01*
X162648523Y-38784200D02*
X162610427Y-38746104D01*
X162610427Y-38746104D02*
X162610427Y-38479438D01*
X162610427Y-38479438D02*
X162762808Y-38479438D01*
X162267570Y-38822295D02*
X162267570Y-38022295D01*
X162267570Y-38022295D02*
X161810427Y-38822295D01*
X161810427Y-38822295D02*
X161810427Y-38022295D01*
X161429475Y-38822295D02*
X161429475Y-38022295D01*
X161429475Y-38022295D02*
X161238999Y-38022295D01*
X161238999Y-38022295D02*
X161124713Y-38060390D01*
X161124713Y-38060390D02*
X161048523Y-38136580D01*
X161048523Y-38136580D02*
X161010428Y-38212771D01*
X161010428Y-38212771D02*
X160972332Y-38365152D01*
X160972332Y-38365152D02*
X160972332Y-38479438D01*
X160972332Y-38479438D02*
X161010428Y-38631819D01*
X161010428Y-38631819D02*
X161048523Y-38708009D01*
X161048523Y-38708009D02*
X161124713Y-38784200D01*
X161124713Y-38784200D02*
X161238999Y-38822295D01*
X161238999Y-38822295D02*
X161429475Y-38822295D01*
X163105666Y-43102295D02*
X162838999Y-43902295D01*
X162838999Y-43902295D02*
X162572333Y-43102295D01*
X161848523Y-43826104D02*
X161886619Y-43864200D01*
X161886619Y-43864200D02*
X162000904Y-43902295D01*
X162000904Y-43902295D02*
X162077095Y-43902295D01*
X162077095Y-43902295D02*
X162191381Y-43864200D01*
X162191381Y-43864200D02*
X162267571Y-43788009D01*
X162267571Y-43788009D02*
X162305666Y-43711819D01*
X162305666Y-43711819D02*
X162343762Y-43559438D01*
X162343762Y-43559438D02*
X162343762Y-43445152D01*
X162343762Y-43445152D02*
X162305666Y-43292771D01*
X162305666Y-43292771D02*
X162267571Y-43216580D01*
X162267571Y-43216580D02*
X162191381Y-43140390D01*
X162191381Y-43140390D02*
X162077095Y-43102295D01*
X162077095Y-43102295D02*
X162000904Y-43102295D01*
X162000904Y-43102295D02*
X161886619Y-43140390D01*
X161886619Y-43140390D02*
X161848523Y-43178485D01*
X161048523Y-43826104D02*
X161086619Y-43864200D01*
X161086619Y-43864200D02*
X161200904Y-43902295D01*
X161200904Y-43902295D02*
X161277095Y-43902295D01*
X161277095Y-43902295D02*
X161391381Y-43864200D01*
X161391381Y-43864200D02*
X161467571Y-43788009D01*
X161467571Y-43788009D02*
X161505666Y-43711819D01*
X161505666Y-43711819D02*
X161543762Y-43559438D01*
X161543762Y-43559438D02*
X161543762Y-43445152D01*
X161543762Y-43445152D02*
X161505666Y-43292771D01*
X161505666Y-43292771D02*
X161467571Y-43216580D01*
X161467571Y-43216580D02*
X161391381Y-43140390D01*
X161391381Y-43140390D02*
X161277095Y-43102295D01*
X161277095Y-43102295D02*
X161200904Y-43102295D01*
X161200904Y-43102295D02*
X161086619Y-43140390D01*
X161086619Y-43140390D02*
X161048523Y-43178485D01*
X162305666Y-46023247D02*
X162572332Y-46023247D01*
X162572332Y-46442295D02*
X162572332Y-45642295D01*
X162572332Y-45642295D02*
X162191380Y-45642295D01*
X161543761Y-45908961D02*
X161543761Y-46442295D01*
X161734237Y-45604200D02*
X161924714Y-46175628D01*
X161924714Y-46175628D02*
X161429475Y-46175628D01*
X162305666Y-48563247D02*
X162572332Y-48563247D01*
X162572332Y-48982295D02*
X162572332Y-48182295D01*
X162572332Y-48182295D02*
X162191380Y-48182295D01*
X161505666Y-48182295D02*
X161886618Y-48182295D01*
X161886618Y-48182295D02*
X161924714Y-48563247D01*
X161924714Y-48563247D02*
X161886618Y-48525152D01*
X161886618Y-48525152D02*
X161810428Y-48487057D01*
X161810428Y-48487057D02*
X161619952Y-48487057D01*
X161619952Y-48487057D02*
X161543761Y-48525152D01*
X161543761Y-48525152D02*
X161505666Y-48563247D01*
X161505666Y-48563247D02*
X161467571Y-48639438D01*
X161467571Y-48639438D02*
X161467571Y-48829914D01*
X161467571Y-48829914D02*
X161505666Y-48906104D01*
X161505666Y-48906104D02*
X161543761Y-48944200D01*
X161543761Y-48944200D02*
X161619952Y-48982295D01*
X161619952Y-48982295D02*
X161810428Y-48982295D01*
X161810428Y-48982295D02*
X161886618Y-48944200D01*
X161886618Y-48944200D02*
X161924714Y-48906104D01*
X162305666Y-51103247D02*
X162572332Y-51103247D01*
X162572332Y-51522295D02*
X162572332Y-50722295D01*
X162572332Y-50722295D02*
X162191380Y-50722295D01*
X161543761Y-50722295D02*
X161696142Y-50722295D01*
X161696142Y-50722295D02*
X161772333Y-50760390D01*
X161772333Y-50760390D02*
X161810428Y-50798485D01*
X161810428Y-50798485D02*
X161886618Y-50912771D01*
X161886618Y-50912771D02*
X161924714Y-51065152D01*
X161924714Y-51065152D02*
X161924714Y-51369914D01*
X161924714Y-51369914D02*
X161886618Y-51446104D01*
X161886618Y-51446104D02*
X161848523Y-51484200D01*
X161848523Y-51484200D02*
X161772333Y-51522295D01*
X161772333Y-51522295D02*
X161619952Y-51522295D01*
X161619952Y-51522295D02*
X161543761Y-51484200D01*
X161543761Y-51484200D02*
X161505666Y-51446104D01*
X161505666Y-51446104D02*
X161467571Y-51369914D01*
X161467571Y-51369914D02*
X161467571Y-51179438D01*
X161467571Y-51179438D02*
X161505666Y-51103247D01*
X161505666Y-51103247D02*
X161543761Y-51065152D01*
X161543761Y-51065152D02*
X161619952Y-51027057D01*
X161619952Y-51027057D02*
X161772333Y-51027057D01*
X161772333Y-51027057D02*
X161848523Y-51065152D01*
X161848523Y-51065152D02*
X161886618Y-51103247D01*
X161886618Y-51103247D02*
X161924714Y-51179438D01*
X162305666Y-53643247D02*
X162572332Y-53643247D01*
X162572332Y-54062295D02*
X162572332Y-53262295D01*
X162572332Y-53262295D02*
X162191380Y-53262295D01*
X161962809Y-53262295D02*
X161429475Y-53262295D01*
X161429475Y-53262295D02*
X161772333Y-54062295D01*
X162362809Y-56183247D02*
X162248523Y-56221342D01*
X162248523Y-56221342D02*
X162210428Y-56259438D01*
X162210428Y-56259438D02*
X162172332Y-56335628D01*
X162172332Y-56335628D02*
X162172332Y-56449914D01*
X162172332Y-56449914D02*
X162210428Y-56526104D01*
X162210428Y-56526104D02*
X162248523Y-56564200D01*
X162248523Y-56564200D02*
X162324713Y-56602295D01*
X162324713Y-56602295D02*
X162629475Y-56602295D01*
X162629475Y-56602295D02*
X162629475Y-55802295D01*
X162629475Y-55802295D02*
X162362809Y-55802295D01*
X162362809Y-55802295D02*
X162286618Y-55840390D01*
X162286618Y-55840390D02*
X162248523Y-55878485D01*
X162248523Y-55878485D02*
X162210428Y-55954676D01*
X162210428Y-55954676D02*
X162210428Y-56030866D01*
X162210428Y-56030866D02*
X162248523Y-56107057D01*
X162248523Y-56107057D02*
X162286618Y-56145152D01*
X162286618Y-56145152D02*
X162362809Y-56183247D01*
X162362809Y-56183247D02*
X162629475Y-56183247D01*
X161410428Y-56602295D02*
X161867571Y-56602295D01*
X161638999Y-56602295D02*
X161638999Y-55802295D01*
X161638999Y-55802295D02*
X161715190Y-55916580D01*
X161715190Y-55916580D02*
X161791380Y-55992771D01*
X161791380Y-55992771D02*
X161867571Y-56030866D01*
X162362809Y-58723247D02*
X162248523Y-58761342D01*
X162248523Y-58761342D02*
X162210428Y-58799438D01*
X162210428Y-58799438D02*
X162172332Y-58875628D01*
X162172332Y-58875628D02*
X162172332Y-58989914D01*
X162172332Y-58989914D02*
X162210428Y-59066104D01*
X162210428Y-59066104D02*
X162248523Y-59104200D01*
X162248523Y-59104200D02*
X162324713Y-59142295D01*
X162324713Y-59142295D02*
X162629475Y-59142295D01*
X162629475Y-59142295D02*
X162629475Y-58342295D01*
X162629475Y-58342295D02*
X162362809Y-58342295D01*
X162362809Y-58342295D02*
X162286618Y-58380390D01*
X162286618Y-58380390D02*
X162248523Y-58418485D01*
X162248523Y-58418485D02*
X162210428Y-58494676D01*
X162210428Y-58494676D02*
X162210428Y-58570866D01*
X162210428Y-58570866D02*
X162248523Y-58647057D01*
X162248523Y-58647057D02*
X162286618Y-58685152D01*
X162286618Y-58685152D02*
X162362809Y-58723247D01*
X162362809Y-58723247D02*
X162629475Y-58723247D01*
X161905666Y-58342295D02*
X161410428Y-58342295D01*
X161410428Y-58342295D02*
X161677094Y-58647057D01*
X161677094Y-58647057D02*
X161562809Y-58647057D01*
X161562809Y-58647057D02*
X161486618Y-58685152D01*
X161486618Y-58685152D02*
X161448523Y-58723247D01*
X161448523Y-58723247D02*
X161410428Y-58799438D01*
X161410428Y-58799438D02*
X161410428Y-58989914D01*
X161410428Y-58989914D02*
X161448523Y-59066104D01*
X161448523Y-59066104D02*
X161486618Y-59104200D01*
X161486618Y-59104200D02*
X161562809Y-59142295D01*
X161562809Y-59142295D02*
X161791380Y-59142295D01*
X161791380Y-59142295D02*
X161867571Y-59104200D01*
X161867571Y-59104200D02*
X161905666Y-59066104D01*
X162362809Y-61263247D02*
X162248523Y-61301342D01*
X162248523Y-61301342D02*
X162210428Y-61339438D01*
X162210428Y-61339438D02*
X162172332Y-61415628D01*
X162172332Y-61415628D02*
X162172332Y-61529914D01*
X162172332Y-61529914D02*
X162210428Y-61606104D01*
X162210428Y-61606104D02*
X162248523Y-61644200D01*
X162248523Y-61644200D02*
X162324713Y-61682295D01*
X162324713Y-61682295D02*
X162629475Y-61682295D01*
X162629475Y-61682295D02*
X162629475Y-60882295D01*
X162629475Y-60882295D02*
X162362809Y-60882295D01*
X162362809Y-60882295D02*
X162286618Y-60920390D01*
X162286618Y-60920390D02*
X162248523Y-60958485D01*
X162248523Y-60958485D02*
X162210428Y-61034676D01*
X162210428Y-61034676D02*
X162210428Y-61110866D01*
X162210428Y-61110866D02*
X162248523Y-61187057D01*
X162248523Y-61187057D02*
X162286618Y-61225152D01*
X162286618Y-61225152D02*
X162362809Y-61263247D01*
X162362809Y-61263247D02*
X162629475Y-61263247D01*
X161867571Y-60958485D02*
X161829475Y-60920390D01*
X161829475Y-60920390D02*
X161753285Y-60882295D01*
X161753285Y-60882295D02*
X161562809Y-60882295D01*
X161562809Y-60882295D02*
X161486618Y-60920390D01*
X161486618Y-60920390D02*
X161448523Y-60958485D01*
X161448523Y-60958485D02*
X161410428Y-61034676D01*
X161410428Y-61034676D02*
X161410428Y-61110866D01*
X161410428Y-61110866D02*
X161448523Y-61225152D01*
X161448523Y-61225152D02*
X161905666Y-61682295D01*
X161905666Y-61682295D02*
X161410428Y-61682295D01*
X162362809Y-63803247D02*
X162248523Y-63841342D01*
X162248523Y-63841342D02*
X162210428Y-63879438D01*
X162210428Y-63879438D02*
X162172332Y-63955628D01*
X162172332Y-63955628D02*
X162172332Y-64069914D01*
X162172332Y-64069914D02*
X162210428Y-64146104D01*
X162210428Y-64146104D02*
X162248523Y-64184200D01*
X162248523Y-64184200D02*
X162324713Y-64222295D01*
X162324713Y-64222295D02*
X162629475Y-64222295D01*
X162629475Y-64222295D02*
X162629475Y-63422295D01*
X162629475Y-63422295D02*
X162362809Y-63422295D01*
X162362809Y-63422295D02*
X162286618Y-63460390D01*
X162286618Y-63460390D02*
X162248523Y-63498485D01*
X162248523Y-63498485D02*
X162210428Y-63574676D01*
X162210428Y-63574676D02*
X162210428Y-63650866D01*
X162210428Y-63650866D02*
X162248523Y-63727057D01*
X162248523Y-63727057D02*
X162286618Y-63765152D01*
X162286618Y-63765152D02*
X162362809Y-63803247D01*
X162362809Y-63803247D02*
X162629475Y-63803247D01*
X161486618Y-63422295D02*
X161638999Y-63422295D01*
X161638999Y-63422295D02*
X161715190Y-63460390D01*
X161715190Y-63460390D02*
X161753285Y-63498485D01*
X161753285Y-63498485D02*
X161829475Y-63612771D01*
X161829475Y-63612771D02*
X161867571Y-63765152D01*
X161867571Y-63765152D02*
X161867571Y-64069914D01*
X161867571Y-64069914D02*
X161829475Y-64146104D01*
X161829475Y-64146104D02*
X161791380Y-64184200D01*
X161791380Y-64184200D02*
X161715190Y-64222295D01*
X161715190Y-64222295D02*
X161562809Y-64222295D01*
X161562809Y-64222295D02*
X161486618Y-64184200D01*
X161486618Y-64184200D02*
X161448523Y-64146104D01*
X161448523Y-64146104D02*
X161410428Y-64069914D01*
X161410428Y-64069914D02*
X161410428Y-63879438D01*
X161410428Y-63879438D02*
X161448523Y-63803247D01*
X161448523Y-63803247D02*
X161486618Y-63765152D01*
X161486618Y-63765152D02*
X161562809Y-63727057D01*
X161562809Y-63727057D02*
X161715190Y-63727057D01*
X161715190Y-63727057D02*
X161791380Y-63765152D01*
X161791380Y-63765152D02*
X161829475Y-63803247D01*
X161829475Y-63803247D02*
X161867571Y-63879438D01*
X173262348Y-35482295D02*
X172805205Y-35482295D01*
X173033777Y-36282295D02*
X173033777Y-35482295D01*
X172614729Y-35482295D02*
X172081395Y-36282295D01*
X172081395Y-35482295D02*
X172614729Y-36282295D01*
X171624252Y-35482295D02*
X171548062Y-35482295D01*
X171548062Y-35482295D02*
X171471871Y-35520390D01*
X171471871Y-35520390D02*
X171433776Y-35558485D01*
X171433776Y-35558485D02*
X171395681Y-35634676D01*
X171395681Y-35634676D02*
X171357586Y-35787057D01*
X171357586Y-35787057D02*
X171357586Y-35977533D01*
X171357586Y-35977533D02*
X171395681Y-36129914D01*
X171395681Y-36129914D02*
X171433776Y-36206104D01*
X171433776Y-36206104D02*
X171471871Y-36244200D01*
X171471871Y-36244200D02*
X171548062Y-36282295D01*
X171548062Y-36282295D02*
X171624252Y-36282295D01*
X171624252Y-36282295D02*
X171700443Y-36244200D01*
X171700443Y-36244200D02*
X171738538Y-36206104D01*
X171738538Y-36206104D02*
X171776633Y-36129914D01*
X171776633Y-36129914D02*
X171814729Y-35977533D01*
X171814729Y-35977533D02*
X171814729Y-35787057D01*
X171814729Y-35787057D02*
X171776633Y-35634676D01*
X171776633Y-35634676D02*
X171738538Y-35558485D01*
X171738538Y-35558485D02*
X171700443Y-35520390D01*
X171700443Y-35520390D02*
X171624252Y-35482295D01*
X170443300Y-35444200D02*
X171129014Y-36472771D01*
X170176633Y-36282295D02*
X170176633Y-35482295D01*
X170176633Y-35482295D02*
X169986157Y-35482295D01*
X169986157Y-35482295D02*
X169871871Y-35520390D01*
X169871871Y-35520390D02*
X169795681Y-35596580D01*
X169795681Y-35596580D02*
X169757586Y-35672771D01*
X169757586Y-35672771D02*
X169719490Y-35825152D01*
X169719490Y-35825152D02*
X169719490Y-35939438D01*
X169719490Y-35939438D02*
X169757586Y-36091819D01*
X169757586Y-36091819D02*
X169795681Y-36168009D01*
X169795681Y-36168009D02*
X169871871Y-36244200D01*
X169871871Y-36244200D02*
X169986157Y-36282295D01*
X169986157Y-36282295D02*
X170176633Y-36282295D01*
X169452824Y-35482295D02*
X168957586Y-35482295D01*
X168957586Y-35482295D02*
X169224252Y-35787057D01*
X169224252Y-35787057D02*
X169109967Y-35787057D01*
X169109967Y-35787057D02*
X169033776Y-35825152D01*
X169033776Y-35825152D02*
X168995681Y-35863247D01*
X168995681Y-35863247D02*
X168957586Y-35939438D01*
X168957586Y-35939438D02*
X168957586Y-36129914D01*
X168957586Y-36129914D02*
X168995681Y-36206104D01*
X168995681Y-36206104D02*
X169033776Y-36244200D01*
X169033776Y-36244200D02*
X169109967Y-36282295D01*
X169109967Y-36282295D02*
X169338538Y-36282295D01*
X169338538Y-36282295D02*
X169414729Y-36244200D01*
X169414729Y-36244200D02*
X169452824Y-36206104D01*
X173551475Y-38822295D02*
X173551475Y-38022295D01*
X173551475Y-38022295D02*
X173360999Y-38022295D01*
X173360999Y-38022295D02*
X173246713Y-38060390D01*
X173246713Y-38060390D02*
X173170523Y-38136580D01*
X173170523Y-38136580D02*
X173132428Y-38212771D01*
X173132428Y-38212771D02*
X173094332Y-38365152D01*
X173094332Y-38365152D02*
X173094332Y-38479438D01*
X173094332Y-38479438D02*
X173132428Y-38631819D01*
X173132428Y-38631819D02*
X173170523Y-38708009D01*
X173170523Y-38708009D02*
X173246713Y-38784200D01*
X173246713Y-38784200D02*
X173360999Y-38822295D01*
X173360999Y-38822295D02*
X173551475Y-38822295D01*
X172789571Y-38098485D02*
X172751475Y-38060390D01*
X172751475Y-38060390D02*
X172675285Y-38022295D01*
X172675285Y-38022295D02*
X172484809Y-38022295D01*
X172484809Y-38022295D02*
X172408618Y-38060390D01*
X172408618Y-38060390D02*
X172370523Y-38098485D01*
X172370523Y-38098485D02*
X172332428Y-38174676D01*
X172332428Y-38174676D02*
X172332428Y-38250866D01*
X172332428Y-38250866D02*
X172370523Y-38365152D01*
X172370523Y-38365152D02*
X172827666Y-38822295D01*
X172827666Y-38822295D02*
X172332428Y-38822295D01*
X173570523Y-40600390D02*
X173646713Y-40562295D01*
X173646713Y-40562295D02*
X173760999Y-40562295D01*
X173760999Y-40562295D02*
X173875285Y-40600390D01*
X173875285Y-40600390D02*
X173951475Y-40676580D01*
X173951475Y-40676580D02*
X173989570Y-40752771D01*
X173989570Y-40752771D02*
X174027666Y-40905152D01*
X174027666Y-40905152D02*
X174027666Y-41019438D01*
X174027666Y-41019438D02*
X173989570Y-41171819D01*
X173989570Y-41171819D02*
X173951475Y-41248009D01*
X173951475Y-41248009D02*
X173875285Y-41324200D01*
X173875285Y-41324200D02*
X173760999Y-41362295D01*
X173760999Y-41362295D02*
X173684808Y-41362295D01*
X173684808Y-41362295D02*
X173570523Y-41324200D01*
X173570523Y-41324200D02*
X173532427Y-41286104D01*
X173532427Y-41286104D02*
X173532427Y-41019438D01*
X173532427Y-41019438D02*
X173684808Y-41019438D01*
X173189570Y-41362295D02*
X173189570Y-40562295D01*
X173189570Y-40562295D02*
X172732427Y-41362295D01*
X172732427Y-41362295D02*
X172732427Y-40562295D01*
X172351475Y-41362295D02*
X172351475Y-40562295D01*
X172351475Y-40562295D02*
X172160999Y-40562295D01*
X172160999Y-40562295D02*
X172046713Y-40600390D01*
X172046713Y-40600390D02*
X171970523Y-40676580D01*
X171970523Y-40676580D02*
X171932428Y-40752771D01*
X171932428Y-40752771D02*
X171894332Y-40905152D01*
X171894332Y-40905152D02*
X171894332Y-41019438D01*
X171894332Y-41019438D02*
X171932428Y-41171819D01*
X171932428Y-41171819D02*
X171970523Y-41248009D01*
X171970523Y-41248009D02*
X172046713Y-41324200D01*
X172046713Y-41324200D02*
X172160999Y-41362295D01*
X172160999Y-41362295D02*
X172351475Y-41362295D01*
X173570523Y-43140390D02*
X173646713Y-43102295D01*
X173646713Y-43102295D02*
X173760999Y-43102295D01*
X173760999Y-43102295D02*
X173875285Y-43140390D01*
X173875285Y-43140390D02*
X173951475Y-43216580D01*
X173951475Y-43216580D02*
X173989570Y-43292771D01*
X173989570Y-43292771D02*
X174027666Y-43445152D01*
X174027666Y-43445152D02*
X174027666Y-43559438D01*
X174027666Y-43559438D02*
X173989570Y-43711819D01*
X173989570Y-43711819D02*
X173951475Y-43788009D01*
X173951475Y-43788009D02*
X173875285Y-43864200D01*
X173875285Y-43864200D02*
X173760999Y-43902295D01*
X173760999Y-43902295D02*
X173684808Y-43902295D01*
X173684808Y-43902295D02*
X173570523Y-43864200D01*
X173570523Y-43864200D02*
X173532427Y-43826104D01*
X173532427Y-43826104D02*
X173532427Y-43559438D01*
X173532427Y-43559438D02*
X173684808Y-43559438D01*
X173189570Y-43902295D02*
X173189570Y-43102295D01*
X173189570Y-43102295D02*
X172732427Y-43902295D01*
X172732427Y-43902295D02*
X172732427Y-43102295D01*
X172351475Y-43902295D02*
X172351475Y-43102295D01*
X172351475Y-43102295D02*
X172160999Y-43102295D01*
X172160999Y-43102295D02*
X172046713Y-43140390D01*
X172046713Y-43140390D02*
X171970523Y-43216580D01*
X171970523Y-43216580D02*
X171932428Y-43292771D01*
X171932428Y-43292771D02*
X171894332Y-43445152D01*
X171894332Y-43445152D02*
X171894332Y-43559438D01*
X171894332Y-43559438D02*
X171932428Y-43711819D01*
X171932428Y-43711819D02*
X171970523Y-43788009D01*
X171970523Y-43788009D02*
X172046713Y-43864200D01*
X172046713Y-43864200D02*
X172160999Y-43902295D01*
X172160999Y-43902295D02*
X172351475Y-43902295D01*
X173551475Y-46442295D02*
X173551475Y-45642295D01*
X173551475Y-45642295D02*
X173360999Y-45642295D01*
X173360999Y-45642295D02*
X173246713Y-45680390D01*
X173246713Y-45680390D02*
X173170523Y-45756580D01*
X173170523Y-45756580D02*
X173132428Y-45832771D01*
X173132428Y-45832771D02*
X173094332Y-45985152D01*
X173094332Y-45985152D02*
X173094332Y-46099438D01*
X173094332Y-46099438D02*
X173132428Y-46251819D01*
X173132428Y-46251819D02*
X173170523Y-46328009D01*
X173170523Y-46328009D02*
X173246713Y-46404200D01*
X173246713Y-46404200D02*
X173360999Y-46442295D01*
X173360999Y-46442295D02*
X173551475Y-46442295D01*
X172332428Y-46442295D02*
X172789571Y-46442295D01*
X172560999Y-46442295D02*
X172560999Y-45642295D01*
X172560999Y-45642295D02*
X172637190Y-45756580D01*
X172637190Y-45756580D02*
X172713380Y-45832771D01*
X172713380Y-45832771D02*
X172789571Y-45870866D01*
X173551475Y-48982295D02*
X173551475Y-48182295D01*
X173551475Y-48182295D02*
X173360999Y-48182295D01*
X173360999Y-48182295D02*
X173246713Y-48220390D01*
X173246713Y-48220390D02*
X173170523Y-48296580D01*
X173170523Y-48296580D02*
X173132428Y-48372771D01*
X173132428Y-48372771D02*
X173094332Y-48525152D01*
X173094332Y-48525152D02*
X173094332Y-48639438D01*
X173094332Y-48639438D02*
X173132428Y-48791819D01*
X173132428Y-48791819D02*
X173170523Y-48868009D01*
X173170523Y-48868009D02*
X173246713Y-48944200D01*
X173246713Y-48944200D02*
X173360999Y-48982295D01*
X173360999Y-48982295D02*
X173551475Y-48982295D01*
X172599094Y-48182295D02*
X172522904Y-48182295D01*
X172522904Y-48182295D02*
X172446713Y-48220390D01*
X172446713Y-48220390D02*
X172408618Y-48258485D01*
X172408618Y-48258485D02*
X172370523Y-48334676D01*
X172370523Y-48334676D02*
X172332428Y-48487057D01*
X172332428Y-48487057D02*
X172332428Y-48677533D01*
X172332428Y-48677533D02*
X172370523Y-48829914D01*
X172370523Y-48829914D02*
X172408618Y-48906104D01*
X172408618Y-48906104D02*
X172446713Y-48944200D01*
X172446713Y-48944200D02*
X172522904Y-48982295D01*
X172522904Y-48982295D02*
X172599094Y-48982295D01*
X172599094Y-48982295D02*
X172675285Y-48944200D01*
X172675285Y-48944200D02*
X172713380Y-48906104D01*
X172713380Y-48906104D02*
X172751475Y-48829914D01*
X172751475Y-48829914D02*
X172789571Y-48677533D01*
X172789571Y-48677533D02*
X172789571Y-48487057D01*
X172789571Y-48487057D02*
X172751475Y-48334676D01*
X172751475Y-48334676D02*
X172713380Y-48258485D01*
X172713380Y-48258485D02*
X172675285Y-48220390D01*
X172675285Y-48220390D02*
X172599094Y-48182295D01*
X173551475Y-51522295D02*
X173551475Y-50722295D01*
X173551475Y-50722295D02*
X173360999Y-50722295D01*
X173360999Y-50722295D02*
X173246713Y-50760390D01*
X173246713Y-50760390D02*
X173170523Y-50836580D01*
X173170523Y-50836580D02*
X173132428Y-50912771D01*
X173132428Y-50912771D02*
X173094332Y-51065152D01*
X173094332Y-51065152D02*
X173094332Y-51179438D01*
X173094332Y-51179438D02*
X173132428Y-51331819D01*
X173132428Y-51331819D02*
X173170523Y-51408009D01*
X173170523Y-51408009D02*
X173246713Y-51484200D01*
X173246713Y-51484200D02*
X173360999Y-51522295D01*
X173360999Y-51522295D02*
X173551475Y-51522295D01*
X172408618Y-50988961D02*
X172408618Y-51522295D01*
X172599094Y-50684200D02*
X172789571Y-51255628D01*
X172789571Y-51255628D02*
X172294332Y-51255628D01*
X173094332Y-53986104D02*
X173132428Y-54024200D01*
X173132428Y-54024200D02*
X173246713Y-54062295D01*
X173246713Y-54062295D02*
X173322904Y-54062295D01*
X173322904Y-54062295D02*
X173437190Y-54024200D01*
X173437190Y-54024200D02*
X173513380Y-53948009D01*
X173513380Y-53948009D02*
X173551475Y-53871819D01*
X173551475Y-53871819D02*
X173589571Y-53719438D01*
X173589571Y-53719438D02*
X173589571Y-53605152D01*
X173589571Y-53605152D02*
X173551475Y-53452771D01*
X173551475Y-53452771D02*
X173513380Y-53376580D01*
X173513380Y-53376580D02*
X173437190Y-53300390D01*
X173437190Y-53300390D02*
X173322904Y-53262295D01*
X173322904Y-53262295D02*
X173246713Y-53262295D01*
X173246713Y-53262295D02*
X173132428Y-53300390D01*
X173132428Y-53300390D02*
X173094332Y-53338485D01*
X172408618Y-53262295D02*
X172560999Y-53262295D01*
X172560999Y-53262295D02*
X172637190Y-53300390D01*
X172637190Y-53300390D02*
X172675285Y-53338485D01*
X172675285Y-53338485D02*
X172751475Y-53452771D01*
X172751475Y-53452771D02*
X172789571Y-53605152D01*
X172789571Y-53605152D02*
X172789571Y-53909914D01*
X172789571Y-53909914D02*
X172751475Y-53986104D01*
X172751475Y-53986104D02*
X172713380Y-54024200D01*
X172713380Y-54024200D02*
X172637190Y-54062295D01*
X172637190Y-54062295D02*
X172484809Y-54062295D01*
X172484809Y-54062295D02*
X172408618Y-54024200D01*
X172408618Y-54024200D02*
X172370523Y-53986104D01*
X172370523Y-53986104D02*
X172332428Y-53909914D01*
X172332428Y-53909914D02*
X172332428Y-53719438D01*
X172332428Y-53719438D02*
X172370523Y-53643247D01*
X172370523Y-53643247D02*
X172408618Y-53605152D01*
X172408618Y-53605152D02*
X172484809Y-53567057D01*
X172484809Y-53567057D02*
X172637190Y-53567057D01*
X172637190Y-53567057D02*
X172713380Y-53605152D01*
X172713380Y-53605152D02*
X172751475Y-53643247D01*
X172751475Y-53643247D02*
X172789571Y-53719438D01*
X173551475Y-56602295D02*
X173551475Y-55802295D01*
X173551475Y-55802295D02*
X173360999Y-55802295D01*
X173360999Y-55802295D02*
X173246713Y-55840390D01*
X173246713Y-55840390D02*
X173170523Y-55916580D01*
X173170523Y-55916580D02*
X173132428Y-55992771D01*
X173132428Y-55992771D02*
X173094332Y-56145152D01*
X173094332Y-56145152D02*
X173094332Y-56259438D01*
X173094332Y-56259438D02*
X173132428Y-56411819D01*
X173132428Y-56411819D02*
X173170523Y-56488009D01*
X173170523Y-56488009D02*
X173246713Y-56564200D01*
X173246713Y-56564200D02*
X173360999Y-56602295D01*
X173360999Y-56602295D02*
X173551475Y-56602295D01*
X172827666Y-55802295D02*
X172294332Y-55802295D01*
X172294332Y-55802295D02*
X172637190Y-56602295D01*
X173513380Y-58723247D02*
X173246714Y-58723247D01*
X173132428Y-59142295D02*
X173513380Y-59142295D01*
X173513380Y-59142295D02*
X173513380Y-58342295D01*
X173513380Y-58342295D02*
X173132428Y-58342295D01*
X172446713Y-58342295D02*
X172599094Y-58342295D01*
X172599094Y-58342295D02*
X172675285Y-58380390D01*
X172675285Y-58380390D02*
X172713380Y-58418485D01*
X172713380Y-58418485D02*
X172789570Y-58532771D01*
X172789570Y-58532771D02*
X172827666Y-58685152D01*
X172827666Y-58685152D02*
X172827666Y-58989914D01*
X172827666Y-58989914D02*
X172789570Y-59066104D01*
X172789570Y-59066104D02*
X172751475Y-59104200D01*
X172751475Y-59104200D02*
X172675285Y-59142295D01*
X172675285Y-59142295D02*
X172522904Y-59142295D01*
X172522904Y-59142295D02*
X172446713Y-59104200D01*
X172446713Y-59104200D02*
X172408618Y-59066104D01*
X172408618Y-59066104D02*
X172370523Y-58989914D01*
X172370523Y-58989914D02*
X172370523Y-58799438D01*
X172370523Y-58799438D02*
X172408618Y-58723247D01*
X172408618Y-58723247D02*
X172446713Y-58685152D01*
X172446713Y-58685152D02*
X172522904Y-58647057D01*
X172522904Y-58647057D02*
X172675285Y-58647057D01*
X172675285Y-58647057D02*
X172751475Y-58685152D01*
X172751475Y-58685152D02*
X172789570Y-58723247D01*
X172789570Y-58723247D02*
X172827666Y-58799438D01*
X173284809Y-61263247D02*
X173170523Y-61301342D01*
X173170523Y-61301342D02*
X173132428Y-61339438D01*
X173132428Y-61339438D02*
X173094332Y-61415628D01*
X173094332Y-61415628D02*
X173094332Y-61529914D01*
X173094332Y-61529914D02*
X173132428Y-61606104D01*
X173132428Y-61606104D02*
X173170523Y-61644200D01*
X173170523Y-61644200D02*
X173246713Y-61682295D01*
X173246713Y-61682295D02*
X173551475Y-61682295D01*
X173551475Y-61682295D02*
X173551475Y-60882295D01*
X173551475Y-60882295D02*
X173284809Y-60882295D01*
X173284809Y-60882295D02*
X173208618Y-60920390D01*
X173208618Y-60920390D02*
X173170523Y-60958485D01*
X173170523Y-60958485D02*
X173132428Y-61034676D01*
X173132428Y-61034676D02*
X173132428Y-61110866D01*
X173132428Y-61110866D02*
X173170523Y-61187057D01*
X173170523Y-61187057D02*
X173208618Y-61225152D01*
X173208618Y-61225152D02*
X173284809Y-61263247D01*
X173284809Y-61263247D02*
X173551475Y-61263247D01*
X172408618Y-61148961D02*
X172408618Y-61682295D01*
X172599094Y-60844200D02*
X172789571Y-61415628D01*
X172789571Y-61415628D02*
X172294332Y-61415628D01*
X173284809Y-63803247D02*
X173170523Y-63841342D01*
X173170523Y-63841342D02*
X173132428Y-63879438D01*
X173132428Y-63879438D02*
X173094332Y-63955628D01*
X173094332Y-63955628D02*
X173094332Y-64069914D01*
X173094332Y-64069914D02*
X173132428Y-64146104D01*
X173132428Y-64146104D02*
X173170523Y-64184200D01*
X173170523Y-64184200D02*
X173246713Y-64222295D01*
X173246713Y-64222295D02*
X173551475Y-64222295D01*
X173551475Y-64222295D02*
X173551475Y-63422295D01*
X173551475Y-63422295D02*
X173284809Y-63422295D01*
X173284809Y-63422295D02*
X173208618Y-63460390D01*
X173208618Y-63460390D02*
X173170523Y-63498485D01*
X173170523Y-63498485D02*
X173132428Y-63574676D01*
X173132428Y-63574676D02*
X173132428Y-63650866D01*
X173132428Y-63650866D02*
X173170523Y-63727057D01*
X173170523Y-63727057D02*
X173208618Y-63765152D01*
X173208618Y-63765152D02*
X173284809Y-63803247D01*
X173284809Y-63803247D02*
X173551475Y-63803247D01*
X172370523Y-63422295D02*
X172751475Y-63422295D01*
X172751475Y-63422295D02*
X172789571Y-63803247D01*
X172789571Y-63803247D02*
X172751475Y-63765152D01*
X172751475Y-63765152D02*
X172675285Y-63727057D01*
X172675285Y-63727057D02*
X172484809Y-63727057D01*
X172484809Y-63727057D02*
X172408618Y-63765152D01*
X172408618Y-63765152D02*
X172370523Y-63803247D01*
X172370523Y-63803247D02*
X172332428Y-63879438D01*
X172332428Y-63879438D02*
X172332428Y-64069914D01*
X172332428Y-64069914D02*
X172370523Y-64146104D01*
X172370523Y-64146104D02*
X172408618Y-64184200D01*
X172408618Y-64184200D02*
X172484809Y-64222295D01*
X172484809Y-64222295D02*
X172675285Y-64222295D01*
X172675285Y-64222295D02*
X172751475Y-64184200D01*
X172751475Y-64184200D02*
X172789571Y-64146104D01*
G04 #@! TO.C,S9*
D11*
X83309000Y-50878500D02*
X84246000Y-49941500D01*
X84246000Y-49941500D02*
X86993000Y-49941500D01*
X84246000Y-54733500D02*
X83225000Y-53712500D01*
X86893000Y-54733500D02*
X84246000Y-54733500D01*
X86993000Y-49941500D02*
X87396000Y-50021500D01*
X87396000Y-50021500D02*
X87738000Y-50250500D01*
X87455000Y-54838500D02*
X86893000Y-54733500D01*
X87738000Y-50250500D02*
X88271000Y-50783500D01*
X87934000Y-55137500D02*
X87455000Y-54838500D01*
X88271000Y-50783500D02*
X88271000Y-51005500D01*
X88271000Y-51005500D02*
X88358000Y-51443500D01*
X88272000Y-55590500D02*
X87934000Y-55137500D01*
X88358000Y-51443500D02*
X88602000Y-51810500D01*
X88426000Y-56148500D02*
X88272000Y-55590500D01*
X88508000Y-56446500D02*
X88426000Y-56148500D01*
X88602000Y-51810500D02*
X88969000Y-52054500D01*
X88701000Y-56704500D02*
X88508000Y-56446500D01*
X88969000Y-52054500D02*
X89407000Y-52141500D01*
X88975000Y-56874500D02*
X88701000Y-56704500D01*
X89285000Y-56933500D02*
X88975000Y-56874500D01*
X89407000Y-52141500D02*
X92207000Y-52141500D01*
X92207000Y-52141500D02*
X92534000Y-52206500D01*
X92534000Y-52206500D02*
X92817000Y-52395500D01*
X92817000Y-52395500D02*
X93006000Y-52678500D01*
X93006000Y-52678500D02*
X93091000Y-53105500D01*
X93008000Y-55991500D02*
X93371000Y-55991500D01*
X93371000Y-55991500D02*
X93371000Y-56933500D01*
X93371000Y-56933500D02*
X89285000Y-56933500D01*
G04 #@! TO.C,S16*
X102359000Y-62278500D02*
X103296000Y-61341500D01*
X103296000Y-61341500D02*
X106043000Y-61341500D01*
X103296000Y-66133500D02*
X102275000Y-65112500D01*
X105943000Y-66133500D02*
X103296000Y-66133500D01*
X106043000Y-61341500D02*
X106446000Y-61421500D01*
X106446000Y-61421500D02*
X106788000Y-61650500D01*
X106505000Y-66238500D02*
X105943000Y-66133500D01*
X106788000Y-61650500D02*
X107321000Y-62183500D01*
X106984000Y-66537500D02*
X106505000Y-66238500D01*
X107321000Y-62183500D02*
X107321000Y-62405500D01*
X107321000Y-62405500D02*
X107408000Y-62843500D01*
X107322000Y-66990500D02*
X106984000Y-66537500D01*
X107408000Y-62843500D02*
X107652000Y-63210500D01*
X107476000Y-67548500D02*
X107322000Y-66990500D01*
X107558000Y-67846500D02*
X107476000Y-67548500D01*
X107652000Y-63210500D02*
X108019000Y-63454500D01*
X107751000Y-68104500D02*
X107558000Y-67846500D01*
X108019000Y-63454500D02*
X108457000Y-63541500D01*
X108025000Y-68274500D02*
X107751000Y-68104500D01*
X108335000Y-68333500D02*
X108025000Y-68274500D01*
X108457000Y-63541500D02*
X111257000Y-63541500D01*
X111257000Y-63541500D02*
X111584000Y-63606500D01*
X111584000Y-63606500D02*
X111867000Y-63795500D01*
X111867000Y-63795500D02*
X112056000Y-64078500D01*
X112056000Y-64078500D02*
X112141000Y-64505500D01*
X112058000Y-67391500D02*
X112421000Y-67391500D01*
X112421000Y-67391500D02*
X112421000Y-68333500D01*
X112421000Y-68333500D02*
X108335000Y-68333500D01*
G04 #@! TO.C,S20*
X121409000Y-90853500D02*
X122346000Y-89916500D01*
X122346000Y-89916500D02*
X125093000Y-89916500D01*
X122346000Y-94708500D02*
X121325000Y-93687500D01*
X124993000Y-94708500D02*
X122346000Y-94708500D01*
X125093000Y-89916500D02*
X125496000Y-89996500D01*
X125496000Y-89996500D02*
X125838000Y-90225500D01*
X125555000Y-94813500D02*
X124993000Y-94708500D01*
X125838000Y-90225500D02*
X126371000Y-90758500D01*
X126034000Y-95112500D02*
X125555000Y-94813500D01*
X126371000Y-90758500D02*
X126371000Y-90980500D01*
X126371000Y-90980500D02*
X126458000Y-91418500D01*
X126372000Y-95565500D02*
X126034000Y-95112500D01*
X126458000Y-91418500D02*
X126702000Y-91785500D01*
X126526000Y-96123500D02*
X126372000Y-95565500D01*
X126608000Y-96421500D02*
X126526000Y-96123500D01*
X126702000Y-91785500D02*
X127069000Y-92029500D01*
X126801000Y-96679500D02*
X126608000Y-96421500D01*
X127069000Y-92029500D02*
X127507000Y-92116500D01*
X127075000Y-96849500D02*
X126801000Y-96679500D01*
X127385000Y-96908500D02*
X127075000Y-96849500D01*
X127507000Y-92116500D02*
X130307000Y-92116500D01*
X130307000Y-92116500D02*
X130634000Y-92181500D01*
X130634000Y-92181500D02*
X130917000Y-92370500D01*
X130917000Y-92370500D02*
X131106000Y-92653500D01*
X131106000Y-92653500D02*
X131191000Y-93080500D01*
X131108000Y-95966500D02*
X131471000Y-95966500D01*
X131471000Y-95966500D02*
X131471000Y-96908500D01*
X131471000Y-96908500D02*
X127385000Y-96908500D01*
G04 #@! TO.C,S5*
X121409000Y-28941000D02*
X122346000Y-28004000D01*
X122346000Y-28004000D02*
X125093000Y-28004000D01*
X122346000Y-32796000D02*
X121325000Y-31775000D01*
X124993000Y-32796000D02*
X122346000Y-32796000D01*
X125093000Y-28004000D02*
X125496000Y-28084000D01*
X125496000Y-28084000D02*
X125838000Y-28313000D01*
X125555000Y-32901000D02*
X124993000Y-32796000D01*
X125838000Y-28313000D02*
X126371000Y-28846000D01*
X126034000Y-33200000D02*
X125555000Y-32901000D01*
X126371000Y-28846000D02*
X126371000Y-29068000D01*
X126371000Y-29068000D02*
X126458000Y-29506000D01*
X126372000Y-33653000D02*
X126034000Y-33200000D01*
X126458000Y-29506000D02*
X126702000Y-29873000D01*
X126526000Y-34211000D02*
X126372000Y-33653000D01*
X126608000Y-34509000D02*
X126526000Y-34211000D01*
X126702000Y-29873000D02*
X127069000Y-30117000D01*
X126801000Y-34767000D02*
X126608000Y-34509000D01*
X127069000Y-30117000D02*
X127507000Y-30204000D01*
X127075000Y-34937000D02*
X126801000Y-34767000D01*
X127385000Y-34996000D02*
X127075000Y-34937000D01*
X127507000Y-30204000D02*
X130307000Y-30204000D01*
X130307000Y-30204000D02*
X130634000Y-30269000D01*
X130634000Y-30269000D02*
X130917000Y-30458000D01*
X130917000Y-30458000D02*
X131106000Y-30741000D01*
X131106000Y-30741000D02*
X131191000Y-31168000D01*
X131108000Y-34054000D02*
X131471000Y-34054000D01*
X131471000Y-34054000D02*
X131471000Y-34996000D01*
X131471000Y-34996000D02*
X127385000Y-34996000D01*
G04 #@! TO.C,S7*
X45209000Y-64028500D02*
X46146000Y-63091500D01*
X46146000Y-63091500D02*
X48893000Y-63091500D01*
X46146000Y-67883500D02*
X45125000Y-66862500D01*
X48793000Y-67883500D02*
X46146000Y-67883500D01*
X48893000Y-63091500D02*
X49296000Y-63171500D01*
X49296000Y-63171500D02*
X49638000Y-63400500D01*
X49355000Y-67988500D02*
X48793000Y-67883500D01*
X49638000Y-63400500D02*
X50171000Y-63933500D01*
X49834000Y-68287500D02*
X49355000Y-67988500D01*
X50171000Y-63933500D02*
X50171000Y-64155500D01*
X50171000Y-64155500D02*
X50258000Y-64593500D01*
X50172000Y-68740500D02*
X49834000Y-68287500D01*
X50258000Y-64593500D02*
X50502000Y-64960500D01*
X50326000Y-69298500D02*
X50172000Y-68740500D01*
X50408000Y-69596500D02*
X50326000Y-69298500D01*
X50502000Y-64960500D02*
X50869000Y-65204500D01*
X50601000Y-69854500D02*
X50408000Y-69596500D01*
X50869000Y-65204500D02*
X51307000Y-65291500D01*
X50875000Y-70024500D02*
X50601000Y-69854500D01*
X51185000Y-70083500D02*
X50875000Y-70024500D01*
X51307000Y-65291500D02*
X54107000Y-65291500D01*
X54107000Y-65291500D02*
X54434000Y-65356500D01*
X54434000Y-65356500D02*
X54717000Y-65545500D01*
X54717000Y-65545500D02*
X54906000Y-65828500D01*
X54906000Y-65828500D02*
X54991000Y-66255500D01*
X54908000Y-69141500D02*
X55271000Y-69141500D01*
X55271000Y-69141500D02*
X55271000Y-70083500D01*
X55271000Y-70083500D02*
X51185000Y-70083500D01*
G04 #@! TO.C,S2*
X64259000Y-40216000D02*
X65196000Y-39279000D01*
X65196000Y-39279000D02*
X67943000Y-39279000D01*
X65196000Y-44071000D02*
X64175000Y-43050000D01*
X67843000Y-44071000D02*
X65196000Y-44071000D01*
X67943000Y-39279000D02*
X68346000Y-39359000D01*
X68346000Y-39359000D02*
X68688000Y-39588000D01*
X68405000Y-44176000D02*
X67843000Y-44071000D01*
X68688000Y-39588000D02*
X69221000Y-40121000D01*
X68884000Y-44475000D02*
X68405000Y-44176000D01*
X69221000Y-40121000D02*
X69221000Y-40343000D01*
X69221000Y-40343000D02*
X69308000Y-40781000D01*
X69222000Y-44928000D02*
X68884000Y-44475000D01*
X69308000Y-40781000D02*
X69552000Y-41148000D01*
X69376000Y-45486000D02*
X69222000Y-44928000D01*
X69458000Y-45784000D02*
X69376000Y-45486000D01*
X69552000Y-41148000D02*
X69919000Y-41392000D01*
X69651000Y-46042000D02*
X69458000Y-45784000D01*
X69919000Y-41392000D02*
X70357000Y-41479000D01*
X69925000Y-46212000D02*
X69651000Y-46042000D01*
X70235000Y-46271000D02*
X69925000Y-46212000D01*
X70357000Y-41479000D02*
X73157000Y-41479000D01*
X73157000Y-41479000D02*
X73484000Y-41544000D01*
X73484000Y-41544000D02*
X73767000Y-41733000D01*
X73767000Y-41733000D02*
X73956000Y-42016000D01*
X73956000Y-42016000D02*
X74041000Y-42443000D01*
X73958000Y-45329000D02*
X74321000Y-45329000D01*
X74321000Y-45329000D02*
X74321000Y-46271000D01*
X74321000Y-46271000D02*
X70235000Y-46271000D01*
G04 #@! TO.C,S1*
X45209000Y-44978500D02*
X46146000Y-44041500D01*
X46146000Y-44041500D02*
X48893000Y-44041500D01*
X46146000Y-48833500D02*
X45125000Y-47812500D01*
X48793000Y-48833500D02*
X46146000Y-48833500D01*
X48893000Y-44041500D02*
X49296000Y-44121500D01*
X49296000Y-44121500D02*
X49638000Y-44350500D01*
X49355000Y-48938500D02*
X48793000Y-48833500D01*
X49638000Y-44350500D02*
X50171000Y-44883500D01*
X49834000Y-49237500D02*
X49355000Y-48938500D01*
X50171000Y-44883500D02*
X50171000Y-45105500D01*
X50171000Y-45105500D02*
X50258000Y-45543500D01*
X50172000Y-49690500D02*
X49834000Y-49237500D01*
X50258000Y-45543500D02*
X50502000Y-45910500D01*
X50326000Y-50248500D02*
X50172000Y-49690500D01*
X50408000Y-50546500D02*
X50326000Y-50248500D01*
X50502000Y-45910500D02*
X50869000Y-46154500D01*
X50601000Y-50804500D02*
X50408000Y-50546500D01*
X50869000Y-46154500D02*
X51307000Y-46241500D01*
X50875000Y-50974500D02*
X50601000Y-50804500D01*
X51185000Y-51033500D02*
X50875000Y-50974500D01*
X51307000Y-46241500D02*
X54107000Y-46241500D01*
X54107000Y-46241500D02*
X54434000Y-46306500D01*
X54434000Y-46306500D02*
X54717000Y-46495500D01*
X54717000Y-46495500D02*
X54906000Y-46778500D01*
X54906000Y-46778500D02*
X54991000Y-47205500D01*
X54908000Y-50091500D02*
X55271000Y-50091500D01*
X55271000Y-50091500D02*
X55271000Y-51033500D01*
X55271000Y-51033500D02*
X51185000Y-51033500D01*
G04 #@! TO.C,S12*
X140459000Y-52753500D02*
X141396000Y-51816500D01*
X141396000Y-51816500D02*
X144143000Y-51816500D01*
X141396000Y-56608500D02*
X140375000Y-55587500D01*
X144043000Y-56608500D02*
X141396000Y-56608500D01*
X144143000Y-51816500D02*
X144546000Y-51896500D01*
X144546000Y-51896500D02*
X144888000Y-52125500D01*
X144605000Y-56713500D02*
X144043000Y-56608500D01*
X144888000Y-52125500D02*
X145421000Y-52658500D01*
X145084000Y-57012500D02*
X144605000Y-56713500D01*
X145421000Y-52658500D02*
X145421000Y-52880500D01*
X145421000Y-52880500D02*
X145508000Y-53318500D01*
X145422000Y-57465500D02*
X145084000Y-57012500D01*
X145508000Y-53318500D02*
X145752000Y-53685500D01*
X145576000Y-58023500D02*
X145422000Y-57465500D01*
X145658000Y-58321500D02*
X145576000Y-58023500D01*
X145752000Y-53685500D02*
X146119000Y-53929500D01*
X145851000Y-58579500D02*
X145658000Y-58321500D01*
X146119000Y-53929500D02*
X146557000Y-54016500D01*
X146125000Y-58749500D02*
X145851000Y-58579500D01*
X146435000Y-58808500D02*
X146125000Y-58749500D01*
X146557000Y-54016500D02*
X149357000Y-54016500D01*
X149357000Y-54016500D02*
X149684000Y-54081500D01*
X149684000Y-54081500D02*
X149967000Y-54270500D01*
X149967000Y-54270500D02*
X150156000Y-54553500D01*
X150156000Y-54553500D02*
X150241000Y-54980500D01*
X150158000Y-57866500D02*
X150521000Y-57866500D01*
X150521000Y-57866500D02*
X150521000Y-58808500D01*
X150521000Y-58808500D02*
X146435000Y-58808500D01*
G04 #@! TO.C,S15*
X83309000Y-69928500D02*
X84246000Y-68991500D01*
X84246000Y-68991500D02*
X86993000Y-68991500D01*
X84246000Y-73783500D02*
X83225000Y-72762500D01*
X86893000Y-73783500D02*
X84246000Y-73783500D01*
X86993000Y-68991500D02*
X87396000Y-69071500D01*
X87396000Y-69071500D02*
X87738000Y-69300500D01*
X87455000Y-73888500D02*
X86893000Y-73783500D01*
X87738000Y-69300500D02*
X88271000Y-69833500D01*
X87934000Y-74187500D02*
X87455000Y-73888500D01*
X88271000Y-69833500D02*
X88271000Y-70055500D01*
X88271000Y-70055500D02*
X88358000Y-70493500D01*
X88272000Y-74640500D02*
X87934000Y-74187500D01*
X88358000Y-70493500D02*
X88602000Y-70860500D01*
X88426000Y-75198500D02*
X88272000Y-74640500D01*
X88508000Y-75496500D02*
X88426000Y-75198500D01*
X88602000Y-70860500D02*
X88969000Y-71104500D01*
X88701000Y-75754500D02*
X88508000Y-75496500D01*
X88969000Y-71104500D02*
X89407000Y-71191500D01*
X88975000Y-75924500D02*
X88701000Y-75754500D01*
X89285000Y-75983500D02*
X88975000Y-75924500D01*
X89407000Y-71191500D02*
X92207000Y-71191500D01*
X92207000Y-71191500D02*
X92534000Y-71256500D01*
X92534000Y-71256500D02*
X92817000Y-71445500D01*
X92817000Y-71445500D02*
X93006000Y-71728500D01*
X93006000Y-71728500D02*
X93091000Y-72155500D01*
X93008000Y-75041500D02*
X93371000Y-75041500D01*
X93371000Y-75041500D02*
X93371000Y-75983500D01*
X93371000Y-75983500D02*
X89285000Y-75983500D01*
G04 #@! TO.C,S10*
X102359000Y-43228500D02*
X103296000Y-42291500D01*
X103296000Y-42291500D02*
X106043000Y-42291500D01*
X103296000Y-47083500D02*
X102275000Y-46062500D01*
X105943000Y-47083500D02*
X103296000Y-47083500D01*
X106043000Y-42291500D02*
X106446000Y-42371500D01*
X106446000Y-42371500D02*
X106788000Y-42600500D01*
X106505000Y-47188500D02*
X105943000Y-47083500D01*
X106788000Y-42600500D02*
X107321000Y-43133500D01*
X106984000Y-47487500D02*
X106505000Y-47188500D01*
X107321000Y-43133500D02*
X107321000Y-43355500D01*
X107321000Y-43355500D02*
X107408000Y-43793500D01*
X107322000Y-47940500D02*
X106984000Y-47487500D01*
X107408000Y-43793500D02*
X107652000Y-44160500D01*
X107476000Y-48498500D02*
X107322000Y-47940500D01*
X107558000Y-48796500D02*
X107476000Y-48498500D01*
X107652000Y-44160500D02*
X108019000Y-44404500D01*
X107751000Y-49054500D02*
X107558000Y-48796500D01*
X108019000Y-44404500D02*
X108457000Y-44491500D01*
X108025000Y-49224500D02*
X107751000Y-49054500D01*
X108335000Y-49283500D02*
X108025000Y-49224500D01*
X108457000Y-44491500D02*
X111257000Y-44491500D01*
X111257000Y-44491500D02*
X111584000Y-44556500D01*
X111584000Y-44556500D02*
X111867000Y-44745500D01*
X111867000Y-44745500D02*
X112056000Y-45028500D01*
X112056000Y-45028500D02*
X112141000Y-45455500D01*
X112058000Y-48341500D02*
X112421000Y-48341500D01*
X112421000Y-48341500D02*
X112421000Y-49283500D01*
X112421000Y-49283500D02*
X108335000Y-49283500D01*
G04 #@! TO.C,S14*
X64259000Y-78316000D02*
X65196000Y-77379000D01*
X65196000Y-77379000D02*
X67943000Y-77379000D01*
X65196000Y-82171000D02*
X64175000Y-81150000D01*
X67843000Y-82171000D02*
X65196000Y-82171000D01*
X67943000Y-77379000D02*
X68346000Y-77459000D01*
X68346000Y-77459000D02*
X68688000Y-77688000D01*
X68405000Y-82276000D02*
X67843000Y-82171000D01*
X68688000Y-77688000D02*
X69221000Y-78221000D01*
X68884000Y-82575000D02*
X68405000Y-82276000D01*
X69221000Y-78221000D02*
X69221000Y-78443000D01*
X69221000Y-78443000D02*
X69308000Y-78881000D01*
X69222000Y-83028000D02*
X68884000Y-82575000D01*
X69308000Y-78881000D02*
X69552000Y-79248000D01*
X69376000Y-83586000D02*
X69222000Y-83028000D01*
X69458000Y-83884000D02*
X69376000Y-83586000D01*
X69552000Y-79248000D02*
X69919000Y-79492000D01*
X69651000Y-84142000D02*
X69458000Y-83884000D01*
X69919000Y-79492000D02*
X70357000Y-79579000D01*
X69925000Y-84312000D02*
X69651000Y-84142000D01*
X70235000Y-84371000D02*
X69925000Y-84312000D01*
X70357000Y-79579000D02*
X73157000Y-79579000D01*
X73157000Y-79579000D02*
X73484000Y-79644000D01*
X73484000Y-79644000D02*
X73767000Y-79833000D01*
X73767000Y-79833000D02*
X73956000Y-80116000D01*
X73956000Y-80116000D02*
X74041000Y-80543000D01*
X73958000Y-83429000D02*
X74321000Y-83429000D01*
X74321000Y-83429000D02*
X74321000Y-84371000D01*
X74321000Y-84371000D02*
X70235000Y-84371000D01*
G04 #@! TO.C,S19*
X102359000Y-90853500D02*
X103296000Y-89916500D01*
X103296000Y-89916500D02*
X106043000Y-89916500D01*
X103296000Y-94708500D02*
X102275000Y-93687500D01*
X105943000Y-94708500D02*
X103296000Y-94708500D01*
X106043000Y-89916500D02*
X106446000Y-89996500D01*
X106446000Y-89996500D02*
X106788000Y-90225500D01*
X106505000Y-94813500D02*
X105943000Y-94708500D01*
X106788000Y-90225500D02*
X107321000Y-90758500D01*
X106984000Y-95112500D02*
X106505000Y-94813500D01*
X107321000Y-90758500D02*
X107321000Y-90980500D01*
X107321000Y-90980500D02*
X107408000Y-91418500D01*
X107322000Y-95565500D02*
X106984000Y-95112500D01*
X107408000Y-91418500D02*
X107652000Y-91785500D01*
X107476000Y-96123500D02*
X107322000Y-95565500D01*
X107558000Y-96421500D02*
X107476000Y-96123500D01*
X107652000Y-91785500D02*
X108019000Y-92029500D01*
X107751000Y-96679500D02*
X107558000Y-96421500D01*
X108019000Y-92029500D02*
X108457000Y-92116500D01*
X108025000Y-96849500D02*
X107751000Y-96679500D01*
X108335000Y-96908500D02*
X108025000Y-96849500D01*
X108457000Y-92116500D02*
X111257000Y-92116500D01*
X111257000Y-92116500D02*
X111584000Y-92181500D01*
X111584000Y-92181500D02*
X111867000Y-92370500D01*
X111867000Y-92370500D02*
X112056000Y-92653500D01*
X112056000Y-92653500D02*
X112141000Y-93080500D01*
X112058000Y-95966500D02*
X112421000Y-95966500D01*
X112421000Y-95966500D02*
X112421000Y-96908500D01*
X112421000Y-96908500D02*
X108335000Y-96908500D01*
G04 #@! TO.C,S21*
X140459000Y-90853500D02*
X141396000Y-89916500D01*
X141396000Y-89916500D02*
X144143000Y-89916500D01*
X141396000Y-94708500D02*
X140375000Y-93687500D01*
X144043000Y-94708500D02*
X141396000Y-94708500D01*
X144143000Y-89916500D02*
X144546000Y-89996500D01*
X144546000Y-89996500D02*
X144888000Y-90225500D01*
X144605000Y-94813500D02*
X144043000Y-94708500D01*
X144888000Y-90225500D02*
X145421000Y-90758500D01*
X145084000Y-95112500D02*
X144605000Y-94813500D01*
X145421000Y-90758500D02*
X145421000Y-90980500D01*
X145421000Y-90980500D02*
X145508000Y-91418500D01*
X145422000Y-95565500D02*
X145084000Y-95112500D01*
X145508000Y-91418500D02*
X145752000Y-91785500D01*
X145576000Y-96123500D02*
X145422000Y-95565500D01*
X145658000Y-96421500D02*
X145576000Y-96123500D01*
X145752000Y-91785500D02*
X146119000Y-92029500D01*
X145851000Y-96679500D02*
X145658000Y-96421500D01*
X146119000Y-92029500D02*
X146557000Y-92116500D01*
X146125000Y-96849500D02*
X145851000Y-96679500D01*
X146435000Y-96908500D02*
X146125000Y-96849500D01*
X146557000Y-92116500D02*
X149357000Y-92116500D01*
X149357000Y-92116500D02*
X149684000Y-92181500D01*
X149684000Y-92181500D02*
X149967000Y-92370500D01*
X149967000Y-92370500D02*
X150156000Y-92653500D01*
X150156000Y-92653500D02*
X150241000Y-93080500D01*
X150158000Y-95966500D02*
X150521000Y-95966500D01*
X150521000Y-95966500D02*
X150521000Y-96908500D01*
X150521000Y-96908500D02*
X146435000Y-96908500D01*
G04 #@! TO.C,S8*
X64259000Y-59266000D02*
X65196000Y-58329000D01*
X65196000Y-58329000D02*
X67943000Y-58329000D01*
X65196000Y-63121000D02*
X64175000Y-62100000D01*
X67843000Y-63121000D02*
X65196000Y-63121000D01*
X67943000Y-58329000D02*
X68346000Y-58409000D01*
X68346000Y-58409000D02*
X68688000Y-58638000D01*
X68405000Y-63226000D02*
X67843000Y-63121000D01*
X68688000Y-58638000D02*
X69221000Y-59171000D01*
X68884000Y-63525000D02*
X68405000Y-63226000D01*
X69221000Y-59171000D02*
X69221000Y-59393000D01*
X69221000Y-59393000D02*
X69308000Y-59831000D01*
X69222000Y-63978000D02*
X68884000Y-63525000D01*
X69308000Y-59831000D02*
X69552000Y-60198000D01*
X69376000Y-64536000D02*
X69222000Y-63978000D01*
X69458000Y-64834000D02*
X69376000Y-64536000D01*
X69552000Y-60198000D02*
X69919000Y-60442000D01*
X69651000Y-65092000D02*
X69458000Y-64834000D01*
X69919000Y-60442000D02*
X70357000Y-60529000D01*
X69925000Y-65262000D02*
X69651000Y-65092000D01*
X70235000Y-65321000D02*
X69925000Y-65262000D01*
X70357000Y-60529000D02*
X73157000Y-60529000D01*
X73157000Y-60529000D02*
X73484000Y-60594000D01*
X73484000Y-60594000D02*
X73767000Y-60783000D01*
X73767000Y-60783000D02*
X73956000Y-61066000D01*
X73956000Y-61066000D02*
X74041000Y-61493000D01*
X73958000Y-64379000D02*
X74321000Y-64379000D01*
X74321000Y-64379000D02*
X74321000Y-65321000D01*
X74321000Y-65321000D02*
X70235000Y-65321000D01*
G04 #@! TO.C,S4*
X102359000Y-24178500D02*
X103296000Y-23241500D01*
X103296000Y-23241500D02*
X106043000Y-23241500D01*
X103296000Y-28033500D02*
X102275000Y-27012500D01*
X105943000Y-28033500D02*
X103296000Y-28033500D01*
X106043000Y-23241500D02*
X106446000Y-23321500D01*
X106446000Y-23321500D02*
X106788000Y-23550500D01*
X106505000Y-28138500D02*
X105943000Y-28033500D01*
X106788000Y-23550500D02*
X107321000Y-24083500D01*
X106984000Y-28437500D02*
X106505000Y-28138500D01*
X107321000Y-24083500D02*
X107321000Y-24305500D01*
X107321000Y-24305500D02*
X107408000Y-24743500D01*
X107322000Y-28890500D02*
X106984000Y-28437500D01*
X107408000Y-24743500D02*
X107652000Y-25110500D01*
X107476000Y-29448500D02*
X107322000Y-28890500D01*
X107558000Y-29746500D02*
X107476000Y-29448500D01*
X107652000Y-25110500D02*
X108019000Y-25354500D01*
X107751000Y-30004500D02*
X107558000Y-29746500D01*
X108019000Y-25354500D02*
X108457000Y-25441500D01*
X108025000Y-30174500D02*
X107751000Y-30004500D01*
X108335000Y-30233500D02*
X108025000Y-30174500D01*
X108457000Y-25441500D02*
X111257000Y-25441500D01*
X111257000Y-25441500D02*
X111584000Y-25506500D01*
X111584000Y-25506500D02*
X111867000Y-25695500D01*
X111867000Y-25695500D02*
X112056000Y-25978500D01*
X112056000Y-25978500D02*
X112141000Y-26405500D01*
X112058000Y-29291500D02*
X112421000Y-29291500D01*
X112421000Y-29291500D02*
X112421000Y-30233500D01*
X112421000Y-30233500D02*
X108335000Y-30233500D01*
G04 #@! TO.C,S13*
X45209000Y-83078500D02*
X46146000Y-82141500D01*
X46146000Y-82141500D02*
X48893000Y-82141500D01*
X46146000Y-86933500D02*
X45125000Y-85912500D01*
X48793000Y-86933500D02*
X46146000Y-86933500D01*
X48893000Y-82141500D02*
X49296000Y-82221500D01*
X49296000Y-82221500D02*
X49638000Y-82450500D01*
X49355000Y-87038500D02*
X48793000Y-86933500D01*
X49638000Y-82450500D02*
X50171000Y-82983500D01*
X49834000Y-87337500D02*
X49355000Y-87038500D01*
X50171000Y-82983500D02*
X50171000Y-83205500D01*
X50171000Y-83205500D02*
X50258000Y-83643500D01*
X50172000Y-87790500D02*
X49834000Y-87337500D01*
X50258000Y-83643500D02*
X50502000Y-84010500D01*
X50326000Y-88348500D02*
X50172000Y-87790500D01*
X50408000Y-88646500D02*
X50326000Y-88348500D01*
X50502000Y-84010500D02*
X50869000Y-84254500D01*
X50601000Y-88904500D02*
X50408000Y-88646500D01*
X50869000Y-84254500D02*
X51307000Y-84341500D01*
X50875000Y-89074500D02*
X50601000Y-88904500D01*
X51185000Y-89133500D02*
X50875000Y-89074500D01*
X51307000Y-84341500D02*
X54107000Y-84341500D01*
X54107000Y-84341500D02*
X54434000Y-84406500D01*
X54434000Y-84406500D02*
X54717000Y-84595500D01*
X54717000Y-84595500D02*
X54906000Y-84878500D01*
X54906000Y-84878500D02*
X54991000Y-85305500D01*
X54908000Y-88191500D02*
X55271000Y-88191500D01*
X55271000Y-88191500D02*
X55271000Y-89133500D01*
X55271000Y-89133500D02*
X51185000Y-89133500D01*
G04 #@! TO.C,S18*
X140459000Y-71803500D02*
X141396000Y-70866500D01*
X141396000Y-70866500D02*
X144143000Y-70866500D01*
X141396000Y-75658500D02*
X140375000Y-74637500D01*
X144043000Y-75658500D02*
X141396000Y-75658500D01*
X144143000Y-70866500D02*
X144546000Y-70946500D01*
X144546000Y-70946500D02*
X144888000Y-71175500D01*
X144605000Y-75763500D02*
X144043000Y-75658500D01*
X144888000Y-71175500D02*
X145421000Y-71708500D01*
X145084000Y-76062500D02*
X144605000Y-75763500D01*
X145421000Y-71708500D02*
X145421000Y-71930500D01*
X145421000Y-71930500D02*
X145508000Y-72368500D01*
X145422000Y-76515500D02*
X145084000Y-76062500D01*
X145508000Y-72368500D02*
X145752000Y-72735500D01*
X145576000Y-77073500D02*
X145422000Y-76515500D01*
X145658000Y-77371500D02*
X145576000Y-77073500D01*
X145752000Y-72735500D02*
X146119000Y-72979500D01*
X145851000Y-77629500D02*
X145658000Y-77371500D01*
X146119000Y-72979500D02*
X146557000Y-73066500D01*
X146125000Y-77799500D02*
X145851000Y-77629500D01*
X146435000Y-77858500D02*
X146125000Y-77799500D01*
X146557000Y-73066500D02*
X149357000Y-73066500D01*
X149357000Y-73066500D02*
X149684000Y-73131500D01*
X149684000Y-73131500D02*
X149967000Y-73320500D01*
X149967000Y-73320500D02*
X150156000Y-73603500D01*
X150156000Y-73603500D02*
X150241000Y-74030500D01*
X150158000Y-76916500D02*
X150521000Y-76916500D01*
X150521000Y-76916500D02*
X150521000Y-77858500D01*
X150521000Y-77858500D02*
X146435000Y-77858500D01*
G04 #@! TO.C,S3*
X83309000Y-31828500D02*
X84246000Y-30891500D01*
X84246000Y-30891500D02*
X86993000Y-30891500D01*
X84246000Y-35683500D02*
X83225000Y-34662500D01*
X86893000Y-35683500D02*
X84246000Y-35683500D01*
X86993000Y-30891500D02*
X87396000Y-30971500D01*
X87396000Y-30971500D02*
X87738000Y-31200500D01*
X87455000Y-35788500D02*
X86893000Y-35683500D01*
X87738000Y-31200500D02*
X88271000Y-31733500D01*
X87934000Y-36087500D02*
X87455000Y-35788500D01*
X88271000Y-31733500D02*
X88271000Y-31955500D01*
X88271000Y-31955500D02*
X88358000Y-32393500D01*
X88272000Y-36540500D02*
X87934000Y-36087500D01*
X88358000Y-32393500D02*
X88602000Y-32760500D01*
X88426000Y-37098500D02*
X88272000Y-36540500D01*
X88508000Y-37396500D02*
X88426000Y-37098500D01*
X88602000Y-32760500D02*
X88969000Y-33004500D01*
X88701000Y-37654500D02*
X88508000Y-37396500D01*
X88969000Y-33004500D02*
X89407000Y-33091500D01*
X88975000Y-37824500D02*
X88701000Y-37654500D01*
X89285000Y-37883500D02*
X88975000Y-37824500D01*
X89407000Y-33091500D02*
X92207000Y-33091500D01*
X92207000Y-33091500D02*
X92534000Y-33156500D01*
X92534000Y-33156500D02*
X92817000Y-33345500D01*
X92817000Y-33345500D02*
X93006000Y-33628500D01*
X93006000Y-33628500D02*
X93091000Y-34055500D01*
X93008000Y-36941500D02*
X93371000Y-36941500D01*
X93371000Y-36941500D02*
X93371000Y-37883500D01*
X93371000Y-37883500D02*
X89285000Y-37883500D01*
G04 #@! TO.C,S6*
X140459000Y-33703500D02*
X141396000Y-32766500D01*
X141396000Y-32766500D02*
X144143000Y-32766500D01*
X141396000Y-37558500D02*
X140375000Y-36537500D01*
X144043000Y-37558500D02*
X141396000Y-37558500D01*
X144143000Y-32766500D02*
X144546000Y-32846500D01*
X144546000Y-32846500D02*
X144888000Y-33075500D01*
X144605000Y-37663500D02*
X144043000Y-37558500D01*
X144888000Y-33075500D02*
X145421000Y-33608500D01*
X145084000Y-37962500D02*
X144605000Y-37663500D01*
X145421000Y-33608500D02*
X145421000Y-33830500D01*
X145421000Y-33830500D02*
X145508000Y-34268500D01*
X145422000Y-38415500D02*
X145084000Y-37962500D01*
X145508000Y-34268500D02*
X145752000Y-34635500D01*
X145576000Y-38973500D02*
X145422000Y-38415500D01*
X145658000Y-39271500D02*
X145576000Y-38973500D01*
X145752000Y-34635500D02*
X146119000Y-34879500D01*
X145851000Y-39529500D02*
X145658000Y-39271500D01*
X146119000Y-34879500D02*
X146557000Y-34966500D01*
X146125000Y-39699500D02*
X145851000Y-39529500D01*
X146435000Y-39758500D02*
X146125000Y-39699500D01*
X146557000Y-34966500D02*
X149357000Y-34966500D01*
X149357000Y-34966500D02*
X149684000Y-35031500D01*
X149684000Y-35031500D02*
X149967000Y-35220500D01*
X149967000Y-35220500D02*
X150156000Y-35503500D01*
X150156000Y-35503500D02*
X150241000Y-35930500D01*
X150158000Y-38816500D02*
X150521000Y-38816500D01*
X150521000Y-38816500D02*
X150521000Y-39758500D01*
X150521000Y-39758500D02*
X146435000Y-39758500D01*
G04 #@! TO.C,S17*
X121409000Y-67041000D02*
X122346000Y-66104000D01*
X122346000Y-66104000D02*
X125093000Y-66104000D01*
X122346000Y-70896000D02*
X121325000Y-69875000D01*
X124993000Y-70896000D02*
X122346000Y-70896000D01*
X125093000Y-66104000D02*
X125496000Y-66184000D01*
X125496000Y-66184000D02*
X125838000Y-66413000D01*
X125555000Y-71001000D02*
X124993000Y-70896000D01*
X125838000Y-66413000D02*
X126371000Y-66946000D01*
X126034000Y-71300000D02*
X125555000Y-71001000D01*
X126371000Y-66946000D02*
X126371000Y-67168000D01*
X126371000Y-67168000D02*
X126458000Y-67606000D01*
X126372000Y-71753000D02*
X126034000Y-71300000D01*
X126458000Y-67606000D02*
X126702000Y-67973000D01*
X126526000Y-72311000D02*
X126372000Y-71753000D01*
X126608000Y-72609000D02*
X126526000Y-72311000D01*
X126702000Y-67973000D02*
X127069000Y-68217000D01*
X126801000Y-72867000D02*
X126608000Y-72609000D01*
X127069000Y-68217000D02*
X127507000Y-68304000D01*
X127075000Y-73037000D02*
X126801000Y-72867000D01*
X127385000Y-73096000D02*
X127075000Y-73037000D01*
X127507000Y-68304000D02*
X130307000Y-68304000D01*
X130307000Y-68304000D02*
X130634000Y-68369000D01*
X130634000Y-68369000D02*
X130917000Y-68558000D01*
X130917000Y-68558000D02*
X131106000Y-68841000D01*
X131106000Y-68841000D02*
X131191000Y-69268000D01*
X131108000Y-72154000D02*
X131471000Y-72154000D01*
X131471000Y-72154000D02*
X131471000Y-73096000D01*
X131471000Y-73096000D02*
X127385000Y-73096000D01*
G04 #@! TO.C,S11*
X121409000Y-47991000D02*
X122346000Y-47054000D01*
X122346000Y-47054000D02*
X125093000Y-47054000D01*
X122346000Y-51846000D02*
X121325000Y-50825000D01*
X124993000Y-51846000D02*
X122346000Y-51846000D01*
X125093000Y-47054000D02*
X125496000Y-47134000D01*
X125496000Y-47134000D02*
X125838000Y-47363000D01*
X125555000Y-51951000D02*
X124993000Y-51846000D01*
X125838000Y-47363000D02*
X126371000Y-47896000D01*
X126034000Y-52250000D02*
X125555000Y-51951000D01*
X126371000Y-47896000D02*
X126371000Y-48118000D01*
X126371000Y-48118000D02*
X126458000Y-48556000D01*
X126372000Y-52703000D02*
X126034000Y-52250000D01*
X126458000Y-48556000D02*
X126702000Y-48923000D01*
X126526000Y-53261000D02*
X126372000Y-52703000D01*
X126608000Y-53559000D02*
X126526000Y-53261000D01*
X126702000Y-48923000D02*
X127069000Y-49167000D01*
X126801000Y-53817000D02*
X126608000Y-53559000D01*
X127069000Y-49167000D02*
X127507000Y-49254000D01*
X127075000Y-53987000D02*
X126801000Y-53817000D01*
X127385000Y-54046000D02*
X127075000Y-53987000D01*
X127507000Y-49254000D02*
X130307000Y-49254000D01*
X130307000Y-49254000D02*
X130634000Y-49319000D01*
X130634000Y-49319000D02*
X130917000Y-49508000D01*
X130917000Y-49508000D02*
X131106000Y-49791000D01*
X131106000Y-49791000D02*
X131191000Y-50218000D01*
X131108000Y-53104000D02*
X131471000Y-53104000D01*
X131471000Y-53104000D02*
X131471000Y-54046000D01*
X131471000Y-54046000D02*
X127385000Y-54046000D01*
G04 #@! TO.C,D6*
D10*
X151850000Y-51600000D02*
X152400000Y-51600000D01*
X152000000Y-51000000D02*
X152800000Y-51000000D01*
X152400000Y-50500000D02*
X152400000Y-51000000D01*
X152400000Y-51600000D02*
X152000000Y-51000000D01*
X152400000Y-51600000D02*
X152400000Y-52000000D01*
X152800000Y-51000000D02*
X152400000Y-51600000D01*
X152950000Y-51600000D02*
X152400000Y-51600000D01*
G04 #@! TO.C,D5*
X132800000Y-39081250D02*
X133350000Y-39081250D01*
X132950000Y-38481250D02*
X133750000Y-38481250D01*
X133350000Y-37981250D02*
X133350000Y-38481250D01*
X133350000Y-39081250D02*
X132950000Y-38481250D01*
X133350000Y-39081250D02*
X133350000Y-39481250D01*
X133750000Y-38481250D02*
X133350000Y-39081250D01*
X133900000Y-39081250D02*
X133350000Y-39081250D01*
G04 #@! TO.C,D16*
X113750000Y-77181250D02*
X114300000Y-77181250D01*
X113900000Y-76581250D02*
X114700000Y-76581250D01*
X114300000Y-76081250D02*
X114300000Y-76581250D01*
X114300000Y-77181250D02*
X113900000Y-76581250D01*
X114300000Y-77181250D02*
X114300000Y-77581250D01*
X114700000Y-76581250D02*
X114300000Y-77181250D01*
X114850000Y-77181250D02*
X114300000Y-77181250D01*
G04 #@! TO.C,D10*
X113750000Y-55750000D02*
X114300000Y-55750000D01*
X113900000Y-55150000D02*
X114700000Y-55150000D01*
X114300000Y-54650000D02*
X114300000Y-55150000D01*
X114300000Y-55750000D02*
X113900000Y-55150000D01*
X114300000Y-55750000D02*
X114300000Y-56150000D01*
X114700000Y-55150000D02*
X114300000Y-55750000D01*
X114850000Y-55750000D02*
X114300000Y-55750000D01*
G04 #@! TO.C,D2*
X75450000Y-51100000D02*
X76000000Y-51100000D01*
X75600000Y-50500000D02*
X76400000Y-50500000D01*
X76000000Y-50000000D02*
X76000000Y-50500000D01*
X76000000Y-51100000D02*
X75600000Y-50500000D01*
X76000000Y-51100000D02*
X76000000Y-51500000D01*
X76400000Y-50500000D02*
X76000000Y-51100000D01*
X76550000Y-51100000D02*
X76000000Y-51100000D01*
G04 #@! TO.C,D9*
X94700000Y-63400000D02*
X95250000Y-63400000D01*
X94850000Y-62800000D02*
X95650000Y-62800000D01*
X95250000Y-62300000D02*
X95250000Y-62800000D01*
X95250000Y-63400000D02*
X94850000Y-62800000D01*
X95250000Y-63400000D02*
X95250000Y-63800000D01*
X95650000Y-62800000D02*
X95250000Y-63400000D01*
X95800000Y-63400000D02*
X95250000Y-63400000D01*
G04 #@! TO.C,D4*
X113750000Y-39081250D02*
X114300000Y-39081250D01*
X113900000Y-38481250D02*
X114700000Y-38481250D01*
X114300000Y-37981250D02*
X114300000Y-38481250D01*
X114300000Y-39081250D02*
X113900000Y-38481250D01*
X114300000Y-39081250D02*
X114300000Y-39481250D01*
X114700000Y-38481250D02*
X114300000Y-39081250D01*
X114850000Y-39081250D02*
X114300000Y-39081250D01*
G04 #@! TO.C,D18*
X151850000Y-81943750D02*
X152400000Y-81943750D01*
X152000000Y-81343750D02*
X152800000Y-81343750D01*
X152400000Y-80843750D02*
X152400000Y-81343750D01*
X152400000Y-81943750D02*
X152000000Y-81343750D01*
X152400000Y-81943750D02*
X152400000Y-82343750D01*
X152800000Y-81343750D02*
X152400000Y-81943750D01*
X152950000Y-81943750D02*
X152400000Y-81943750D01*
G04 #@! TO.C,D8*
X75650000Y-69406250D02*
X76200000Y-69406250D01*
X75800000Y-68806250D02*
X76600000Y-68806250D01*
X76200000Y-68306250D02*
X76200000Y-68806250D01*
X76200000Y-69406250D02*
X75800000Y-68806250D01*
X76200000Y-69406250D02*
X76200000Y-69806250D01*
X76600000Y-68806250D02*
X76200000Y-69406250D01*
X76750000Y-69406250D02*
X76200000Y-69406250D01*
G04 #@! TO.C,D15*
X94700000Y-80068750D02*
X95250000Y-80068750D01*
X94850000Y-79468750D02*
X95650000Y-79468750D01*
X95250000Y-78968750D02*
X95250000Y-79468750D01*
X95250000Y-80068750D02*
X94850000Y-79468750D01*
X95250000Y-80068750D02*
X95250000Y-80468750D01*
X95650000Y-79468750D02*
X95250000Y-80068750D01*
X95800000Y-80068750D02*
X95250000Y-80068750D01*
G04 #@! TO.C,D14*
X75450000Y-93150000D02*
X76000000Y-93150000D01*
X75600000Y-92550000D02*
X76400000Y-92550000D01*
X76000000Y-92050000D02*
X76000000Y-92550000D01*
X76000000Y-93150000D02*
X75600000Y-92550000D01*
X76000000Y-93150000D02*
X76000000Y-93550000D01*
X76400000Y-92550000D02*
X76000000Y-93150000D01*
X76550000Y-93150000D02*
X76000000Y-93150000D01*
G04 #@! TO.C,D1*
X56600000Y-52737500D02*
X57150000Y-52737500D01*
X56750000Y-52137500D02*
X57550000Y-52137500D01*
X57150000Y-51637500D02*
X57150000Y-52137500D01*
X57150000Y-52737500D02*
X56750000Y-52137500D01*
X57150000Y-52737500D02*
X57150000Y-53137500D01*
X57550000Y-52137500D02*
X57150000Y-52737500D01*
X57700000Y-52737500D02*
X57150000Y-52737500D01*
G04 #@! TO.C,D13*
X56600000Y-93218750D02*
X57150000Y-93218750D01*
X56750000Y-92618750D02*
X57550000Y-92618750D01*
X57150000Y-92118750D02*
X57150000Y-92618750D01*
X57150000Y-93218750D02*
X56750000Y-92618750D01*
X57150000Y-93218750D02*
X57150000Y-93618750D01*
X57550000Y-92618750D02*
X57150000Y-93218750D01*
X57700000Y-93218750D02*
X57150000Y-93218750D01*
G04 #@! TO.C,U2*
X177290000Y-33887500D02*
X177290000Y-45987500D01*
X177290000Y-33887500D02*
X183390000Y-33887500D01*
X177290000Y-45987500D02*
X183390000Y-45987500D01*
X177540000Y-31887500D02*
X183140000Y-31887500D01*
X177540000Y-33887500D02*
X177540000Y-31887500D01*
X183140000Y-33887500D02*
X183140000Y-31887500D01*
X183390000Y-33887500D02*
X183390000Y-45987500D01*
G04 #@! TO.C,D7*
X56600000Y-73437500D02*
X57150000Y-73437500D01*
X56750000Y-72837500D02*
X57550000Y-72837500D01*
X57150000Y-72337500D02*
X57150000Y-72837500D01*
X57150000Y-73437500D02*
X56750000Y-72837500D01*
X57150000Y-73437500D02*
X57150000Y-73837500D01*
X57550000Y-72837500D02*
X57150000Y-73437500D01*
X57700000Y-73437500D02*
X57150000Y-73437500D01*
G04 #@! TO.C,U1*
D12*
X158610000Y-32110000D02*
X176390000Y-32110000D01*
X158610000Y-65130000D02*
X158610000Y-32110000D01*
X173850000Y-34650000D02*
X173850000Y-37190000D01*
X173850000Y-34650000D02*
X176390000Y-34650000D01*
X173850000Y-37190000D02*
X176390000Y-37190000D01*
X176390000Y-32110000D02*
X176390000Y-65130000D01*
X176390000Y-65130000D02*
X158610000Y-65130000D01*
D10*
X162568432Y-40529360D02*
X162568432Y-40629360D01*
X163068432Y-40629360D01*
X163068432Y-40529360D01*
X162568432Y-40529360D01*
G36*
X163068432Y-40629360D02*
G01*
X162568432Y-40629360D01*
X162568432Y-40529360D01*
X163068432Y-40529360D01*
X163068432Y-40629360D01*
G37*
X162568432Y-40529360D02*
X162568432Y-40829360D01*
X162668432Y-40829360D01*
X162668432Y-40529360D01*
X162568432Y-40529360D01*
G36*
X162668432Y-40829360D02*
G01*
X162568432Y-40829360D01*
X162568432Y-40529360D01*
X162668432Y-40529360D01*
X162668432Y-40829360D01*
G37*
X162568432Y-41129360D02*
X162568432Y-41329360D01*
X162668432Y-41329360D01*
X162668432Y-41129360D01*
X162568432Y-41129360D01*
G36*
X162668432Y-41329360D02*
G01*
X162568432Y-41329360D01*
X162568432Y-41129360D01*
X162668432Y-41129360D01*
X162668432Y-41329360D01*
G37*
X162768432Y-40929360D02*
X162768432Y-41029360D01*
X162868432Y-41029360D01*
X162868432Y-40929360D01*
X162768432Y-40929360D01*
G36*
X162868432Y-41029360D02*
G01*
X162768432Y-41029360D01*
X162768432Y-40929360D01*
X162868432Y-40929360D01*
X162868432Y-41029360D01*
G37*
X162968432Y-40529360D02*
X162968432Y-41329360D01*
X163068432Y-41329360D01*
X163068432Y-40529360D01*
X162968432Y-40529360D01*
G36*
X163068432Y-41329360D02*
G01*
X162968432Y-41329360D01*
X162968432Y-40529360D01*
X163068432Y-40529360D01*
X163068432Y-41329360D01*
G37*
G04 #@! TO.C,D3*
X94700000Y-41968750D02*
X95250000Y-41968750D01*
X94850000Y-41368750D02*
X95650000Y-41368750D01*
X95250000Y-40868750D02*
X95250000Y-41368750D01*
X95250000Y-41968750D02*
X94850000Y-41368750D01*
X95250000Y-41968750D02*
X95250000Y-42368750D01*
X95650000Y-41368750D02*
X95250000Y-41968750D01*
X95800000Y-41968750D02*
X95250000Y-41968750D01*
G04 #@! TO.C,D17*
X132800000Y-77181250D02*
X133350000Y-77181250D01*
X132950000Y-76581250D02*
X133750000Y-76581250D01*
X133350000Y-76081250D02*
X133350000Y-76581250D01*
X133350000Y-77181250D02*
X132950000Y-76581250D01*
X133350000Y-77181250D02*
X133350000Y-77581250D01*
X133750000Y-76581250D02*
X133350000Y-77181250D01*
X133900000Y-77181250D02*
X133350000Y-77181250D01*
G04 #@! TO.C,D20*
X132800000Y-103375000D02*
X133350000Y-103375000D01*
X132950000Y-102775000D02*
X133750000Y-102775000D01*
X133350000Y-102275000D02*
X133350000Y-102775000D01*
X133350000Y-103375000D02*
X132950000Y-102775000D01*
X133350000Y-103375000D02*
X133350000Y-103775000D01*
X133750000Y-102775000D02*
X133350000Y-103375000D01*
X133900000Y-103375000D02*
X133350000Y-103375000D01*
G04 #@! TO.C,D12*
X151850000Y-62893750D02*
X152400000Y-62893750D01*
X152000000Y-62293750D02*
X152800000Y-62293750D01*
X152400000Y-61793750D02*
X152400000Y-62293750D01*
X152400000Y-62893750D02*
X152000000Y-62293750D01*
X152400000Y-62893750D02*
X152400000Y-63293750D01*
X152800000Y-62293750D02*
X152400000Y-62893750D01*
X152950000Y-62893750D02*
X152400000Y-62893750D01*
G04 #@! TO.C,D21*
X151850000Y-103375000D02*
X152400000Y-103375000D01*
X152000000Y-102775000D02*
X152800000Y-102775000D01*
X152400000Y-102275000D02*
X152400000Y-102775000D01*
X152400000Y-103375000D02*
X152000000Y-102775000D01*
X152400000Y-103375000D02*
X152400000Y-103775000D01*
X152800000Y-102775000D02*
X152400000Y-103375000D01*
X152950000Y-103375000D02*
X152400000Y-103375000D01*
G04 #@! TO.C,D11*
X132800000Y-58131250D02*
X133350000Y-58131250D01*
X132950000Y-57531250D02*
X133750000Y-57531250D01*
X133350000Y-57031250D02*
X133350000Y-57531250D01*
X133350000Y-58131250D02*
X132950000Y-57531250D01*
X133350000Y-58131250D02*
X133350000Y-58531250D01*
X133750000Y-57531250D02*
X133350000Y-58131250D01*
X133900000Y-58131250D02*
X133350000Y-58131250D01*
G04 #@! TO.C,D19*
X113750000Y-103375000D02*
X114300000Y-103375000D01*
X113900000Y-102775000D02*
X114700000Y-102775000D01*
X114300000Y-102275000D02*
X114300000Y-102775000D01*
X114300000Y-103375000D02*
X113900000Y-102775000D01*
X114300000Y-103375000D02*
X114300000Y-103775000D01*
X114700000Y-102775000D02*
X114300000Y-103375000D01*
X114850000Y-103375000D02*
X114300000Y-103375000D01*
G04 #@! TD*
D13*
G04 #@! TO.C,U1*
X175120000Y-35920000D03*
D14*
X175120000Y-38460000D03*
X175120000Y-41000000D03*
X175120000Y-43540000D03*
X175120000Y-46080000D03*
X175120000Y-48620000D03*
X175120000Y-51160000D03*
X175120000Y-53700000D03*
X175120000Y-56240000D03*
X175120000Y-58780000D03*
X175120000Y-61320000D03*
X175120000Y-63860000D03*
X159880000Y-63860000D03*
X159880000Y-61320000D03*
X159880000Y-58780000D03*
X159880000Y-56240000D03*
X159880000Y-53700000D03*
X159880000Y-51160000D03*
X159880000Y-48620000D03*
X159880000Y-46080000D03*
X159880000Y-43540000D03*
X159880000Y-41000000D03*
X159880000Y-38460000D03*
X159880000Y-35920000D03*
G04 #@! TD*
%LPC*%
D15*
G04 #@! TO.C,S9*
X80225000Y-58287500D03*
D16*
X85725000Y-52387500D03*
D17*
X85725000Y-58287500D03*
D16*
X90725000Y-54487500D03*
D15*
X91225000Y-58287500D03*
D18*
X82225000Y-52287500D03*
X94225000Y-54487500D03*
G04 #@! TD*
D15*
G04 #@! TO.C,S16*
X99275000Y-69687500D03*
D16*
X104775000Y-63787500D03*
D17*
X104775000Y-69687500D03*
D16*
X109775000Y-65887500D03*
D15*
X110275000Y-69687500D03*
D18*
X101275000Y-63687500D03*
X113275000Y-65887500D03*
G04 #@! TD*
D15*
G04 #@! TO.C,S20*
X118325000Y-98262500D03*
D16*
X123825000Y-92362500D03*
D17*
X123825000Y-98262500D03*
D16*
X128825000Y-94462500D03*
D15*
X129325000Y-98262500D03*
D18*
X120325000Y-92262500D03*
X132325000Y-94462500D03*
G04 #@! TD*
D15*
G04 #@! TO.C,S5*
X118325000Y-36350000D03*
D16*
X123825000Y-30450000D03*
D17*
X123825000Y-36350000D03*
D16*
X128825000Y-32550000D03*
D15*
X129325000Y-36350000D03*
D18*
X120325000Y-30350000D03*
X132325000Y-32550000D03*
G04 #@! TD*
D15*
G04 #@! TO.C,S7*
X42125000Y-71437500D03*
D16*
X47625000Y-65537500D03*
D17*
X47625000Y-71437500D03*
D16*
X52625000Y-67637500D03*
D15*
X53125000Y-71437500D03*
D18*
X44125000Y-65437500D03*
X56125000Y-67637500D03*
G04 #@! TD*
D15*
G04 #@! TO.C,S2*
X61175000Y-47625000D03*
D16*
X66675000Y-41725000D03*
D17*
X66675000Y-47625000D03*
D16*
X71675000Y-43825000D03*
D15*
X72175000Y-47625000D03*
D18*
X63175000Y-41625000D03*
X75175000Y-43825000D03*
G04 #@! TD*
D15*
G04 #@! TO.C,S1*
X42125000Y-52387500D03*
D16*
X47625000Y-46487500D03*
D17*
X47625000Y-52387500D03*
D16*
X52625000Y-48587500D03*
D15*
X53125000Y-52387500D03*
D18*
X44125000Y-46387500D03*
X56125000Y-48587500D03*
G04 #@! TD*
D15*
G04 #@! TO.C,S12*
X137375000Y-60162500D03*
D16*
X142875000Y-54262500D03*
D17*
X142875000Y-60162500D03*
D16*
X147875000Y-56362500D03*
D15*
X148375000Y-60162500D03*
D18*
X139375000Y-54162500D03*
X151375000Y-56362500D03*
G04 #@! TD*
D15*
G04 #@! TO.C,S15*
X80225000Y-77337500D03*
D16*
X85725000Y-71437500D03*
D17*
X85725000Y-77337500D03*
D16*
X90725000Y-73537500D03*
D15*
X91225000Y-77337500D03*
D18*
X82225000Y-71337500D03*
X94225000Y-73537500D03*
G04 #@! TD*
D15*
G04 #@! TO.C,S10*
X99275000Y-50637500D03*
D16*
X104775000Y-44737500D03*
D17*
X104775000Y-50637500D03*
D16*
X109775000Y-46837500D03*
D15*
X110275000Y-50637500D03*
D18*
X101275000Y-44637500D03*
X113275000Y-46837500D03*
G04 #@! TD*
D15*
G04 #@! TO.C,S14*
X61175000Y-85725000D03*
D16*
X66675000Y-79825000D03*
D17*
X66675000Y-85725000D03*
D16*
X71675000Y-81925000D03*
D15*
X72175000Y-85725000D03*
D18*
X63175000Y-79725000D03*
X75175000Y-81925000D03*
G04 #@! TD*
D15*
G04 #@! TO.C,S19*
X99275000Y-98262500D03*
D16*
X104775000Y-92362500D03*
D17*
X104775000Y-98262500D03*
D16*
X109775000Y-94462500D03*
D15*
X110275000Y-98262500D03*
D18*
X101275000Y-92262500D03*
X113275000Y-94462500D03*
G04 #@! TD*
D15*
G04 #@! TO.C,S21*
X137375000Y-98262500D03*
D16*
X142875000Y-92362500D03*
D17*
X142875000Y-98262500D03*
D16*
X147875000Y-94462500D03*
D15*
X148375000Y-98262500D03*
D18*
X139375000Y-92262500D03*
X151375000Y-94462500D03*
G04 #@! TD*
D15*
G04 #@! TO.C,S8*
X61175000Y-66675000D03*
D16*
X66675000Y-60775000D03*
D17*
X66675000Y-66675000D03*
D16*
X71675000Y-62875000D03*
D15*
X72175000Y-66675000D03*
D18*
X63175000Y-60675000D03*
X75175000Y-62875000D03*
G04 #@! TD*
D15*
G04 #@! TO.C,S4*
X99275000Y-31587500D03*
D16*
X104775000Y-25687500D03*
D17*
X104775000Y-31587500D03*
D16*
X109775000Y-27787500D03*
D15*
X110275000Y-31587500D03*
D18*
X101275000Y-25587500D03*
X113275000Y-27787500D03*
G04 #@! TD*
D15*
G04 #@! TO.C,S13*
X42125000Y-90487500D03*
D16*
X47625000Y-84587500D03*
D17*
X47625000Y-90487500D03*
D16*
X52625000Y-86687500D03*
D15*
X53125000Y-90487500D03*
D18*
X44125000Y-84487500D03*
X56125000Y-86687500D03*
G04 #@! TD*
D15*
G04 #@! TO.C,S18*
X137375000Y-79212500D03*
D16*
X142875000Y-73312500D03*
D17*
X142875000Y-79212500D03*
D16*
X147875000Y-75412500D03*
D15*
X148375000Y-79212500D03*
D18*
X139375000Y-73212500D03*
X151375000Y-75412500D03*
G04 #@! TD*
D15*
G04 #@! TO.C,S3*
X80225000Y-39237500D03*
D16*
X85725000Y-33337500D03*
D17*
X85725000Y-39237500D03*
D16*
X90725000Y-35437500D03*
D15*
X91225000Y-39237500D03*
D18*
X82225000Y-33237500D03*
X94225000Y-35437500D03*
G04 #@! TD*
D15*
G04 #@! TO.C,S6*
X137375000Y-41112500D03*
D16*
X142875000Y-35212500D03*
D17*
X142875000Y-41112500D03*
D16*
X147875000Y-37312500D03*
D15*
X148375000Y-41112500D03*
D18*
X139375000Y-35112500D03*
X151375000Y-37312500D03*
G04 #@! TD*
D15*
G04 #@! TO.C,S17*
X118325000Y-74450000D03*
D16*
X123825000Y-68550000D03*
D17*
X123825000Y-74450000D03*
D16*
X128825000Y-70650000D03*
D15*
X129325000Y-74450000D03*
D18*
X120325000Y-68450000D03*
X132325000Y-70650000D03*
G04 #@! TD*
D15*
G04 #@! TO.C,S11*
X118325000Y-55400000D03*
D16*
X123825000Y-49500000D03*
D17*
X123825000Y-55400000D03*
D16*
X128825000Y-51600000D03*
D15*
X129325000Y-55400000D03*
D18*
X120325000Y-49400000D03*
X132325000Y-51600000D03*
G04 #@! TD*
D19*
G04 #@! TO.C,D6*
X152400000Y-52900000D03*
X152400000Y-49600000D03*
G04 #@! TD*
G04 #@! TO.C,D5*
X133350000Y-40381250D03*
X133350000Y-37081250D03*
G04 #@! TD*
G04 #@! TO.C,D16*
X114300000Y-78481250D03*
X114300000Y-75181250D03*
G04 #@! TD*
G04 #@! TO.C,D10*
X114300000Y-57050000D03*
X114300000Y-53750000D03*
G04 #@! TD*
G04 #@! TO.C,D2*
X76000000Y-52400000D03*
X76000000Y-49100000D03*
G04 #@! TD*
G04 #@! TO.C,D9*
X95250000Y-64700000D03*
X95250000Y-61400000D03*
G04 #@! TD*
G04 #@! TO.C,D4*
X114300000Y-40381250D03*
X114300000Y-37081250D03*
G04 #@! TD*
G04 #@! TO.C,D18*
X152400000Y-83243750D03*
X152400000Y-79943750D03*
G04 #@! TD*
G04 #@! TO.C,D8*
X76200000Y-70706250D03*
X76200000Y-67406250D03*
G04 #@! TD*
G04 #@! TO.C,D15*
X95250000Y-81368750D03*
X95250000Y-78068750D03*
G04 #@! TD*
G04 #@! TO.C,D14*
X76000000Y-94450000D03*
X76000000Y-91150000D03*
G04 #@! TD*
G04 #@! TO.C,D1*
X57150000Y-54037500D03*
X57150000Y-50737500D03*
G04 #@! TD*
G04 #@! TO.C,D13*
X57150000Y-94518750D03*
X57150000Y-91218750D03*
G04 #@! TD*
D20*
G04 #@! TO.C,U2*
X180340000Y-42487500D03*
X180340000Y-35487500D03*
D21*
X182640000Y-45187500D03*
X178040000Y-44087500D03*
X178040000Y-40087500D03*
X178040000Y-37087500D03*
G04 #@! TD*
D19*
G04 #@! TO.C,D7*
X57150000Y-74737500D03*
X57150000Y-71437500D03*
G04 #@! TD*
D13*
G04 #@! TO.C,U1*
X175120000Y-35920000D03*
D14*
X175120000Y-38460000D03*
X175120000Y-41000000D03*
X175120000Y-43540000D03*
X175120000Y-46080000D03*
X175120000Y-48620000D03*
X175120000Y-51160000D03*
X175120000Y-53700000D03*
X175120000Y-56240000D03*
X175120000Y-58780000D03*
X175120000Y-61320000D03*
X175120000Y-63860000D03*
X159880000Y-63860000D03*
X159880000Y-61320000D03*
X159880000Y-58780000D03*
X159880000Y-56240000D03*
X159880000Y-53700000D03*
X159880000Y-51160000D03*
X159880000Y-48620000D03*
X159880000Y-46080000D03*
X159880000Y-43540000D03*
X159880000Y-41000000D03*
X159880000Y-38460000D03*
X159880000Y-35920000D03*
G04 #@! TD*
D19*
G04 #@! TO.C,D3*
X95250000Y-43268750D03*
X95250000Y-39968750D03*
G04 #@! TD*
G04 #@! TO.C,D17*
X133350000Y-78481250D03*
X133350000Y-75181250D03*
G04 #@! TD*
G04 #@! TO.C,D20*
X133350000Y-104675000D03*
X133350000Y-101375000D03*
G04 #@! TD*
G04 #@! TO.C,D12*
X152400000Y-64193750D03*
X152400000Y-60893750D03*
G04 #@! TD*
G04 #@! TO.C,D21*
X152400000Y-104675000D03*
X152400000Y-101375000D03*
G04 #@! TD*
G04 #@! TO.C,D11*
X133350000Y-59431250D03*
X133350000Y-56131250D03*
G04 #@! TD*
G04 #@! TO.C,D19*
X114300000Y-104675000D03*
X114300000Y-101375000D03*
G04 #@! TD*
%LPD*%
M02*
