G04 #@! TF.GenerationSoftware,KiCad,Pcbnew,10.0.3*
G04 #@! TF.CreationDate,2026-06-02T13:38:18+05:45*
G04 #@! TF.ProjectId,pcb-2,7063622d-322e-46b6-9963-61645f706362,rev?*
G04 #@! TF.SameCoordinates,Original*
G04 #@! TF.FileFunction,Legend,Top*
G04 #@! TF.FilePolarity,Positive*
%FSLAX46Y46*%
G04 Gerber Fmt 4.6, Leading zero omitted, Abs format (unit mm)*
G04 Created by KiCad (PCBNEW 10.0.3) date 2026-06-02 13:38:18*
%MOMM*%
%LPD*%
G01*
G04 APERTURE LIST*
%ADD10C,0.100000*%
%ADD11C,0.150000*%
%ADD12C,0.120000*%
%ADD13C,0.200000*%
%ADD14R,1.752600X1.752600*%
%ADD15C,1.752600*%
%ADD16C,1.900000*%
%ADD17C,3.050000*%
%ADD18C,3.450000*%
%ADD19C,0.800000*%
%ADD20O,1.600000X2.000000*%
G04 APERTURE END LIST*
D10*
X155372419Y-45017544D02*
X154848609Y-45017544D01*
X154848609Y-45017544D02*
X154753371Y-45065163D01*
X154753371Y-45065163D02*
X154705752Y-45160401D01*
X154705752Y-45160401D02*
X154705752Y-45350877D01*
X154705752Y-45350877D02*
X154753371Y-45446115D01*
X155324800Y-45017544D02*
X155372419Y-45112782D01*
X155372419Y-45112782D02*
X155372419Y-45350877D01*
X155372419Y-45350877D02*
X155324800Y-45446115D01*
X155324800Y-45446115D02*
X155229561Y-45493734D01*
X155229561Y-45493734D02*
X155134323Y-45493734D01*
X155134323Y-45493734D02*
X155039085Y-45446115D01*
X155039085Y-45446115D02*
X154991466Y-45350877D01*
X154991466Y-45350877D02*
X154991466Y-45112782D01*
X154991466Y-45112782D02*
X154943847Y-45017544D01*
X155372419Y-44636591D02*
X154705752Y-44112782D01*
X154705752Y-44636591D02*
X155372419Y-44112782D01*
X155372419Y-43731829D02*
X154705752Y-43731829D01*
X154372419Y-43731829D02*
X154420038Y-43779448D01*
X154420038Y-43779448D02*
X154467657Y-43731829D01*
X154467657Y-43731829D02*
X154420038Y-43684210D01*
X154420038Y-43684210D02*
X154372419Y-43731829D01*
X154372419Y-43731829D02*
X154467657Y-43731829D01*
X155372419Y-43255639D02*
X154705752Y-43255639D01*
X154800990Y-43255639D02*
X154753371Y-43208020D01*
X154753371Y-43208020D02*
X154705752Y-43112782D01*
X154705752Y-43112782D02*
X154705752Y-42969925D01*
X154705752Y-42969925D02*
X154753371Y-42874687D01*
X154753371Y-42874687D02*
X154848609Y-42827068D01*
X154848609Y-42827068D02*
X155372419Y-42827068D01*
X154848609Y-42827068D02*
X154753371Y-42779449D01*
X154753371Y-42779449D02*
X154705752Y-42684211D01*
X154705752Y-42684211D02*
X154705752Y-42541354D01*
X154705752Y-42541354D02*
X154753371Y-42446115D01*
X154753371Y-42446115D02*
X154848609Y-42398496D01*
X154848609Y-42398496D02*
X155372419Y-42398496D01*
X155372419Y-41922306D02*
X154705752Y-41922306D01*
X154372419Y-41922306D02*
X154420038Y-41969925D01*
X154420038Y-41969925D02*
X154467657Y-41922306D01*
X154467657Y-41922306D02*
X154420038Y-41874687D01*
X154420038Y-41874687D02*
X154372419Y-41922306D01*
X154372419Y-41922306D02*
X154467657Y-41922306D01*
X154991466Y-41446116D02*
X154991466Y-40684212D01*
X154467657Y-40255640D02*
X154420038Y-40208021D01*
X154420038Y-40208021D02*
X154372419Y-40112783D01*
X154372419Y-40112783D02*
X154372419Y-39874688D01*
X154372419Y-39874688D02*
X154420038Y-39779450D01*
X154420038Y-39779450D02*
X154467657Y-39731831D01*
X154467657Y-39731831D02*
X154562895Y-39684212D01*
X154562895Y-39684212D02*
X154658133Y-39684212D01*
X154658133Y-39684212D02*
X154800990Y-39731831D01*
X154800990Y-39731831D02*
X155372419Y-40303259D01*
X155372419Y-40303259D02*
X155372419Y-39684212D01*
X155277180Y-39255640D02*
X155324800Y-39208021D01*
X155324800Y-39208021D02*
X155372419Y-39255640D01*
X155372419Y-39255640D02*
X155324800Y-39303259D01*
X155324800Y-39303259D02*
X155277180Y-39255640D01*
X155277180Y-39255640D02*
X155372419Y-39255640D01*
X154372419Y-38588974D02*
X154372419Y-38493736D01*
X154372419Y-38493736D02*
X154420038Y-38398498D01*
X154420038Y-38398498D02*
X154467657Y-38350879D01*
X154467657Y-38350879D02*
X154562895Y-38303260D01*
X154562895Y-38303260D02*
X154753371Y-38255641D01*
X154753371Y-38255641D02*
X154991466Y-38255641D01*
X154991466Y-38255641D02*
X155181942Y-38303260D01*
X155181942Y-38303260D02*
X155277180Y-38350879D01*
X155277180Y-38350879D02*
X155324800Y-38398498D01*
X155324800Y-38398498D02*
X155372419Y-38493736D01*
X155372419Y-38493736D02*
X155372419Y-38588974D01*
X155372419Y-38588974D02*
X155324800Y-38684212D01*
X155324800Y-38684212D02*
X155277180Y-38731831D01*
X155277180Y-38731831D02*
X155181942Y-38779450D01*
X155181942Y-38779450D02*
X154991466Y-38827069D01*
X154991466Y-38827069D02*
X154753371Y-38827069D01*
X154753371Y-38827069D02*
X154562895Y-38779450D01*
X154562895Y-38779450D02*
X154467657Y-38731831D01*
X154467657Y-38731831D02*
X154420038Y-38684212D01*
X154420038Y-38684212D02*
X154372419Y-38588974D01*
D11*
X84963095Y-49694700D02*
X85105952Y-49742319D01*
X85105952Y-49742319D02*
X85344047Y-49742319D01*
X85344047Y-49742319D02*
X85439285Y-49694700D01*
X85439285Y-49694700D02*
X85486904Y-49647080D01*
X85486904Y-49647080D02*
X85534523Y-49551842D01*
X85534523Y-49551842D02*
X85534523Y-49456604D01*
X85534523Y-49456604D02*
X85486904Y-49361366D01*
X85486904Y-49361366D02*
X85439285Y-49313747D01*
X85439285Y-49313747D02*
X85344047Y-49266128D01*
X85344047Y-49266128D02*
X85153571Y-49218509D01*
X85153571Y-49218509D02*
X85058333Y-49170890D01*
X85058333Y-49170890D02*
X85010714Y-49123271D01*
X85010714Y-49123271D02*
X84963095Y-49028033D01*
X84963095Y-49028033D02*
X84963095Y-48932795D01*
X84963095Y-48932795D02*
X85010714Y-48837557D01*
X85010714Y-48837557D02*
X85058333Y-48789938D01*
X85058333Y-48789938D02*
X85153571Y-48742319D01*
X85153571Y-48742319D02*
X85391666Y-48742319D01*
X85391666Y-48742319D02*
X85534523Y-48789938D01*
X86010714Y-49742319D02*
X86201190Y-49742319D01*
X86201190Y-49742319D02*
X86296428Y-49694700D01*
X86296428Y-49694700D02*
X86344047Y-49647080D01*
X86344047Y-49647080D02*
X86439285Y-49504223D01*
X86439285Y-49504223D02*
X86486904Y-49313747D01*
X86486904Y-49313747D02*
X86486904Y-48932795D01*
X86486904Y-48932795D02*
X86439285Y-48837557D01*
X86439285Y-48837557D02*
X86391666Y-48789938D01*
X86391666Y-48789938D02*
X86296428Y-48742319D01*
X86296428Y-48742319D02*
X86105952Y-48742319D01*
X86105952Y-48742319D02*
X86010714Y-48789938D01*
X86010714Y-48789938D02*
X85963095Y-48837557D01*
X85963095Y-48837557D02*
X85915476Y-48932795D01*
X85915476Y-48932795D02*
X85915476Y-49170890D01*
X85915476Y-49170890D02*
X85963095Y-49266128D01*
X85963095Y-49266128D02*
X86010714Y-49313747D01*
X86010714Y-49313747D02*
X86105952Y-49361366D01*
X86105952Y-49361366D02*
X86296428Y-49361366D01*
X86296428Y-49361366D02*
X86391666Y-49313747D01*
X86391666Y-49313747D02*
X86439285Y-49266128D01*
X86439285Y-49266128D02*
X86486904Y-49170890D01*
X103536905Y-61094700D02*
X103679762Y-61142319D01*
X103679762Y-61142319D02*
X103917857Y-61142319D01*
X103917857Y-61142319D02*
X104013095Y-61094700D01*
X104013095Y-61094700D02*
X104060714Y-61047080D01*
X104060714Y-61047080D02*
X104108333Y-60951842D01*
X104108333Y-60951842D02*
X104108333Y-60856604D01*
X104108333Y-60856604D02*
X104060714Y-60761366D01*
X104060714Y-60761366D02*
X104013095Y-60713747D01*
X104013095Y-60713747D02*
X103917857Y-60666128D01*
X103917857Y-60666128D02*
X103727381Y-60618509D01*
X103727381Y-60618509D02*
X103632143Y-60570890D01*
X103632143Y-60570890D02*
X103584524Y-60523271D01*
X103584524Y-60523271D02*
X103536905Y-60428033D01*
X103536905Y-60428033D02*
X103536905Y-60332795D01*
X103536905Y-60332795D02*
X103584524Y-60237557D01*
X103584524Y-60237557D02*
X103632143Y-60189938D01*
X103632143Y-60189938D02*
X103727381Y-60142319D01*
X103727381Y-60142319D02*
X103965476Y-60142319D01*
X103965476Y-60142319D02*
X104108333Y-60189938D01*
X105060714Y-61142319D02*
X104489286Y-61142319D01*
X104775000Y-61142319D02*
X104775000Y-60142319D01*
X104775000Y-60142319D02*
X104679762Y-60285176D01*
X104679762Y-60285176D02*
X104584524Y-60380414D01*
X104584524Y-60380414D02*
X104489286Y-60428033D01*
X105917857Y-60142319D02*
X105727381Y-60142319D01*
X105727381Y-60142319D02*
X105632143Y-60189938D01*
X105632143Y-60189938D02*
X105584524Y-60237557D01*
X105584524Y-60237557D02*
X105489286Y-60380414D01*
X105489286Y-60380414D02*
X105441667Y-60570890D01*
X105441667Y-60570890D02*
X105441667Y-60951842D01*
X105441667Y-60951842D02*
X105489286Y-61047080D01*
X105489286Y-61047080D02*
X105536905Y-61094700D01*
X105536905Y-61094700D02*
X105632143Y-61142319D01*
X105632143Y-61142319D02*
X105822619Y-61142319D01*
X105822619Y-61142319D02*
X105917857Y-61094700D01*
X105917857Y-61094700D02*
X105965476Y-61047080D01*
X105965476Y-61047080D02*
X106013095Y-60951842D01*
X106013095Y-60951842D02*
X106013095Y-60713747D01*
X106013095Y-60713747D02*
X105965476Y-60618509D01*
X105965476Y-60618509D02*
X105917857Y-60570890D01*
X105917857Y-60570890D02*
X105822619Y-60523271D01*
X105822619Y-60523271D02*
X105632143Y-60523271D01*
X105632143Y-60523271D02*
X105536905Y-60570890D01*
X105536905Y-60570890D02*
X105489286Y-60618509D01*
X105489286Y-60618509D02*
X105441667Y-60713747D01*
X122586905Y-89669700D02*
X122729762Y-89717319D01*
X122729762Y-89717319D02*
X122967857Y-89717319D01*
X122967857Y-89717319D02*
X123063095Y-89669700D01*
X123063095Y-89669700D02*
X123110714Y-89622080D01*
X123110714Y-89622080D02*
X123158333Y-89526842D01*
X123158333Y-89526842D02*
X123158333Y-89431604D01*
X123158333Y-89431604D02*
X123110714Y-89336366D01*
X123110714Y-89336366D02*
X123063095Y-89288747D01*
X123063095Y-89288747D02*
X122967857Y-89241128D01*
X122967857Y-89241128D02*
X122777381Y-89193509D01*
X122777381Y-89193509D02*
X122682143Y-89145890D01*
X122682143Y-89145890D02*
X122634524Y-89098271D01*
X122634524Y-89098271D02*
X122586905Y-89003033D01*
X122586905Y-89003033D02*
X122586905Y-88907795D01*
X122586905Y-88907795D02*
X122634524Y-88812557D01*
X122634524Y-88812557D02*
X122682143Y-88764938D01*
X122682143Y-88764938D02*
X122777381Y-88717319D01*
X122777381Y-88717319D02*
X123015476Y-88717319D01*
X123015476Y-88717319D02*
X123158333Y-88764938D01*
X123539286Y-88812557D02*
X123586905Y-88764938D01*
X123586905Y-88764938D02*
X123682143Y-88717319D01*
X123682143Y-88717319D02*
X123920238Y-88717319D01*
X123920238Y-88717319D02*
X124015476Y-88764938D01*
X124015476Y-88764938D02*
X124063095Y-88812557D01*
X124063095Y-88812557D02*
X124110714Y-88907795D01*
X124110714Y-88907795D02*
X124110714Y-89003033D01*
X124110714Y-89003033D02*
X124063095Y-89145890D01*
X124063095Y-89145890D02*
X123491667Y-89717319D01*
X123491667Y-89717319D02*
X124110714Y-89717319D01*
X124729762Y-88717319D02*
X124825000Y-88717319D01*
X124825000Y-88717319D02*
X124920238Y-88764938D01*
X124920238Y-88764938D02*
X124967857Y-88812557D01*
X124967857Y-88812557D02*
X125015476Y-88907795D01*
X125015476Y-88907795D02*
X125063095Y-89098271D01*
X125063095Y-89098271D02*
X125063095Y-89336366D01*
X125063095Y-89336366D02*
X125015476Y-89526842D01*
X125015476Y-89526842D02*
X124967857Y-89622080D01*
X124967857Y-89622080D02*
X124920238Y-89669700D01*
X124920238Y-89669700D02*
X124825000Y-89717319D01*
X124825000Y-89717319D02*
X124729762Y-89717319D01*
X124729762Y-89717319D02*
X124634524Y-89669700D01*
X124634524Y-89669700D02*
X124586905Y-89622080D01*
X124586905Y-89622080D02*
X124539286Y-89526842D01*
X124539286Y-89526842D02*
X124491667Y-89336366D01*
X124491667Y-89336366D02*
X124491667Y-89098271D01*
X124491667Y-89098271D02*
X124539286Y-88907795D01*
X124539286Y-88907795D02*
X124586905Y-88812557D01*
X124586905Y-88812557D02*
X124634524Y-88764938D01*
X124634524Y-88764938D02*
X124729762Y-88717319D01*
X123063095Y-27757200D02*
X123205952Y-27804819D01*
X123205952Y-27804819D02*
X123444047Y-27804819D01*
X123444047Y-27804819D02*
X123539285Y-27757200D01*
X123539285Y-27757200D02*
X123586904Y-27709580D01*
X123586904Y-27709580D02*
X123634523Y-27614342D01*
X123634523Y-27614342D02*
X123634523Y-27519104D01*
X123634523Y-27519104D02*
X123586904Y-27423866D01*
X123586904Y-27423866D02*
X123539285Y-27376247D01*
X123539285Y-27376247D02*
X123444047Y-27328628D01*
X123444047Y-27328628D02*
X123253571Y-27281009D01*
X123253571Y-27281009D02*
X123158333Y-27233390D01*
X123158333Y-27233390D02*
X123110714Y-27185771D01*
X123110714Y-27185771D02*
X123063095Y-27090533D01*
X123063095Y-27090533D02*
X123063095Y-26995295D01*
X123063095Y-26995295D02*
X123110714Y-26900057D01*
X123110714Y-26900057D02*
X123158333Y-26852438D01*
X123158333Y-26852438D02*
X123253571Y-26804819D01*
X123253571Y-26804819D02*
X123491666Y-26804819D01*
X123491666Y-26804819D02*
X123634523Y-26852438D01*
X124539285Y-26804819D02*
X124063095Y-26804819D01*
X124063095Y-26804819D02*
X124015476Y-27281009D01*
X124015476Y-27281009D02*
X124063095Y-27233390D01*
X124063095Y-27233390D02*
X124158333Y-27185771D01*
X124158333Y-27185771D02*
X124396428Y-27185771D01*
X124396428Y-27185771D02*
X124491666Y-27233390D01*
X124491666Y-27233390D02*
X124539285Y-27281009D01*
X124539285Y-27281009D02*
X124586904Y-27376247D01*
X124586904Y-27376247D02*
X124586904Y-27614342D01*
X124586904Y-27614342D02*
X124539285Y-27709580D01*
X124539285Y-27709580D02*
X124491666Y-27757200D01*
X124491666Y-27757200D02*
X124396428Y-27804819D01*
X124396428Y-27804819D02*
X124158333Y-27804819D01*
X124158333Y-27804819D02*
X124063095Y-27757200D01*
X124063095Y-27757200D02*
X124015476Y-27709580D01*
X46863095Y-62844700D02*
X47005952Y-62892319D01*
X47005952Y-62892319D02*
X47244047Y-62892319D01*
X47244047Y-62892319D02*
X47339285Y-62844700D01*
X47339285Y-62844700D02*
X47386904Y-62797080D01*
X47386904Y-62797080D02*
X47434523Y-62701842D01*
X47434523Y-62701842D02*
X47434523Y-62606604D01*
X47434523Y-62606604D02*
X47386904Y-62511366D01*
X47386904Y-62511366D02*
X47339285Y-62463747D01*
X47339285Y-62463747D02*
X47244047Y-62416128D01*
X47244047Y-62416128D02*
X47053571Y-62368509D01*
X47053571Y-62368509D02*
X46958333Y-62320890D01*
X46958333Y-62320890D02*
X46910714Y-62273271D01*
X46910714Y-62273271D02*
X46863095Y-62178033D01*
X46863095Y-62178033D02*
X46863095Y-62082795D01*
X46863095Y-62082795D02*
X46910714Y-61987557D01*
X46910714Y-61987557D02*
X46958333Y-61939938D01*
X46958333Y-61939938D02*
X47053571Y-61892319D01*
X47053571Y-61892319D02*
X47291666Y-61892319D01*
X47291666Y-61892319D02*
X47434523Y-61939938D01*
X47767857Y-61892319D02*
X48434523Y-61892319D01*
X48434523Y-61892319D02*
X48005952Y-62892319D01*
X56988095Y-40407200D02*
X57130952Y-40454819D01*
X57130952Y-40454819D02*
X57369047Y-40454819D01*
X57369047Y-40454819D02*
X57464285Y-40407200D01*
X57464285Y-40407200D02*
X57511904Y-40359580D01*
X57511904Y-40359580D02*
X57559523Y-40264342D01*
X57559523Y-40264342D02*
X57559523Y-40169104D01*
X57559523Y-40169104D02*
X57511904Y-40073866D01*
X57511904Y-40073866D02*
X57464285Y-40026247D01*
X57464285Y-40026247D02*
X57369047Y-39978628D01*
X57369047Y-39978628D02*
X57178571Y-39931009D01*
X57178571Y-39931009D02*
X57083333Y-39883390D01*
X57083333Y-39883390D02*
X57035714Y-39835771D01*
X57035714Y-39835771D02*
X56988095Y-39740533D01*
X56988095Y-39740533D02*
X56988095Y-39645295D01*
X56988095Y-39645295D02*
X57035714Y-39550057D01*
X57035714Y-39550057D02*
X57083333Y-39502438D01*
X57083333Y-39502438D02*
X57178571Y-39454819D01*
X57178571Y-39454819D02*
X57416666Y-39454819D01*
X57416666Y-39454819D02*
X57559523Y-39502438D01*
X57940476Y-39550057D02*
X57988095Y-39502438D01*
X57988095Y-39502438D02*
X58083333Y-39454819D01*
X58083333Y-39454819D02*
X58321428Y-39454819D01*
X58321428Y-39454819D02*
X58416666Y-39502438D01*
X58416666Y-39502438D02*
X58464285Y-39550057D01*
X58464285Y-39550057D02*
X58511904Y-39645295D01*
X58511904Y-39645295D02*
X58511904Y-39740533D01*
X58511904Y-39740533D02*
X58464285Y-39883390D01*
X58464285Y-39883390D02*
X57892857Y-40454819D01*
X57892857Y-40454819D02*
X58511904Y-40454819D01*
X50488095Y-44407200D02*
X50630952Y-44454819D01*
X50630952Y-44454819D02*
X50869047Y-44454819D01*
X50869047Y-44454819D02*
X50964285Y-44407200D01*
X50964285Y-44407200D02*
X51011904Y-44359580D01*
X51011904Y-44359580D02*
X51059523Y-44264342D01*
X51059523Y-44264342D02*
X51059523Y-44169104D01*
X51059523Y-44169104D02*
X51011904Y-44073866D01*
X51011904Y-44073866D02*
X50964285Y-44026247D01*
X50964285Y-44026247D02*
X50869047Y-43978628D01*
X50869047Y-43978628D02*
X50678571Y-43931009D01*
X50678571Y-43931009D02*
X50583333Y-43883390D01*
X50583333Y-43883390D02*
X50535714Y-43835771D01*
X50535714Y-43835771D02*
X50488095Y-43740533D01*
X50488095Y-43740533D02*
X50488095Y-43645295D01*
X50488095Y-43645295D02*
X50535714Y-43550057D01*
X50535714Y-43550057D02*
X50583333Y-43502438D01*
X50583333Y-43502438D02*
X50678571Y-43454819D01*
X50678571Y-43454819D02*
X50916666Y-43454819D01*
X50916666Y-43454819D02*
X51059523Y-43502438D01*
X52011904Y-44454819D02*
X51440476Y-44454819D01*
X51726190Y-44454819D02*
X51726190Y-43454819D01*
X51726190Y-43454819D02*
X51630952Y-43597676D01*
X51630952Y-43597676D02*
X51535714Y-43692914D01*
X51535714Y-43692914D02*
X51440476Y-43740533D01*
X141636905Y-51569700D02*
X141779762Y-51617319D01*
X141779762Y-51617319D02*
X142017857Y-51617319D01*
X142017857Y-51617319D02*
X142113095Y-51569700D01*
X142113095Y-51569700D02*
X142160714Y-51522080D01*
X142160714Y-51522080D02*
X142208333Y-51426842D01*
X142208333Y-51426842D02*
X142208333Y-51331604D01*
X142208333Y-51331604D02*
X142160714Y-51236366D01*
X142160714Y-51236366D02*
X142113095Y-51188747D01*
X142113095Y-51188747D02*
X142017857Y-51141128D01*
X142017857Y-51141128D02*
X141827381Y-51093509D01*
X141827381Y-51093509D02*
X141732143Y-51045890D01*
X141732143Y-51045890D02*
X141684524Y-50998271D01*
X141684524Y-50998271D02*
X141636905Y-50903033D01*
X141636905Y-50903033D02*
X141636905Y-50807795D01*
X141636905Y-50807795D02*
X141684524Y-50712557D01*
X141684524Y-50712557D02*
X141732143Y-50664938D01*
X141732143Y-50664938D02*
X141827381Y-50617319D01*
X141827381Y-50617319D02*
X142065476Y-50617319D01*
X142065476Y-50617319D02*
X142208333Y-50664938D01*
X143160714Y-51617319D02*
X142589286Y-51617319D01*
X142875000Y-51617319D02*
X142875000Y-50617319D01*
X142875000Y-50617319D02*
X142779762Y-50760176D01*
X142779762Y-50760176D02*
X142684524Y-50855414D01*
X142684524Y-50855414D02*
X142589286Y-50903033D01*
X143541667Y-50712557D02*
X143589286Y-50664938D01*
X143589286Y-50664938D02*
X143684524Y-50617319D01*
X143684524Y-50617319D02*
X143922619Y-50617319D01*
X143922619Y-50617319D02*
X144017857Y-50664938D01*
X144017857Y-50664938D02*
X144065476Y-50712557D01*
X144065476Y-50712557D02*
X144113095Y-50807795D01*
X144113095Y-50807795D02*
X144113095Y-50903033D01*
X144113095Y-50903033D02*
X144065476Y-51045890D01*
X144065476Y-51045890D02*
X143494048Y-51617319D01*
X143494048Y-51617319D02*
X144113095Y-51617319D01*
X84486905Y-68744700D02*
X84629762Y-68792319D01*
X84629762Y-68792319D02*
X84867857Y-68792319D01*
X84867857Y-68792319D02*
X84963095Y-68744700D01*
X84963095Y-68744700D02*
X85010714Y-68697080D01*
X85010714Y-68697080D02*
X85058333Y-68601842D01*
X85058333Y-68601842D02*
X85058333Y-68506604D01*
X85058333Y-68506604D02*
X85010714Y-68411366D01*
X85010714Y-68411366D02*
X84963095Y-68363747D01*
X84963095Y-68363747D02*
X84867857Y-68316128D01*
X84867857Y-68316128D02*
X84677381Y-68268509D01*
X84677381Y-68268509D02*
X84582143Y-68220890D01*
X84582143Y-68220890D02*
X84534524Y-68173271D01*
X84534524Y-68173271D02*
X84486905Y-68078033D01*
X84486905Y-68078033D02*
X84486905Y-67982795D01*
X84486905Y-67982795D02*
X84534524Y-67887557D01*
X84534524Y-67887557D02*
X84582143Y-67839938D01*
X84582143Y-67839938D02*
X84677381Y-67792319D01*
X84677381Y-67792319D02*
X84915476Y-67792319D01*
X84915476Y-67792319D02*
X85058333Y-67839938D01*
X86010714Y-68792319D02*
X85439286Y-68792319D01*
X85725000Y-68792319D02*
X85725000Y-67792319D01*
X85725000Y-67792319D02*
X85629762Y-67935176D01*
X85629762Y-67935176D02*
X85534524Y-68030414D01*
X85534524Y-68030414D02*
X85439286Y-68078033D01*
X86915476Y-67792319D02*
X86439286Y-67792319D01*
X86439286Y-67792319D02*
X86391667Y-68268509D01*
X86391667Y-68268509D02*
X86439286Y-68220890D01*
X86439286Y-68220890D02*
X86534524Y-68173271D01*
X86534524Y-68173271D02*
X86772619Y-68173271D01*
X86772619Y-68173271D02*
X86867857Y-68220890D01*
X86867857Y-68220890D02*
X86915476Y-68268509D01*
X86915476Y-68268509D02*
X86963095Y-68363747D01*
X86963095Y-68363747D02*
X86963095Y-68601842D01*
X86963095Y-68601842D02*
X86915476Y-68697080D01*
X86915476Y-68697080D02*
X86867857Y-68744700D01*
X86867857Y-68744700D02*
X86772619Y-68792319D01*
X86772619Y-68792319D02*
X86534524Y-68792319D01*
X86534524Y-68792319D02*
X86439286Y-68744700D01*
X86439286Y-68744700D02*
X86391667Y-68697080D01*
X103536905Y-42044700D02*
X103679762Y-42092319D01*
X103679762Y-42092319D02*
X103917857Y-42092319D01*
X103917857Y-42092319D02*
X104013095Y-42044700D01*
X104013095Y-42044700D02*
X104060714Y-41997080D01*
X104060714Y-41997080D02*
X104108333Y-41901842D01*
X104108333Y-41901842D02*
X104108333Y-41806604D01*
X104108333Y-41806604D02*
X104060714Y-41711366D01*
X104060714Y-41711366D02*
X104013095Y-41663747D01*
X104013095Y-41663747D02*
X103917857Y-41616128D01*
X103917857Y-41616128D02*
X103727381Y-41568509D01*
X103727381Y-41568509D02*
X103632143Y-41520890D01*
X103632143Y-41520890D02*
X103584524Y-41473271D01*
X103584524Y-41473271D02*
X103536905Y-41378033D01*
X103536905Y-41378033D02*
X103536905Y-41282795D01*
X103536905Y-41282795D02*
X103584524Y-41187557D01*
X103584524Y-41187557D02*
X103632143Y-41139938D01*
X103632143Y-41139938D02*
X103727381Y-41092319D01*
X103727381Y-41092319D02*
X103965476Y-41092319D01*
X103965476Y-41092319D02*
X104108333Y-41139938D01*
X105060714Y-42092319D02*
X104489286Y-42092319D01*
X104775000Y-42092319D02*
X104775000Y-41092319D01*
X104775000Y-41092319D02*
X104679762Y-41235176D01*
X104679762Y-41235176D02*
X104584524Y-41330414D01*
X104584524Y-41330414D02*
X104489286Y-41378033D01*
X105679762Y-41092319D02*
X105775000Y-41092319D01*
X105775000Y-41092319D02*
X105870238Y-41139938D01*
X105870238Y-41139938D02*
X105917857Y-41187557D01*
X105917857Y-41187557D02*
X105965476Y-41282795D01*
X105965476Y-41282795D02*
X106013095Y-41473271D01*
X106013095Y-41473271D02*
X106013095Y-41711366D01*
X106013095Y-41711366D02*
X105965476Y-41901842D01*
X105965476Y-41901842D02*
X105917857Y-41997080D01*
X105917857Y-41997080D02*
X105870238Y-42044700D01*
X105870238Y-42044700D02*
X105775000Y-42092319D01*
X105775000Y-42092319D02*
X105679762Y-42092319D01*
X105679762Y-42092319D02*
X105584524Y-42044700D01*
X105584524Y-42044700D02*
X105536905Y-41997080D01*
X105536905Y-41997080D02*
X105489286Y-41901842D01*
X105489286Y-41901842D02*
X105441667Y-41711366D01*
X105441667Y-41711366D02*
X105441667Y-41473271D01*
X105441667Y-41473271D02*
X105489286Y-41282795D01*
X105489286Y-41282795D02*
X105536905Y-41187557D01*
X105536905Y-41187557D02*
X105584524Y-41139938D01*
X105584524Y-41139938D02*
X105679762Y-41092319D01*
X65436905Y-77132200D02*
X65579762Y-77179819D01*
X65579762Y-77179819D02*
X65817857Y-77179819D01*
X65817857Y-77179819D02*
X65913095Y-77132200D01*
X65913095Y-77132200D02*
X65960714Y-77084580D01*
X65960714Y-77084580D02*
X66008333Y-76989342D01*
X66008333Y-76989342D02*
X66008333Y-76894104D01*
X66008333Y-76894104D02*
X65960714Y-76798866D01*
X65960714Y-76798866D02*
X65913095Y-76751247D01*
X65913095Y-76751247D02*
X65817857Y-76703628D01*
X65817857Y-76703628D02*
X65627381Y-76656009D01*
X65627381Y-76656009D02*
X65532143Y-76608390D01*
X65532143Y-76608390D02*
X65484524Y-76560771D01*
X65484524Y-76560771D02*
X65436905Y-76465533D01*
X65436905Y-76465533D02*
X65436905Y-76370295D01*
X65436905Y-76370295D02*
X65484524Y-76275057D01*
X65484524Y-76275057D02*
X65532143Y-76227438D01*
X65532143Y-76227438D02*
X65627381Y-76179819D01*
X65627381Y-76179819D02*
X65865476Y-76179819D01*
X65865476Y-76179819D02*
X66008333Y-76227438D01*
X66960714Y-77179819D02*
X66389286Y-77179819D01*
X66675000Y-77179819D02*
X66675000Y-76179819D01*
X66675000Y-76179819D02*
X66579762Y-76322676D01*
X66579762Y-76322676D02*
X66484524Y-76417914D01*
X66484524Y-76417914D02*
X66389286Y-76465533D01*
X67817857Y-76513152D02*
X67817857Y-77179819D01*
X67579762Y-76132200D02*
X67341667Y-76846485D01*
X67341667Y-76846485D02*
X67960714Y-76846485D01*
X103536905Y-89669700D02*
X103679762Y-89717319D01*
X103679762Y-89717319D02*
X103917857Y-89717319D01*
X103917857Y-89717319D02*
X104013095Y-89669700D01*
X104013095Y-89669700D02*
X104060714Y-89622080D01*
X104060714Y-89622080D02*
X104108333Y-89526842D01*
X104108333Y-89526842D02*
X104108333Y-89431604D01*
X104108333Y-89431604D02*
X104060714Y-89336366D01*
X104060714Y-89336366D02*
X104013095Y-89288747D01*
X104013095Y-89288747D02*
X103917857Y-89241128D01*
X103917857Y-89241128D02*
X103727381Y-89193509D01*
X103727381Y-89193509D02*
X103632143Y-89145890D01*
X103632143Y-89145890D02*
X103584524Y-89098271D01*
X103584524Y-89098271D02*
X103536905Y-89003033D01*
X103536905Y-89003033D02*
X103536905Y-88907795D01*
X103536905Y-88907795D02*
X103584524Y-88812557D01*
X103584524Y-88812557D02*
X103632143Y-88764938D01*
X103632143Y-88764938D02*
X103727381Y-88717319D01*
X103727381Y-88717319D02*
X103965476Y-88717319D01*
X103965476Y-88717319D02*
X104108333Y-88764938D01*
X105060714Y-89717319D02*
X104489286Y-89717319D01*
X104775000Y-89717319D02*
X104775000Y-88717319D01*
X104775000Y-88717319D02*
X104679762Y-88860176D01*
X104679762Y-88860176D02*
X104584524Y-88955414D01*
X104584524Y-88955414D02*
X104489286Y-89003033D01*
X105536905Y-89717319D02*
X105727381Y-89717319D01*
X105727381Y-89717319D02*
X105822619Y-89669700D01*
X105822619Y-89669700D02*
X105870238Y-89622080D01*
X105870238Y-89622080D02*
X105965476Y-89479223D01*
X105965476Y-89479223D02*
X106013095Y-89288747D01*
X106013095Y-89288747D02*
X106013095Y-88907795D01*
X106013095Y-88907795D02*
X105965476Y-88812557D01*
X105965476Y-88812557D02*
X105917857Y-88764938D01*
X105917857Y-88764938D02*
X105822619Y-88717319D01*
X105822619Y-88717319D02*
X105632143Y-88717319D01*
X105632143Y-88717319D02*
X105536905Y-88764938D01*
X105536905Y-88764938D02*
X105489286Y-88812557D01*
X105489286Y-88812557D02*
X105441667Y-88907795D01*
X105441667Y-88907795D02*
X105441667Y-89145890D01*
X105441667Y-89145890D02*
X105489286Y-89241128D01*
X105489286Y-89241128D02*
X105536905Y-89288747D01*
X105536905Y-89288747D02*
X105632143Y-89336366D01*
X105632143Y-89336366D02*
X105822619Y-89336366D01*
X105822619Y-89336366D02*
X105917857Y-89288747D01*
X105917857Y-89288747D02*
X105965476Y-89241128D01*
X105965476Y-89241128D02*
X106013095Y-89145890D01*
X141636905Y-89669700D02*
X141779762Y-89717319D01*
X141779762Y-89717319D02*
X142017857Y-89717319D01*
X142017857Y-89717319D02*
X142113095Y-89669700D01*
X142113095Y-89669700D02*
X142160714Y-89622080D01*
X142160714Y-89622080D02*
X142208333Y-89526842D01*
X142208333Y-89526842D02*
X142208333Y-89431604D01*
X142208333Y-89431604D02*
X142160714Y-89336366D01*
X142160714Y-89336366D02*
X142113095Y-89288747D01*
X142113095Y-89288747D02*
X142017857Y-89241128D01*
X142017857Y-89241128D02*
X141827381Y-89193509D01*
X141827381Y-89193509D02*
X141732143Y-89145890D01*
X141732143Y-89145890D02*
X141684524Y-89098271D01*
X141684524Y-89098271D02*
X141636905Y-89003033D01*
X141636905Y-89003033D02*
X141636905Y-88907795D01*
X141636905Y-88907795D02*
X141684524Y-88812557D01*
X141684524Y-88812557D02*
X141732143Y-88764938D01*
X141732143Y-88764938D02*
X141827381Y-88717319D01*
X141827381Y-88717319D02*
X142065476Y-88717319D01*
X142065476Y-88717319D02*
X142208333Y-88764938D01*
X142589286Y-88812557D02*
X142636905Y-88764938D01*
X142636905Y-88764938D02*
X142732143Y-88717319D01*
X142732143Y-88717319D02*
X142970238Y-88717319D01*
X142970238Y-88717319D02*
X143065476Y-88764938D01*
X143065476Y-88764938D02*
X143113095Y-88812557D01*
X143113095Y-88812557D02*
X143160714Y-88907795D01*
X143160714Y-88907795D02*
X143160714Y-89003033D01*
X143160714Y-89003033D02*
X143113095Y-89145890D01*
X143113095Y-89145890D02*
X142541667Y-89717319D01*
X142541667Y-89717319D02*
X143160714Y-89717319D01*
X144113095Y-89717319D02*
X143541667Y-89717319D01*
X143827381Y-89717319D02*
X143827381Y-88717319D01*
X143827381Y-88717319D02*
X143732143Y-88860176D01*
X143732143Y-88860176D02*
X143636905Y-88955414D01*
X143636905Y-88955414D02*
X143541667Y-89003033D01*
X65913095Y-58082200D02*
X66055952Y-58129819D01*
X66055952Y-58129819D02*
X66294047Y-58129819D01*
X66294047Y-58129819D02*
X66389285Y-58082200D01*
X66389285Y-58082200D02*
X66436904Y-58034580D01*
X66436904Y-58034580D02*
X66484523Y-57939342D01*
X66484523Y-57939342D02*
X66484523Y-57844104D01*
X66484523Y-57844104D02*
X66436904Y-57748866D01*
X66436904Y-57748866D02*
X66389285Y-57701247D01*
X66389285Y-57701247D02*
X66294047Y-57653628D01*
X66294047Y-57653628D02*
X66103571Y-57606009D01*
X66103571Y-57606009D02*
X66008333Y-57558390D01*
X66008333Y-57558390D02*
X65960714Y-57510771D01*
X65960714Y-57510771D02*
X65913095Y-57415533D01*
X65913095Y-57415533D02*
X65913095Y-57320295D01*
X65913095Y-57320295D02*
X65960714Y-57225057D01*
X65960714Y-57225057D02*
X66008333Y-57177438D01*
X66008333Y-57177438D02*
X66103571Y-57129819D01*
X66103571Y-57129819D02*
X66341666Y-57129819D01*
X66341666Y-57129819D02*
X66484523Y-57177438D01*
X67055952Y-57558390D02*
X66960714Y-57510771D01*
X66960714Y-57510771D02*
X66913095Y-57463152D01*
X66913095Y-57463152D02*
X66865476Y-57367914D01*
X66865476Y-57367914D02*
X66865476Y-57320295D01*
X66865476Y-57320295D02*
X66913095Y-57225057D01*
X66913095Y-57225057D02*
X66960714Y-57177438D01*
X66960714Y-57177438D02*
X67055952Y-57129819D01*
X67055952Y-57129819D02*
X67246428Y-57129819D01*
X67246428Y-57129819D02*
X67341666Y-57177438D01*
X67341666Y-57177438D02*
X67389285Y-57225057D01*
X67389285Y-57225057D02*
X67436904Y-57320295D01*
X67436904Y-57320295D02*
X67436904Y-57367914D01*
X67436904Y-57367914D02*
X67389285Y-57463152D01*
X67389285Y-57463152D02*
X67341666Y-57510771D01*
X67341666Y-57510771D02*
X67246428Y-57558390D01*
X67246428Y-57558390D02*
X67055952Y-57558390D01*
X67055952Y-57558390D02*
X66960714Y-57606009D01*
X66960714Y-57606009D02*
X66913095Y-57653628D01*
X66913095Y-57653628D02*
X66865476Y-57748866D01*
X66865476Y-57748866D02*
X66865476Y-57939342D01*
X66865476Y-57939342D02*
X66913095Y-58034580D01*
X66913095Y-58034580D02*
X66960714Y-58082200D01*
X66960714Y-58082200D02*
X67055952Y-58129819D01*
X67055952Y-58129819D02*
X67246428Y-58129819D01*
X67246428Y-58129819D02*
X67341666Y-58082200D01*
X67341666Y-58082200D02*
X67389285Y-58034580D01*
X67389285Y-58034580D02*
X67436904Y-57939342D01*
X67436904Y-57939342D02*
X67436904Y-57748866D01*
X67436904Y-57748866D02*
X67389285Y-57653628D01*
X67389285Y-57653628D02*
X67341666Y-57606009D01*
X67341666Y-57606009D02*
X67246428Y-57558390D01*
X97988095Y-25657200D02*
X98130952Y-25704819D01*
X98130952Y-25704819D02*
X98369047Y-25704819D01*
X98369047Y-25704819D02*
X98464285Y-25657200D01*
X98464285Y-25657200D02*
X98511904Y-25609580D01*
X98511904Y-25609580D02*
X98559523Y-25514342D01*
X98559523Y-25514342D02*
X98559523Y-25419104D01*
X98559523Y-25419104D02*
X98511904Y-25323866D01*
X98511904Y-25323866D02*
X98464285Y-25276247D01*
X98464285Y-25276247D02*
X98369047Y-25228628D01*
X98369047Y-25228628D02*
X98178571Y-25181009D01*
X98178571Y-25181009D02*
X98083333Y-25133390D01*
X98083333Y-25133390D02*
X98035714Y-25085771D01*
X98035714Y-25085771D02*
X97988095Y-24990533D01*
X97988095Y-24990533D02*
X97988095Y-24895295D01*
X97988095Y-24895295D02*
X98035714Y-24800057D01*
X98035714Y-24800057D02*
X98083333Y-24752438D01*
X98083333Y-24752438D02*
X98178571Y-24704819D01*
X98178571Y-24704819D02*
X98416666Y-24704819D01*
X98416666Y-24704819D02*
X98559523Y-24752438D01*
X99416666Y-25038152D02*
X99416666Y-25704819D01*
X99178571Y-24657200D02*
X98940476Y-25371485D01*
X98940476Y-25371485D02*
X99559523Y-25371485D01*
X46386905Y-81894700D02*
X46529762Y-81942319D01*
X46529762Y-81942319D02*
X46767857Y-81942319D01*
X46767857Y-81942319D02*
X46863095Y-81894700D01*
X46863095Y-81894700D02*
X46910714Y-81847080D01*
X46910714Y-81847080D02*
X46958333Y-81751842D01*
X46958333Y-81751842D02*
X46958333Y-81656604D01*
X46958333Y-81656604D02*
X46910714Y-81561366D01*
X46910714Y-81561366D02*
X46863095Y-81513747D01*
X46863095Y-81513747D02*
X46767857Y-81466128D01*
X46767857Y-81466128D02*
X46577381Y-81418509D01*
X46577381Y-81418509D02*
X46482143Y-81370890D01*
X46482143Y-81370890D02*
X46434524Y-81323271D01*
X46434524Y-81323271D02*
X46386905Y-81228033D01*
X46386905Y-81228033D02*
X46386905Y-81132795D01*
X46386905Y-81132795D02*
X46434524Y-81037557D01*
X46434524Y-81037557D02*
X46482143Y-80989938D01*
X46482143Y-80989938D02*
X46577381Y-80942319D01*
X46577381Y-80942319D02*
X46815476Y-80942319D01*
X46815476Y-80942319D02*
X46958333Y-80989938D01*
X47910714Y-81942319D02*
X47339286Y-81942319D01*
X47625000Y-81942319D02*
X47625000Y-80942319D01*
X47625000Y-80942319D02*
X47529762Y-81085176D01*
X47529762Y-81085176D02*
X47434524Y-81180414D01*
X47434524Y-81180414D02*
X47339286Y-81228033D01*
X48244048Y-80942319D02*
X48863095Y-80942319D01*
X48863095Y-80942319D02*
X48529762Y-81323271D01*
X48529762Y-81323271D02*
X48672619Y-81323271D01*
X48672619Y-81323271D02*
X48767857Y-81370890D01*
X48767857Y-81370890D02*
X48815476Y-81418509D01*
X48815476Y-81418509D02*
X48863095Y-81513747D01*
X48863095Y-81513747D02*
X48863095Y-81751842D01*
X48863095Y-81751842D02*
X48815476Y-81847080D01*
X48815476Y-81847080D02*
X48767857Y-81894700D01*
X48767857Y-81894700D02*
X48672619Y-81942319D01*
X48672619Y-81942319D02*
X48386905Y-81942319D01*
X48386905Y-81942319D02*
X48291667Y-81894700D01*
X48291667Y-81894700D02*
X48244048Y-81847080D01*
X141636905Y-70619700D02*
X141779762Y-70667319D01*
X141779762Y-70667319D02*
X142017857Y-70667319D01*
X142017857Y-70667319D02*
X142113095Y-70619700D01*
X142113095Y-70619700D02*
X142160714Y-70572080D01*
X142160714Y-70572080D02*
X142208333Y-70476842D01*
X142208333Y-70476842D02*
X142208333Y-70381604D01*
X142208333Y-70381604D02*
X142160714Y-70286366D01*
X142160714Y-70286366D02*
X142113095Y-70238747D01*
X142113095Y-70238747D02*
X142017857Y-70191128D01*
X142017857Y-70191128D02*
X141827381Y-70143509D01*
X141827381Y-70143509D02*
X141732143Y-70095890D01*
X141732143Y-70095890D02*
X141684524Y-70048271D01*
X141684524Y-70048271D02*
X141636905Y-69953033D01*
X141636905Y-69953033D02*
X141636905Y-69857795D01*
X141636905Y-69857795D02*
X141684524Y-69762557D01*
X141684524Y-69762557D02*
X141732143Y-69714938D01*
X141732143Y-69714938D02*
X141827381Y-69667319D01*
X141827381Y-69667319D02*
X142065476Y-69667319D01*
X142065476Y-69667319D02*
X142208333Y-69714938D01*
X143160714Y-70667319D02*
X142589286Y-70667319D01*
X142875000Y-70667319D02*
X142875000Y-69667319D01*
X142875000Y-69667319D02*
X142779762Y-69810176D01*
X142779762Y-69810176D02*
X142684524Y-69905414D01*
X142684524Y-69905414D02*
X142589286Y-69953033D01*
X143732143Y-70095890D02*
X143636905Y-70048271D01*
X143636905Y-70048271D02*
X143589286Y-70000652D01*
X143589286Y-70000652D02*
X143541667Y-69905414D01*
X143541667Y-69905414D02*
X143541667Y-69857795D01*
X143541667Y-69857795D02*
X143589286Y-69762557D01*
X143589286Y-69762557D02*
X143636905Y-69714938D01*
X143636905Y-69714938D02*
X143732143Y-69667319D01*
X143732143Y-69667319D02*
X143922619Y-69667319D01*
X143922619Y-69667319D02*
X144017857Y-69714938D01*
X144017857Y-69714938D02*
X144065476Y-69762557D01*
X144065476Y-69762557D02*
X144113095Y-69857795D01*
X144113095Y-69857795D02*
X144113095Y-69905414D01*
X144113095Y-69905414D02*
X144065476Y-70000652D01*
X144065476Y-70000652D02*
X144017857Y-70048271D01*
X144017857Y-70048271D02*
X143922619Y-70095890D01*
X143922619Y-70095890D02*
X143732143Y-70095890D01*
X143732143Y-70095890D02*
X143636905Y-70143509D01*
X143636905Y-70143509D02*
X143589286Y-70191128D01*
X143589286Y-70191128D02*
X143541667Y-70286366D01*
X143541667Y-70286366D02*
X143541667Y-70476842D01*
X143541667Y-70476842D02*
X143589286Y-70572080D01*
X143589286Y-70572080D02*
X143636905Y-70619700D01*
X143636905Y-70619700D02*
X143732143Y-70667319D01*
X143732143Y-70667319D02*
X143922619Y-70667319D01*
X143922619Y-70667319D02*
X144017857Y-70619700D01*
X144017857Y-70619700D02*
X144065476Y-70572080D01*
X144065476Y-70572080D02*
X144113095Y-70476842D01*
X144113095Y-70476842D02*
X144113095Y-70286366D01*
X144113095Y-70286366D02*
X144065476Y-70191128D01*
X144065476Y-70191128D02*
X144017857Y-70143509D01*
X144017857Y-70143509D02*
X143922619Y-70095890D01*
X84963095Y-30644700D02*
X85105952Y-30692319D01*
X85105952Y-30692319D02*
X85344047Y-30692319D01*
X85344047Y-30692319D02*
X85439285Y-30644700D01*
X85439285Y-30644700D02*
X85486904Y-30597080D01*
X85486904Y-30597080D02*
X85534523Y-30501842D01*
X85534523Y-30501842D02*
X85534523Y-30406604D01*
X85534523Y-30406604D02*
X85486904Y-30311366D01*
X85486904Y-30311366D02*
X85439285Y-30263747D01*
X85439285Y-30263747D02*
X85344047Y-30216128D01*
X85344047Y-30216128D02*
X85153571Y-30168509D01*
X85153571Y-30168509D02*
X85058333Y-30120890D01*
X85058333Y-30120890D02*
X85010714Y-30073271D01*
X85010714Y-30073271D02*
X84963095Y-29978033D01*
X84963095Y-29978033D02*
X84963095Y-29882795D01*
X84963095Y-29882795D02*
X85010714Y-29787557D01*
X85010714Y-29787557D02*
X85058333Y-29739938D01*
X85058333Y-29739938D02*
X85153571Y-29692319D01*
X85153571Y-29692319D02*
X85391666Y-29692319D01*
X85391666Y-29692319D02*
X85534523Y-29739938D01*
X85867857Y-29692319D02*
X86486904Y-29692319D01*
X86486904Y-29692319D02*
X86153571Y-30073271D01*
X86153571Y-30073271D02*
X86296428Y-30073271D01*
X86296428Y-30073271D02*
X86391666Y-30120890D01*
X86391666Y-30120890D02*
X86439285Y-30168509D01*
X86439285Y-30168509D02*
X86486904Y-30263747D01*
X86486904Y-30263747D02*
X86486904Y-30501842D01*
X86486904Y-30501842D02*
X86439285Y-30597080D01*
X86439285Y-30597080D02*
X86391666Y-30644700D01*
X86391666Y-30644700D02*
X86296428Y-30692319D01*
X86296428Y-30692319D02*
X86010714Y-30692319D01*
X86010714Y-30692319D02*
X85915476Y-30644700D01*
X85915476Y-30644700D02*
X85867857Y-30597080D01*
X145238095Y-32907200D02*
X145380952Y-32954819D01*
X145380952Y-32954819D02*
X145619047Y-32954819D01*
X145619047Y-32954819D02*
X145714285Y-32907200D01*
X145714285Y-32907200D02*
X145761904Y-32859580D01*
X145761904Y-32859580D02*
X145809523Y-32764342D01*
X145809523Y-32764342D02*
X145809523Y-32669104D01*
X145809523Y-32669104D02*
X145761904Y-32573866D01*
X145761904Y-32573866D02*
X145714285Y-32526247D01*
X145714285Y-32526247D02*
X145619047Y-32478628D01*
X145619047Y-32478628D02*
X145428571Y-32431009D01*
X145428571Y-32431009D02*
X145333333Y-32383390D01*
X145333333Y-32383390D02*
X145285714Y-32335771D01*
X145285714Y-32335771D02*
X145238095Y-32240533D01*
X145238095Y-32240533D02*
X145238095Y-32145295D01*
X145238095Y-32145295D02*
X145285714Y-32050057D01*
X145285714Y-32050057D02*
X145333333Y-32002438D01*
X145333333Y-32002438D02*
X145428571Y-31954819D01*
X145428571Y-31954819D02*
X145666666Y-31954819D01*
X145666666Y-31954819D02*
X145809523Y-32002438D01*
X146666666Y-31954819D02*
X146476190Y-31954819D01*
X146476190Y-31954819D02*
X146380952Y-32002438D01*
X146380952Y-32002438D02*
X146333333Y-32050057D01*
X146333333Y-32050057D02*
X146238095Y-32192914D01*
X146238095Y-32192914D02*
X146190476Y-32383390D01*
X146190476Y-32383390D02*
X146190476Y-32764342D01*
X146190476Y-32764342D02*
X146238095Y-32859580D01*
X146238095Y-32859580D02*
X146285714Y-32907200D01*
X146285714Y-32907200D02*
X146380952Y-32954819D01*
X146380952Y-32954819D02*
X146571428Y-32954819D01*
X146571428Y-32954819D02*
X146666666Y-32907200D01*
X146666666Y-32907200D02*
X146714285Y-32859580D01*
X146714285Y-32859580D02*
X146761904Y-32764342D01*
X146761904Y-32764342D02*
X146761904Y-32526247D01*
X146761904Y-32526247D02*
X146714285Y-32431009D01*
X146714285Y-32431009D02*
X146666666Y-32383390D01*
X146666666Y-32383390D02*
X146571428Y-32335771D01*
X146571428Y-32335771D02*
X146380952Y-32335771D01*
X146380952Y-32335771D02*
X146285714Y-32383390D01*
X146285714Y-32383390D02*
X146238095Y-32431009D01*
X146238095Y-32431009D02*
X146190476Y-32526247D01*
X122586905Y-65857200D02*
X122729762Y-65904819D01*
X122729762Y-65904819D02*
X122967857Y-65904819D01*
X122967857Y-65904819D02*
X123063095Y-65857200D01*
X123063095Y-65857200D02*
X123110714Y-65809580D01*
X123110714Y-65809580D02*
X123158333Y-65714342D01*
X123158333Y-65714342D02*
X123158333Y-65619104D01*
X123158333Y-65619104D02*
X123110714Y-65523866D01*
X123110714Y-65523866D02*
X123063095Y-65476247D01*
X123063095Y-65476247D02*
X122967857Y-65428628D01*
X122967857Y-65428628D02*
X122777381Y-65381009D01*
X122777381Y-65381009D02*
X122682143Y-65333390D01*
X122682143Y-65333390D02*
X122634524Y-65285771D01*
X122634524Y-65285771D02*
X122586905Y-65190533D01*
X122586905Y-65190533D02*
X122586905Y-65095295D01*
X122586905Y-65095295D02*
X122634524Y-65000057D01*
X122634524Y-65000057D02*
X122682143Y-64952438D01*
X122682143Y-64952438D02*
X122777381Y-64904819D01*
X122777381Y-64904819D02*
X123015476Y-64904819D01*
X123015476Y-64904819D02*
X123158333Y-64952438D01*
X124110714Y-65904819D02*
X123539286Y-65904819D01*
X123825000Y-65904819D02*
X123825000Y-64904819D01*
X123825000Y-64904819D02*
X123729762Y-65047676D01*
X123729762Y-65047676D02*
X123634524Y-65142914D01*
X123634524Y-65142914D02*
X123539286Y-65190533D01*
X124444048Y-64904819D02*
X125110714Y-64904819D01*
X125110714Y-64904819D02*
X124682143Y-65904819D01*
X122586905Y-46807200D02*
X122729762Y-46854819D01*
X122729762Y-46854819D02*
X122967857Y-46854819D01*
X122967857Y-46854819D02*
X123063095Y-46807200D01*
X123063095Y-46807200D02*
X123110714Y-46759580D01*
X123110714Y-46759580D02*
X123158333Y-46664342D01*
X123158333Y-46664342D02*
X123158333Y-46569104D01*
X123158333Y-46569104D02*
X123110714Y-46473866D01*
X123110714Y-46473866D02*
X123063095Y-46426247D01*
X123063095Y-46426247D02*
X122967857Y-46378628D01*
X122967857Y-46378628D02*
X122777381Y-46331009D01*
X122777381Y-46331009D02*
X122682143Y-46283390D01*
X122682143Y-46283390D02*
X122634524Y-46235771D01*
X122634524Y-46235771D02*
X122586905Y-46140533D01*
X122586905Y-46140533D02*
X122586905Y-46045295D01*
X122586905Y-46045295D02*
X122634524Y-45950057D01*
X122634524Y-45950057D02*
X122682143Y-45902438D01*
X122682143Y-45902438D02*
X122777381Y-45854819D01*
X122777381Y-45854819D02*
X123015476Y-45854819D01*
X123015476Y-45854819D02*
X123158333Y-45902438D01*
X124110714Y-46854819D02*
X123539286Y-46854819D01*
X123825000Y-46854819D02*
X123825000Y-45854819D01*
X123825000Y-45854819D02*
X123729762Y-45997676D01*
X123729762Y-45997676D02*
X123634524Y-46092914D01*
X123634524Y-46092914D02*
X123539286Y-46140533D01*
X125063095Y-46854819D02*
X124491667Y-46854819D01*
X124777381Y-46854819D02*
X124777381Y-45854819D01*
X124777381Y-45854819D02*
X124682143Y-45997676D01*
X124682143Y-45997676D02*
X124586905Y-46092914D01*
X124586905Y-46092914D02*
X124491667Y-46140533D01*
X161486619Y-36282295D02*
X161219952Y-35901342D01*
X161029476Y-36282295D02*
X161029476Y-35482295D01*
X161029476Y-35482295D02*
X161334238Y-35482295D01*
X161334238Y-35482295D02*
X161410428Y-35520390D01*
X161410428Y-35520390D02*
X161448523Y-35558485D01*
X161448523Y-35558485D02*
X161486619Y-35634676D01*
X161486619Y-35634676D02*
X161486619Y-35748961D01*
X161486619Y-35748961D02*
X161448523Y-35825152D01*
X161448523Y-35825152D02*
X161410428Y-35863247D01*
X161410428Y-35863247D02*
X161334238Y-35901342D01*
X161334238Y-35901342D02*
X161029476Y-35901342D01*
X161791380Y-36053723D02*
X162172333Y-36053723D01*
X161715190Y-36282295D02*
X161981857Y-35482295D01*
X161981857Y-35482295D02*
X162248523Y-36282295D01*
X162438999Y-35482295D02*
X162629475Y-36282295D01*
X162629475Y-36282295D02*
X162781856Y-35710866D01*
X162781856Y-35710866D02*
X162934237Y-36282295D01*
X162934237Y-36282295D02*
X163124714Y-35482295D01*
X161429476Y-38060390D02*
X161353286Y-38022295D01*
X161353286Y-38022295D02*
X161239000Y-38022295D01*
X161239000Y-38022295D02*
X161124714Y-38060390D01*
X161124714Y-38060390D02*
X161048524Y-38136580D01*
X161048524Y-38136580D02*
X161010429Y-38212771D01*
X161010429Y-38212771D02*
X160972333Y-38365152D01*
X160972333Y-38365152D02*
X160972333Y-38479438D01*
X160972333Y-38479438D02*
X161010429Y-38631819D01*
X161010429Y-38631819D02*
X161048524Y-38708009D01*
X161048524Y-38708009D02*
X161124714Y-38784200D01*
X161124714Y-38784200D02*
X161239000Y-38822295D01*
X161239000Y-38822295D02*
X161315191Y-38822295D01*
X161315191Y-38822295D02*
X161429476Y-38784200D01*
X161429476Y-38784200D02*
X161467572Y-38746104D01*
X161467572Y-38746104D02*
X161467572Y-38479438D01*
X161467572Y-38479438D02*
X161315191Y-38479438D01*
X161810429Y-38822295D02*
X161810429Y-38022295D01*
X161810429Y-38022295D02*
X162267572Y-38822295D01*
X162267572Y-38822295D02*
X162267572Y-38022295D01*
X162648524Y-38822295D02*
X162648524Y-38022295D01*
X162648524Y-38022295D02*
X162839000Y-38022295D01*
X162839000Y-38022295D02*
X162953286Y-38060390D01*
X162953286Y-38060390D02*
X163029476Y-38136580D01*
X163029476Y-38136580D02*
X163067571Y-38212771D01*
X163067571Y-38212771D02*
X163105667Y-38365152D01*
X163105667Y-38365152D02*
X163105667Y-38479438D01*
X163105667Y-38479438D02*
X163067571Y-38631819D01*
X163067571Y-38631819D02*
X163029476Y-38708009D01*
X163029476Y-38708009D02*
X162953286Y-38784200D01*
X162953286Y-38784200D02*
X162839000Y-38822295D01*
X162839000Y-38822295D02*
X162648524Y-38822295D01*
X160972333Y-43102295D02*
X161239000Y-43902295D01*
X161239000Y-43902295D02*
X161505666Y-43102295D01*
X162229476Y-43826104D02*
X162191380Y-43864200D01*
X162191380Y-43864200D02*
X162077095Y-43902295D01*
X162077095Y-43902295D02*
X162000904Y-43902295D01*
X162000904Y-43902295D02*
X161886618Y-43864200D01*
X161886618Y-43864200D02*
X161810428Y-43788009D01*
X161810428Y-43788009D02*
X161772333Y-43711819D01*
X161772333Y-43711819D02*
X161734237Y-43559438D01*
X161734237Y-43559438D02*
X161734237Y-43445152D01*
X161734237Y-43445152D02*
X161772333Y-43292771D01*
X161772333Y-43292771D02*
X161810428Y-43216580D01*
X161810428Y-43216580D02*
X161886618Y-43140390D01*
X161886618Y-43140390D02*
X162000904Y-43102295D01*
X162000904Y-43102295D02*
X162077095Y-43102295D01*
X162077095Y-43102295D02*
X162191380Y-43140390D01*
X162191380Y-43140390D02*
X162229476Y-43178485D01*
X163029476Y-43826104D02*
X162991380Y-43864200D01*
X162991380Y-43864200D02*
X162877095Y-43902295D01*
X162877095Y-43902295D02*
X162800904Y-43902295D01*
X162800904Y-43902295D02*
X162686618Y-43864200D01*
X162686618Y-43864200D02*
X162610428Y-43788009D01*
X162610428Y-43788009D02*
X162572333Y-43711819D01*
X162572333Y-43711819D02*
X162534237Y-43559438D01*
X162534237Y-43559438D02*
X162534237Y-43445152D01*
X162534237Y-43445152D02*
X162572333Y-43292771D01*
X162572333Y-43292771D02*
X162610428Y-43216580D01*
X162610428Y-43216580D02*
X162686618Y-43140390D01*
X162686618Y-43140390D02*
X162800904Y-43102295D01*
X162800904Y-43102295D02*
X162877095Y-43102295D01*
X162877095Y-43102295D02*
X162991380Y-43140390D01*
X162991380Y-43140390D02*
X163029476Y-43178485D01*
X161772333Y-46023247D02*
X161505667Y-46023247D01*
X161505667Y-46442295D02*
X161505667Y-45642295D01*
X161505667Y-45642295D02*
X161886619Y-45642295D01*
X162534238Y-45908961D02*
X162534238Y-46442295D01*
X162343762Y-45604200D02*
X162153285Y-46175628D01*
X162153285Y-46175628D02*
X162648524Y-46175628D01*
X161772333Y-48563247D02*
X161505667Y-48563247D01*
X161505667Y-48982295D02*
X161505667Y-48182295D01*
X161505667Y-48182295D02*
X161886619Y-48182295D01*
X162572333Y-48182295D02*
X162191381Y-48182295D01*
X162191381Y-48182295D02*
X162153285Y-48563247D01*
X162153285Y-48563247D02*
X162191381Y-48525152D01*
X162191381Y-48525152D02*
X162267571Y-48487057D01*
X162267571Y-48487057D02*
X162458047Y-48487057D01*
X162458047Y-48487057D02*
X162534238Y-48525152D01*
X162534238Y-48525152D02*
X162572333Y-48563247D01*
X162572333Y-48563247D02*
X162610428Y-48639438D01*
X162610428Y-48639438D02*
X162610428Y-48829914D01*
X162610428Y-48829914D02*
X162572333Y-48906104D01*
X162572333Y-48906104D02*
X162534238Y-48944200D01*
X162534238Y-48944200D02*
X162458047Y-48982295D01*
X162458047Y-48982295D02*
X162267571Y-48982295D01*
X162267571Y-48982295D02*
X162191381Y-48944200D01*
X162191381Y-48944200D02*
X162153285Y-48906104D01*
X161772333Y-51103247D02*
X161505667Y-51103247D01*
X161505667Y-51522295D02*
X161505667Y-50722295D01*
X161505667Y-50722295D02*
X161886619Y-50722295D01*
X162534238Y-50722295D02*
X162381857Y-50722295D01*
X162381857Y-50722295D02*
X162305666Y-50760390D01*
X162305666Y-50760390D02*
X162267571Y-50798485D01*
X162267571Y-50798485D02*
X162191381Y-50912771D01*
X162191381Y-50912771D02*
X162153285Y-51065152D01*
X162153285Y-51065152D02*
X162153285Y-51369914D01*
X162153285Y-51369914D02*
X162191381Y-51446104D01*
X162191381Y-51446104D02*
X162229476Y-51484200D01*
X162229476Y-51484200D02*
X162305666Y-51522295D01*
X162305666Y-51522295D02*
X162458047Y-51522295D01*
X162458047Y-51522295D02*
X162534238Y-51484200D01*
X162534238Y-51484200D02*
X162572333Y-51446104D01*
X162572333Y-51446104D02*
X162610428Y-51369914D01*
X162610428Y-51369914D02*
X162610428Y-51179438D01*
X162610428Y-51179438D02*
X162572333Y-51103247D01*
X162572333Y-51103247D02*
X162534238Y-51065152D01*
X162534238Y-51065152D02*
X162458047Y-51027057D01*
X162458047Y-51027057D02*
X162305666Y-51027057D01*
X162305666Y-51027057D02*
X162229476Y-51065152D01*
X162229476Y-51065152D02*
X162191381Y-51103247D01*
X162191381Y-51103247D02*
X162153285Y-51179438D01*
X161772333Y-53643247D02*
X161505667Y-53643247D01*
X161505667Y-54062295D02*
X161505667Y-53262295D01*
X161505667Y-53262295D02*
X161886619Y-53262295D01*
X162115190Y-53262295D02*
X162648524Y-53262295D01*
X162648524Y-53262295D02*
X162305666Y-54062295D01*
X161715190Y-56183247D02*
X161829476Y-56221342D01*
X161829476Y-56221342D02*
X161867571Y-56259438D01*
X161867571Y-56259438D02*
X161905667Y-56335628D01*
X161905667Y-56335628D02*
X161905667Y-56449914D01*
X161905667Y-56449914D02*
X161867571Y-56526104D01*
X161867571Y-56526104D02*
X161829476Y-56564200D01*
X161829476Y-56564200D02*
X161753286Y-56602295D01*
X161753286Y-56602295D02*
X161448524Y-56602295D01*
X161448524Y-56602295D02*
X161448524Y-55802295D01*
X161448524Y-55802295D02*
X161715190Y-55802295D01*
X161715190Y-55802295D02*
X161791381Y-55840390D01*
X161791381Y-55840390D02*
X161829476Y-55878485D01*
X161829476Y-55878485D02*
X161867571Y-55954676D01*
X161867571Y-55954676D02*
X161867571Y-56030866D01*
X161867571Y-56030866D02*
X161829476Y-56107057D01*
X161829476Y-56107057D02*
X161791381Y-56145152D01*
X161791381Y-56145152D02*
X161715190Y-56183247D01*
X161715190Y-56183247D02*
X161448524Y-56183247D01*
X162667571Y-56602295D02*
X162210428Y-56602295D01*
X162439000Y-56602295D02*
X162439000Y-55802295D01*
X162439000Y-55802295D02*
X162362809Y-55916580D01*
X162362809Y-55916580D02*
X162286619Y-55992771D01*
X162286619Y-55992771D02*
X162210428Y-56030866D01*
X161715190Y-58723247D02*
X161829476Y-58761342D01*
X161829476Y-58761342D02*
X161867571Y-58799438D01*
X161867571Y-58799438D02*
X161905667Y-58875628D01*
X161905667Y-58875628D02*
X161905667Y-58989914D01*
X161905667Y-58989914D02*
X161867571Y-59066104D01*
X161867571Y-59066104D02*
X161829476Y-59104200D01*
X161829476Y-59104200D02*
X161753286Y-59142295D01*
X161753286Y-59142295D02*
X161448524Y-59142295D01*
X161448524Y-59142295D02*
X161448524Y-58342295D01*
X161448524Y-58342295D02*
X161715190Y-58342295D01*
X161715190Y-58342295D02*
X161791381Y-58380390D01*
X161791381Y-58380390D02*
X161829476Y-58418485D01*
X161829476Y-58418485D02*
X161867571Y-58494676D01*
X161867571Y-58494676D02*
X161867571Y-58570866D01*
X161867571Y-58570866D02*
X161829476Y-58647057D01*
X161829476Y-58647057D02*
X161791381Y-58685152D01*
X161791381Y-58685152D02*
X161715190Y-58723247D01*
X161715190Y-58723247D02*
X161448524Y-58723247D01*
X162172333Y-58342295D02*
X162667571Y-58342295D01*
X162667571Y-58342295D02*
X162400905Y-58647057D01*
X162400905Y-58647057D02*
X162515190Y-58647057D01*
X162515190Y-58647057D02*
X162591381Y-58685152D01*
X162591381Y-58685152D02*
X162629476Y-58723247D01*
X162629476Y-58723247D02*
X162667571Y-58799438D01*
X162667571Y-58799438D02*
X162667571Y-58989914D01*
X162667571Y-58989914D02*
X162629476Y-59066104D01*
X162629476Y-59066104D02*
X162591381Y-59104200D01*
X162591381Y-59104200D02*
X162515190Y-59142295D01*
X162515190Y-59142295D02*
X162286619Y-59142295D01*
X162286619Y-59142295D02*
X162210428Y-59104200D01*
X162210428Y-59104200D02*
X162172333Y-59066104D01*
X161715190Y-61263247D02*
X161829476Y-61301342D01*
X161829476Y-61301342D02*
X161867571Y-61339438D01*
X161867571Y-61339438D02*
X161905667Y-61415628D01*
X161905667Y-61415628D02*
X161905667Y-61529914D01*
X161905667Y-61529914D02*
X161867571Y-61606104D01*
X161867571Y-61606104D02*
X161829476Y-61644200D01*
X161829476Y-61644200D02*
X161753286Y-61682295D01*
X161753286Y-61682295D02*
X161448524Y-61682295D01*
X161448524Y-61682295D02*
X161448524Y-60882295D01*
X161448524Y-60882295D02*
X161715190Y-60882295D01*
X161715190Y-60882295D02*
X161791381Y-60920390D01*
X161791381Y-60920390D02*
X161829476Y-60958485D01*
X161829476Y-60958485D02*
X161867571Y-61034676D01*
X161867571Y-61034676D02*
X161867571Y-61110866D01*
X161867571Y-61110866D02*
X161829476Y-61187057D01*
X161829476Y-61187057D02*
X161791381Y-61225152D01*
X161791381Y-61225152D02*
X161715190Y-61263247D01*
X161715190Y-61263247D02*
X161448524Y-61263247D01*
X162210428Y-60958485D02*
X162248524Y-60920390D01*
X162248524Y-60920390D02*
X162324714Y-60882295D01*
X162324714Y-60882295D02*
X162515190Y-60882295D01*
X162515190Y-60882295D02*
X162591381Y-60920390D01*
X162591381Y-60920390D02*
X162629476Y-60958485D01*
X162629476Y-60958485D02*
X162667571Y-61034676D01*
X162667571Y-61034676D02*
X162667571Y-61110866D01*
X162667571Y-61110866D02*
X162629476Y-61225152D01*
X162629476Y-61225152D02*
X162172333Y-61682295D01*
X162172333Y-61682295D02*
X162667571Y-61682295D01*
X161715190Y-63803247D02*
X161829476Y-63841342D01*
X161829476Y-63841342D02*
X161867571Y-63879438D01*
X161867571Y-63879438D02*
X161905667Y-63955628D01*
X161905667Y-63955628D02*
X161905667Y-64069914D01*
X161905667Y-64069914D02*
X161867571Y-64146104D01*
X161867571Y-64146104D02*
X161829476Y-64184200D01*
X161829476Y-64184200D02*
X161753286Y-64222295D01*
X161753286Y-64222295D02*
X161448524Y-64222295D01*
X161448524Y-64222295D02*
X161448524Y-63422295D01*
X161448524Y-63422295D02*
X161715190Y-63422295D01*
X161715190Y-63422295D02*
X161791381Y-63460390D01*
X161791381Y-63460390D02*
X161829476Y-63498485D01*
X161829476Y-63498485D02*
X161867571Y-63574676D01*
X161867571Y-63574676D02*
X161867571Y-63650866D01*
X161867571Y-63650866D02*
X161829476Y-63727057D01*
X161829476Y-63727057D02*
X161791381Y-63765152D01*
X161791381Y-63765152D02*
X161715190Y-63803247D01*
X161715190Y-63803247D02*
X161448524Y-63803247D01*
X162591381Y-63422295D02*
X162439000Y-63422295D01*
X162439000Y-63422295D02*
X162362809Y-63460390D01*
X162362809Y-63460390D02*
X162324714Y-63498485D01*
X162324714Y-63498485D02*
X162248524Y-63612771D01*
X162248524Y-63612771D02*
X162210428Y-63765152D01*
X162210428Y-63765152D02*
X162210428Y-64069914D01*
X162210428Y-64069914D02*
X162248524Y-64146104D01*
X162248524Y-64146104D02*
X162286619Y-64184200D01*
X162286619Y-64184200D02*
X162362809Y-64222295D01*
X162362809Y-64222295D02*
X162515190Y-64222295D01*
X162515190Y-64222295D02*
X162591381Y-64184200D01*
X162591381Y-64184200D02*
X162629476Y-64146104D01*
X162629476Y-64146104D02*
X162667571Y-64069914D01*
X162667571Y-64069914D02*
X162667571Y-63879438D01*
X162667571Y-63879438D02*
X162629476Y-63803247D01*
X162629476Y-63803247D02*
X162591381Y-63765152D01*
X162591381Y-63765152D02*
X162515190Y-63727057D01*
X162515190Y-63727057D02*
X162362809Y-63727057D01*
X162362809Y-63727057D02*
X162286619Y-63765152D01*
X162286619Y-63765152D02*
X162248524Y-63803247D01*
X162248524Y-63803247D02*
X162210428Y-63879438D01*
X161926666Y-41304200D02*
X162040952Y-41342295D01*
X162040952Y-41342295D02*
X162231428Y-41342295D01*
X162231428Y-41342295D02*
X162307619Y-41304200D01*
X162307619Y-41304200D02*
X162345714Y-41266104D01*
X162345714Y-41266104D02*
X162383809Y-41189914D01*
X162383809Y-41189914D02*
X162383809Y-41113723D01*
X162383809Y-41113723D02*
X162345714Y-41037533D01*
X162345714Y-41037533D02*
X162307619Y-40999438D01*
X162307619Y-40999438D02*
X162231428Y-40961342D01*
X162231428Y-40961342D02*
X162079047Y-40923247D01*
X162079047Y-40923247D02*
X162002857Y-40885152D01*
X162002857Y-40885152D02*
X161964762Y-40847057D01*
X161964762Y-40847057D02*
X161926666Y-40770866D01*
X161926666Y-40770866D02*
X161926666Y-40694676D01*
X161926666Y-40694676D02*
X161964762Y-40618485D01*
X161964762Y-40618485D02*
X162002857Y-40580390D01*
X162002857Y-40580390D02*
X162079047Y-40542295D01*
X162079047Y-40542295D02*
X162269524Y-40542295D01*
X162269524Y-40542295D02*
X162383809Y-40580390D01*
X162612381Y-40542295D02*
X163069524Y-40542295D01*
X162840952Y-41342295D02*
X162840952Y-40542295D01*
X168881395Y-35482295D02*
X169338538Y-35482295D01*
X169109966Y-36282295D02*
X169109966Y-35482295D01*
X169529014Y-35482295D02*
X170062348Y-36282295D01*
X170062348Y-35482295D02*
X169529014Y-36282295D01*
X170519491Y-35482295D02*
X170595681Y-35482295D01*
X170595681Y-35482295D02*
X170671872Y-35520390D01*
X170671872Y-35520390D02*
X170709967Y-35558485D01*
X170709967Y-35558485D02*
X170748062Y-35634676D01*
X170748062Y-35634676D02*
X170786157Y-35787057D01*
X170786157Y-35787057D02*
X170786157Y-35977533D01*
X170786157Y-35977533D02*
X170748062Y-36129914D01*
X170748062Y-36129914D02*
X170709967Y-36206104D01*
X170709967Y-36206104D02*
X170671872Y-36244200D01*
X170671872Y-36244200D02*
X170595681Y-36282295D01*
X170595681Y-36282295D02*
X170519491Y-36282295D01*
X170519491Y-36282295D02*
X170443300Y-36244200D01*
X170443300Y-36244200D02*
X170405205Y-36206104D01*
X170405205Y-36206104D02*
X170367110Y-36129914D01*
X170367110Y-36129914D02*
X170329014Y-35977533D01*
X170329014Y-35977533D02*
X170329014Y-35787057D01*
X170329014Y-35787057D02*
X170367110Y-35634676D01*
X170367110Y-35634676D02*
X170405205Y-35558485D01*
X170405205Y-35558485D02*
X170443300Y-35520390D01*
X170443300Y-35520390D02*
X170519491Y-35482295D01*
X171700443Y-35444200D02*
X171014729Y-36472771D01*
X171967110Y-36282295D02*
X171967110Y-35482295D01*
X171967110Y-35482295D02*
X172157586Y-35482295D01*
X172157586Y-35482295D02*
X172271872Y-35520390D01*
X172271872Y-35520390D02*
X172348062Y-35596580D01*
X172348062Y-35596580D02*
X172386157Y-35672771D01*
X172386157Y-35672771D02*
X172424253Y-35825152D01*
X172424253Y-35825152D02*
X172424253Y-35939438D01*
X172424253Y-35939438D02*
X172386157Y-36091819D01*
X172386157Y-36091819D02*
X172348062Y-36168009D01*
X172348062Y-36168009D02*
X172271872Y-36244200D01*
X172271872Y-36244200D02*
X172157586Y-36282295D01*
X172157586Y-36282295D02*
X171967110Y-36282295D01*
X172690919Y-35482295D02*
X173186157Y-35482295D01*
X173186157Y-35482295D02*
X172919491Y-35787057D01*
X172919491Y-35787057D02*
X173033776Y-35787057D01*
X173033776Y-35787057D02*
X173109967Y-35825152D01*
X173109967Y-35825152D02*
X173148062Y-35863247D01*
X173148062Y-35863247D02*
X173186157Y-35939438D01*
X173186157Y-35939438D02*
X173186157Y-36129914D01*
X173186157Y-36129914D02*
X173148062Y-36206104D01*
X173148062Y-36206104D02*
X173109967Y-36244200D01*
X173109967Y-36244200D02*
X173033776Y-36282295D01*
X173033776Y-36282295D02*
X172805205Y-36282295D01*
X172805205Y-36282295D02*
X172729014Y-36244200D01*
X172729014Y-36244200D02*
X172690919Y-36206104D01*
X172370524Y-38822295D02*
X172370524Y-38022295D01*
X172370524Y-38022295D02*
X172561000Y-38022295D01*
X172561000Y-38022295D02*
X172675286Y-38060390D01*
X172675286Y-38060390D02*
X172751476Y-38136580D01*
X172751476Y-38136580D02*
X172789571Y-38212771D01*
X172789571Y-38212771D02*
X172827667Y-38365152D01*
X172827667Y-38365152D02*
X172827667Y-38479438D01*
X172827667Y-38479438D02*
X172789571Y-38631819D01*
X172789571Y-38631819D02*
X172751476Y-38708009D01*
X172751476Y-38708009D02*
X172675286Y-38784200D01*
X172675286Y-38784200D02*
X172561000Y-38822295D01*
X172561000Y-38822295D02*
X172370524Y-38822295D01*
X173132428Y-38098485D02*
X173170524Y-38060390D01*
X173170524Y-38060390D02*
X173246714Y-38022295D01*
X173246714Y-38022295D02*
X173437190Y-38022295D01*
X173437190Y-38022295D02*
X173513381Y-38060390D01*
X173513381Y-38060390D02*
X173551476Y-38098485D01*
X173551476Y-38098485D02*
X173589571Y-38174676D01*
X173589571Y-38174676D02*
X173589571Y-38250866D01*
X173589571Y-38250866D02*
X173551476Y-38365152D01*
X173551476Y-38365152D02*
X173094333Y-38822295D01*
X173094333Y-38822295D02*
X173589571Y-38822295D01*
X172351476Y-40600390D02*
X172275286Y-40562295D01*
X172275286Y-40562295D02*
X172161000Y-40562295D01*
X172161000Y-40562295D02*
X172046714Y-40600390D01*
X172046714Y-40600390D02*
X171970524Y-40676580D01*
X171970524Y-40676580D02*
X171932429Y-40752771D01*
X171932429Y-40752771D02*
X171894333Y-40905152D01*
X171894333Y-40905152D02*
X171894333Y-41019438D01*
X171894333Y-41019438D02*
X171932429Y-41171819D01*
X171932429Y-41171819D02*
X171970524Y-41248009D01*
X171970524Y-41248009D02*
X172046714Y-41324200D01*
X172046714Y-41324200D02*
X172161000Y-41362295D01*
X172161000Y-41362295D02*
X172237191Y-41362295D01*
X172237191Y-41362295D02*
X172351476Y-41324200D01*
X172351476Y-41324200D02*
X172389572Y-41286104D01*
X172389572Y-41286104D02*
X172389572Y-41019438D01*
X172389572Y-41019438D02*
X172237191Y-41019438D01*
X172732429Y-41362295D02*
X172732429Y-40562295D01*
X172732429Y-40562295D02*
X173189572Y-41362295D01*
X173189572Y-41362295D02*
X173189572Y-40562295D01*
X173570524Y-41362295D02*
X173570524Y-40562295D01*
X173570524Y-40562295D02*
X173761000Y-40562295D01*
X173761000Y-40562295D02*
X173875286Y-40600390D01*
X173875286Y-40600390D02*
X173951476Y-40676580D01*
X173951476Y-40676580D02*
X173989571Y-40752771D01*
X173989571Y-40752771D02*
X174027667Y-40905152D01*
X174027667Y-40905152D02*
X174027667Y-41019438D01*
X174027667Y-41019438D02*
X173989571Y-41171819D01*
X173989571Y-41171819D02*
X173951476Y-41248009D01*
X173951476Y-41248009D02*
X173875286Y-41324200D01*
X173875286Y-41324200D02*
X173761000Y-41362295D01*
X173761000Y-41362295D02*
X173570524Y-41362295D01*
X172370524Y-46442295D02*
X172370524Y-45642295D01*
X172370524Y-45642295D02*
X172561000Y-45642295D01*
X172561000Y-45642295D02*
X172675286Y-45680390D01*
X172675286Y-45680390D02*
X172751476Y-45756580D01*
X172751476Y-45756580D02*
X172789571Y-45832771D01*
X172789571Y-45832771D02*
X172827667Y-45985152D01*
X172827667Y-45985152D02*
X172827667Y-46099438D01*
X172827667Y-46099438D02*
X172789571Y-46251819D01*
X172789571Y-46251819D02*
X172751476Y-46328009D01*
X172751476Y-46328009D02*
X172675286Y-46404200D01*
X172675286Y-46404200D02*
X172561000Y-46442295D01*
X172561000Y-46442295D02*
X172370524Y-46442295D01*
X173589571Y-46442295D02*
X173132428Y-46442295D01*
X173361000Y-46442295D02*
X173361000Y-45642295D01*
X173361000Y-45642295D02*
X173284809Y-45756580D01*
X173284809Y-45756580D02*
X173208619Y-45832771D01*
X173208619Y-45832771D02*
X173132428Y-45870866D01*
X172370524Y-48982295D02*
X172370524Y-48182295D01*
X172370524Y-48182295D02*
X172561000Y-48182295D01*
X172561000Y-48182295D02*
X172675286Y-48220390D01*
X172675286Y-48220390D02*
X172751476Y-48296580D01*
X172751476Y-48296580D02*
X172789571Y-48372771D01*
X172789571Y-48372771D02*
X172827667Y-48525152D01*
X172827667Y-48525152D02*
X172827667Y-48639438D01*
X172827667Y-48639438D02*
X172789571Y-48791819D01*
X172789571Y-48791819D02*
X172751476Y-48868009D01*
X172751476Y-48868009D02*
X172675286Y-48944200D01*
X172675286Y-48944200D02*
X172561000Y-48982295D01*
X172561000Y-48982295D02*
X172370524Y-48982295D01*
X173322905Y-48182295D02*
X173399095Y-48182295D01*
X173399095Y-48182295D02*
X173475286Y-48220390D01*
X173475286Y-48220390D02*
X173513381Y-48258485D01*
X173513381Y-48258485D02*
X173551476Y-48334676D01*
X173551476Y-48334676D02*
X173589571Y-48487057D01*
X173589571Y-48487057D02*
X173589571Y-48677533D01*
X173589571Y-48677533D02*
X173551476Y-48829914D01*
X173551476Y-48829914D02*
X173513381Y-48906104D01*
X173513381Y-48906104D02*
X173475286Y-48944200D01*
X173475286Y-48944200D02*
X173399095Y-48982295D01*
X173399095Y-48982295D02*
X173322905Y-48982295D01*
X173322905Y-48982295D02*
X173246714Y-48944200D01*
X173246714Y-48944200D02*
X173208619Y-48906104D01*
X173208619Y-48906104D02*
X173170524Y-48829914D01*
X173170524Y-48829914D02*
X173132428Y-48677533D01*
X173132428Y-48677533D02*
X173132428Y-48487057D01*
X173132428Y-48487057D02*
X173170524Y-48334676D01*
X173170524Y-48334676D02*
X173208619Y-48258485D01*
X173208619Y-48258485D02*
X173246714Y-48220390D01*
X173246714Y-48220390D02*
X173322905Y-48182295D01*
X172370524Y-51522295D02*
X172370524Y-50722295D01*
X172370524Y-50722295D02*
X172561000Y-50722295D01*
X172561000Y-50722295D02*
X172675286Y-50760390D01*
X172675286Y-50760390D02*
X172751476Y-50836580D01*
X172751476Y-50836580D02*
X172789571Y-50912771D01*
X172789571Y-50912771D02*
X172827667Y-51065152D01*
X172827667Y-51065152D02*
X172827667Y-51179438D01*
X172827667Y-51179438D02*
X172789571Y-51331819D01*
X172789571Y-51331819D02*
X172751476Y-51408009D01*
X172751476Y-51408009D02*
X172675286Y-51484200D01*
X172675286Y-51484200D02*
X172561000Y-51522295D01*
X172561000Y-51522295D02*
X172370524Y-51522295D01*
X173513381Y-50988961D02*
X173513381Y-51522295D01*
X173322905Y-50684200D02*
X173132428Y-51255628D01*
X173132428Y-51255628D02*
X173627667Y-51255628D01*
X172827667Y-53986104D02*
X172789571Y-54024200D01*
X172789571Y-54024200D02*
X172675286Y-54062295D01*
X172675286Y-54062295D02*
X172599095Y-54062295D01*
X172599095Y-54062295D02*
X172484809Y-54024200D01*
X172484809Y-54024200D02*
X172408619Y-53948009D01*
X172408619Y-53948009D02*
X172370524Y-53871819D01*
X172370524Y-53871819D02*
X172332428Y-53719438D01*
X172332428Y-53719438D02*
X172332428Y-53605152D01*
X172332428Y-53605152D02*
X172370524Y-53452771D01*
X172370524Y-53452771D02*
X172408619Y-53376580D01*
X172408619Y-53376580D02*
X172484809Y-53300390D01*
X172484809Y-53300390D02*
X172599095Y-53262295D01*
X172599095Y-53262295D02*
X172675286Y-53262295D01*
X172675286Y-53262295D02*
X172789571Y-53300390D01*
X172789571Y-53300390D02*
X172827667Y-53338485D01*
X173513381Y-53262295D02*
X173361000Y-53262295D01*
X173361000Y-53262295D02*
X173284809Y-53300390D01*
X173284809Y-53300390D02*
X173246714Y-53338485D01*
X173246714Y-53338485D02*
X173170524Y-53452771D01*
X173170524Y-53452771D02*
X173132428Y-53605152D01*
X173132428Y-53605152D02*
X173132428Y-53909914D01*
X173132428Y-53909914D02*
X173170524Y-53986104D01*
X173170524Y-53986104D02*
X173208619Y-54024200D01*
X173208619Y-54024200D02*
X173284809Y-54062295D01*
X173284809Y-54062295D02*
X173437190Y-54062295D01*
X173437190Y-54062295D02*
X173513381Y-54024200D01*
X173513381Y-54024200D02*
X173551476Y-53986104D01*
X173551476Y-53986104D02*
X173589571Y-53909914D01*
X173589571Y-53909914D02*
X173589571Y-53719438D01*
X173589571Y-53719438D02*
X173551476Y-53643247D01*
X173551476Y-53643247D02*
X173513381Y-53605152D01*
X173513381Y-53605152D02*
X173437190Y-53567057D01*
X173437190Y-53567057D02*
X173284809Y-53567057D01*
X173284809Y-53567057D02*
X173208619Y-53605152D01*
X173208619Y-53605152D02*
X173170524Y-53643247D01*
X173170524Y-53643247D02*
X173132428Y-53719438D01*
X172408619Y-58723247D02*
X172675285Y-58723247D01*
X172789571Y-59142295D02*
X172408619Y-59142295D01*
X172408619Y-59142295D02*
X172408619Y-58342295D01*
X172408619Y-58342295D02*
X172789571Y-58342295D01*
X173475286Y-58342295D02*
X173322905Y-58342295D01*
X173322905Y-58342295D02*
X173246714Y-58380390D01*
X173246714Y-58380390D02*
X173208619Y-58418485D01*
X173208619Y-58418485D02*
X173132429Y-58532771D01*
X173132429Y-58532771D02*
X173094333Y-58685152D01*
X173094333Y-58685152D02*
X173094333Y-58989914D01*
X173094333Y-58989914D02*
X173132429Y-59066104D01*
X173132429Y-59066104D02*
X173170524Y-59104200D01*
X173170524Y-59104200D02*
X173246714Y-59142295D01*
X173246714Y-59142295D02*
X173399095Y-59142295D01*
X173399095Y-59142295D02*
X173475286Y-59104200D01*
X173475286Y-59104200D02*
X173513381Y-59066104D01*
X173513381Y-59066104D02*
X173551476Y-58989914D01*
X173551476Y-58989914D02*
X173551476Y-58799438D01*
X173551476Y-58799438D02*
X173513381Y-58723247D01*
X173513381Y-58723247D02*
X173475286Y-58685152D01*
X173475286Y-58685152D02*
X173399095Y-58647057D01*
X173399095Y-58647057D02*
X173246714Y-58647057D01*
X173246714Y-58647057D02*
X173170524Y-58685152D01*
X173170524Y-58685152D02*
X173132429Y-58723247D01*
X173132429Y-58723247D02*
X173094333Y-58799438D01*
X172637190Y-61263247D02*
X172751476Y-61301342D01*
X172751476Y-61301342D02*
X172789571Y-61339438D01*
X172789571Y-61339438D02*
X172827667Y-61415628D01*
X172827667Y-61415628D02*
X172827667Y-61529914D01*
X172827667Y-61529914D02*
X172789571Y-61606104D01*
X172789571Y-61606104D02*
X172751476Y-61644200D01*
X172751476Y-61644200D02*
X172675286Y-61682295D01*
X172675286Y-61682295D02*
X172370524Y-61682295D01*
X172370524Y-61682295D02*
X172370524Y-60882295D01*
X172370524Y-60882295D02*
X172637190Y-60882295D01*
X172637190Y-60882295D02*
X172713381Y-60920390D01*
X172713381Y-60920390D02*
X172751476Y-60958485D01*
X172751476Y-60958485D02*
X172789571Y-61034676D01*
X172789571Y-61034676D02*
X172789571Y-61110866D01*
X172789571Y-61110866D02*
X172751476Y-61187057D01*
X172751476Y-61187057D02*
X172713381Y-61225152D01*
X172713381Y-61225152D02*
X172637190Y-61263247D01*
X172637190Y-61263247D02*
X172370524Y-61263247D01*
X173513381Y-61148961D02*
X173513381Y-61682295D01*
X173322905Y-60844200D02*
X173132428Y-61415628D01*
X173132428Y-61415628D02*
X173627667Y-61415628D01*
X172637190Y-63803247D02*
X172751476Y-63841342D01*
X172751476Y-63841342D02*
X172789571Y-63879438D01*
X172789571Y-63879438D02*
X172827667Y-63955628D01*
X172827667Y-63955628D02*
X172827667Y-64069914D01*
X172827667Y-64069914D02*
X172789571Y-64146104D01*
X172789571Y-64146104D02*
X172751476Y-64184200D01*
X172751476Y-64184200D02*
X172675286Y-64222295D01*
X172675286Y-64222295D02*
X172370524Y-64222295D01*
X172370524Y-64222295D02*
X172370524Y-63422295D01*
X172370524Y-63422295D02*
X172637190Y-63422295D01*
X172637190Y-63422295D02*
X172713381Y-63460390D01*
X172713381Y-63460390D02*
X172751476Y-63498485D01*
X172751476Y-63498485D02*
X172789571Y-63574676D01*
X172789571Y-63574676D02*
X172789571Y-63650866D01*
X172789571Y-63650866D02*
X172751476Y-63727057D01*
X172751476Y-63727057D02*
X172713381Y-63765152D01*
X172713381Y-63765152D02*
X172637190Y-63803247D01*
X172637190Y-63803247D02*
X172370524Y-63803247D01*
X173551476Y-63422295D02*
X173170524Y-63422295D01*
X173170524Y-63422295D02*
X173132428Y-63803247D01*
X173132428Y-63803247D02*
X173170524Y-63765152D01*
X173170524Y-63765152D02*
X173246714Y-63727057D01*
X173246714Y-63727057D02*
X173437190Y-63727057D01*
X173437190Y-63727057D02*
X173513381Y-63765152D01*
X173513381Y-63765152D02*
X173551476Y-63803247D01*
X173551476Y-63803247D02*
X173589571Y-63879438D01*
X173589571Y-63879438D02*
X173589571Y-64069914D01*
X173589571Y-64069914D02*
X173551476Y-64146104D01*
X173551476Y-64146104D02*
X173513381Y-64184200D01*
X173513381Y-64184200D02*
X173437190Y-64222295D01*
X173437190Y-64222295D02*
X173246714Y-64222295D01*
X173246714Y-64222295D02*
X173170524Y-64184200D01*
X173170524Y-64184200D02*
X173132428Y-64146104D01*
G04 #@! TO.C,S9*
D12*
X78125000Y-50687500D02*
X78125000Y-65887500D01*
X78125000Y-65887500D02*
X93325000Y-65887500D01*
X93325000Y-50687500D02*
X78125000Y-50687500D01*
X93325000Y-65887500D02*
X93325000Y-50687500D01*
G04 #@! TO.C,S16*
X97175000Y-62087500D02*
X97175000Y-77287500D01*
X97175000Y-77287500D02*
X112375000Y-77287500D01*
X112375000Y-62087500D02*
X97175000Y-62087500D01*
X112375000Y-77287500D02*
X112375000Y-62087500D01*
G04 #@! TO.C,S20*
X116225000Y-90662500D02*
X116225000Y-105862500D01*
X116225000Y-105862500D02*
X131425000Y-105862500D01*
X131425000Y-90662500D02*
X116225000Y-90662500D01*
X131425000Y-105862500D02*
X131425000Y-90662500D01*
G04 #@! TO.C,S5*
X116225000Y-28750000D02*
X116225000Y-43950000D01*
X116225000Y-43950000D02*
X131425000Y-43950000D01*
X131425000Y-28750000D02*
X116225000Y-28750000D01*
X131425000Y-43950000D02*
X131425000Y-28750000D01*
G04 #@! TO.C,S7*
X40025000Y-63837500D02*
X40025000Y-79037500D01*
X40025000Y-79037500D02*
X55225000Y-79037500D01*
X55225000Y-63837500D02*
X40025000Y-63837500D01*
X55225000Y-79037500D02*
X55225000Y-63837500D01*
G04 #@! TO.C,S2*
X59075000Y-40025000D02*
X59075000Y-55225000D01*
X59075000Y-55225000D02*
X74275000Y-55225000D01*
X74275000Y-40025000D02*
X59075000Y-40025000D01*
X74275000Y-55225000D02*
X74275000Y-40025000D01*
G04 #@! TO.C,S1*
X40025000Y-44787500D02*
X40025000Y-59987500D01*
X40025000Y-59987500D02*
X55225000Y-59987500D01*
X55225000Y-44787500D02*
X40025000Y-44787500D01*
X55225000Y-59987500D02*
X55225000Y-44787500D01*
G04 #@! TO.C,S12*
X135275000Y-52562500D02*
X135275000Y-67762500D01*
X135275000Y-67762500D02*
X150475000Y-67762500D01*
X150475000Y-52562500D02*
X135275000Y-52562500D01*
X150475000Y-67762500D02*
X150475000Y-52562500D01*
G04 #@! TO.C,S15*
X78125000Y-69737500D02*
X78125000Y-84937500D01*
X78125000Y-84937500D02*
X93325000Y-84937500D01*
X93325000Y-69737500D02*
X78125000Y-69737500D01*
X93325000Y-84937500D02*
X93325000Y-69737500D01*
G04 #@! TO.C,S10*
X97175000Y-43037500D02*
X97175000Y-58237500D01*
X97175000Y-58237500D02*
X112375000Y-58237500D01*
X112375000Y-43037500D02*
X97175000Y-43037500D01*
X112375000Y-58237500D02*
X112375000Y-43037500D01*
G04 #@! TO.C,S14*
X59075000Y-78125000D02*
X59075000Y-93325000D01*
X59075000Y-93325000D02*
X74275000Y-93325000D01*
X74275000Y-78125000D02*
X59075000Y-78125000D01*
X74275000Y-93325000D02*
X74275000Y-78125000D01*
G04 #@! TO.C,S19*
X97175000Y-90662500D02*
X97175000Y-105862500D01*
X97175000Y-105862500D02*
X112375000Y-105862500D01*
X112375000Y-90662500D02*
X97175000Y-90662500D01*
X112375000Y-105862500D02*
X112375000Y-90662500D01*
G04 #@! TO.C,S21*
X135275000Y-90662500D02*
X135275000Y-105862500D01*
X135275000Y-105862500D02*
X150475000Y-105862500D01*
X150475000Y-90662500D02*
X135275000Y-90662500D01*
X150475000Y-105862500D02*
X150475000Y-90662500D01*
G04 #@! TO.C,S8*
X59075000Y-59075000D02*
X59075000Y-74275000D01*
X59075000Y-74275000D02*
X74275000Y-74275000D01*
X74275000Y-59075000D02*
X59075000Y-59075000D01*
X74275000Y-74275000D02*
X74275000Y-59075000D01*
G04 #@! TO.C,S4*
X97175000Y-23987500D02*
X97175000Y-39187500D01*
X97175000Y-39187500D02*
X112375000Y-39187500D01*
X112375000Y-23987500D02*
X97175000Y-23987500D01*
X112375000Y-39187500D02*
X112375000Y-23987500D01*
G04 #@! TO.C,S13*
X40025000Y-82887500D02*
X40025000Y-98087500D01*
X40025000Y-98087500D02*
X55225000Y-98087500D01*
X55225000Y-82887500D02*
X40025000Y-82887500D01*
X55225000Y-98087500D02*
X55225000Y-82887500D01*
G04 #@! TO.C,S18*
X135275000Y-71612500D02*
X135275000Y-86812500D01*
X135275000Y-86812500D02*
X150475000Y-86812500D01*
X150475000Y-71612500D02*
X135275000Y-71612500D01*
X150475000Y-86812500D02*
X150475000Y-71612500D01*
G04 #@! TO.C,S3*
X78125000Y-31637500D02*
X78125000Y-46837500D01*
X78125000Y-46837500D02*
X93325000Y-46837500D01*
X93325000Y-31637500D02*
X78125000Y-31637500D01*
X93325000Y-46837500D02*
X93325000Y-31637500D01*
G04 #@! TO.C,S6*
X135275000Y-33512500D02*
X135275000Y-48712500D01*
X135275000Y-48712500D02*
X150475000Y-48712500D01*
X150475000Y-33512500D02*
X135275000Y-33512500D01*
X150475000Y-48712500D02*
X150475000Y-33512500D01*
G04 #@! TO.C,S17*
X116225000Y-66850000D02*
X116225000Y-82050000D01*
X116225000Y-82050000D02*
X131425000Y-82050000D01*
X131425000Y-66850000D02*
X116225000Y-66850000D01*
X131425000Y-82050000D02*
X131425000Y-66850000D01*
G04 #@! TO.C,S11*
X116225000Y-47800000D02*
X116225000Y-63000000D01*
X116225000Y-63000000D02*
X131425000Y-63000000D01*
X131425000Y-47800000D02*
X116225000Y-47800000D01*
X131425000Y-63000000D02*
X131425000Y-47800000D01*
G04 #@! TO.C,U1*
D13*
X158610000Y-32110000D02*
X176390000Y-32110000D01*
X158610000Y-65130000D02*
X158610000Y-32110000D01*
X173850000Y-34650000D02*
X173850000Y-37190000D01*
X173850000Y-34650000D02*
X176390000Y-34650000D01*
X173850000Y-37190000D02*
X176390000Y-37190000D01*
X176390000Y-32110000D02*
X176390000Y-65130000D01*
X176390000Y-65130000D02*
X158610000Y-65130000D01*
D11*
X161255365Y-40539030D02*
X161255365Y-41339030D01*
X161155365Y-41339030D01*
X161155365Y-40539030D01*
X161255365Y-40539030D01*
G36*
X161255365Y-41339030D02*
G01*
X161155365Y-41339030D01*
X161155365Y-40539030D01*
X161255365Y-40539030D01*
X161255365Y-41339030D01*
G37*
X161455365Y-40939030D02*
X161455365Y-41039030D01*
X161355365Y-41039030D01*
X161355365Y-40939030D01*
X161455365Y-40939030D01*
G36*
X161455365Y-41039030D02*
G01*
X161355365Y-41039030D01*
X161355365Y-40939030D01*
X161455365Y-40939030D01*
X161455365Y-41039030D01*
G37*
X161655365Y-40539030D02*
X161655365Y-40639030D01*
X161155365Y-40639030D01*
X161155365Y-40539030D01*
X161655365Y-40539030D01*
G36*
X161655365Y-40639030D02*
G01*
X161155365Y-40639030D01*
X161155365Y-40539030D01*
X161655365Y-40539030D01*
X161655365Y-40639030D01*
G37*
X161655365Y-40539030D02*
X161655365Y-40839030D01*
X161555365Y-40839030D01*
X161555365Y-40539030D01*
X161655365Y-40539030D01*
G36*
X161655365Y-40839030D02*
G01*
X161555365Y-40839030D01*
X161555365Y-40539030D01*
X161655365Y-40539030D01*
X161655365Y-40839030D01*
G37*
X161655365Y-41139030D02*
X161655365Y-41339030D01*
X161555365Y-41339030D01*
X161555365Y-41139030D01*
X161655365Y-41139030D01*
G36*
X161655365Y-41339030D02*
G01*
X161555365Y-41339030D01*
X161555365Y-41139030D01*
X161655365Y-41139030D01*
X161655365Y-41339030D01*
G37*
G04 #@! TD*
D14*
G04 #@! TO.C,U1*
X175120000Y-35920000D03*
D15*
X175120000Y-38460000D03*
X175120000Y-41000000D03*
X175120000Y-43540000D03*
X175120000Y-46080000D03*
X175120000Y-48620000D03*
X175120000Y-51160000D03*
X175120000Y-53700000D03*
X175120000Y-56240000D03*
X175120000Y-58780000D03*
X175120000Y-61320000D03*
X175120000Y-63860000D03*
X159880000Y-63860000D03*
X159880000Y-61320000D03*
X159880000Y-58780000D03*
X159880000Y-56240000D03*
X159880000Y-53700000D03*
X159880000Y-51160000D03*
X159880000Y-48620000D03*
X159880000Y-46080000D03*
X159880000Y-43540000D03*
X159880000Y-41000000D03*
X159880000Y-38460000D03*
X159880000Y-35920000D03*
G04 #@! TD*
%LPC*%
D16*
G04 #@! TO.C,S9*
X80225000Y-58287500D03*
D17*
X85725000Y-52387500D03*
D18*
X85725000Y-58287500D03*
D17*
X90725000Y-54487500D03*
D16*
X91225000Y-58287500D03*
G04 #@! TD*
G04 #@! TO.C,S16*
X99275000Y-69687500D03*
D17*
X104775000Y-63787500D03*
D18*
X104775000Y-69687500D03*
D17*
X109775000Y-65887500D03*
D16*
X110275000Y-69687500D03*
G04 #@! TD*
G04 #@! TO.C,S20*
X118325000Y-98262500D03*
D17*
X123825000Y-92362500D03*
D18*
X123825000Y-98262500D03*
D17*
X128825000Y-94462500D03*
D16*
X129325000Y-98262500D03*
G04 #@! TD*
G04 #@! TO.C,S5*
X118325000Y-36350000D03*
D17*
X123825000Y-30450000D03*
D18*
X123825000Y-36350000D03*
D17*
X128825000Y-32550000D03*
D16*
X129325000Y-36350000D03*
G04 #@! TD*
G04 #@! TO.C,S7*
X42125000Y-71437500D03*
D17*
X47625000Y-65537500D03*
D18*
X47625000Y-71437500D03*
D17*
X52625000Y-67637500D03*
D16*
X53125000Y-71437500D03*
G04 #@! TD*
G04 #@! TO.C,S2*
X61175000Y-47625000D03*
D17*
X66675000Y-41725000D03*
D18*
X66675000Y-47625000D03*
D17*
X71675000Y-43825000D03*
D16*
X72175000Y-47625000D03*
G04 #@! TD*
G04 #@! TO.C,S1*
X42125000Y-52387500D03*
D17*
X47625000Y-46487500D03*
D18*
X47625000Y-52387500D03*
D17*
X52625000Y-48587500D03*
D16*
X53125000Y-52387500D03*
G04 #@! TD*
G04 #@! TO.C,S12*
X137375000Y-60162500D03*
D17*
X142875000Y-54262500D03*
D18*
X142875000Y-60162500D03*
D17*
X147875000Y-56362500D03*
D16*
X148375000Y-60162500D03*
G04 #@! TD*
G04 #@! TO.C,S15*
X80225000Y-77337500D03*
D17*
X85725000Y-71437500D03*
D18*
X85725000Y-77337500D03*
D17*
X90725000Y-73537500D03*
D16*
X91225000Y-77337500D03*
G04 #@! TD*
G04 #@! TO.C,S10*
X99275000Y-50637500D03*
D17*
X104775000Y-44737500D03*
D18*
X104775000Y-50637500D03*
D17*
X109775000Y-46837500D03*
D16*
X110275000Y-50637500D03*
G04 #@! TD*
G04 #@! TO.C,S14*
X61175000Y-85725000D03*
D17*
X66675000Y-79825000D03*
D18*
X66675000Y-85725000D03*
D17*
X71675000Y-81925000D03*
D16*
X72175000Y-85725000D03*
G04 #@! TD*
G04 #@! TO.C,S19*
X99275000Y-98262500D03*
D17*
X104775000Y-92362500D03*
D18*
X104775000Y-98262500D03*
D17*
X109775000Y-94462500D03*
D16*
X110275000Y-98262500D03*
G04 #@! TD*
G04 #@! TO.C,S21*
X137375000Y-98262500D03*
D17*
X142875000Y-92362500D03*
D18*
X142875000Y-98262500D03*
D17*
X147875000Y-94462500D03*
D16*
X148375000Y-98262500D03*
G04 #@! TD*
G04 #@! TO.C,S8*
X61175000Y-66675000D03*
D17*
X66675000Y-60775000D03*
D18*
X66675000Y-66675000D03*
D17*
X71675000Y-62875000D03*
D16*
X72175000Y-66675000D03*
G04 #@! TD*
G04 #@! TO.C,S4*
X99275000Y-31587500D03*
D17*
X104775000Y-25687500D03*
D18*
X104775000Y-31587500D03*
D17*
X109775000Y-27787500D03*
D16*
X110275000Y-31587500D03*
G04 #@! TD*
G04 #@! TO.C,S13*
X42125000Y-90487500D03*
D17*
X47625000Y-84587500D03*
D18*
X47625000Y-90487500D03*
D17*
X52625000Y-86687500D03*
D16*
X53125000Y-90487500D03*
G04 #@! TD*
G04 #@! TO.C,S18*
X137375000Y-79212500D03*
D17*
X142875000Y-73312500D03*
D18*
X142875000Y-79212500D03*
D17*
X147875000Y-75412500D03*
D16*
X148375000Y-79212500D03*
G04 #@! TD*
G04 #@! TO.C,S3*
X80225000Y-39237500D03*
D17*
X85725000Y-33337500D03*
D18*
X85725000Y-39237500D03*
D17*
X90725000Y-35437500D03*
D16*
X91225000Y-39237500D03*
G04 #@! TD*
G04 #@! TO.C,S6*
X137375000Y-41112500D03*
D17*
X142875000Y-35212500D03*
D18*
X142875000Y-41112500D03*
D17*
X147875000Y-37312500D03*
D16*
X148375000Y-41112500D03*
G04 #@! TD*
G04 #@! TO.C,S17*
X118325000Y-74450000D03*
D17*
X123825000Y-68550000D03*
D18*
X123825000Y-74450000D03*
D17*
X128825000Y-70650000D03*
D16*
X129325000Y-74450000D03*
G04 #@! TD*
G04 #@! TO.C,S11*
X118325000Y-55400000D03*
D17*
X123825000Y-49500000D03*
D18*
X123825000Y-55400000D03*
D17*
X128825000Y-51600000D03*
D16*
X129325000Y-55400000D03*
G04 #@! TD*
D19*
G04 #@! TO.C,U2*
X180340000Y-42487500D03*
X180340000Y-35487500D03*
D20*
X182640000Y-45187500D03*
X178040000Y-44087500D03*
X178040000Y-40087500D03*
X178040000Y-37087500D03*
G04 #@! TD*
D14*
G04 #@! TO.C,U1*
X175120000Y-35920000D03*
D15*
X175120000Y-38460000D03*
X175120000Y-41000000D03*
X175120000Y-43540000D03*
X175120000Y-46080000D03*
X175120000Y-48620000D03*
X175120000Y-51160000D03*
X175120000Y-53700000D03*
X175120000Y-56240000D03*
X175120000Y-58780000D03*
X175120000Y-61320000D03*
X175120000Y-63860000D03*
X159880000Y-63860000D03*
X159880000Y-61320000D03*
X159880000Y-58780000D03*
X159880000Y-56240000D03*
X159880000Y-53700000D03*
X159880000Y-51160000D03*
X159880000Y-48620000D03*
X159880000Y-46080000D03*
X159880000Y-43540000D03*
X159880000Y-41000000D03*
X159880000Y-38460000D03*
X159880000Y-35920000D03*
G04 #@! TD*
%LPD*%
M02*
