M48
; DRILL file KiCad 10.0.3 date 2026-06-02T13:38:18
; FORMAT={-:-/ absolute / metric / decimal}
; #@! TF.CreationDate,2026-06-02T13:38:18+05:45
; #@! TF.GenerationSoftware,Kicad,Pcbnew,10.0.3
; #@! TF.FileFunction,Plated,1,2,PTH
FMAT,2
METRIC
; #@! TA.AperFunction,Plated,PTH,ViaDrill
T1C0.300
; #@! TA.AperFunction,Plated,PTH,ComponentDrill
T2C0.900
; #@! TA.AperFunction,Plated,PTH,ComponentDrill
T3C1.092
%
G90
G05
T1
X57.2Y-43.6
X57.2Y-56.2
X58.2Y-68.4
X58.2Y-76.2
X58.2Y-89.4
X58.2Y-95.8
X76.0Y-34.8
X76.2Y-55.2
X80.4Y-68.0
X81.0Y-92.8
X81.6Y-49.6
X85.0Y-94.6
X95.2Y-28.6
X95.4Y-45.8
X95.4Y-67.0
X95.4Y-83.25
X97.6Y-41.8
X101.4Y-60.6
X114.4Y-32.0
X114.4Y-43.2
X114.4Y-49.4
X114.4Y-62.0
X114.6Y-82.8
X115.25Y-69.0
X133.2Y-47.6
X133.4Y-54.4
X133.4Y-67.2
X133.412Y-85.787
X133.5Y-35.5
X134.0Y-73.75
X156.524Y-71.876
X156.524Y-80.724
X157.2Y-80.2
X157.319Y-71.787
X157.8Y-72.8
X158.0Y-79.8
T3
X159.88Y-35.92
X159.88Y-38.46
X159.88Y-41.0
X159.88Y-43.54
X159.88Y-46.08
X159.88Y-48.62
X159.88Y-51.16
X159.88Y-53.7
X159.88Y-56.24
X159.88Y-58.78
X159.88Y-61.32
X159.88Y-63.86
X175.12Y-35.92
X175.12Y-38.46
X175.12Y-41.0
X175.12Y-43.54
X175.12Y-46.08
X175.12Y-48.62
X175.12Y-51.16
X175.12Y-53.7
X175.12Y-56.24
X175.12Y-58.78
X175.12Y-61.32
X175.12Y-63.86
T2
X178.04Y-37.288G85X178.04Y-36.887
G05
X178.04Y-40.288G85X178.04Y-39.887
G05
X178.04Y-44.288G85X178.04Y-43.887
G05
X182.64Y-45.387G85X182.64Y-44.987
G05
M30
