M48
; DRILL file KiCad 10.0.3 date 2026-06-02T13:38:18
; FORMAT={-:-/ absolute / metric / decimal}
; #@! TF.CreationDate,2026-06-02T13:38:18+05:45
; #@! TF.GenerationSoftware,Kicad,Pcbnew,10.0.3
; #@! TF.FileFunction,NonPlated,1,2,NPTH
FMAT,2
METRIC
; #@! TA.AperFunction,NonPlated,NPTH,ComponentDrill
T1C0.800
; #@! TA.AperFunction,NonPlated,NPTH,ComponentDrill
T2C1.900
; #@! TA.AperFunction,NonPlated,NPTH,ComponentDrill
T3C3.050
; #@! TA.AperFunction,NonPlated,NPTH,ComponentDrill
T4C3.450
%
G90
G05
T1
X180.34Y-35.487
X180.34Y-42.487
T2
X42.125Y-52.387
X42.125Y-71.438
X42.125Y-90.487
X53.125Y-52.387
X53.125Y-71.438
X53.125Y-90.487
X61.175Y-47.625
X61.175Y-66.675
X61.175Y-85.725
X72.175Y-47.625
X72.175Y-66.675
X72.175Y-85.725
X80.225Y-39.237
X80.225Y-58.287
X80.225Y-77.337
X91.225Y-39.237
X91.225Y-58.287
X91.225Y-77.337
X99.275Y-31.587
X99.275Y-50.637
X99.275Y-69.688
X99.275Y-98.262
X110.275Y-31.587
X110.275Y-50.637
X110.275Y-69.688
X110.275Y-98.262
X118.325Y-36.35
X118.325Y-55.4
X118.325Y-74.45
X118.325Y-98.262
X129.325Y-36.35
X129.325Y-55.4
X129.325Y-74.45
X129.325Y-98.262
X137.375Y-41.112
X137.375Y-60.162
X137.375Y-79.212
X137.375Y-98.262
X148.375Y-41.112
X148.375Y-60.162
X148.375Y-79.212
X148.375Y-98.262
T3
X47.625Y-46.487
X47.625Y-65.537
X47.625Y-84.587
X52.625Y-48.587
X52.625Y-67.638
X52.625Y-86.688
X66.675Y-41.725
X66.675Y-60.775
X66.675Y-79.825
X71.675Y-43.825
X71.675Y-62.875
X71.675Y-81.925
X85.725Y-33.337
X85.725Y-52.387
X85.725Y-71.438
X90.725Y-35.438
X90.725Y-54.487
X90.725Y-73.537
X104.775Y-25.688
X104.775Y-44.737
X104.775Y-63.787
X104.775Y-92.362
X109.775Y-27.787
X109.775Y-46.837
X109.775Y-65.888
X109.775Y-94.462
X123.825Y-30.45
X123.825Y-49.5
X123.825Y-68.55
X123.825Y-92.362
X128.825Y-32.55
X128.825Y-51.6
X128.825Y-70.65
X128.825Y-94.462
X142.875Y-35.212
X142.875Y-54.262
X142.875Y-73.312
X142.875Y-92.362
X147.875Y-37.312
X147.875Y-56.362
X147.875Y-75.412
X147.875Y-94.462
T4
X47.625Y-52.387
X47.625Y-71.438
X47.625Y-90.487
X66.675Y-47.625
X66.675Y-66.675
X66.675Y-85.725
X85.725Y-39.237
X85.725Y-58.287
X85.725Y-77.337
X104.775Y-31.587
X104.775Y-50.637
X104.775Y-69.688
X104.775Y-98.262
X123.825Y-36.35
X123.825Y-55.4
X123.825Y-74.45
X123.825Y-98.262
X142.875Y-41.112
X142.875Y-60.162
X142.875Y-79.212
X142.875Y-98.262
M30
