G04 #@! TF.GenerationSoftware,KiCad,Pcbnew,10.0.3*
G04 #@! TF.CreationDate,2026-06-02T13:38:18+05:45*
G04 #@! TF.ProjectId,pcb-2,7063622d-322e-46b6-9963-61645f706362,rev?*
G04 #@! TF.SameCoordinates,Original*
G04 #@! TF.FileFunction,Soldermask,Top*
G04 #@! TF.FilePolarity,Negative*
%FSLAX46Y46*%
G04 Gerber Fmt 4.6, Leading zero omitted, Abs format (unit mm)*
G04 Created by KiCad (PCBNEW 10.0.3) date 2026-06-02 13:38:18*
%MOMM*%
%LPD*%
G01*
G04 APERTURE LIST*
%ADD10C,1.900000*%
%ADD11C,3.050000*%
%ADD12C,3.450000*%
%ADD13C,0.800000*%
%ADD14O,1.600000X2.000000*%
%ADD15R,1.752600X1.752600*%
%ADD16C,1.752600*%
G04 APERTURE END LIST*
D10*
G04 #@! TO.C,S9*
X80225000Y-58287500D03*
D11*
X85725000Y-52387500D03*
D12*
X85725000Y-58287500D03*
D11*
X90725000Y-54487500D03*
D10*
X91225000Y-58287500D03*
G04 #@! TD*
G04 #@! TO.C,S16*
X99275000Y-69687500D03*
D11*
X104775000Y-63787500D03*
D12*
X104775000Y-69687500D03*
D11*
X109775000Y-65887500D03*
D10*
X110275000Y-69687500D03*
G04 #@! TD*
G04 #@! TO.C,S20*
X118325000Y-98262500D03*
D11*
X123825000Y-92362500D03*
D12*
X123825000Y-98262500D03*
D11*
X128825000Y-94462500D03*
D10*
X129325000Y-98262500D03*
G04 #@! TD*
G04 #@! TO.C,S5*
X118325000Y-36350000D03*
D11*
X123825000Y-30450000D03*
D12*
X123825000Y-36350000D03*
D11*
X128825000Y-32550000D03*
D10*
X129325000Y-36350000D03*
G04 #@! TD*
G04 #@! TO.C,S7*
X42125000Y-71437500D03*
D11*
X47625000Y-65537500D03*
D12*
X47625000Y-71437500D03*
D11*
X52625000Y-67637500D03*
D10*
X53125000Y-71437500D03*
G04 #@! TD*
G04 #@! TO.C,S2*
X61175000Y-47625000D03*
D11*
X66675000Y-41725000D03*
D12*
X66675000Y-47625000D03*
D11*
X71675000Y-43825000D03*
D10*
X72175000Y-47625000D03*
G04 #@! TD*
G04 #@! TO.C,S1*
X42125000Y-52387500D03*
D11*
X47625000Y-46487500D03*
D12*
X47625000Y-52387500D03*
D11*
X52625000Y-48587500D03*
D10*
X53125000Y-52387500D03*
G04 #@! TD*
G04 #@! TO.C,S12*
X137375000Y-60162500D03*
D11*
X142875000Y-54262500D03*
D12*
X142875000Y-60162500D03*
D11*
X147875000Y-56362500D03*
D10*
X148375000Y-60162500D03*
G04 #@! TD*
G04 #@! TO.C,S15*
X80225000Y-77337500D03*
D11*
X85725000Y-71437500D03*
D12*
X85725000Y-77337500D03*
D11*
X90725000Y-73537500D03*
D10*
X91225000Y-77337500D03*
G04 #@! TD*
G04 #@! TO.C,S10*
X99275000Y-50637500D03*
D11*
X104775000Y-44737500D03*
D12*
X104775000Y-50637500D03*
D11*
X109775000Y-46837500D03*
D10*
X110275000Y-50637500D03*
G04 #@! TD*
G04 #@! TO.C,S14*
X61175000Y-85725000D03*
D11*
X66675000Y-79825000D03*
D12*
X66675000Y-85725000D03*
D11*
X71675000Y-81925000D03*
D10*
X72175000Y-85725000D03*
G04 #@! TD*
G04 #@! TO.C,S19*
X99275000Y-98262500D03*
D11*
X104775000Y-92362500D03*
D12*
X104775000Y-98262500D03*
D11*
X109775000Y-94462500D03*
D10*
X110275000Y-98262500D03*
G04 #@! TD*
G04 #@! TO.C,S21*
X137375000Y-98262500D03*
D11*
X142875000Y-92362500D03*
D12*
X142875000Y-98262500D03*
D11*
X147875000Y-94462500D03*
D10*
X148375000Y-98262500D03*
G04 #@! TD*
G04 #@! TO.C,S8*
X61175000Y-66675000D03*
D11*
X66675000Y-60775000D03*
D12*
X66675000Y-66675000D03*
D11*
X71675000Y-62875000D03*
D10*
X72175000Y-66675000D03*
G04 #@! TD*
G04 #@! TO.C,S4*
X99275000Y-31587500D03*
D11*
X104775000Y-25687500D03*
D12*
X104775000Y-31587500D03*
D11*
X109775000Y-27787500D03*
D10*
X110275000Y-31587500D03*
G04 #@! TD*
G04 #@! TO.C,S13*
X42125000Y-90487500D03*
D11*
X47625000Y-84587500D03*
D12*
X47625000Y-90487500D03*
D11*
X52625000Y-86687500D03*
D10*
X53125000Y-90487500D03*
G04 #@! TD*
G04 #@! TO.C,S18*
X137375000Y-79212500D03*
D11*
X142875000Y-73312500D03*
D12*
X142875000Y-79212500D03*
D11*
X147875000Y-75412500D03*
D10*
X148375000Y-79212500D03*
G04 #@! TD*
G04 #@! TO.C,S3*
X80225000Y-39237500D03*
D11*
X85725000Y-33337500D03*
D12*
X85725000Y-39237500D03*
D11*
X90725000Y-35437500D03*
D10*
X91225000Y-39237500D03*
G04 #@! TD*
G04 #@! TO.C,S6*
X137375000Y-41112500D03*
D11*
X142875000Y-35212500D03*
D12*
X142875000Y-41112500D03*
D11*
X147875000Y-37312500D03*
D10*
X148375000Y-41112500D03*
G04 #@! TD*
G04 #@! TO.C,S17*
X118325000Y-74450000D03*
D11*
X123825000Y-68550000D03*
D12*
X123825000Y-74450000D03*
D11*
X128825000Y-70650000D03*
D10*
X129325000Y-74450000D03*
G04 #@! TD*
G04 #@! TO.C,S11*
X118325000Y-55400000D03*
D11*
X123825000Y-49500000D03*
D12*
X123825000Y-55400000D03*
D11*
X128825000Y-51600000D03*
D10*
X129325000Y-55400000D03*
G04 #@! TD*
D13*
G04 #@! TO.C,U2*
X180340000Y-42487500D03*
X180340000Y-35487500D03*
D14*
X182640000Y-45187500D03*
X178040000Y-44087500D03*
X178040000Y-40087500D03*
X178040000Y-37087500D03*
G04 #@! TD*
D15*
G04 #@! TO.C,U1*
X175120000Y-35920000D03*
D16*
X175120000Y-38460000D03*
X175120000Y-41000000D03*
X175120000Y-43540000D03*
X175120000Y-46080000D03*
X175120000Y-48620000D03*
X175120000Y-51160000D03*
X175120000Y-53700000D03*
X175120000Y-56240000D03*
X175120000Y-58780000D03*
X175120000Y-61320000D03*
X175120000Y-63860000D03*
X159880000Y-63860000D03*
X159880000Y-61320000D03*
X159880000Y-58780000D03*
X159880000Y-56240000D03*
X159880000Y-53700000D03*
X159880000Y-51160000D03*
X159880000Y-48620000D03*
X159880000Y-46080000D03*
X159880000Y-43540000D03*
X159880000Y-41000000D03*
X159880000Y-38460000D03*
X159880000Y-35920000D03*
G04 #@! TD*
M02*
