G04 #@! TF.GenerationSoftware,KiCad,Pcbnew,10.0.3*
G04 #@! TF.CreationDate,2026-06-02T09:12:30+05:45*
G04 #@! TF.ProjectId,Lily58_Pro,4c696c79-3538-45f5-9072-6f2e6b696361,rev?*
G04 #@! TF.SameCoordinates,Original*
G04 #@! TF.FileFunction,Soldermask,Bot*
G04 #@! TF.FilePolarity,Negative*
%FSLAX46Y46*%
G04 Gerber Fmt 4.6, Leading zero omitted, Abs format (unit mm)*
G04 Created by KiCad (PCBNEW 10.0.3) date 2026-06-02 09:12:30*
%MOMM*%
%LPD*%
G01*
G04 APERTURE LIST*
G04 Aperture macros list*
%AMRoundRect*
0 Rectangle with rounded corners*
0 $1 Rounding radius*
0 $2 $3 $4 $5 $6 $7 $8 $9 X,Y pos of 4 corners*
0 Add a 4 corners polygon primitive as box body*
4,1,4,$2,$3,$4,$5,$6,$7,$8,$9,$2,$3,0*
0 Add four circle primitives for the rounded corners*
1,1,$1+$1,$2,$3*
1,1,$1+$1,$4,$5*
1,1,$1+$1,$6,$7*
1,1,$1+$1,$8,$9*
0 Add four rect primitives between the rounded corners*
20,1,$1+$1,$2,$3,$4,$5,0*
20,1,$1+$1,$4,$5,$6,$7,0*
20,1,$1+$1,$6,$7,$8,$9,0*
20,1,$1+$1,$8,$9,$2,$3,0*%
G04 Aperture macros list end*
%ADD10C,1.797000*%
%ADD11C,1.600000*%
%ADD12RoundRect,0.200000X-0.600000X-1.050000X0.600000X-1.050000X0.600000X1.050000X-0.600000X1.050000X0*%
%ADD13C,5.300000*%
%ADD14C,1.924000*%
%ADD15C,2.900000*%
%ADD16RoundRect,0.200000X-0.900000X-0.750000X0.900000X-0.750000X0.900000X0.750000X-0.900000X0.750000X0*%
%ADD17RoundRect,0.200000X-1.099519X0.404423X-0.199519X-1.154423X1.099519X-0.404423X0.199519X1.154423X0*%
%ADD18C,2.300000*%
%ADD19C,2.100000*%
%ADD20C,3.400000*%
%ADD21C,4.400000*%
%ADD22RoundRect,0.200000X-0.350000X-0.750000X0.350000X-0.750000X0.350000X0.750000X-0.350000X0.750000X0*%
%ADD23RoundRect,0.200000X1.000000X1.000000X-1.000000X1.000000X-1.000000X-1.000000X1.000000X-1.000000X0*%
%ADD24RoundRect,0.200000X1.250000X1.250000X-1.250000X1.250000X-1.250000X-1.250000X1.250000X-1.250000X0*%
%ADD25RoundRect,0.200000X0.950000X1.000000X-0.950000X1.000000X-0.950000X-1.000000X0.950000X-1.000000X0*%
%ADD26RoundRect,0.200000X1.200000X1.200000X-1.200000X1.200000X-1.200000X-1.200000X1.200000X-1.200000X0*%
%ADD27RoundRect,0.200000X-0.824519X-0.071891X-0.474519X-0.678109X0.824519X0.071891X0.474519X0.678109X0*%
%ADD28RoundRect,0.200000X1.366025X-0.366025X0.366025X1.366025X-1.366025X0.366025X-0.366025X-1.366025X0*%
%ADD29RoundRect,0.200000X1.707532X-0.457532X0.457532X1.707532X-1.707532X0.457532X-0.457532X-1.707532X0*%
%ADD30RoundRect,0.200000X1.341025X-0.322724X0.391025X1.322724X-1.341025X0.322724X-0.391025X-1.322724X0*%
%ADD31RoundRect,0.200000X1.639230X-0.439230X0.439230X1.639230X-1.639230X0.439230X-0.439230X-1.639230X0*%
%ADD32RoundRect,0.200000X-0.762000X0.762000X-0.762000X-0.762000X0.762000X-0.762000X0.762000X0.762000X0*%
%ADD33RoundRect,0.200000X0.762000X0.762000X-0.762000X0.762000X-0.762000X-0.762000X0.762000X-0.762000X0*%
%ADD34RoundRect,0.200000X0.571500X-0.317500X0.571500X0.317500X-0.571500X0.317500X-0.571500X-0.317500X0*%
G04 APERTURE END LIST*
D10*
G04 #@! TO.C,R1*
X84688035Y-53499272D03*
X84688035Y-58579272D03*
G04 #@! TD*
G04 #@! TO.C,R2*
X86938035Y-53499272D03*
X86938035Y-58579272D03*
G04 #@! TD*
D11*
G04 #@! TO.C,J2*
X86150000Y-40800000D03*
X86150000Y-47800000D03*
X87900000Y-40800000D03*
X87900000Y-47800000D03*
D12*
X84050000Y-49600000D03*
X90000000Y-49600000D03*
X84050000Y-45600000D03*
X90000000Y-45600000D03*
X84050000Y-42600000D03*
X90000000Y-42600000D03*
X85800000Y-51100000D03*
X88250000Y-51100000D03*
G04 #@! TD*
D10*
G04 #@! TO.C,P1*
X84700000Y-60700000D03*
G04 #@! TD*
G04 #@! TO.C,P2*
X86900000Y-60700000D03*
G04 #@! TD*
D13*
G04 #@! TO.C,TH3*
X129600000Y-59600000D03*
G04 #@! TD*
G04 #@! TO.C,TH4*
X205800000Y-61800000D03*
G04 #@! TD*
G04 #@! TO.C,TH5*
X129600000Y-97600000D03*
G04 #@! TD*
G04 #@! TO.C,TH6*
X205800000Y-100000000D03*
G04 #@! TD*
G04 #@! TO.C,TH7*
X105000000Y-114800000D03*
G04 #@! TD*
D14*
G04 #@! TO.C,U1*
X92180000Y-41230000D03*
X108718815Y-42425745D03*
X92180000Y-43770000D03*
X108718815Y-44965745D03*
X92180000Y-46310000D03*
X108718815Y-47505745D03*
X92180000Y-48850000D03*
X108718815Y-50045745D03*
X92180000Y-51390000D03*
X108718815Y-52585745D03*
X92180000Y-53930000D03*
X108718815Y-55125745D03*
X92180000Y-56470000D03*
X108718815Y-57665745D03*
X92180000Y-59010000D03*
X108718815Y-60205745D03*
X92180000Y-61550000D03*
X108718815Y-62745745D03*
X92180000Y-64090000D03*
X108718815Y-65285745D03*
X92180000Y-66630000D03*
X108718815Y-67825745D03*
X92180000Y-69170000D03*
X108718815Y-70365745D03*
X93478815Y-70365745D03*
X107420000Y-69170000D03*
X93478815Y-67825745D03*
X107420000Y-66630000D03*
X93478815Y-65285745D03*
X107420000Y-64090000D03*
X93478815Y-62745745D03*
X107420000Y-61550000D03*
X93478815Y-60205745D03*
X107420000Y-59010000D03*
X93478815Y-57665745D03*
X107420000Y-56470000D03*
X93478815Y-55125745D03*
X107420000Y-53930000D03*
X93478815Y-52585745D03*
X107420000Y-51390000D03*
X93478815Y-50045745D03*
X107420000Y-48850000D03*
X93478815Y-47505745D03*
X107420000Y-46310000D03*
X93478815Y-44965745D03*
X107420000Y-43770000D03*
X93478815Y-42425745D03*
X107420000Y-41230000D03*
G04 #@! TD*
D15*
G04 #@! TO.C,RSW1*
X85000000Y-70950000D03*
X85000000Y-64450000D03*
G04 #@! TD*
D16*
G04 #@! TO.C,D1*
X112700000Y-58000000D03*
X116100000Y-58000000D03*
G04 #@! TD*
G04 #@! TO.C,D2*
X132600000Y-55700000D03*
X136000000Y-55700000D03*
G04 #@! TD*
G04 #@! TO.C,D3*
X150800000Y-54200000D03*
X154200000Y-54200000D03*
G04 #@! TD*
G04 #@! TO.C,D4*
X169800000Y-55600000D03*
X173200000Y-55600000D03*
G04 #@! TD*
G04 #@! TO.C,D5*
X188900000Y-60400000D03*
X192300000Y-60400000D03*
G04 #@! TD*
G04 #@! TO.C,D6*
X220100000Y-61800000D03*
X223500000Y-61800000D03*
G04 #@! TD*
G04 #@! TO.C,D7*
X112700000Y-61100000D03*
X116100000Y-61100000D03*
G04 #@! TD*
G04 #@! TO.C,D8*
X133600000Y-58700000D03*
X137000000Y-58700000D03*
G04 #@! TD*
G04 #@! TO.C,D9*
X150900000Y-57400000D03*
X154300000Y-57400000D03*
G04 #@! TD*
G04 #@! TO.C,D10*
X169800000Y-58700000D03*
X173200000Y-58700000D03*
G04 #@! TD*
G04 #@! TO.C,D11*
X188900000Y-63300000D03*
X192300000Y-63300000D03*
G04 #@! TD*
G04 #@! TO.C,D12*
X220100000Y-64900000D03*
X223500000Y-64900000D03*
G04 #@! TD*
G04 #@! TO.C,D13*
X112700000Y-96000000D03*
X116100000Y-96000000D03*
G04 #@! TD*
G04 #@! TO.C,D14*
X132600000Y-93800000D03*
X136000000Y-93800000D03*
G04 #@! TD*
G04 #@! TO.C,D15*
X150800000Y-92300000D03*
X154200000Y-92300000D03*
G04 #@! TD*
G04 #@! TO.C,D16*
X169800000Y-93600000D03*
X173200000Y-93600000D03*
G04 #@! TD*
G04 #@! TO.C,D17*
X188900000Y-98300000D03*
X192300000Y-98300000D03*
G04 #@! TD*
G04 #@! TO.C,D18*
X220100000Y-99900000D03*
X223500000Y-99900000D03*
G04 #@! TD*
G04 #@! TO.C,D19*
X112700000Y-99100000D03*
X116100000Y-99100000D03*
G04 #@! TD*
G04 #@! TO.C,D20*
X133600000Y-96800000D03*
X137000000Y-96800000D03*
G04 #@! TD*
G04 #@! TO.C,D21*
X150800000Y-95400000D03*
X154200000Y-95400000D03*
G04 #@! TD*
G04 #@! TO.C,D22*
X169800000Y-96800000D03*
X173200000Y-96800000D03*
G04 #@! TD*
G04 #@! TO.C,D23*
X188900000Y-101500000D03*
X192300000Y-101500000D03*
G04 #@! TD*
G04 #@! TO.C,D24*
X220200000Y-103100000D03*
X223600000Y-103100000D03*
G04 #@! TD*
G04 #@! TO.C,D25*
X103900000Y-89500000D03*
X107300000Y-89500000D03*
G04 #@! TD*
D17*
G04 #@! TO.C,D26*
X108950000Y-117827757D03*
X110650000Y-120772243D03*
G04 #@! TD*
D16*
G04 #@! TO.C,D27*
X122200000Y-118000000D03*
X125600000Y-118000000D03*
G04 #@! TD*
G04 #@! TO.C,D28*
X141200000Y-115800000D03*
X144600000Y-115800000D03*
G04 #@! TD*
G04 #@! TO.C,D29*
X160300000Y-115800000D03*
X163700000Y-115800000D03*
G04 #@! TD*
D18*
G04 #@! TO.C,SW1*
X115000000Y-50000000D03*
D19*
X115420000Y-50000000D03*
D20*
X115500000Y-53700000D03*
X116690000Y-47459999D03*
X117960000Y-44920000D03*
D21*
X120500000Y-50000000D03*
D20*
X120500000Y-55900000D03*
X123040000Y-44920000D03*
X124310000Y-47460000D03*
X124310000Y-47460000D03*
X125500000Y-53700000D03*
D19*
X125580000Y-50000000D03*
D18*
X126000000Y-50000000D03*
D22*
X112000000Y-47500000D03*
D23*
X112400000Y-53700000D03*
D24*
X113600000Y-47460000D03*
D25*
X123300000Y-55900000D03*
D26*
X126200000Y-44920000D03*
D22*
X127700000Y-44900000D03*
G04 #@! TD*
D18*
G04 #@! TO.C,SW2*
X134000000Y-47600000D03*
D19*
X134420000Y-47600000D03*
D20*
X134500000Y-51300000D03*
X135690000Y-45059999D03*
X136960000Y-42520000D03*
D21*
X139500000Y-47600000D03*
D20*
X139500000Y-53500000D03*
X142040000Y-42520000D03*
X143310000Y-45060000D03*
X143310000Y-45060000D03*
X144500000Y-51300000D03*
D19*
X144580000Y-47600000D03*
D18*
X145000000Y-47600000D03*
D22*
X131000000Y-45100000D03*
D23*
X131400000Y-51300000D03*
D24*
X132600000Y-45060000D03*
D25*
X142300000Y-53500000D03*
D26*
X145200000Y-42520000D03*
D22*
X146700000Y-42500000D03*
G04 #@! TD*
D18*
G04 #@! TO.C,SW3*
X153100000Y-46210000D03*
D19*
X153520000Y-46210000D03*
D20*
X153600000Y-49910000D03*
X154790000Y-43669999D03*
X156060000Y-41130000D03*
D21*
X158600000Y-46210000D03*
D20*
X158600000Y-52110000D03*
X161140000Y-41130000D03*
X162410000Y-43670000D03*
X162410000Y-43670000D03*
X163600000Y-49910000D03*
D19*
X163680000Y-46210000D03*
D18*
X164100000Y-46210000D03*
D22*
X150100000Y-43710000D03*
D23*
X150500000Y-49910000D03*
D24*
X151700000Y-43670000D03*
D25*
X161400000Y-52110000D03*
D26*
X164300000Y-41130000D03*
D22*
X165800000Y-41110000D03*
G04 #@! TD*
D18*
G04 #@! TO.C,SW4*
X172100000Y-47600000D03*
D19*
X172520000Y-47600000D03*
D20*
X172600000Y-51300000D03*
X173790000Y-45059999D03*
X175060000Y-42520000D03*
D21*
X177600000Y-47600000D03*
D20*
X177600000Y-53500000D03*
X180140000Y-42520000D03*
X181410000Y-45060000D03*
X181410000Y-45060000D03*
X182600000Y-51300000D03*
D19*
X182680000Y-47600000D03*
D18*
X183100000Y-47600000D03*
D22*
X169100000Y-45100000D03*
D23*
X169500000Y-51300000D03*
D24*
X170700000Y-45060000D03*
D25*
X180400000Y-53500000D03*
D26*
X183300000Y-42520000D03*
D22*
X184800000Y-42500000D03*
G04 #@! TD*
D18*
G04 #@! TO.C,SW5*
X191200000Y-52400000D03*
D19*
X191620000Y-52400000D03*
D20*
X191700000Y-56100000D03*
X192890000Y-49859999D03*
X194160000Y-47320000D03*
D21*
X196700000Y-52400000D03*
D20*
X196700000Y-58300000D03*
X199240000Y-47320000D03*
X200510000Y-49860000D03*
X200510000Y-49860000D03*
X201700000Y-56100000D03*
D19*
X201780000Y-52400000D03*
D18*
X202200000Y-52400000D03*
D22*
X188200000Y-49900000D03*
D23*
X188600000Y-56100000D03*
D24*
X189800000Y-49860000D03*
D25*
X199500000Y-58300000D03*
D26*
X202400000Y-47320000D03*
D22*
X203900000Y-47300000D03*
G04 #@! TD*
D18*
G04 #@! TO.C,SW6*
X210200000Y-53900000D03*
D19*
X210620000Y-53900000D03*
D20*
X210700000Y-57600000D03*
X211890000Y-51359999D03*
X213160000Y-48820000D03*
D21*
X215700000Y-53900000D03*
D20*
X215700000Y-59800000D03*
X218240000Y-48820000D03*
X219510000Y-51360000D03*
X219510000Y-51360000D03*
X220700000Y-57600000D03*
D19*
X220780000Y-53900000D03*
D18*
X221200000Y-53900000D03*
D22*
X207200000Y-51400000D03*
D23*
X207600000Y-57600000D03*
D24*
X208800000Y-51360000D03*
D25*
X218500000Y-59800000D03*
D26*
X221400000Y-48820000D03*
D22*
X222900000Y-48800000D03*
G04 #@! TD*
D18*
G04 #@! TO.C,SW7*
X115000000Y-69100000D03*
D19*
X115420000Y-69100000D03*
D20*
X115500000Y-72800000D03*
X116690000Y-66559999D03*
X117960000Y-64020000D03*
D21*
X120500000Y-69100000D03*
D20*
X120500000Y-75000000D03*
X123040000Y-64020000D03*
X124310000Y-66560000D03*
X124310000Y-66560000D03*
X125500000Y-72800000D03*
D19*
X125580000Y-69100000D03*
D18*
X126000000Y-69100000D03*
D22*
X112000000Y-66600000D03*
D23*
X112400000Y-72800000D03*
D24*
X113600000Y-66560000D03*
D25*
X123300000Y-75000000D03*
D26*
X126200000Y-64020000D03*
D22*
X127700000Y-64000000D03*
G04 #@! TD*
D18*
G04 #@! TO.C,SW8*
X134000000Y-66700000D03*
D19*
X134420000Y-66700000D03*
D20*
X134500000Y-70400000D03*
X135690000Y-64159999D03*
X136960000Y-61620000D03*
D21*
X139500000Y-66700000D03*
D20*
X139500000Y-72600000D03*
X142040000Y-61620000D03*
X143310000Y-64160000D03*
X143310000Y-64160000D03*
X144500000Y-70400000D03*
D19*
X144580000Y-66700000D03*
D18*
X145000000Y-66700000D03*
D22*
X131000000Y-64200000D03*
D23*
X131400000Y-70400000D03*
D24*
X132600000Y-64160000D03*
D25*
X142300000Y-72600000D03*
D26*
X145200000Y-61620000D03*
D22*
X146700000Y-61600000D03*
G04 #@! TD*
D18*
G04 #@! TO.C,SW9*
X153100000Y-65300000D03*
D19*
X153520000Y-65300000D03*
D20*
X153600000Y-69000000D03*
X154790000Y-62759999D03*
X156060000Y-60220000D03*
D21*
X158600000Y-65300000D03*
D20*
X158600000Y-71200000D03*
X161140000Y-60220000D03*
X162410000Y-62760000D03*
X162410000Y-62760000D03*
X163600000Y-69000000D03*
D19*
X163680000Y-65300000D03*
D18*
X164100000Y-65300000D03*
D22*
X150100000Y-62800000D03*
D23*
X150500000Y-69000000D03*
D24*
X151700000Y-62760000D03*
D25*
X161400000Y-71200000D03*
D26*
X164300000Y-60220000D03*
D22*
X165800000Y-60200000D03*
G04 #@! TD*
D18*
G04 #@! TO.C,SW10*
X172100000Y-66600000D03*
D19*
X172520000Y-66600000D03*
D20*
X172600000Y-70300000D03*
X173790000Y-64059999D03*
X175060000Y-61520000D03*
D21*
X177600000Y-66600000D03*
D20*
X177600000Y-72500000D03*
X180140000Y-61520000D03*
X181410000Y-64060000D03*
X181410000Y-64060000D03*
X182600000Y-70300000D03*
D19*
X182680000Y-66600000D03*
D18*
X183100000Y-66600000D03*
D22*
X169100000Y-64100000D03*
D23*
X169500000Y-70300000D03*
D24*
X170700000Y-64060000D03*
D25*
X180400000Y-72500000D03*
D26*
X183300000Y-61520000D03*
D22*
X184800000Y-61500000D03*
G04 #@! TD*
D18*
G04 #@! TO.C,SW11*
X191200000Y-71300000D03*
D19*
X191620000Y-71300000D03*
D20*
X191700000Y-75000000D03*
X192890000Y-68759999D03*
X194160000Y-66220000D03*
D21*
X196700000Y-71300000D03*
D20*
X196700000Y-77200000D03*
X199240000Y-66220000D03*
X200510000Y-68760000D03*
X200510000Y-68760000D03*
X201700000Y-75000000D03*
D19*
X201780000Y-71300000D03*
D18*
X202200000Y-71300000D03*
D22*
X188200000Y-68800000D03*
D23*
X188600000Y-75000000D03*
D24*
X189800000Y-68760000D03*
D25*
X199500000Y-77200000D03*
D26*
X202400000Y-66220000D03*
D22*
X203900000Y-66200000D03*
G04 #@! TD*
D18*
G04 #@! TO.C,SW12*
X210200000Y-72800000D03*
D19*
X210620000Y-72800000D03*
D20*
X210700000Y-76500000D03*
X211890000Y-70259999D03*
X213160000Y-67720000D03*
D21*
X215700000Y-72800000D03*
D20*
X215700000Y-78700000D03*
X218240000Y-67720000D03*
X219510000Y-70260000D03*
X219510000Y-70260000D03*
X220700000Y-76500000D03*
D19*
X220780000Y-72800000D03*
D18*
X221200000Y-72800000D03*
D22*
X207200000Y-70300000D03*
D23*
X207600000Y-76500000D03*
D24*
X208800000Y-70260000D03*
D25*
X218500000Y-78700000D03*
D26*
X221400000Y-67720000D03*
D22*
X222900000Y-67700000D03*
G04 #@! TD*
D18*
G04 #@! TO.C,SW13*
X115000000Y-88100000D03*
D19*
X115420000Y-88100000D03*
D20*
X115500000Y-91800000D03*
X116690000Y-85559999D03*
X117960000Y-83020000D03*
D21*
X120500000Y-88100000D03*
D20*
X120500000Y-94000000D03*
X123040000Y-83020000D03*
X124310000Y-85560000D03*
X124310000Y-85560000D03*
X125500000Y-91800000D03*
D19*
X125580000Y-88100000D03*
D18*
X126000000Y-88100000D03*
D22*
X112000000Y-85600000D03*
D23*
X112400000Y-91800000D03*
D24*
X113600000Y-85560000D03*
D25*
X123300000Y-94000000D03*
D26*
X126200000Y-83020000D03*
D22*
X127700000Y-83000000D03*
G04 #@! TD*
D18*
G04 #@! TO.C,SW14*
X134000000Y-85700000D03*
D19*
X134420000Y-85700000D03*
D20*
X134500000Y-89400000D03*
X135690000Y-83159999D03*
X136960000Y-80620000D03*
D21*
X139500000Y-85700000D03*
D20*
X139500000Y-91600000D03*
X142040000Y-80620000D03*
X143310000Y-83160000D03*
X143310000Y-83160000D03*
X144500000Y-89400000D03*
D19*
X144580000Y-85700000D03*
D18*
X145000000Y-85700000D03*
D22*
X131000000Y-83200000D03*
D23*
X131400000Y-89400000D03*
D24*
X132600000Y-83160000D03*
D25*
X142300000Y-91600000D03*
D26*
X145200000Y-80620000D03*
D22*
X146700000Y-80600000D03*
G04 #@! TD*
D18*
G04 #@! TO.C,SW15*
X153100000Y-84400000D03*
D19*
X153520000Y-84400000D03*
D20*
X153600000Y-88100000D03*
X154790000Y-81859999D03*
X156060000Y-79320000D03*
D21*
X158600000Y-84400000D03*
D20*
X158600000Y-90300000D03*
X161140000Y-79320000D03*
X162410000Y-81860000D03*
X162410000Y-81860000D03*
X163600000Y-88100000D03*
D19*
X163680000Y-84400000D03*
D18*
X164100000Y-84400000D03*
D22*
X150100000Y-81900000D03*
D23*
X150500000Y-88100000D03*
D24*
X151700000Y-81860000D03*
D25*
X161400000Y-90300000D03*
D26*
X164300000Y-79320000D03*
D22*
X165800000Y-79300000D03*
G04 #@! TD*
D18*
G04 #@! TO.C,SW16*
X172100000Y-85700000D03*
D19*
X172520000Y-85700000D03*
D20*
X172600000Y-89400000D03*
X173790000Y-83159999D03*
X175060000Y-80620000D03*
D21*
X177600000Y-85700000D03*
D20*
X177600000Y-91600000D03*
X180140000Y-80620000D03*
X181410000Y-83160000D03*
X181410000Y-83160000D03*
X182600000Y-89400000D03*
D19*
X182680000Y-85700000D03*
D18*
X183100000Y-85700000D03*
D22*
X169100000Y-83200000D03*
D23*
X169500000Y-89400000D03*
D24*
X170700000Y-83160000D03*
D25*
X180400000Y-91600000D03*
D26*
X183300000Y-80620000D03*
D22*
X184800000Y-80600000D03*
G04 #@! TD*
D18*
G04 #@! TO.C,SW17*
X191200000Y-90500000D03*
D19*
X191620000Y-90500000D03*
D20*
X191700000Y-94200000D03*
X192890000Y-87959999D03*
X194160000Y-85420000D03*
D21*
X196700000Y-90500000D03*
D20*
X196700000Y-96400000D03*
X199240000Y-85420000D03*
X200510000Y-87960000D03*
X200510000Y-87960000D03*
X201700000Y-94200000D03*
D19*
X201780000Y-90500000D03*
D18*
X202200000Y-90500000D03*
D22*
X188200000Y-88000000D03*
D23*
X188600000Y-94200000D03*
D24*
X189800000Y-87960000D03*
D25*
X199500000Y-96400000D03*
D26*
X202400000Y-85420000D03*
D22*
X203900000Y-85400000D03*
G04 #@! TD*
D18*
G04 #@! TO.C,SW18*
X210200000Y-92000000D03*
D19*
X210620000Y-92000000D03*
D20*
X210700000Y-95700000D03*
X211890000Y-89459999D03*
X213160000Y-86920000D03*
D21*
X215700000Y-92000000D03*
D20*
X215700000Y-97900000D03*
X218240000Y-86920000D03*
X219510000Y-89460000D03*
X219510000Y-89460000D03*
X220700000Y-95700000D03*
D19*
X220780000Y-92000000D03*
D18*
X221200000Y-92000000D03*
D22*
X207200000Y-89500000D03*
D23*
X207600000Y-95700000D03*
D24*
X208800000Y-89460000D03*
D25*
X218500000Y-97900000D03*
D26*
X221400000Y-86920000D03*
D22*
X222900000Y-86900000D03*
G04 #@! TD*
D18*
G04 #@! TO.C,SW19*
X115000000Y-107100000D03*
D19*
X115420000Y-107100000D03*
D20*
X115500000Y-110800000D03*
X116690000Y-104559999D03*
X117960000Y-102020000D03*
D21*
X120500000Y-107100000D03*
D20*
X120500000Y-113000000D03*
X123040000Y-102020000D03*
X124310000Y-104560000D03*
X124310000Y-104560000D03*
X125500000Y-110800000D03*
D19*
X125580000Y-107100000D03*
D18*
X126000000Y-107100000D03*
D22*
X112000000Y-104600000D03*
D23*
X112400000Y-110800000D03*
D24*
X113600000Y-104560000D03*
D25*
X123300000Y-113000000D03*
D26*
X126200000Y-102020000D03*
D22*
X127700000Y-102000000D03*
G04 #@! TD*
D18*
G04 #@! TO.C,SW20*
X134000000Y-104800000D03*
D19*
X134420000Y-104800000D03*
D20*
X134500000Y-108500000D03*
X135690000Y-102259999D03*
X136960000Y-99720000D03*
D21*
X139500000Y-104800000D03*
D20*
X139500000Y-110700000D03*
X142040000Y-99720000D03*
X143310000Y-102260000D03*
X143310000Y-102260000D03*
X144500000Y-108500000D03*
D19*
X144580000Y-104800000D03*
D18*
X145000000Y-104800000D03*
D22*
X131000000Y-102300000D03*
D23*
X131400000Y-108500000D03*
D24*
X132600000Y-102260000D03*
D25*
X142300000Y-110700000D03*
D26*
X145200000Y-99720000D03*
D22*
X146700000Y-99700000D03*
G04 #@! TD*
D18*
G04 #@! TO.C,SW21*
X153100000Y-103400000D03*
D19*
X153520000Y-103400000D03*
D20*
X153600000Y-107100000D03*
X154790000Y-100859999D03*
X156060000Y-98320000D03*
D21*
X158600000Y-103400000D03*
D20*
X158600000Y-109300000D03*
X161140000Y-98320000D03*
X162410000Y-100860000D03*
X162410000Y-100860000D03*
X163600000Y-107100000D03*
D19*
X163680000Y-103400000D03*
D18*
X164100000Y-103400000D03*
D22*
X150100000Y-100900000D03*
D23*
X150500000Y-107100000D03*
D24*
X151700000Y-100860000D03*
D25*
X161400000Y-109300000D03*
D26*
X164300000Y-98320000D03*
D22*
X165800000Y-98300000D03*
G04 #@! TD*
D18*
G04 #@! TO.C,SW22*
X172100000Y-104800000D03*
D19*
X172520000Y-104800000D03*
D20*
X172600000Y-108500000D03*
X173790000Y-102259999D03*
X175060000Y-99720000D03*
D21*
X177600000Y-104800000D03*
D20*
X177600000Y-110700000D03*
X180140000Y-99720000D03*
X181410000Y-102260000D03*
X181410000Y-102260000D03*
X182600000Y-108500000D03*
D19*
X182680000Y-104800000D03*
D18*
X183100000Y-104800000D03*
D22*
X169100000Y-102300000D03*
D23*
X169500000Y-108500000D03*
D24*
X170700000Y-102260000D03*
D25*
X180400000Y-110700000D03*
D26*
X183300000Y-99720000D03*
D22*
X184800000Y-99700000D03*
G04 #@! TD*
D18*
G04 #@! TO.C,SW23*
X191200000Y-109500000D03*
D19*
X191620000Y-109500000D03*
D20*
X191700000Y-113200000D03*
X192890000Y-106959999D03*
X194160000Y-104420000D03*
D21*
X196700000Y-109500000D03*
D20*
X196700000Y-115400000D03*
X199240000Y-104420000D03*
X200510000Y-106960000D03*
X200510000Y-106960000D03*
X201700000Y-113200000D03*
D19*
X201780000Y-109500000D03*
D18*
X202200000Y-109500000D03*
D22*
X188200000Y-107000000D03*
D23*
X188600000Y-113200000D03*
D24*
X189800000Y-106960000D03*
D25*
X199500000Y-115400000D03*
D26*
X202400000Y-104420000D03*
D22*
X203900000Y-104400000D03*
G04 #@! TD*
D18*
G04 #@! TO.C,SW24*
X210250000Y-111000000D03*
D19*
X210670000Y-111000000D03*
D20*
X210750000Y-114700000D03*
X211940000Y-108459999D03*
X213210000Y-105920000D03*
D21*
X215750000Y-111000000D03*
D20*
X215750000Y-116900000D03*
X218290000Y-105920000D03*
X219560000Y-108460000D03*
X219560000Y-108460000D03*
X220750000Y-114700000D03*
D19*
X220830000Y-111000000D03*
D18*
X221250000Y-111000000D03*
D22*
X207250000Y-108500000D03*
D23*
X207650000Y-114700000D03*
D24*
X208850000Y-108460000D03*
D25*
X218550000Y-116900000D03*
D26*
X221450000Y-105920000D03*
D22*
X222950000Y-105900000D03*
G04 #@! TD*
D18*
G04 #@! TO.C,SW25*
X95900000Y-97500000D03*
D19*
X96320000Y-97500000D03*
D20*
X96400000Y-101200000D03*
X97590000Y-94959999D03*
X98860000Y-92420000D03*
D21*
X101400000Y-97500000D03*
D20*
X101400000Y-103400000D03*
X103940000Y-92420000D03*
X105210000Y-94960000D03*
X105210000Y-94960000D03*
X106400000Y-101200000D03*
D19*
X106480000Y-97500000D03*
D18*
X106900000Y-97500000D03*
D22*
X92900000Y-95000000D03*
D23*
X93300000Y-101200000D03*
D24*
X94500000Y-94960000D03*
D25*
X104200000Y-103400000D03*
D26*
X107100000Y-92420000D03*
D22*
X108600000Y-92400000D03*
G04 #@! TD*
D18*
G04 #@! TO.C,SW26*
X102250000Y-122236860D03*
D19*
X102460000Y-122600591D03*
D20*
X99295706Y-124519873D03*
X105294705Y-122430443D03*
X108129409Y-122260295D03*
D21*
X105000000Y-127000000D03*
D20*
X99890450Y-129950000D03*
X110669409Y-126659705D03*
X109104705Y-129029557D03*
X109104705Y-129029557D03*
X104295706Y-133180127D03*
D19*
X107540000Y-131399409D03*
D18*
X107750000Y-131763140D03*
D27*
X102915064Y-118388784D03*
D28*
X97745706Y-121835194D03*
D29*
X103749705Y-119754425D03*
D30*
X101290450Y-132374871D03*
D31*
X112249409Y-129396345D03*
D27*
X113016730Y-130685383D03*
G04 #@! TD*
D18*
G04 #@! TO.C,SW27*
X124500000Y-126000000D03*
D19*
X124920000Y-126000000D03*
D20*
X125000000Y-129700000D03*
X126190000Y-123459999D03*
X127460000Y-120920000D03*
D21*
X130000000Y-126000000D03*
D20*
X130000000Y-131900000D03*
X132540000Y-120920000D03*
X133810000Y-123460000D03*
X133810000Y-123460000D03*
X135000000Y-129700000D03*
D19*
X135080000Y-126000000D03*
D18*
X135500000Y-126000000D03*
D22*
X121500000Y-123500000D03*
D23*
X121900000Y-129700000D03*
D24*
X123100000Y-123460000D03*
D25*
X132800000Y-131900000D03*
D26*
X135700000Y-120920000D03*
D22*
X137200000Y-120900000D03*
G04 #@! TD*
D18*
G04 #@! TO.C,SW28*
X143500000Y-123750000D03*
D19*
X143920000Y-123750000D03*
D20*
X144000000Y-127450000D03*
X145190000Y-121209999D03*
X146460000Y-118670000D03*
D21*
X149000000Y-123750000D03*
D20*
X149000000Y-129650000D03*
X151540000Y-118670000D03*
X152810000Y-121210000D03*
X152810000Y-121210000D03*
X154000000Y-127450000D03*
D19*
X154080000Y-123750000D03*
D18*
X154500000Y-123750000D03*
D22*
X140500000Y-121250000D03*
D23*
X140900000Y-127450000D03*
D24*
X142100000Y-121210000D03*
D25*
X151800000Y-129650000D03*
D26*
X154700000Y-118670000D03*
D22*
X156200000Y-118650000D03*
G04 #@! TD*
D18*
G04 #@! TO.C,SW29*
X162600000Y-123750000D03*
D19*
X163020000Y-123750000D03*
D20*
X163100000Y-127450000D03*
X164290000Y-121209999D03*
X165560000Y-118670000D03*
D21*
X168100000Y-123750000D03*
D20*
X168100000Y-129650000D03*
X170640000Y-118670000D03*
X171910000Y-121210000D03*
X171910000Y-121210000D03*
X173100000Y-127450000D03*
D19*
X173180000Y-123750000D03*
D18*
X173600000Y-123750000D03*
D22*
X159600000Y-121250000D03*
D23*
X160000000Y-127450000D03*
D24*
X161200000Y-121210000D03*
D25*
X170900000Y-129650000D03*
D26*
X173800000Y-118670000D03*
D22*
X175300000Y-118650000D03*
G04 #@! TD*
D21*
G04 #@! TO.C,TH1*
X86000000Y-85000000D03*
G04 #@! TD*
G04 #@! TO.C,TH2*
X108000000Y-85000000D03*
G04 #@! TD*
D32*
G04 #@! TO.C,J1*
X112700000Y-80600000D03*
D33*
X112700000Y-78600000D03*
X112700000Y-76500000D03*
G04 #@! TD*
D10*
G04 #@! TO.C,J3*
X96700000Y-74600000D03*
X99240000Y-74600000D03*
X101780000Y-74600000D03*
X104320000Y-74600000D03*
G04 #@! TD*
D34*
G04 #@! TO.C,JP6*
X101700000Y-69800380D03*
X101700000Y-68799620D03*
G04 #@! TD*
G04 #@! TO.C,JP7*
X99200000Y-69800380D03*
X99200000Y-68799620D03*
G04 #@! TD*
G04 #@! TO.C,JP8*
X96700000Y-69800380D03*
X96700000Y-68799620D03*
G04 #@! TD*
G04 #@! TO.C,JP5*
X104300000Y-69800380D03*
X104300000Y-68799620D03*
G04 #@! TD*
M02*
