M48
; DRILL file KiCad 10.0.3 date 2026-06-02T09:12:41
; FORMAT={-:-/ absolute / metric / decimal}
; #@! TF.CreationDate,2026-06-02T09:12:41+05:45
; #@! TF.GenerationSoftware,Kicad,Pcbnew,10.0.3
; #@! TF.FileFunction,Plated,1,2,PTH
FMAT,2
METRIC
; #@! TA.AperFunction,Plated,PTH,ViaDrill
T1C0.300
; #@! TA.AperFunction,Plated,PTH,ComponentDrill
T2C0.400
; #@! TA.AperFunction,Plated,PTH,ComponentDrill
T3C0.500
; #@! TA.AperFunction,Plated,PTH,ComponentDrill
T4C0.813
; #@! TA.AperFunction,Plated,PTH,ComponentDrill
T5C1.000
; #@! TA.AperFunction,Plated,PTH,ComponentDrill
T6C1.300
; #@! TA.AperFunction,Plated,PTH,ComponentDrill
T7C2.400
; #@! TA.AperFunction,Plated,PTH,ComponentDrill
T8C4.700
%
G90
G05
T1
X90.0Y-47.7
X90.275Y-58.285
X90.3Y-59.1
X90.5Y-62.4
X93.2Y-92.4
X95.1Y-44.2
X96.05Y-67.806
X96.1Y-51.39
X96.7Y-67.8
X96.9Y-44.966
X96.9Y-48.8
X100.4Y-50.046
X100.4Y-68.8
X101.7Y-53.93
X102.2Y-130.7
X102.675Y-57.666
X103.0Y-68.8
X103.1Y-67.9
X103.175Y-60.206
X103.7Y-62.746
X103.9Y-136.9
X104.2Y-101.0
X104.3Y-64.575
X105.0Y-66.0
X105.328Y-67.072
X105.6Y-51.4
X105.6Y-65.2
X105.7Y-56.7
X105.7Y-44.0
X105.7Y-59.0
X105.7Y-61.9
X105.7Y-64.0
X105.7Y-41.6
X105.7Y-54.2
X107.2Y-117.1
X108.3Y-99.8
X109.6Y-92.5
X109.8Y-76.2
X109.9Y-80.6
X110.3Y-64.1
X112.3Y-64.1
X112.3Y-83.0
X112.4Y-44.9
X112.4Y-102.0
X113.2Y-131.7
X121.9Y-120.9
X123.3Y-53.5
X123.3Y-91.5
X123.3Y-110.5
X123.3Y-72.6
X127.4Y-52.3
X127.4Y-71.4
X127.4Y-90.4
X127.4Y-109.4
X128.5Y-44.9
X128.6Y-102.0
X128.7Y-64.0
X128.7Y-83.0
X131.3Y-80.6
X131.3Y-100.4
X131.4Y-42.5
X131.4Y-62.2
X132.8Y-129.4
X136.9Y-128.3
X138.0Y-120.9
X140.8Y-118.7
X142.3Y-89.3
X142.3Y-51.0
X142.3Y-108.3
X142.3Y-70.2
X146.4Y-49.9
X146.4Y-69.0
X146.4Y-88.0
X146.4Y-107.1
X147.5Y-61.6
X147.6Y-42.5
X147.6Y-99.7
X147.8Y-80.6
X150.3Y-98.3
X150.4Y-79.3
X150.5Y-41.1
X150.6Y-60.2
X151.8Y-127.1
X155.9Y-126.1
X157.1Y-118.7
X159.9Y-118.7
X161.4Y-68.7
X161.4Y-49.6
X161.4Y-87.8
X161.4Y-106.9
X165.5Y-48.5
X165.5Y-67.6
X165.5Y-86.7
X165.5Y-105.7
X166.6Y-60.2
X166.7Y-41.1
X166.8Y-79.3
X166.8Y-98.3
X169.4Y-42.5
X169.4Y-99.7
X169.5Y-61.5
X169.5Y-80.6
X170.9Y-127.3
X175.0Y-126.0
X176.2Y-118.7
X180.4Y-108.2
X180.4Y-51.0
X180.4Y-70.0
X180.4Y-89.1
X184.5Y-49.9
X184.5Y-68.9
X184.5Y-88.0
X184.5Y-107.1
X185.6Y-61.5
X185.6Y-99.7
X185.7Y-42.5
X185.9Y-80.6
X188.5Y-85.4
X188.5Y-104.4
X188.6Y-47.3
X188.6Y-66.2
X199.5Y-55.8
X199.5Y-93.9
X199.5Y-74.7
X199.5Y-113.1
X203.6Y-54.7
X203.6Y-73.6
X203.6Y-92.8
X203.6Y-111.8
X204.7Y-47.3
X204.7Y-66.2
X204.9Y-85.4
X204.9Y-104.4
X207.2Y-48.8
X207.5Y-105.9
X207.6Y-67.7
X207.6Y-86.9
X218.5Y-57.2
X218.5Y-76.2
X218.5Y-95.3
X218.5Y-114.6
X222.6Y-56.2
X222.6Y-75.1
X222.6Y-94.3
X222.6Y-113.3
X223.7Y-48.8
X223.7Y-67.7
X223.9Y-86.9
X223.9Y-105.9
T2
X103.9Y-89.5
X107.3Y-89.5
X108.95Y-117.828
X110.65Y-120.772
X112.7Y-58.0
X112.7Y-61.1
X112.7Y-96.0
X112.7Y-99.1
X116.1Y-58.0
X116.1Y-61.1
X116.1Y-96.0
X116.1Y-99.1
X122.2Y-118.0
X125.6Y-118.0
X132.6Y-55.7
X132.6Y-93.8
X133.6Y-58.7
X133.6Y-96.8
X136.0Y-55.7
X136.0Y-93.8
X137.0Y-58.7
X137.0Y-96.8
X141.2Y-115.8
X144.6Y-115.8
X150.8Y-54.2
X150.8Y-92.3
X150.8Y-95.4
X150.9Y-57.4
X154.2Y-54.2
X154.2Y-92.3
X154.2Y-95.4
X154.3Y-57.4
X160.3Y-115.8
X163.7Y-115.8
X169.8Y-55.6
X169.8Y-58.7
X169.8Y-93.6
X169.8Y-96.8
X173.2Y-55.6
X173.2Y-58.7
X173.2Y-93.6
X173.2Y-96.8
X188.9Y-60.4
X188.9Y-63.3
X188.9Y-98.3
X188.9Y-101.5
X192.3Y-60.4
X192.3Y-63.3
X192.3Y-98.3
X192.3Y-101.5
X220.1Y-61.8
X220.1Y-64.9
X220.1Y-99.9
X220.2Y-103.1
X223.5Y-61.8
X223.5Y-64.9
X223.5Y-99.9
X223.6Y-103.1
T4
X84.688Y-53.499
X84.688Y-58.579
X84.7Y-60.7
X86.9Y-60.7
X86.938Y-53.499
X86.938Y-58.579
X92.18Y-41.23
X92.18Y-43.77
X92.18Y-46.31
X92.18Y-48.85
X92.18Y-51.39
X92.18Y-53.93
X92.18Y-56.47
X92.18Y-59.01
X92.18Y-61.55
X92.18Y-64.09
X92.18Y-66.63
X92.18Y-69.17
X93.479Y-42.426
X93.479Y-44.966
X93.479Y-47.506
X93.479Y-50.046
X93.479Y-52.586
X93.479Y-55.126
X93.479Y-57.666
X93.479Y-60.206
X93.479Y-62.746
X93.479Y-65.286
X93.479Y-67.826
X93.479Y-70.366
X96.7Y-74.6
X99.24Y-74.6
X101.78Y-74.6
X104.32Y-74.6
X107.42Y-41.23
X107.42Y-43.77
X107.42Y-46.31
X107.42Y-48.85
X107.42Y-51.39
X107.42Y-53.93
X107.42Y-56.47
X107.42Y-59.01
X107.42Y-61.55
X107.42Y-64.09
X107.42Y-66.63
X107.42Y-69.17
X108.719Y-42.426
X108.719Y-44.966
X108.719Y-47.506
X108.719Y-50.046
X108.719Y-52.586
X108.719Y-55.126
X108.719Y-57.666
X108.719Y-60.206
X108.719Y-62.746
X108.719Y-65.286
X108.719Y-67.826
X108.719Y-70.366
T5
X112.7Y-76.5
X112.7Y-78.6
X112.7Y-80.6
T6
X85.0Y-64.45
X85.0Y-70.95
T7
X86.0Y-85.0
X108.0Y-85.0
T8
X105.0Y-114.8
X129.6Y-59.6
X129.6Y-97.6
X205.8Y-61.8
X205.8Y-100.0
T3
X84.05Y-42.05G85X84.05Y-43.15
G05
X84.05Y-45.05G85X84.05Y-46.15
G05
X84.05Y-49.05G85X84.05Y-50.15
G05
X85.8Y-50.55G85X85.8Y-51.65
G05
X88.25Y-50.55G85X88.25Y-51.65
G05
X90.0Y-42.05G85X90.0Y-43.15
G05
X90.0Y-45.05G85X90.0Y-46.15
G05
X90.0Y-49.05G85X90.0Y-50.15
G05
M30
