M48
; DRILL file KiCad 10.0.3 date 2026-06-02T09:12:41
; FORMAT={-:-/ absolute / metric / decimal}
; #@! TF.CreationDate,2026-06-02T09:12:41+05:45
; #@! TF.GenerationSoftware,Kicad,Pcbnew,10.0.3
; #@! TF.FileFunction,NonPlated,1,2,NPTH
FMAT,2
METRIC
; #@! TA.AperFunction,NonPlated,NPTH,ComponentDrill
T1C1.200
; #@! TA.AperFunction,NonPlated,NPTH,ComponentDrill
T2C1.700
; #@! TA.AperFunction,NonPlated,NPTH,ComponentDrill
T3C1.900
; #@! TA.AperFunction,NonPlated,NPTH,ComponentDrill
T4C3.000
; #@! TA.AperFunction,NonPlated,NPTH,ComponentDrill
T5C4.000
%
G90
G05
T1
X86.15Y-40.8
X86.15Y-47.8
X87.9Y-40.8
X87.9Y-47.8
T2
X96.32Y-97.5
X102.46Y-122.601
X106.48Y-97.5
X107.54Y-131.399
X115.42Y-50.0
X115.42Y-69.1
X115.42Y-88.1
X115.42Y-107.1
X124.92Y-126.0
X125.58Y-50.0
X125.58Y-69.1
X125.58Y-88.1
X125.58Y-107.1
X134.42Y-47.6
X134.42Y-66.7
X134.42Y-85.7
X134.42Y-104.8
X135.08Y-126.0
X143.92Y-123.75
X144.58Y-47.6
X144.58Y-66.7
X144.58Y-85.7
X144.58Y-104.8
X153.52Y-46.21
X153.52Y-65.3
X153.52Y-84.4
X153.52Y-103.4
X154.08Y-123.75
X163.02Y-123.75
X163.68Y-46.21
X163.68Y-65.3
X163.68Y-84.4
X163.68Y-103.4
X172.52Y-47.6
X172.52Y-66.6
X172.52Y-85.7
X172.52Y-104.8
X173.18Y-123.75
X182.68Y-47.6
X182.68Y-66.6
X182.68Y-85.7
X182.68Y-104.8
X191.62Y-52.4
X191.62Y-71.3
X191.62Y-90.5
X191.62Y-109.5
X201.78Y-52.4
X201.78Y-71.3
X201.78Y-90.5
X201.78Y-109.5
X210.62Y-53.9
X210.62Y-72.8
X210.62Y-92.0
X210.67Y-111.0
X220.78Y-53.9
X220.78Y-72.8
X220.78Y-92.0
X220.83Y-111.0
T3
X95.9Y-97.5
X102.25Y-122.237
X106.9Y-97.5
X107.75Y-131.763
X115.0Y-50.0
X115.0Y-69.1
X115.0Y-88.1
X115.0Y-107.1
X124.5Y-126.0
X126.0Y-50.0
X126.0Y-69.1
X126.0Y-88.1
X126.0Y-107.1
X134.0Y-47.6
X134.0Y-66.7
X134.0Y-85.7
X134.0Y-104.8
X135.5Y-126.0
X143.5Y-123.75
X145.0Y-47.6
X145.0Y-66.7
X145.0Y-85.7
X145.0Y-104.8
X153.1Y-46.21
X153.1Y-65.3
X153.1Y-84.4
X153.1Y-103.4
X154.5Y-123.75
X162.6Y-123.75
X164.1Y-46.21
X164.1Y-65.3
X164.1Y-84.4
X164.1Y-103.4
X172.1Y-47.6
X172.1Y-66.6
X172.1Y-85.7
X172.1Y-104.8
X173.6Y-123.75
X183.1Y-47.6
X183.1Y-66.6
X183.1Y-85.7
X183.1Y-104.8
X191.2Y-52.4
X191.2Y-71.3
X191.2Y-90.5
X191.2Y-109.5
X202.2Y-52.4
X202.2Y-71.3
X202.2Y-90.5
X202.2Y-109.5
X210.2Y-53.9
X210.2Y-72.8
X210.2Y-92.0
X210.25Y-111.0
X221.2Y-53.9
X221.2Y-72.8
X221.2Y-92.0
X221.25Y-111.0
T4
X96.4Y-101.2
X97.59Y-94.96
X98.86Y-92.42
X99.296Y-124.52
X99.89Y-129.95
X101.4Y-103.4
X103.94Y-92.42
X104.296Y-133.18
X105.21Y-94.96
X105.21Y-94.96
X105.295Y-122.43
X106.4Y-101.2
X108.129Y-122.26
X109.105Y-129.03
X109.105Y-129.03
X110.669Y-126.66
X115.5Y-53.7
X115.5Y-72.8
X115.5Y-91.8
X115.5Y-110.8
X116.69Y-47.46
X116.69Y-66.56
X116.69Y-85.56
X116.69Y-104.56
X117.96Y-44.92
X117.96Y-64.02
X117.96Y-83.02
X117.96Y-102.02
X120.5Y-55.9
X120.5Y-75.0
X120.5Y-94.0
X120.5Y-113.0
X123.04Y-44.92
X123.04Y-64.02
X123.04Y-83.02
X123.04Y-102.02
X124.31Y-47.46
X124.31Y-47.46
X124.31Y-66.56
X124.31Y-66.56
X124.31Y-85.56
X124.31Y-85.56
X124.31Y-104.56
X124.31Y-104.56
X125.0Y-129.7
X125.5Y-53.7
X125.5Y-72.8
X125.5Y-91.8
X125.5Y-110.8
X126.19Y-123.46
X127.46Y-120.92
X130.0Y-131.9
X132.54Y-120.92
X133.81Y-123.46
X133.81Y-123.46
X134.5Y-51.3
X134.5Y-70.4
X134.5Y-89.4
X134.5Y-108.5
X135.0Y-129.7
X135.69Y-45.06
X135.69Y-64.16
X135.69Y-83.16
X135.69Y-102.26
X136.96Y-42.52
X136.96Y-61.62
X136.96Y-80.62
X136.96Y-99.72
X139.5Y-53.5
X139.5Y-72.6
X139.5Y-91.6
X139.5Y-110.7
X142.04Y-42.52
X142.04Y-61.62
X142.04Y-80.62
X142.04Y-99.72
X143.31Y-45.06
X143.31Y-45.06
X143.31Y-64.16
X143.31Y-64.16
X143.31Y-83.16
X143.31Y-83.16
X143.31Y-102.26
X143.31Y-102.26
X144.0Y-127.45
X144.5Y-51.3
X144.5Y-70.4
X144.5Y-89.4
X144.5Y-108.5
X145.19Y-121.21
X146.46Y-118.67
X149.0Y-129.65
X151.54Y-118.67
X152.81Y-121.21
X152.81Y-121.21
X153.6Y-49.91
X153.6Y-69.0
X153.6Y-88.1
X153.6Y-107.1
X154.0Y-127.45
X154.79Y-43.67
X154.79Y-62.76
X154.79Y-81.86
X154.79Y-100.86
X156.06Y-41.13
X156.06Y-60.22
X156.06Y-79.32
X156.06Y-98.32
X158.6Y-52.11
X158.6Y-71.2
X158.6Y-90.3
X158.6Y-109.3
X161.14Y-41.13
X161.14Y-60.22
X161.14Y-79.32
X161.14Y-98.32
X162.41Y-43.67
X162.41Y-43.67
X162.41Y-62.76
X162.41Y-62.76
X162.41Y-81.86
X162.41Y-81.86
X162.41Y-100.86
X162.41Y-100.86
X163.1Y-127.45
X163.6Y-49.91
X163.6Y-69.0
X163.6Y-88.1
X163.6Y-107.1
X164.29Y-121.21
X165.56Y-118.67
X168.1Y-129.65
X170.64Y-118.67
X171.91Y-121.21
X171.91Y-121.21
X172.6Y-51.3
X172.6Y-70.3
X172.6Y-89.4
X172.6Y-108.5
X173.1Y-127.45
X173.79Y-45.06
X173.79Y-64.06
X173.79Y-83.16
X173.79Y-102.26
X175.06Y-42.52
X175.06Y-61.52
X175.06Y-80.62
X175.06Y-99.72
X177.6Y-53.5
X177.6Y-72.5
X177.6Y-91.6
X177.6Y-110.7
X180.14Y-42.52
X180.14Y-61.52
X180.14Y-80.62
X180.14Y-99.72
X181.41Y-45.06
X181.41Y-45.06
X181.41Y-64.06
X181.41Y-64.06
X181.41Y-83.16
X181.41Y-83.16
X181.41Y-102.26
X181.41Y-102.26
X182.6Y-51.3
X182.6Y-70.3
X182.6Y-89.4
X182.6Y-108.5
X191.7Y-56.1
X191.7Y-75.0
X191.7Y-94.2
X191.7Y-113.2
X192.89Y-49.86
X192.89Y-68.76
X192.89Y-87.96
X192.89Y-106.96
X194.16Y-47.32
X194.16Y-66.22
X194.16Y-85.42
X194.16Y-104.42
X196.7Y-58.3
X196.7Y-77.2
X196.7Y-96.4
X196.7Y-115.4
X199.24Y-47.32
X199.24Y-66.22
X199.24Y-85.42
X199.24Y-104.42
X200.51Y-49.86
X200.51Y-49.86
X200.51Y-68.76
X200.51Y-68.76
X200.51Y-87.96
X200.51Y-87.96
X200.51Y-106.96
X200.51Y-106.96
X201.7Y-56.1
X201.7Y-75.0
X201.7Y-94.2
X201.7Y-113.2
X210.7Y-57.6
X210.7Y-76.5
X210.7Y-95.7
X210.75Y-114.7
X211.89Y-51.36
X211.89Y-70.26
X211.89Y-89.46
X211.94Y-108.46
X213.16Y-48.82
X213.16Y-67.72
X213.16Y-86.92
X213.21Y-105.92
X215.7Y-59.8
X215.7Y-78.7
X215.7Y-97.9
X215.75Y-116.9
X218.24Y-48.82
X218.24Y-67.72
X218.24Y-86.92
X218.29Y-105.92
X219.51Y-51.36
X219.51Y-51.36
X219.51Y-70.26
X219.51Y-70.26
X219.51Y-89.46
X219.51Y-89.46
X219.56Y-108.46
X219.56Y-108.46
X220.7Y-57.6
X220.7Y-76.5
X220.7Y-95.7
X220.75Y-114.7
T5
X101.4Y-97.5
X105.0Y-127.0
X120.5Y-50.0
X120.5Y-69.1
X120.5Y-88.1
X120.5Y-107.1
X130.0Y-126.0
X139.5Y-47.6
X139.5Y-66.7
X139.5Y-85.7
X139.5Y-104.8
X149.0Y-123.75
X158.6Y-46.21
X158.6Y-65.3
X158.6Y-84.4
X158.6Y-103.4
X168.1Y-123.75
X177.6Y-47.6
X177.6Y-66.6
X177.6Y-85.7
X177.6Y-104.8
X196.7Y-52.4
X196.7Y-71.3
X196.7Y-90.5
X196.7Y-109.5
X215.7Y-53.9
X215.7Y-72.8
X215.7Y-92.0
X215.75Y-111.0
M30
