M48
; DRILL file KiCad 10.0.3 date 2026-07-04T20:48:48
; FORMAT={-:-/ absolute / metric / decimal}
; #@! TF.CreationDate,2026-07-04T20:48:48+05:45
; #@! TF.GenerationSoftware,Kicad,Pcbnew,10.0.3
; #@! TF.FileFunction,Plated,1,2,PTH
FMAT,2
METRIC
; #@! TA.AperFunction,Plated,PTH,ViaDrill
T1C0.300
; #@! TA.AperFunction,Plated,PTH,ComponentDrill
T2C0.900
; #@! TA.AperFunction,Plated,PTH,ComponentDrill
T3C1.092
%
G90
G05
T1
X45.8Y-56.2
X49.5Y-43.5
X49.5Y-45.7
X49.7Y-42.5
X59.4Y-65.0
X61.5Y-65.2
X62.3Y-66.0
X64.4Y-37.3
X65.2Y-33.4
X65.85Y-36.1
X67.9Y-62.4
X69.6Y-61.6
X69.9Y-102.4
X70.7Y-52.9
X70.7Y-64.2
X70.7Y-83.2
X70.7Y-101.4
X70.9Y-65.4
X71.4Y-79.2
X71.5Y-60.1
X71.7Y-46.5
X72.3Y-83.2
X73.7Y-47.8
X73.8Y-61.6
X73.8Y-82.8
X74.0Y-85.0
X76.7Y-54.2
X88.3Y-83.6
X88.7Y-37.3
X88.7Y-56.4
X88.7Y-75.4
X88.7Y-94.5
X89.4Y-81.4
X89.5Y-58.2
X89.5Y-62.6
X89.8Y-46.5
X89.8Y-101.3
X89.8Y-104.7
X91.9Y-40.6
X92.2Y-78.2
X95.8Y-41.7
X95.8Y-49.4
X95.8Y-68.4
X106.5Y-78.5
X107.3Y-55.7
X107.8Y-32.6
X107.8Y-51.6
X107.8Y-70.6
X107.8Y-94.5
X108.5Y-59.2
X108.8Y-40.4
X108.8Y-101.4
X108.8Y-104.7
X108.9Y-55.8
X110.7Y-35.7
X110.7Y-73.8
X112.0Y-80.6
X114.8Y-42.5
X114.8Y-44.6
X114.8Y-63.7
X115.8Y-31.3
X126.8Y-27.8
X126.8Y-46.8
X126.8Y-65.9
X126.8Y-94.5
X127.0Y-81.4
X127.8Y-43.3
X128.0Y-57.6
X128.8Y-39.0
X128.8Y-77.1
X129.4Y-54.4
X133.9Y-48.3
X133.9Y-52.3
X135.3Y-37.8
X136.1Y-84.5
X137.2Y-83.4
X137.9Y-66.4
X137.9Y-68.6
X139.0Y-67.5
X145.2Y-50.2
X145.9Y-35.4
X145.9Y-54.5
X145.9Y-73.5
X147.1Y-94.4
X147.4Y-46.5
X148.9Y-89.8
X151.3Y-70.7
X151.3Y-73.4
X152.9Y-60.7
X154.7Y-55.4
X164.3Y-54.0
X164.4Y-73.1
X164.9Y-81.9
X165.0Y-44.1
X166.0Y-94.5
X166.1Y-50.6
X166.7Y-70.7
X166.7Y-90.5
X169.5Y-82.0
X172.0Y-52.4
X172.0Y-65.4
X184.0Y-48.6
X184.0Y-67.6
X184.0Y-86.7
T3
X47.98Y-35.92
X47.98Y-38.46
X47.98Y-41.0
X47.98Y-43.54
X47.98Y-46.08
X47.98Y-48.62
X47.98Y-51.16
X47.98Y-53.7
X47.98Y-56.24
X47.98Y-58.78
X47.98Y-61.32
X47.98Y-63.86
X63.22Y-35.92
X63.22Y-38.46
X63.22Y-41.0
X63.22Y-43.54
X63.22Y-46.08
X63.22Y-48.62
X63.22Y-51.16
X63.22Y-53.7
X63.22Y-56.24
X63.22Y-58.78
X63.22Y-61.32
X63.22Y-63.86
T2
X40.46Y-37.288G85X40.46Y-36.887
G05
X40.46Y-40.288G85X40.46Y-39.887
G05
X40.46Y-44.288G85X40.46Y-43.887
G05
X45.06Y-45.387G85X45.06Y-44.987
G05
M30
