%TF.GenerationSoftware,KiCad,Pcbnew,10.0.3*%
%TF.CreationDate,2026-07-04T20:48:35+05:45*%
%TF.ProjectId,pcb-2,7063622d-322e-46b6-9963-61645f706362,rev?*%
%TF.SameCoordinates,Original*%
%TF.FileFunction,Copper,L1,Top*%
%TF.FilePolarity,Positive*%
%FSLAX46Y46*%
G04 Gerber Fmt 4.6, Leading zero omitted, Abs format (unit mm)*
G04 Created by KiCad (PCBNEW 10.0.3) date 2026-07-04 20:48:35*
%MOMM*%
%LPD*%
G01*
G04 APERTURE LIST*
%TA.AperFunction,ComponentPad*%
%ADD10O,1.600000X2.000000*%
%TD*%
%TA.AperFunction,ComponentPad*%
%ADD11R,1.752600X1.752600*%
%TD*%
%TA.AperFunction,ComponentPad*%
%ADD12C,1.752600*%
%TD*%
%TA.AperFunction,ViaPad*%
%ADD13C,0.500000*%
%TD*%
%TA.AperFunction,ViaPad*%
%ADD14C,0.600000*%
%TD*%
%TA.AperFunction,Conductor*%
%ADD15C,0.300000*%
%TD*%
G04 APERTURE END LIST*
D10*
%TO.P,U2,1,SLEEVE_1*%
%TO.N,unconnected-(U2-SLEEVE-Pad1)*%
X45060000Y-45187500D03*
%TO.P,U2,2,TIP_2*%
%TO.N,Ground*%
X40460000Y-44087500D03*
%TO.P,U2,3,RING1_3*%
%TO.N,Power*%
X40460000Y-40087500D03*
%TO.P,U2,4,RING2_4*%
%TO.N,TRRS Data*%
X40460000Y-37087500D03*
%TD*%
D11*
%TO.P,U1,1,TX0/PD3_1*%
%TO.N,unconnected-(U1-TX0{slash}PD3-Pad1)*%
X63220000Y-35920000D03*
D12*
%TO.P,U1,2,RX1/PD2_2*%
%TO.N,unconnected-(U1-RX1{slash}PD2-Pad2)*%
X63220000Y-38460000D03*
%TO.P,U1,3,GND_3*%
%TO.N,unconnected-(U1-GND-Pad3)*%
X63220000Y-41000000D03*
%TO.P,U1,4,GND_4*%
%TO.N,Ground*%
X63220000Y-43540000D03*
%TO.P,U1,5,2/PD1_5*%
%TO.N,unconnected-(U1-2{slash}PD1-Pad5)*%
X63220000Y-46080000D03*
%TO.P,U1,6,3/PD0_6*%
%TO.N,unconnected-(U1-3{slash}PD0-Pad6)*%
X63220000Y-48620000D03*
%TO.P,U1,7,4/PD4_7*%
%TO.N,Row 1*%
X63220000Y-51160000D03*
%TO.P,U1,8,5/PC6_8*%
%TO.N,Row 2*%
X63220000Y-53700000D03*
%TO.P,U1,9,6/PD7_9*%
%TO.N,Row 3*%
X63220000Y-56240000D03*
%TO.P,U1,10,7/PE6_10*%
%TO.N,Row 4*%
X63220000Y-58780000D03*
%TO.P,U1,11,8/PB4_11*%
%TO.N,TRRS Data*%
X63220000Y-61320000D03*
%TO.P,U1,12,9/PB5_12*%
%TO.N,unconnected-(U1-9{slash}PB5-Pad12)*%
X63220000Y-63860000D03*
%TO.P,U1,13,10/PB6_13*%
%TO.N,unconnected-(U1-10{slash}PB6-Pad13)*%
X47980000Y-63860000D03*
%TO.P,U1,14,16/PB2_14*%
%TO.N,unconnected-(U1-16{slash}PB2-Pad14)*%
X47980000Y-61320000D03*
%TO.P,U1,15,14/PB3_15*%
%TO.N,Column 1*%
X47980000Y-58780000D03*
%TO.P,U1,16,15/PB1_16*%
%TO.N,Column 2*%
X47980000Y-56240000D03*
%TO.P,U1,17,A0/PF7_17*%
%TO.N,Column 3*%
X47980000Y-53700000D03*
%TO.P,U1,18,A1/PF6_18*%
%TO.N,Column 4*%
X47980000Y-51160000D03*
%TO.P,U1,19,A2/PF5_19*%
%TO.N,Column 5*%
X47980000Y-48620000D03*
%TO.P,U1,20,A3/PF4_20*%
%TO.N,Column 6*%
X47980000Y-46080000D03*
%TO.P,U1,21,VCC_21*%
%TO.N,Power*%
X47980000Y-43540000D03*
%TO.P,U1,22,RST_22*%
%TO.N,unconnected-(U1-RST-Pad22)*%
X47980000Y-41000000D03*
%TO.P,U1,23,GND_23*%
%TO.N,unconnected-(U1-GND-Pad23)*%
X47980000Y-38460000D03*
%TO.P,U1,24,RAW_24*%
%TO.N,unconnected-(U1-RAW-Pad24)*%
X47980000Y-35920000D03*
%TD*%
D13*
%TO.N,Column 3*%
X133900000Y-48300000D03*
X133900000Y-52300000D03*
X67900000Y-62400000D03*
X61500000Y-65200000D03*
X135300000Y-37800000D03*
X137900000Y-66400000D03*
%TO.N,Net-(D9-A)*%
X129400000Y-54400000D03*
X145900000Y-54500000D03*
%TO.N,Column 4*%
X49500000Y-43500000D03*
X114800000Y-44600000D03*
X114800000Y-63700000D03*
X107300000Y-55700000D03*
X114800000Y-42500000D03*
X49500000Y-45700000D03*
X115800000Y-31300000D03*
X112000000Y-80600000D03*
%TO.N,Net-(D16-A)*%
X126800000Y-65900000D03*
X110700000Y-73800000D03*
%TO.N,Column 5*%
X49700000Y-42500000D03*
X95800000Y-49400000D03*
D14*
X65200000Y-33400000D03*
D13*
X95800000Y-41700000D03*
X95800000Y-68400000D03*
D14*
X65850000Y-36100000D03*
D13*
X89400000Y-81400000D03*
%TO.N,Net-(D20-A)*%
X89800000Y-101300000D03*
X107800000Y-94500000D03*
%TO.N,Net-(D5-A)*%
X91900000Y-40600000D03*
X107800000Y-32600000D03*
%TO.N,Column 1*%
X137900000Y-68600000D03*
X172000000Y-52400000D03*
X62300000Y-66000000D03*
X172000000Y-65400000D03*
X169500000Y-82000000D03*
X70900000Y-65400000D03*
X139000000Y-67500000D03*
%TO.N,Net-(D7-A)*%
X166700000Y-70700000D03*
X184000000Y-67600000D03*
%TO.N,Column 2*%
X137200000Y-83400000D03*
X154700000Y-55400000D03*
X152900000Y-60700000D03*
X45800000Y-56200000D03*
X136100000Y-84500000D03*
X151300000Y-70700000D03*
X151300000Y-73400000D03*
%TO.N,Net-(D2-A)*%
X147400000Y-46500000D03*
X165000000Y-44100000D03*
%TO.N,Net-(D1-A)*%
X184000000Y-48600000D03*
X166100000Y-50600000D03*
%TO.N,Column 6*%
X64400000Y-37300000D03*
X73800000Y-61600000D03*
X76700000Y-54200000D03*
%TO.N,Net-(D12-A)*%
X71500000Y-60100000D03*
X88700000Y-56400000D03*
%TO.N,Net-(D15-A)*%
X128800000Y-77100000D03*
X145900000Y-73500000D03*
%TO.N,Net-(D10-A)*%
X108900000Y-55800000D03*
X126800000Y-46800000D03*
%TO.N,Net-(D14-A)*%
X164900000Y-81900000D03*
X148900000Y-89800000D03*
%TO.N,Net-(D19-A)*%
X126800000Y-94500000D03*
X108800000Y-101400000D03*
%TO.N,Net-(D21-A)*%
X70700000Y-101400000D03*
X88700000Y-94500000D03*
%TO.N,Net-(D4-A)*%
X126800000Y-27800000D03*
X110700000Y-35700000D03*
%TO.N,Net-(D13-A)*%
X166700000Y-90500000D03*
X184000000Y-86700000D03*
%TO.N,Net-(D18-A)*%
X88700000Y-75400000D03*
X71400000Y-79200000D03*
%TO.N,Net-(D3-A)*%
X128800000Y-39000000D03*
X145900000Y-35400000D03*
%TO.N,Net-(D6-A)*%
X71700000Y-46500000D03*
X88700000Y-37300000D03*
%TO.N,Net-(D17-A)*%
X92200000Y-78200000D03*
X107800000Y-70600000D03*
%TO.N,Net-(D11-A)*%
X89500000Y-58200000D03*
X107800000Y-51600000D03*
%TO.N,Row 1*%
X108800000Y-40400000D03*
X73700000Y-47800000D03*
X145200000Y-50200000D03*
X70700000Y-52900000D03*
X89800000Y-46500000D03*
X164300000Y-54000000D03*
X127800000Y-43300000D03*
%TO.N,Row 3*%
X70700000Y-83200000D03*
X72300000Y-83200000D03*
X88300000Y-83600000D03*
X106500000Y-78500000D03*
X127000000Y-81400000D03*
X166000000Y-94500000D03*
X147100000Y-94400000D03*
%TO.N,Row 2*%
X128000000Y-57600000D03*
X164400000Y-73100000D03*
X108500000Y-59200000D03*
X70700000Y-64200000D03*
X89500000Y-62600000D03*
X69600000Y-61600000D03*
%TO.N,TRRS Data*%
X59400000Y-65000000D03*
%TO.N,Row 4*%
X108800000Y-104700000D03*
X89800000Y-104700000D03*
X74000000Y-85000000D03*
X73800000Y-82800000D03*
X69900000Y-102400000D03*
%TD*%
%TO.N,Column 3*%
D15*
X101000000Y-56800000D02*
X100300000Y-57500000D01*
X81900000Y-61600000D02*
X81300000Y-62200000D01*
X133900000Y-48300000D02*
X133900000Y-39200000D01*
X133900000Y-52300000D02*
X132500000Y-53700000D01*
X81300000Y-62200000D02*
X81000000Y-62200000D01*
X129600000Y-53700000D02*
X129500000Y-53600000D01*
X105500000Y-56600000D02*
X105300000Y-56800000D01*
X100300000Y-57500000D02*
X99900000Y-57500000D01*
X105300000Y-56800000D02*
X101000000Y-56800000D01*
X109200000Y-56600000D02*
X105500000Y-56600000D01*
X133900000Y-39200000D02*
X135300000Y-37800000D01*
X109900000Y-56400000D02*
X109400000Y-56400000D01*
X80800000Y-62400000D02*
X67900000Y-62400000D01*
X129500000Y-53600000D02*
X112700000Y-53600000D01*
X112700000Y-53600000D02*
X109900000Y-56400000D01*
X129100000Y-53600000D02*
X128600000Y-54100000D01*
X61500000Y-65200000D02*
X50000000Y-53700000D01*
X99800000Y-57600000D02*
X91200000Y-57600000D01*
X81000000Y-62200000D02*
X80800000Y-62400000D01*
X91200000Y-57600000D02*
X89800000Y-59000000D01*
X88900000Y-59000000D02*
X86300000Y-61600000D01*
X109400000Y-56400000D02*
X109200000Y-56600000D01*
X128600000Y-54100000D02*
X128600000Y-57100000D01*
X99900000Y-57500000D02*
X99800000Y-57600000D01*
X128600000Y-57100000D02*
X137900000Y-66400000D01*
X50000000Y-53700000D02*
X48000000Y-53700000D01*
X132500000Y-53700000D02*
X129600000Y-53700000D01*
X89800000Y-59000000D02*
X88900000Y-59000000D01*
X86300000Y-61600000D02*
X81900000Y-61600000D01*
%TO.N,Net-(D9-A)*%
X139600000Y-52500000D02*
X139400000Y-52700000D01*
X145800000Y-54400000D02*
X145100000Y-54400000D01*
X143000000Y-52600000D02*
X142900000Y-52500000D01*
X138200000Y-54400000D02*
X129400000Y-54400000D01*
X143300000Y-52600000D02*
X143000000Y-52600000D01*
X142900000Y-52500000D02*
X139600000Y-52500000D01*
X139200000Y-53200000D02*
X139200000Y-53400000D01*
X139400000Y-53000000D02*
X139200000Y-53200000D01*
X145900000Y-54500000D02*
X145800000Y-54400000D01*
X139200000Y-53400000D02*
X138200000Y-54400000D01*
X145100000Y-54400000D02*
X143300000Y-52600000D01*
X139400000Y-52700000D02*
X139400000Y-53000000D01*
%TO.N,Column 4*%
X49500000Y-45700000D02*
X49300000Y-45900000D01*
X99900000Y-51400000D02*
X99800000Y-51500000D01*
X101500000Y-49600000D02*
X101300000Y-49800000D01*
X65200000Y-34700000D02*
X64400000Y-33900000D01*
X49300000Y-45900000D02*
X49400000Y-46000000D01*
X104800000Y-49600000D02*
X101500000Y-49600000D01*
X108100000Y-50800000D02*
X106300000Y-50800000D01*
X101300000Y-50100000D02*
X101100000Y-50300000D01*
X65200000Y-41900000D02*
X65200000Y-34700000D01*
X108300000Y-51000000D02*
X108100000Y-50800000D01*
X49400000Y-49800000D02*
X48000000Y-51200000D01*
X49800000Y-43500000D02*
X49500000Y-43500000D01*
X111400000Y-69100000D02*
X111400000Y-72000000D01*
X111400000Y-72000000D02*
X109900000Y-73500000D01*
X114800000Y-63700000D02*
X114800000Y-65700000D01*
X74800000Y-51500000D02*
X65200000Y-41900000D01*
X59400000Y-33900000D02*
X49800000Y-43500000D01*
X105200000Y-49700000D02*
X104900000Y-49700000D01*
X109900000Y-80400000D02*
X110100000Y-80600000D01*
X110100000Y-80600000D02*
X112000000Y-80600000D01*
X101100000Y-50500000D02*
X100200000Y-51400000D01*
X101300000Y-49800000D02*
X101300000Y-50100000D01*
X110200000Y-52800000D02*
X107300000Y-55700000D01*
X99800000Y-51500000D02*
X74800000Y-51500000D01*
X100200000Y-51400000D02*
X99900000Y-51400000D01*
X49400000Y-46000000D02*
X49400000Y-49800000D01*
X114800000Y-44600000D02*
X108400000Y-51000000D01*
X101100000Y-50300000D02*
X101100000Y-50500000D01*
X114800000Y-42500000D02*
X114800000Y-32299999D01*
X114800000Y-32299999D02*
X115800000Y-31300000D01*
X108400000Y-51000000D02*
X110200000Y-52800000D01*
X109900000Y-73500000D02*
X109900000Y-80400000D01*
X114800000Y-65700000D02*
X111400000Y-69100000D01*
X108400000Y-51000000D02*
X108300000Y-51000000D01*
X64400000Y-33900000D02*
X59400000Y-33900000D01*
X106300000Y-50800000D02*
X105200000Y-49700000D01*
X104900000Y-49700000D02*
X104800000Y-49600000D01*
%TO.N,Net-(D16-A)*%
X120000000Y-68200000D02*
X119400000Y-67600000D01*
X119000000Y-67600000D02*
X118900000Y-67500000D01*
X124000000Y-68200000D02*
X120000000Y-68200000D01*
X118900000Y-67500000D02*
X116500000Y-67500000D01*
X114300000Y-70100000D02*
X114100000Y-70300000D01*
X116500000Y-67500000D02*
X114300000Y-69700000D01*
X124400000Y-68300000D02*
X124100000Y-68300000D01*
X114100000Y-70400000D02*
X110700000Y-73800000D01*
X126800000Y-65900000D02*
X124400000Y-68300000D01*
X124100000Y-68300000D02*
X124000000Y-68200000D01*
X114300000Y-69700000D02*
X114300000Y-70100000D01*
X114100000Y-70300000D02*
X114100000Y-70400000D01*
X119400000Y-67600000D02*
X119000000Y-67600000D01*
%TO.N,Column 5*%
X65800000Y-41700000D02*
X65800000Y-36150000D01*
X95000000Y-48600000D02*
X95800000Y-47800000D01*
X95000000Y-48600000D02*
X72700000Y-48600000D01*
X50000000Y-42500000D02*
X59200000Y-33299999D01*
X59200000Y-33299999D02*
X65099999Y-33299999D01*
X49700000Y-42500000D02*
X50000000Y-42500000D01*
X91400000Y-79400000D02*
X89400000Y-81400000D01*
X65800000Y-36150000D02*
X65850000Y-36100000D01*
X95800000Y-49400000D02*
X95000000Y-48600000D01*
X92300000Y-77000000D02*
X91400000Y-77900000D01*
X72700000Y-48600000D02*
X65800000Y-41700000D01*
X91400000Y-77900000D02*
X91400000Y-79400000D01*
X65099999Y-33299999D02*
X65200000Y-33400000D01*
X92400000Y-74100000D02*
X92300000Y-74200000D01*
X92300000Y-74200000D02*
X92300000Y-77000000D01*
X95800000Y-70400000D02*
X92400000Y-73800000D01*
X95800000Y-47800000D02*
X95800000Y-41700000D01*
X92400000Y-73800000D02*
X92400000Y-74100000D01*
X95800000Y-68400000D02*
X95800000Y-70400000D01*
%TO.N,Net-(D20-A)*%
X105100000Y-96900000D02*
X105000000Y-96800000D01*
X105400000Y-96900000D02*
X105100000Y-96900000D01*
X105000000Y-96800000D02*
X100900000Y-96800000D01*
X100900000Y-96800000D02*
X100300000Y-96200000D01*
X93000000Y-97000000D02*
X89800000Y-100200000D01*
X99900000Y-96100000D02*
X99600000Y-96100000D01*
X100300000Y-96200000D02*
X100000000Y-96200000D01*
X89800000Y-100200000D02*
X89800000Y-101300000D01*
X100000000Y-96200000D02*
X99900000Y-96100000D01*
X95200000Y-96000000D02*
X94400000Y-96800000D01*
X107800000Y-94500000D02*
X105400000Y-96900000D01*
X99600000Y-96100000D02*
X99500000Y-96000000D01*
X94400000Y-96800000D02*
X93300000Y-96800000D01*
X93100000Y-97000000D02*
X93000000Y-97000000D01*
X93300000Y-96800000D02*
X93100000Y-97000000D01*
X99500000Y-96000000D02*
X95200000Y-96000000D01*
%TO.N,Net-(D5-A)*%
X107800000Y-32600000D02*
X105400000Y-35000000D01*
X105100000Y-34900000D02*
X101000000Y-34900000D01*
X99600000Y-34100000D02*
X98700000Y-34100000D01*
X98300000Y-34300000D02*
X98100000Y-34500000D01*
X98500000Y-34300000D02*
X98300000Y-34300000D01*
X100100000Y-34300000D02*
X100000000Y-34200000D01*
X98100000Y-34500000D02*
X98000000Y-34500000D01*
X105400000Y-35000000D02*
X105200000Y-35000000D01*
X100000000Y-34200000D02*
X99700000Y-34200000D01*
X101000000Y-34900000D02*
X100400000Y-34300000D01*
X98700000Y-34100000D02*
X98500000Y-34300000D01*
X100400000Y-34300000D02*
X100100000Y-34300000D01*
X105200000Y-35000000D02*
X105100000Y-34900000D01*
X99700000Y-34200000D02*
X99600000Y-34100000D01*
X98000000Y-34500000D02*
X91900000Y-40600000D01*
%TO.N,Column 1*%
X137900000Y-68600000D02*
X127500000Y-58200000D01*
X119200000Y-58200000D02*
X114000000Y-63400000D01*
X165900000Y-70400000D02*
X165900000Y-78400000D01*
X61200000Y-66000000D02*
X60700000Y-65500000D01*
X127500000Y-58200000D02*
X119200000Y-58200000D01*
X114000000Y-65000000D02*
X113600000Y-65400000D01*
X60700000Y-65200000D02*
X54300000Y-58800000D01*
X172000000Y-65400000D02*
X168800000Y-68600000D01*
X54300000Y-58800000D02*
X48000000Y-58800000D01*
X172000000Y-65400000D02*
X172000000Y-52400000D01*
X60700000Y-65500000D02*
X60700000Y-65200000D01*
X165900000Y-78400000D02*
X169500000Y-82000000D01*
X168800000Y-68600000D02*
X167700000Y-68600000D01*
X62300000Y-66000000D02*
X61200000Y-66000000D01*
X113600000Y-65400000D02*
X70900000Y-65400000D01*
X114000000Y-63400000D02*
X114000000Y-65000000D01*
X167700000Y-68600000D02*
X165900000Y-70400000D01*
X151900000Y-54600000D02*
X139000000Y-67500000D01*
X163800000Y-54600000D02*
X151900000Y-54600000D01*
X172000000Y-62800000D02*
X163800000Y-54600000D01*
%TO.N,Net-(D7-A)*%
X177200000Y-70000000D02*
X176600000Y-69400000D01*
X175900000Y-69300000D02*
X175800000Y-69200000D01*
X181500000Y-70100000D02*
X181400000Y-70100000D01*
X184000000Y-67600000D02*
X181500000Y-70100000D01*
X176200000Y-69300000D02*
X175900000Y-69300000D01*
X181300000Y-70000000D02*
X177200000Y-70000000D01*
X181400000Y-70100000D02*
X181300000Y-70000000D01*
X175800000Y-69200000D02*
X168200000Y-69200000D01*
X176300000Y-69400000D02*
X176200000Y-69300000D01*
X168200000Y-69200000D02*
X166700000Y-70700000D01*
X176600000Y-69400000D02*
X176300000Y-69400000D01*
%TO.N,Column 2*%
X87800000Y-84200000D02*
X72500000Y-84200000D01*
X142000000Y-78600000D02*
X137200000Y-83400000D01*
X152900000Y-60700000D02*
X153000000Y-60600000D01*
X48400001Y-67000000D02*
X46000000Y-64599999D01*
X72500000Y-84200000D02*
X72300000Y-84000000D01*
X136000000Y-84400000D02*
X88000000Y-84400000D01*
X57000000Y-67000000D02*
X48400001Y-67000000D01*
X62000000Y-76000000D02*
X62000000Y-72000000D01*
X152900000Y-60700000D02*
X152900000Y-69100000D01*
X136100000Y-84500000D02*
X136000000Y-84400000D01*
X88000000Y-84400000D02*
X87800000Y-84200000D01*
X143500000Y-78600000D02*
X143300000Y-78800000D01*
X148800000Y-73400000D02*
X143600000Y-78600000D01*
X151300000Y-73400000D02*
X148800000Y-73400000D01*
X142400000Y-78800000D02*
X142200000Y-78600000D01*
X62000000Y-72000000D02*
X57000000Y-67000000D01*
X46000000Y-56400000D02*
X45800000Y-56200000D01*
X142200000Y-78600000D02*
X142000000Y-78600000D01*
X143600000Y-78600000D02*
X143500000Y-78600000D01*
X70000000Y-84000000D02*
X62000000Y-76000000D01*
X153000000Y-57100000D02*
X154700000Y-55400000D01*
X152900000Y-69100000D02*
X151300000Y-70700000D01*
X72300000Y-84000000D02*
X70000000Y-84000000D01*
X153000000Y-60600000D02*
X153000000Y-57100000D01*
X46000000Y-64599999D02*
X46000000Y-56400000D01*
X143300000Y-78800000D02*
X142400000Y-78800000D01*
%TO.N,Net-(D2-A)*%
X157300000Y-45800000D02*
X157200000Y-45700000D01*
X156900000Y-45700000D02*
X156800000Y-45600000D01*
X156800000Y-45600000D02*
X148300000Y-45600000D01*
X157600000Y-45800000D02*
X157300000Y-45800000D01*
X158200000Y-46400000D02*
X157600000Y-45800000D01*
X162300000Y-46400000D02*
X158200000Y-46400000D01*
X148300000Y-45600000D02*
X147400000Y-46500000D01*
X157200000Y-45700000D02*
X156900000Y-45700000D01*
X162400000Y-46500000D02*
X162300000Y-46400000D01*
X165000000Y-44100000D02*
X162600000Y-46500000D01*
X162600000Y-46500000D02*
X162400000Y-46500000D01*
%TO.N,Net-(D1-A)*%
X181900000Y-50700000D02*
X176900000Y-50700000D01*
X176900000Y-50700000D02*
X176500000Y-50300000D01*
X184000000Y-48600000D02*
X181900000Y-50700000D01*
X176500000Y-50300000D02*
X176100000Y-50300000D01*
X166500000Y-50200000D02*
X166100000Y-50600000D01*
X176100000Y-50300000D02*
X176000000Y-50200000D01*
X176000000Y-50200000D02*
X166500000Y-50200000D01*
%TO.N,Column 6*%
X76700000Y-54200000D02*
X64599999Y-42100000D01*
X76700000Y-54200000D02*
X76500000Y-54000000D01*
X70700000Y-59800000D02*
X70700000Y-61400000D01*
X64599999Y-34900000D02*
X64200000Y-34500000D01*
X59600000Y-34500000D02*
X48000000Y-46100000D01*
X70700000Y-61400000D02*
X70900000Y-61600000D01*
X64200000Y-34500000D02*
X59600000Y-34500000D01*
X76500000Y-54000000D02*
X70700000Y-59800000D01*
X70900000Y-61600000D02*
X73800000Y-61600000D01*
X64599999Y-37300000D02*
X64400000Y-37300000D01*
X64599999Y-42100000D02*
X64599999Y-34900000D01*
%TO.N,Net-(D12-A)*%
X88700000Y-56400000D02*
X86300000Y-58800000D01*
X86100000Y-58800000D02*
X86000000Y-58700000D01*
X80500000Y-58000000D02*
X80400000Y-57900000D01*
X81300000Y-58100000D02*
X81000000Y-58100000D01*
X86000000Y-58700000D02*
X81900000Y-58700000D01*
X80400000Y-57900000D02*
X73700000Y-57900000D01*
X80900000Y-58000000D02*
X80500000Y-58000000D01*
X86300000Y-58800000D02*
X86100000Y-58800000D01*
X81900000Y-58700000D02*
X81300000Y-58100000D01*
X73700000Y-57900000D02*
X71500000Y-60100000D01*
X81000000Y-58100000D02*
X80900000Y-58000000D01*
%TO.N,Net-(D15-A)*%
X143200000Y-75900000D02*
X139100000Y-75900000D01*
X143400000Y-76000000D02*
X143300000Y-76000000D01*
X145900000Y-73500000D02*
X143400000Y-76000000D01*
X139100000Y-75900000D02*
X138500000Y-75300000D01*
X137800000Y-75200000D02*
X137700000Y-75100000D01*
X143300000Y-76000000D02*
X143200000Y-75900000D01*
X138500000Y-75300000D02*
X138200000Y-75300000D01*
X130800000Y-75100000D02*
X128800000Y-77100000D01*
X138200000Y-75300000D02*
X138100000Y-75200000D01*
X137700000Y-75100000D02*
X130800000Y-75100000D01*
X138100000Y-75200000D02*
X137800000Y-75200000D01*
%TO.N,Net-(D10-A)*%
X114300000Y-50000000D02*
X114300000Y-51100000D01*
X118900000Y-48400000D02*
X115900000Y-48400000D01*
X114000000Y-51500000D02*
X109700000Y-55800000D01*
X109700000Y-55800000D02*
X108900000Y-55800000D01*
X126800000Y-46800000D02*
X124300000Y-49300000D01*
X124200000Y-49200000D02*
X120000000Y-49200000D01*
X119100000Y-48600000D02*
X118900000Y-48400000D01*
X124300000Y-49300000D02*
X124200000Y-49200000D01*
X120000000Y-49200000D02*
X119400000Y-48600000D01*
X114000000Y-51400000D02*
X114000000Y-51500000D01*
X115900000Y-48400000D02*
X114300000Y-50000000D01*
X119400000Y-48600000D02*
X119100000Y-48600000D01*
X114300000Y-51100000D02*
X114000000Y-51400000D01*
%TO.N,Net-(D14-A)*%
X162400000Y-84400000D02*
X162300000Y-84300000D01*
X164900000Y-81900000D02*
X162400000Y-84400000D01*
X152300000Y-86300000D02*
X152100000Y-86500000D01*
X162300000Y-84300000D02*
X158100000Y-84300000D01*
X154800000Y-83500000D02*
X152300000Y-86000000D01*
X158100000Y-84300000D02*
X157400000Y-83600000D01*
X152100000Y-86600000D02*
X148900000Y-89800000D01*
X152100000Y-86500000D02*
X152100000Y-86600000D01*
X152300000Y-86000000D02*
X152300000Y-86300000D01*
X157400000Y-83600000D02*
X156900000Y-83600000D01*
X156800000Y-83500000D02*
X154800000Y-83500000D01*
X156900000Y-83600000D02*
X156800000Y-83500000D01*
%TO.N,Net-(D19-A)*%
X112400000Y-96800000D02*
X112200000Y-97000000D01*
X126800000Y-94500000D02*
X124400000Y-96900000D01*
X119000000Y-96100000D02*
X118600000Y-96100000D01*
X114200000Y-96000000D02*
X113400000Y-96800000D01*
X118600000Y-96100000D02*
X118500000Y-96000000D01*
X113400000Y-96800000D02*
X112400000Y-96800000D01*
X112100000Y-97000000D02*
X108800000Y-100300000D01*
X119400000Y-96200000D02*
X119100000Y-96200000D01*
X124100000Y-96800000D02*
X120000000Y-96800000D01*
X108800000Y-100300000D02*
X108800000Y-101400000D01*
X119100000Y-96200000D02*
X119000000Y-96100000D01*
X118500000Y-96000000D02*
X114200000Y-96000000D01*
X112200000Y-97000000D02*
X112100000Y-97000000D01*
X124200000Y-96900000D02*
X124100000Y-96800000D01*
X120000000Y-96800000D02*
X119400000Y-96200000D01*
X124400000Y-96900000D02*
X124200000Y-96900000D01*
%TO.N,Net-(D21-A)*%
X74300000Y-96800000D02*
X74100000Y-97000000D01*
X81900000Y-96800000D02*
X81300000Y-96200000D01*
X80400000Y-96000000D02*
X76100000Y-96000000D01*
X75300000Y-96800000D02*
X74300000Y-96800000D01*
X76100000Y-96000000D02*
X75300000Y-96800000D01*
X86300000Y-96900000D02*
X86100000Y-96900000D01*
X80900000Y-96100000D02*
X80500000Y-96100000D01*
X81300000Y-96200000D02*
X81000000Y-96200000D01*
X70700000Y-100300000D02*
X70700000Y-101400000D01*
X81000000Y-96200000D02*
X80900000Y-96100000D01*
X86100000Y-96900000D02*
X86000000Y-96800000D01*
X74100000Y-97000000D02*
X74000000Y-97000000D01*
X86000000Y-96800000D02*
X81900000Y-96800000D01*
X88700000Y-94500000D02*
X86300000Y-96900000D01*
X80500000Y-96100000D02*
X80400000Y-96000000D01*
X74000000Y-97000000D02*
X70700000Y-100300000D01*
%TO.N,Net-(D4-A)*%
X119000000Y-29500000D02*
X118900000Y-29400000D01*
X114300000Y-31600000D02*
X114300000Y-32000000D01*
X114100000Y-32200000D02*
X114100000Y-32299999D01*
X114300000Y-32000000D02*
X114100000Y-32200000D01*
X119400000Y-29500000D02*
X119000000Y-29500000D01*
X118900000Y-29400000D02*
X116500000Y-29400000D01*
X124100000Y-30200000D02*
X124000000Y-30100000D01*
X120000000Y-30100000D02*
X119400000Y-29500000D01*
X116500000Y-29400000D02*
X114300000Y-31600000D01*
X126800000Y-27800000D02*
X124400000Y-30200000D01*
X114100000Y-32299999D02*
X110700000Y-35700000D01*
X124400000Y-30200000D02*
X124100000Y-30200000D01*
X124000000Y-30100000D02*
X120000000Y-30100000D01*
%TO.N,Net-(D13-A)*%
X176100000Y-88400000D02*
X176000000Y-88300000D01*
X181100000Y-89000000D02*
X177100000Y-89000000D01*
X176000000Y-88300000D02*
X168900000Y-88300000D01*
X168900000Y-88300000D02*
X166700000Y-90500000D01*
X181200000Y-89100000D02*
X181100000Y-89000000D01*
X177100000Y-89000000D02*
X176500000Y-88400000D01*
X181600000Y-89100000D02*
X181200000Y-89100000D01*
X184000000Y-86700000D02*
X181600000Y-89100000D01*
X176500000Y-88400000D02*
X176100000Y-88400000D01*
%TO.N,Net-(D18-A)*%
X80700000Y-77000000D02*
X73600000Y-77000000D01*
X81900000Y-77800000D02*
X81200000Y-77100000D01*
X86300000Y-77800000D02*
X81900000Y-77800000D01*
X80800000Y-77100000D02*
X80700000Y-77000000D01*
X73600000Y-77000000D02*
X71400000Y-79200000D01*
X81200000Y-77100000D02*
X80800000Y-77100000D01*
X88700000Y-75400000D02*
X86300000Y-77800000D01*
%TO.N,Net-(D3-A)*%
X138200000Y-37200000D02*
X138100000Y-37100000D01*
X143300000Y-37900000D02*
X143200000Y-37800000D01*
X145900000Y-35400000D02*
X143400000Y-37900000D01*
X143200000Y-37800000D02*
X139100000Y-37800000D01*
X143400000Y-37900000D02*
X143300000Y-37900000D01*
X139100000Y-37800000D02*
X138500000Y-37200000D01*
X138500000Y-37200000D02*
X138200000Y-37200000D01*
X137700000Y-37000000D02*
X130800000Y-37000000D01*
X130800000Y-37000000D02*
X128800000Y-39000000D01*
X137800000Y-37100000D02*
X137700000Y-37000000D01*
X138100000Y-37100000D02*
X137800000Y-37100000D01*
%TO.N,Net-(D6-A)*%
X78900000Y-39300000D02*
X71700000Y-46500000D01*
X79600000Y-38900000D02*
X79400000Y-39100000D01*
X81100000Y-38900000D02*
X79600000Y-38900000D01*
X79200000Y-39100000D02*
X79000000Y-39300000D01*
X81900000Y-39700000D02*
X81100000Y-38900000D01*
X79000000Y-39300000D02*
X78900000Y-39300000D01*
X86300000Y-39700000D02*
X81900000Y-39700000D01*
X79400000Y-39100000D02*
X79200000Y-39100000D01*
X88700000Y-37300000D02*
X86300000Y-39700000D01*
%TO.N,Net-(D17-A)*%
X99600000Y-72200000D02*
X98200000Y-72200000D01*
X105300000Y-73100000D02*
X105200000Y-73100000D01*
X100000000Y-72300000D02*
X99700000Y-72300000D01*
X105100000Y-73000000D02*
X101000000Y-73000000D01*
X100400000Y-72400000D02*
X100100000Y-72400000D01*
X99700000Y-72300000D02*
X99600000Y-72200000D01*
X107800000Y-70600000D02*
X105300000Y-73100000D01*
X98200000Y-72200000D02*
X92200000Y-78200000D01*
X105200000Y-73100000D02*
X105100000Y-73000000D01*
X100100000Y-72400000D02*
X100000000Y-72300000D01*
X101000000Y-73000000D02*
X100400000Y-72400000D01*
%TO.N,Net-(D11-A)*%
X105200000Y-54000000D02*
X101000000Y-54000000D01*
X94900000Y-54000000D02*
X93200000Y-54000000D01*
X92900000Y-54300000D02*
X92800000Y-54300000D01*
X105300000Y-54100000D02*
X105200000Y-54000000D01*
X89500000Y-57600000D02*
X89500000Y-58200000D01*
X95700000Y-53200000D02*
X94900000Y-54000000D01*
X99800000Y-53200000D02*
X95700000Y-53200000D01*
X100300000Y-53300000D02*
X99900000Y-53300000D01*
X93200000Y-54000000D02*
X92900000Y-54300000D01*
X101000000Y-54000000D02*
X100300000Y-53300000D01*
X92800000Y-54300000D02*
X89500000Y-57600000D01*
X99900000Y-53300000D02*
X99800000Y-53200000D01*
X107800000Y-51600000D02*
X105300000Y-54100000D01*
%TO.N,Row 1*%
X127800000Y-43300000D02*
X127200000Y-42700000D01*
X95900000Y-40400000D02*
X89800000Y-46500000D01*
X70700000Y-52900000D02*
X69000000Y-51200000D01*
X108800000Y-40400000D02*
X95900000Y-40400000D01*
X117300000Y-42900000D02*
X116900000Y-43300000D01*
X117800000Y-42700000D02*
X117600000Y-42900000D01*
X145200000Y-50200000D02*
X149000000Y-54000000D01*
X134700000Y-50200000D02*
X145200000Y-50200000D01*
X73900000Y-48000000D02*
X73700000Y-47800000D01*
X127800000Y-43300000D02*
X134700000Y-50200000D01*
X116900000Y-43300000D02*
X111700000Y-43300000D01*
X89800000Y-46500000D02*
X88300000Y-48000000D01*
X127200000Y-42700000D02*
X117800000Y-42700000D01*
X117600000Y-42900000D02*
X117300000Y-42900000D01*
X69000000Y-51200000D02*
X63200000Y-51200000D01*
X149000000Y-54000000D02*
X164300000Y-54000000D01*
X88300000Y-48000000D02*
X73900000Y-48000000D01*
X111700000Y-43300000D02*
X108800000Y-40400000D01*
%TO.N,Row 3*%
X72300000Y-83200000D02*
X72700000Y-83600000D01*
X63200000Y-65800000D02*
X61900000Y-64500000D01*
X61900000Y-64000000D02*
X61800000Y-63900000D01*
X106500000Y-78500000D02*
X109400000Y-81400000D01*
X88300000Y-83600000D02*
X93400000Y-78500000D01*
X93400000Y-78500000D02*
X106500000Y-78500000D01*
X147100000Y-94400000D02*
X165900000Y-94400000D01*
X63200000Y-75700000D02*
X63200000Y-65800000D01*
X61800000Y-57600000D02*
X63200000Y-56200000D01*
X61900000Y-64500000D02*
X61900000Y-64000000D01*
X61800000Y-63900000D02*
X61800000Y-57600000D01*
X72700000Y-83600000D02*
X88300000Y-83600000D01*
X109400000Y-81400000D02*
X127000000Y-81400000D01*
X70700000Y-83200000D02*
X63200000Y-75700000D01*
X134100000Y-81400000D02*
X147100000Y-94400000D01*
X127000000Y-81400000D02*
X134100000Y-81400000D01*
X165900000Y-94400000D02*
X166000000Y-94500000D01*
%TO.N,Row 2*%
X108500000Y-59200000D02*
X92900000Y-59200000D01*
X128000000Y-57600000D02*
X141900000Y-71500000D01*
X89500000Y-62600000D02*
X89100000Y-63000000D01*
X141900000Y-71500000D02*
X162800000Y-71500000D01*
X110100000Y-57600000D02*
X108500000Y-59200000D01*
X162800000Y-71500000D02*
X164400000Y-73100000D01*
X128000000Y-57600000D02*
X110100000Y-57600000D01*
X64599999Y-56600000D02*
X64599999Y-55100000D01*
X89100000Y-63000000D02*
X71900000Y-63000000D01*
X71900000Y-63000000D02*
X70700000Y-64200000D01*
X92900000Y-59200000D02*
X89500000Y-62600000D01*
X69600000Y-61600000D02*
X64599999Y-56600000D01*
X64599999Y-55100000D02*
X63200000Y-53700000D01*
%TO.N,Power*%
X42400000Y-41600000D02*
X46100000Y-41600000D01*
X46100000Y-41600000D02*
X48000000Y-43500000D01*
X40500000Y-40100000D02*
X42200000Y-41800000D01*
X42200000Y-41800000D02*
X42400000Y-41600000D01*
%TO.N,TRRS Data*%
X39200000Y-38700000D02*
X39200000Y-40800000D01*
X46600000Y-64400000D02*
X47400000Y-65200000D01*
X43800000Y-45400000D02*
X43800000Y-45900000D01*
X59200000Y-65200000D02*
X59400000Y-65000000D01*
X40500000Y-37400000D02*
X39200000Y-38700000D01*
X39200000Y-40800000D02*
X43800000Y-45400000D01*
X46600000Y-48700000D02*
X46600000Y-64400000D01*
X47400000Y-65200000D02*
X59200000Y-65200000D01*
X43800000Y-45900000D02*
X46600000Y-48700000D01*
%TO.N,Row 4*%
X70600000Y-79600000D02*
X73800000Y-82800000D01*
X70700000Y-66300000D02*
X70700000Y-79000000D01*
X70100000Y-100100000D02*
X70100000Y-100900000D01*
X74000000Y-85000000D02*
X70700000Y-88300000D01*
X69900000Y-101100000D02*
X69900000Y-102400000D01*
X89800000Y-104700000D02*
X108800000Y-104700000D01*
X69900000Y-102400000D02*
X70800000Y-102400000D01*
X70600000Y-79100000D02*
X70600000Y-79600000D01*
X70700000Y-79000000D02*
X70600000Y-79100000D01*
X63200000Y-58800000D02*
X70700000Y-66300000D01*
X71400000Y-101800000D02*
X86900000Y-101800000D01*
X70700000Y-99500000D02*
X70100000Y-100100000D01*
X70800000Y-102400000D02*
X71400000Y-101800000D01*
X70100000Y-100900000D02*
X69900000Y-101100000D01*
X70700000Y-88300000D02*
X70700000Y-99500000D01*
X86900000Y-101800000D02*
X89800000Y-104700000D01*
%TD*%
M02*
