%TF.GenerationSoftware,KiCad,Pcbnew,10.0.3*%
%TF.CreationDate,2026-07-04T20:48:35+05:45*%
%TF.ProjectId,pcb-2,7063622d-322e-46b6-9963-61645f706362,rev?*%
%TF.SameCoordinates,Original*%
%TF.FileFunction,Legend,Top*%
%TF.FilePolarity,Positive*%
%FSLAX46Y46*%
G04 Gerber Fmt 4.6, Leading zero omitted, Abs format (unit mm)*
G04 Created by KiCad (PCBNEW 10.0.3) date 2026-07-04 20:48:35*
%MOMM*%
%LPD*%
G01*
G04 APERTURE LIST*
%ADD10C,0.100000*%
%ADD11C,0.150000*%
%ADD12C,0.120000*%
%ADD13C,0.200000*%
%ADD14R,1.752600X1.752600*%
%ADD15C,1.752600*%
G04 APERTURE END LIST*
D10*
X66762475Y-45767544D02*
X66238665Y-45767544D01*
X66238665Y-45767544D02*
X66143427Y-45815163D01*
X66143427Y-45815163D02*
X66095808Y-45910401D01*
X66095808Y-45910401D02*
X66095808Y-46100877D01*
X66095808Y-46100877D02*
X66143427Y-46196115D01*
X66714856Y-45767544D02*
X66762475Y-45862782D01*
X66762475Y-45862782D02*
X66762475Y-46100877D01*
X66762475Y-46100877D02*
X66714856Y-46196115D01*
X66714856Y-46196115D02*
X66619617Y-46243734D01*
X66619617Y-46243734D02*
X66524379Y-46243734D01*
X66524379Y-46243734D02*
X66429141Y-46196115D01*
X66429141Y-46196115D02*
X66381522Y-46100877D01*
X66381522Y-46100877D02*
X66381522Y-45862782D01*
X66381522Y-45862782D02*
X66333903Y-45767544D01*
X66762475Y-45386591D02*
X66095808Y-44862782D01*
X66095808Y-45386591D02*
X66762475Y-44862782D01*
X66762475Y-44481829D02*
X66095808Y-44481829D01*
X65762475Y-44481829D02*
X65810094Y-44529448D01*
X65810094Y-44529448D02*
X65857713Y-44481829D01*
X65857713Y-44481829D02*
X65810094Y-44434210D01*
X65810094Y-44434210D02*
X65762475Y-44481829D01*
X65762475Y-44481829D02*
X65857713Y-44481829D01*
X66762475Y-44005639D02*
X66095808Y-44005639D01*
X66191046Y-44005639D02*
X66143427Y-43958020D01*
X66143427Y-43958020D02*
X66095808Y-43862782D01*
X66095808Y-43862782D02*
X66095808Y-43719925D01*
X66095808Y-43719925D02*
X66143427Y-43624687D01*
X66143427Y-43624687D02*
X66238665Y-43577068D01*
X66238665Y-43577068D02*
X66762475Y-43577068D01*
X66238665Y-43577068D02*
X66143427Y-43529449D01*
X66143427Y-43529449D02*
X66095808Y-43434211D01*
X66095808Y-43434211D02*
X66095808Y-43291354D01*
X66095808Y-43291354D02*
X66143427Y-43196115D01*
X66143427Y-43196115D02*
X66238665Y-43148496D01*
X66238665Y-43148496D02*
X66762475Y-43148496D01*
X66762475Y-42672306D02*
X66095808Y-42672306D01*
X65762475Y-42672306D02*
X65810094Y-42719925D01*
X65810094Y-42719925D02*
X65857713Y-42672306D01*
X65857713Y-42672306D02*
X65810094Y-42624687D01*
X65810094Y-42624687D02*
X65762475Y-42672306D01*
X65762475Y-42672306D02*
X65857713Y-42672306D01*
X66381522Y-42196116D02*
X66381522Y-41434212D01*
X65857713Y-41005640D02*
X65810094Y-40958021D01*
X65810094Y-40958021D02*
X65762475Y-40862783D01*
X65762475Y-40862783D02*
X65762475Y-40624688D01*
X65762475Y-40624688D02*
X65810094Y-40529450D01*
X65810094Y-40529450D02*
X65857713Y-40481831D01*
X65857713Y-40481831D02*
X65952951Y-40434212D01*
X65952951Y-40434212D02*
X66048189Y-40434212D01*
X66048189Y-40434212D02*
X66191046Y-40481831D01*
X66191046Y-40481831D02*
X66762475Y-41053259D01*
X66762475Y-41053259D02*
X66762475Y-40434212D01*
X66667236Y-40005640D02*
X66714856Y-39958021D01*
X66714856Y-39958021D02*
X66762475Y-40005640D01*
X66762475Y-40005640D02*
X66714856Y-40053259D01*
X66714856Y-40053259D02*
X66667236Y-40005640D01*
X66667236Y-40005640D02*
X66762475Y-40005640D01*
X66762475Y-39005641D02*
X66762475Y-39577069D01*
X66762475Y-39291355D02*
X65762475Y-39291355D01*
X65762475Y-39291355D02*
X65905332Y-39386593D01*
X65905332Y-39386593D02*
X66000570Y-39481831D01*
X66000570Y-39481831D02*
X66048189Y-39577069D01*
X68372419Y-46196115D02*
X67705752Y-46196115D01*
X67896228Y-46196115D02*
X67800990Y-46148496D01*
X67800990Y-46148496D02*
X67753371Y-46100877D01*
X67753371Y-46100877D02*
X67705752Y-46005639D01*
X67705752Y-46005639D02*
X67705752Y-45910401D01*
X68372419Y-45577067D02*
X67705752Y-45577067D01*
X67372419Y-45577067D02*
X67420038Y-45624686D01*
X67420038Y-45624686D02*
X67467657Y-45577067D01*
X67467657Y-45577067D02*
X67420038Y-45529448D01*
X67420038Y-45529448D02*
X67372419Y-45577067D01*
X67372419Y-45577067D02*
X67467657Y-45577067D01*
X67705752Y-44672306D02*
X68515276Y-44672306D01*
X68515276Y-44672306D02*
X68610514Y-44719925D01*
X68610514Y-44719925D02*
X68658133Y-44767544D01*
X68658133Y-44767544D02*
X68705752Y-44862782D01*
X68705752Y-44862782D02*
X68705752Y-45005639D01*
X68705752Y-45005639D02*
X68658133Y-45100877D01*
X68324800Y-44672306D02*
X68372419Y-44767544D01*
X68372419Y-44767544D02*
X68372419Y-44958020D01*
X68372419Y-44958020D02*
X68324800Y-45053258D01*
X68324800Y-45053258D02*
X68277180Y-45100877D01*
X68277180Y-45100877D02*
X68181942Y-45148496D01*
X68181942Y-45148496D02*
X67896228Y-45148496D01*
X67896228Y-45148496D02*
X67800990Y-45100877D01*
X67800990Y-45100877D02*
X67753371Y-45053258D01*
X67753371Y-45053258D02*
X67705752Y-44958020D01*
X67705752Y-44958020D02*
X67705752Y-44767544D01*
X67705752Y-44767544D02*
X67753371Y-44672306D01*
X68372419Y-44196115D02*
X67372419Y-44196115D01*
X68372419Y-43767544D02*
X67848609Y-43767544D01*
X67848609Y-43767544D02*
X67753371Y-43815163D01*
X67753371Y-43815163D02*
X67705752Y-43910401D01*
X67705752Y-43910401D02*
X67705752Y-44053258D01*
X67705752Y-44053258D02*
X67753371Y-44148496D01*
X67753371Y-44148496D02*
X67800990Y-44196115D01*
X67705752Y-43434210D02*
X67705752Y-43053258D01*
X67372419Y-43291353D02*
X68229561Y-43291353D01*
X68229561Y-43291353D02*
X68324800Y-43243734D01*
X68324800Y-43243734D02*
X68372419Y-43148496D01*
X68372419Y-43148496D02*
X68372419Y-43053258D01*
D11*
X49586619Y-36282295D02*
X49319952Y-35901342D01*
X49129476Y-36282295D02*
X49129476Y-35482295D01*
X49129476Y-35482295D02*
X49434238Y-35482295D01*
X49434238Y-35482295D02*
X49510428Y-35520390D01*
X49510428Y-35520390D02*
X49548523Y-35558485D01*
X49548523Y-35558485D02*
X49586619Y-35634676D01*
X49586619Y-35634676D02*
X49586619Y-35748961D01*
X49586619Y-35748961D02*
X49548523Y-35825152D01*
X49548523Y-35825152D02*
X49510428Y-35863247D01*
X49510428Y-35863247D02*
X49434238Y-35901342D01*
X49434238Y-35901342D02*
X49129476Y-35901342D01*
X49891380Y-36053723D02*
X50272333Y-36053723D01*
X49815190Y-36282295D02*
X50081857Y-35482295D01*
X50081857Y-35482295D02*
X50348523Y-36282295D01*
X50538999Y-35482295D02*
X50729475Y-36282295D01*
X50729475Y-36282295D02*
X50881856Y-35710866D01*
X50881856Y-35710866D02*
X51034237Y-36282295D01*
X51034237Y-36282295D02*
X51224714Y-35482295D01*
X49529476Y-38060390D02*
X49453286Y-38022295D01*
X49453286Y-38022295D02*
X49339000Y-38022295D01*
X49339000Y-38022295D02*
X49224714Y-38060390D01*
X49224714Y-38060390D02*
X49148524Y-38136580D01*
X49148524Y-38136580D02*
X49110429Y-38212771D01*
X49110429Y-38212771D02*
X49072333Y-38365152D01*
X49072333Y-38365152D02*
X49072333Y-38479438D01*
X49072333Y-38479438D02*
X49110429Y-38631819D01*
X49110429Y-38631819D02*
X49148524Y-38708009D01*
X49148524Y-38708009D02*
X49224714Y-38784200D01*
X49224714Y-38784200D02*
X49339000Y-38822295D01*
X49339000Y-38822295D02*
X49415191Y-38822295D01*
X49415191Y-38822295D02*
X49529476Y-38784200D01*
X49529476Y-38784200D02*
X49567572Y-38746104D01*
X49567572Y-38746104D02*
X49567572Y-38479438D01*
X49567572Y-38479438D02*
X49415191Y-38479438D01*
X49910429Y-38822295D02*
X49910429Y-38022295D01*
X49910429Y-38022295D02*
X50367572Y-38822295D01*
X50367572Y-38822295D02*
X50367572Y-38022295D01*
X50748524Y-38822295D02*
X50748524Y-38022295D01*
X50748524Y-38022295D02*
X50939000Y-38022295D01*
X50939000Y-38022295D02*
X51053286Y-38060390D01*
X51053286Y-38060390D02*
X51129476Y-38136580D01*
X51129476Y-38136580D02*
X51167571Y-38212771D01*
X51167571Y-38212771D02*
X51205667Y-38365152D01*
X51205667Y-38365152D02*
X51205667Y-38479438D01*
X51205667Y-38479438D02*
X51167571Y-38631819D01*
X51167571Y-38631819D02*
X51129476Y-38708009D01*
X51129476Y-38708009D02*
X51053286Y-38784200D01*
X51053286Y-38784200D02*
X50939000Y-38822295D01*
X50939000Y-38822295D02*
X50748524Y-38822295D01*
X49072333Y-43102295D02*
X49339000Y-43902295D01*
X49339000Y-43902295D02*
X49605666Y-43102295D01*
X50329476Y-43826104D02*
X50291380Y-43864200D01*
X50291380Y-43864200D02*
X50177095Y-43902295D01*
X50177095Y-43902295D02*
X50100904Y-43902295D01*
X50100904Y-43902295D02*
X49986618Y-43864200D01*
X49986618Y-43864200D02*
X49910428Y-43788009D01*
X49910428Y-43788009D02*
X49872333Y-43711819D01*
X49872333Y-43711819D02*
X49834237Y-43559438D01*
X49834237Y-43559438D02*
X49834237Y-43445152D01*
X49834237Y-43445152D02*
X49872333Y-43292771D01*
X49872333Y-43292771D02*
X49910428Y-43216580D01*
X49910428Y-43216580D02*
X49986618Y-43140390D01*
X49986618Y-43140390D02*
X50100904Y-43102295D01*
X50100904Y-43102295D02*
X50177095Y-43102295D01*
X50177095Y-43102295D02*
X50291380Y-43140390D01*
X50291380Y-43140390D02*
X50329476Y-43178485D01*
X51129476Y-43826104D02*
X51091380Y-43864200D01*
X51091380Y-43864200D02*
X50977095Y-43902295D01*
X50977095Y-43902295D02*
X50900904Y-43902295D01*
X50900904Y-43902295D02*
X50786618Y-43864200D01*
X50786618Y-43864200D02*
X50710428Y-43788009D01*
X50710428Y-43788009D02*
X50672333Y-43711819D01*
X50672333Y-43711819D02*
X50634237Y-43559438D01*
X50634237Y-43559438D02*
X50634237Y-43445152D01*
X50634237Y-43445152D02*
X50672333Y-43292771D01*
X50672333Y-43292771D02*
X50710428Y-43216580D01*
X50710428Y-43216580D02*
X50786618Y-43140390D01*
X50786618Y-43140390D02*
X50900904Y-43102295D01*
X50900904Y-43102295D02*
X50977095Y-43102295D01*
X50977095Y-43102295D02*
X51091380Y-43140390D01*
X51091380Y-43140390D02*
X51129476Y-43178485D01*
X49872333Y-46023247D02*
X49605667Y-46023247D01*
X49605667Y-46442295D02*
X49605667Y-45642295D01*
X49605667Y-45642295D02*
X49986619Y-45642295D01*
X50634238Y-45908961D02*
X50634238Y-46442295D01*
X50443762Y-45604200D02*
X50253285Y-46175628D01*
X50253285Y-46175628D02*
X50748524Y-46175628D01*
X49872333Y-48563247D02*
X49605667Y-48563247D01*
X49605667Y-48982295D02*
X49605667Y-48182295D01*
X49605667Y-48182295D02*
X49986619Y-48182295D01*
X50672333Y-48182295D02*
X50291381Y-48182295D01*
X50291381Y-48182295D02*
X50253285Y-48563247D01*
X50253285Y-48563247D02*
X50291381Y-48525152D01*
X50291381Y-48525152D02*
X50367571Y-48487057D01*
X50367571Y-48487057D02*
X50558047Y-48487057D01*
X50558047Y-48487057D02*
X50634238Y-48525152D01*
X50634238Y-48525152D02*
X50672333Y-48563247D01*
X50672333Y-48563247D02*
X50710428Y-48639438D01*
X50710428Y-48639438D02*
X50710428Y-48829914D01*
X50710428Y-48829914D02*
X50672333Y-48906104D01*
X50672333Y-48906104D02*
X50634238Y-48944200D01*
X50634238Y-48944200D02*
X50558047Y-48982295D01*
X50558047Y-48982295D02*
X50367571Y-48982295D01*
X50367571Y-48982295D02*
X50291381Y-48944200D01*
X50291381Y-48944200D02*
X50253285Y-48906104D01*
X49872333Y-51103247D02*
X49605667Y-51103247D01*
X49605667Y-51522295D02*
X49605667Y-50722295D01*
X49605667Y-50722295D02*
X49986619Y-50722295D01*
X50634238Y-50722295D02*
X50481857Y-50722295D01*
X50481857Y-50722295D02*
X50405666Y-50760390D01*
X50405666Y-50760390D02*
X50367571Y-50798485D01*
X50367571Y-50798485D02*
X50291381Y-50912771D01*
X50291381Y-50912771D02*
X50253285Y-51065152D01*
X50253285Y-51065152D02*
X50253285Y-51369914D01*
X50253285Y-51369914D02*
X50291381Y-51446104D01*
X50291381Y-51446104D02*
X50329476Y-51484200D01*
X50329476Y-51484200D02*
X50405666Y-51522295D01*
X50405666Y-51522295D02*
X50558047Y-51522295D01*
X50558047Y-51522295D02*
X50634238Y-51484200D01*
X50634238Y-51484200D02*
X50672333Y-51446104D01*
X50672333Y-51446104D02*
X50710428Y-51369914D01*
X50710428Y-51369914D02*
X50710428Y-51179438D01*
X50710428Y-51179438D02*
X50672333Y-51103247D01*
X50672333Y-51103247D02*
X50634238Y-51065152D01*
X50634238Y-51065152D02*
X50558047Y-51027057D01*
X50558047Y-51027057D02*
X50405666Y-51027057D01*
X50405666Y-51027057D02*
X50329476Y-51065152D01*
X50329476Y-51065152D02*
X50291381Y-51103247D01*
X50291381Y-51103247D02*
X50253285Y-51179438D01*
X49872333Y-53643247D02*
X49605667Y-53643247D01*
X49605667Y-54062295D02*
X49605667Y-53262295D01*
X49605667Y-53262295D02*
X49986619Y-53262295D01*
X50215190Y-53262295D02*
X50748524Y-53262295D01*
X50748524Y-53262295D02*
X50405666Y-54062295D01*
X49815190Y-56183247D02*
X49929476Y-56221342D01*
X49929476Y-56221342D02*
X49967571Y-56259438D01*
X49967571Y-56259438D02*
X50005667Y-56335628D01*
X50005667Y-56335628D02*
X50005667Y-56449914D01*
X50005667Y-56449914D02*
X49967571Y-56526104D01*
X49967571Y-56526104D02*
X49929476Y-56564200D01*
X49929476Y-56564200D02*
X49853286Y-56602295D01*
X49853286Y-56602295D02*
X49548524Y-56602295D01*
X49548524Y-56602295D02*
X49548524Y-55802295D01*
X49548524Y-55802295D02*
X49815190Y-55802295D01*
X49815190Y-55802295D02*
X49891381Y-55840390D01*
X49891381Y-55840390D02*
X49929476Y-55878485D01*
X49929476Y-55878485D02*
X49967571Y-55954676D01*
X49967571Y-55954676D02*
X49967571Y-56030866D01*
X49967571Y-56030866D02*
X49929476Y-56107057D01*
X49929476Y-56107057D02*
X49891381Y-56145152D01*
X49891381Y-56145152D02*
X49815190Y-56183247D01*
X49815190Y-56183247D02*
X49548524Y-56183247D01*
X50767571Y-56602295D02*
X50310428Y-56602295D01*
X50539000Y-56602295D02*
X50539000Y-55802295D01*
X50539000Y-55802295D02*
X50462809Y-55916580D01*
X50462809Y-55916580D02*
X50386619Y-55992771D01*
X50386619Y-55992771D02*
X50310428Y-56030866D01*
X49815190Y-58723247D02*
X49929476Y-58761342D01*
X49929476Y-58761342D02*
X49967571Y-58799438D01*
X49967571Y-58799438D02*
X50005667Y-58875628D01*
X50005667Y-58875628D02*
X50005667Y-58989914D01*
X50005667Y-58989914D02*
X49967571Y-59066104D01*
X49967571Y-59066104D02*
X49929476Y-59104200D01*
X49929476Y-59104200D02*
X49853286Y-59142295D01*
X49853286Y-59142295D02*
X49548524Y-59142295D01*
X49548524Y-59142295D02*
X49548524Y-58342295D01*
X49548524Y-58342295D02*
X49815190Y-58342295D01*
X49815190Y-58342295D02*
X49891381Y-58380390D01*
X49891381Y-58380390D02*
X49929476Y-58418485D01*
X49929476Y-58418485D02*
X49967571Y-58494676D01*
X49967571Y-58494676D02*
X49967571Y-58570866D01*
X49967571Y-58570866D02*
X49929476Y-58647057D01*
X49929476Y-58647057D02*
X49891381Y-58685152D01*
X49891381Y-58685152D02*
X49815190Y-58723247D01*
X49815190Y-58723247D02*
X49548524Y-58723247D01*
X50272333Y-58342295D02*
X50767571Y-58342295D01*
X50767571Y-58342295D02*
X50500905Y-58647057D01*
X50500905Y-58647057D02*
X50615190Y-58647057D01*
X50615190Y-58647057D02*
X50691381Y-58685152D01*
X50691381Y-58685152D02*
X50729476Y-58723247D01*
X50729476Y-58723247D02*
X50767571Y-58799438D01*
X50767571Y-58799438D02*
X50767571Y-58989914D01*
X50767571Y-58989914D02*
X50729476Y-59066104D01*
X50729476Y-59066104D02*
X50691381Y-59104200D01*
X50691381Y-59104200D02*
X50615190Y-59142295D01*
X50615190Y-59142295D02*
X50386619Y-59142295D01*
X50386619Y-59142295D02*
X50310428Y-59104200D01*
X50310428Y-59104200D02*
X50272333Y-59066104D01*
X49815190Y-61263247D02*
X49929476Y-61301342D01*
X49929476Y-61301342D02*
X49967571Y-61339438D01*
X49967571Y-61339438D02*
X50005667Y-61415628D01*
X50005667Y-61415628D02*
X50005667Y-61529914D01*
X50005667Y-61529914D02*
X49967571Y-61606104D01*
X49967571Y-61606104D02*
X49929476Y-61644200D01*
X49929476Y-61644200D02*
X49853286Y-61682295D01*
X49853286Y-61682295D02*
X49548524Y-61682295D01*
X49548524Y-61682295D02*
X49548524Y-60882295D01*
X49548524Y-60882295D02*
X49815190Y-60882295D01*
X49815190Y-60882295D02*
X49891381Y-60920390D01*
X49891381Y-60920390D02*
X49929476Y-60958485D01*
X49929476Y-60958485D02*
X49967571Y-61034676D01*
X49967571Y-61034676D02*
X49967571Y-61110866D01*
X49967571Y-61110866D02*
X49929476Y-61187057D01*
X49929476Y-61187057D02*
X49891381Y-61225152D01*
X49891381Y-61225152D02*
X49815190Y-61263247D01*
X49815190Y-61263247D02*
X49548524Y-61263247D01*
X50310428Y-60958485D02*
X50348524Y-60920390D01*
X50348524Y-60920390D02*
X50424714Y-60882295D01*
X50424714Y-60882295D02*
X50615190Y-60882295D01*
X50615190Y-60882295D02*
X50691381Y-60920390D01*
X50691381Y-60920390D02*
X50729476Y-60958485D01*
X50729476Y-60958485D02*
X50767571Y-61034676D01*
X50767571Y-61034676D02*
X50767571Y-61110866D01*
X50767571Y-61110866D02*
X50729476Y-61225152D01*
X50729476Y-61225152D02*
X50272333Y-61682295D01*
X50272333Y-61682295D02*
X50767571Y-61682295D01*
X49815190Y-63803247D02*
X49929476Y-63841342D01*
X49929476Y-63841342D02*
X49967571Y-63879438D01*
X49967571Y-63879438D02*
X50005667Y-63955628D01*
X50005667Y-63955628D02*
X50005667Y-64069914D01*
X50005667Y-64069914D02*
X49967571Y-64146104D01*
X49967571Y-64146104D02*
X49929476Y-64184200D01*
X49929476Y-64184200D02*
X49853286Y-64222295D01*
X49853286Y-64222295D02*
X49548524Y-64222295D01*
X49548524Y-64222295D02*
X49548524Y-63422295D01*
X49548524Y-63422295D02*
X49815190Y-63422295D01*
X49815190Y-63422295D02*
X49891381Y-63460390D01*
X49891381Y-63460390D02*
X49929476Y-63498485D01*
X49929476Y-63498485D02*
X49967571Y-63574676D01*
X49967571Y-63574676D02*
X49967571Y-63650866D01*
X49967571Y-63650866D02*
X49929476Y-63727057D01*
X49929476Y-63727057D02*
X49891381Y-63765152D01*
X49891381Y-63765152D02*
X49815190Y-63803247D01*
X49815190Y-63803247D02*
X49548524Y-63803247D01*
X50691381Y-63422295D02*
X50539000Y-63422295D01*
X50539000Y-63422295D02*
X50462809Y-63460390D01*
X50462809Y-63460390D02*
X50424714Y-63498485D01*
X50424714Y-63498485D02*
X50348524Y-63612771D01*
X50348524Y-63612771D02*
X50310428Y-63765152D01*
X50310428Y-63765152D02*
X50310428Y-64069914D01*
X50310428Y-64069914D02*
X50348524Y-64146104D01*
X50348524Y-64146104D02*
X50386619Y-64184200D01*
X50386619Y-64184200D02*
X50462809Y-64222295D01*
X50462809Y-64222295D02*
X50615190Y-64222295D01*
X50615190Y-64222295D02*
X50691381Y-64184200D01*
X50691381Y-64184200D02*
X50729476Y-64146104D01*
X50729476Y-64146104D02*
X50767571Y-64069914D01*
X50767571Y-64069914D02*
X50767571Y-63879438D01*
X50767571Y-63879438D02*
X50729476Y-63803247D01*
X50729476Y-63803247D02*
X50691381Y-63765152D01*
X50691381Y-63765152D02*
X50615190Y-63727057D01*
X50615190Y-63727057D02*
X50462809Y-63727057D01*
X50462809Y-63727057D02*
X50386619Y-63765152D01*
X50386619Y-63765152D02*
X50348524Y-63803247D01*
X50348524Y-63803247D02*
X50310428Y-63879438D01*
X50026666Y-41304200D02*
X50140952Y-41342295D01*
X50140952Y-41342295D02*
X50331428Y-41342295D01*
X50331428Y-41342295D02*
X50407619Y-41304200D01*
X50407619Y-41304200D02*
X50445714Y-41266104D01*
X50445714Y-41266104D02*
X50483809Y-41189914D01*
X50483809Y-41189914D02*
X50483809Y-41113723D01*
X50483809Y-41113723D02*
X50445714Y-41037533D01*
X50445714Y-41037533D02*
X50407619Y-40999438D01*
X50407619Y-40999438D02*
X50331428Y-40961342D01*
X50331428Y-40961342D02*
X50179047Y-40923247D01*
X50179047Y-40923247D02*
X50102857Y-40885152D01*
X50102857Y-40885152D02*
X50064762Y-40847057D01*
X50064762Y-40847057D02*
X50026666Y-40770866D01*
X50026666Y-40770866D02*
X50026666Y-40694676D01*
X50026666Y-40694676D02*
X50064762Y-40618485D01*
X50064762Y-40618485D02*
X50102857Y-40580390D01*
X50102857Y-40580390D02*
X50179047Y-40542295D01*
X50179047Y-40542295D02*
X50369524Y-40542295D01*
X50369524Y-40542295D02*
X50483809Y-40580390D01*
X50712381Y-40542295D02*
X51169524Y-40542295D01*
X50940952Y-41342295D02*
X50940952Y-40542295D01*
X56981395Y-35482295D02*
X57438538Y-35482295D01*
X57209966Y-36282295D02*
X57209966Y-35482295D01*
X57629014Y-35482295D02*
X58162348Y-36282295D01*
X58162348Y-35482295D02*
X57629014Y-36282295D01*
X58619491Y-35482295D02*
X58695681Y-35482295D01*
X58695681Y-35482295D02*
X58771872Y-35520390D01*
X58771872Y-35520390D02*
X58809967Y-35558485D01*
X58809967Y-35558485D02*
X58848062Y-35634676D01*
X58848062Y-35634676D02*
X58886157Y-35787057D01*
X58886157Y-35787057D02*
X58886157Y-35977533D01*
X58886157Y-35977533D02*
X58848062Y-36129914D01*
X58848062Y-36129914D02*
X58809967Y-36206104D01*
X58809967Y-36206104D02*
X58771872Y-36244200D01*
X58771872Y-36244200D02*
X58695681Y-36282295D01*
X58695681Y-36282295D02*
X58619491Y-36282295D01*
X58619491Y-36282295D02*
X58543300Y-36244200D01*
X58543300Y-36244200D02*
X58505205Y-36206104D01*
X58505205Y-36206104D02*
X58467110Y-36129914D01*
X58467110Y-36129914D02*
X58429014Y-35977533D01*
X58429014Y-35977533D02*
X58429014Y-35787057D01*
X58429014Y-35787057D02*
X58467110Y-35634676D01*
X58467110Y-35634676D02*
X58505205Y-35558485D01*
X58505205Y-35558485D02*
X58543300Y-35520390D01*
X58543300Y-35520390D02*
X58619491Y-35482295D01*
X59800443Y-35444200D02*
X59114729Y-36472771D01*
X60067110Y-36282295D02*
X60067110Y-35482295D01*
X60067110Y-35482295D02*
X60257586Y-35482295D01*
X60257586Y-35482295D02*
X60371872Y-35520390D01*
X60371872Y-35520390D02*
X60448062Y-35596580D01*
X60448062Y-35596580D02*
X60486157Y-35672771D01*
X60486157Y-35672771D02*
X60524253Y-35825152D01*
X60524253Y-35825152D02*
X60524253Y-35939438D01*
X60524253Y-35939438D02*
X60486157Y-36091819D01*
X60486157Y-36091819D02*
X60448062Y-36168009D01*
X60448062Y-36168009D02*
X60371872Y-36244200D01*
X60371872Y-36244200D02*
X60257586Y-36282295D01*
X60257586Y-36282295D02*
X60067110Y-36282295D01*
X60790919Y-35482295D02*
X61286157Y-35482295D01*
X61286157Y-35482295D02*
X61019491Y-35787057D01*
X61019491Y-35787057D02*
X61133776Y-35787057D01*
X61133776Y-35787057D02*
X61209967Y-35825152D01*
X61209967Y-35825152D02*
X61248062Y-35863247D01*
X61248062Y-35863247D02*
X61286157Y-35939438D01*
X61286157Y-35939438D02*
X61286157Y-36129914D01*
X61286157Y-36129914D02*
X61248062Y-36206104D01*
X61248062Y-36206104D02*
X61209967Y-36244200D01*
X61209967Y-36244200D02*
X61133776Y-36282295D01*
X61133776Y-36282295D02*
X60905205Y-36282295D01*
X60905205Y-36282295D02*
X60829014Y-36244200D01*
X60829014Y-36244200D02*
X60790919Y-36206104D01*
X60470524Y-38822295D02*
X60470524Y-38022295D01*
X60470524Y-38022295D02*
X60661000Y-38022295D01*
X60661000Y-38022295D02*
X60775286Y-38060390D01*
X60775286Y-38060390D02*
X60851476Y-38136580D01*
X60851476Y-38136580D02*
X60889571Y-38212771D01*
X60889571Y-38212771D02*
X60927667Y-38365152D01*
X60927667Y-38365152D02*
X60927667Y-38479438D01*
X60927667Y-38479438D02*
X60889571Y-38631819D01*
X60889571Y-38631819D02*
X60851476Y-38708009D01*
X60851476Y-38708009D02*
X60775286Y-38784200D01*
X60775286Y-38784200D02*
X60661000Y-38822295D01*
X60661000Y-38822295D02*
X60470524Y-38822295D01*
X61232428Y-38098485D02*
X61270524Y-38060390D01*
X61270524Y-38060390D02*
X61346714Y-38022295D01*
X61346714Y-38022295D02*
X61537190Y-38022295D01*
X61537190Y-38022295D02*
X61613381Y-38060390D01*
X61613381Y-38060390D02*
X61651476Y-38098485D01*
X61651476Y-38098485D02*
X61689571Y-38174676D01*
X61689571Y-38174676D02*
X61689571Y-38250866D01*
X61689571Y-38250866D02*
X61651476Y-38365152D01*
X61651476Y-38365152D02*
X61194333Y-38822295D01*
X61194333Y-38822295D02*
X61689571Y-38822295D01*
X60451476Y-40600390D02*
X60375286Y-40562295D01*
X60375286Y-40562295D02*
X60261000Y-40562295D01*
X60261000Y-40562295D02*
X60146714Y-40600390D01*
X60146714Y-40600390D02*
X60070524Y-40676580D01*
X60070524Y-40676580D02*
X60032429Y-40752771D01*
X60032429Y-40752771D02*
X59994333Y-40905152D01*
X59994333Y-40905152D02*
X59994333Y-41019438D01*
X59994333Y-41019438D02*
X60032429Y-41171819D01*
X60032429Y-41171819D02*
X60070524Y-41248009D01*
X60070524Y-41248009D02*
X60146714Y-41324200D01*
X60146714Y-41324200D02*
X60261000Y-41362295D01*
X60261000Y-41362295D02*
X60337191Y-41362295D01*
X60337191Y-41362295D02*
X60451476Y-41324200D01*
X60451476Y-41324200D02*
X60489572Y-41286104D01*
X60489572Y-41286104D02*
X60489572Y-41019438D01*
X60489572Y-41019438D02*
X60337191Y-41019438D01*
X60832429Y-41362295D02*
X60832429Y-40562295D01*
X60832429Y-40562295D02*
X61289572Y-41362295D01*
X61289572Y-41362295D02*
X61289572Y-40562295D01*
X61670524Y-41362295D02*
X61670524Y-40562295D01*
X61670524Y-40562295D02*
X61861000Y-40562295D01*
X61861000Y-40562295D02*
X61975286Y-40600390D01*
X61975286Y-40600390D02*
X62051476Y-40676580D01*
X62051476Y-40676580D02*
X62089571Y-40752771D01*
X62089571Y-40752771D02*
X62127667Y-40905152D01*
X62127667Y-40905152D02*
X62127667Y-41019438D01*
X62127667Y-41019438D02*
X62089571Y-41171819D01*
X62089571Y-41171819D02*
X62051476Y-41248009D01*
X62051476Y-41248009D02*
X61975286Y-41324200D01*
X61975286Y-41324200D02*
X61861000Y-41362295D01*
X61861000Y-41362295D02*
X61670524Y-41362295D01*
X60470524Y-46442295D02*
X60470524Y-45642295D01*
X60470524Y-45642295D02*
X60661000Y-45642295D01*
X60661000Y-45642295D02*
X60775286Y-45680390D01*
X60775286Y-45680390D02*
X60851476Y-45756580D01*
X60851476Y-45756580D02*
X60889571Y-45832771D01*
X60889571Y-45832771D02*
X60927667Y-45985152D01*
X60927667Y-45985152D02*
X60927667Y-46099438D01*
X60927667Y-46099438D02*
X60889571Y-46251819D01*
X60889571Y-46251819D02*
X60851476Y-46328009D01*
X60851476Y-46328009D02*
X60775286Y-46404200D01*
X60775286Y-46404200D02*
X60661000Y-46442295D01*
X60661000Y-46442295D02*
X60470524Y-46442295D01*
X61689571Y-46442295D02*
X61232428Y-46442295D01*
X61461000Y-46442295D02*
X61461000Y-45642295D01*
X61461000Y-45642295D02*
X61384809Y-45756580D01*
X61384809Y-45756580D02*
X61308619Y-45832771D01*
X61308619Y-45832771D02*
X61232428Y-45870866D01*
X60470524Y-48982295D02*
X60470524Y-48182295D01*
X60470524Y-48182295D02*
X60661000Y-48182295D01*
X60661000Y-48182295D02*
X60775286Y-48220390D01*
X60775286Y-48220390D02*
X60851476Y-48296580D01*
X60851476Y-48296580D02*
X60889571Y-48372771D01*
X60889571Y-48372771D02*
X60927667Y-48525152D01*
X60927667Y-48525152D02*
X60927667Y-48639438D01*
X60927667Y-48639438D02*
X60889571Y-48791819D01*
X60889571Y-48791819D02*
X60851476Y-48868009D01*
X60851476Y-48868009D02*
X60775286Y-48944200D01*
X60775286Y-48944200D02*
X60661000Y-48982295D01*
X60661000Y-48982295D02*
X60470524Y-48982295D01*
X61422905Y-48182295D02*
X61499095Y-48182295D01*
X61499095Y-48182295D02*
X61575286Y-48220390D01*
X61575286Y-48220390D02*
X61613381Y-48258485D01*
X61613381Y-48258485D02*
X61651476Y-48334676D01*
X61651476Y-48334676D02*
X61689571Y-48487057D01*
X61689571Y-48487057D02*
X61689571Y-48677533D01*
X61689571Y-48677533D02*
X61651476Y-48829914D01*
X61651476Y-48829914D02*
X61613381Y-48906104D01*
X61613381Y-48906104D02*
X61575286Y-48944200D01*
X61575286Y-48944200D02*
X61499095Y-48982295D01*
X61499095Y-48982295D02*
X61422905Y-48982295D01*
X61422905Y-48982295D02*
X61346714Y-48944200D01*
X61346714Y-48944200D02*
X61308619Y-48906104D01*
X61308619Y-48906104D02*
X61270524Y-48829914D01*
X61270524Y-48829914D02*
X61232428Y-48677533D01*
X61232428Y-48677533D02*
X61232428Y-48487057D01*
X61232428Y-48487057D02*
X61270524Y-48334676D01*
X61270524Y-48334676D02*
X61308619Y-48258485D01*
X61308619Y-48258485D02*
X61346714Y-48220390D01*
X61346714Y-48220390D02*
X61422905Y-48182295D01*
X60470524Y-51522295D02*
X60470524Y-50722295D01*
X60470524Y-50722295D02*
X60661000Y-50722295D01*
X60661000Y-50722295D02*
X60775286Y-50760390D01*
X60775286Y-50760390D02*
X60851476Y-50836580D01*
X60851476Y-50836580D02*
X60889571Y-50912771D01*
X60889571Y-50912771D02*
X60927667Y-51065152D01*
X60927667Y-51065152D02*
X60927667Y-51179438D01*
X60927667Y-51179438D02*
X60889571Y-51331819D01*
X60889571Y-51331819D02*
X60851476Y-51408009D01*
X60851476Y-51408009D02*
X60775286Y-51484200D01*
X60775286Y-51484200D02*
X60661000Y-51522295D01*
X60661000Y-51522295D02*
X60470524Y-51522295D01*
X61613381Y-50988961D02*
X61613381Y-51522295D01*
X61422905Y-50684200D02*
X61232428Y-51255628D01*
X61232428Y-51255628D02*
X61727667Y-51255628D01*
X60927667Y-53986104D02*
X60889571Y-54024200D01*
X60889571Y-54024200D02*
X60775286Y-54062295D01*
X60775286Y-54062295D02*
X60699095Y-54062295D01*
X60699095Y-54062295D02*
X60584809Y-54024200D01*
X60584809Y-54024200D02*
X60508619Y-53948009D01*
X60508619Y-53948009D02*
X60470524Y-53871819D01*
X60470524Y-53871819D02*
X60432428Y-53719438D01*
X60432428Y-53719438D02*
X60432428Y-53605152D01*
X60432428Y-53605152D02*
X60470524Y-53452771D01*
X60470524Y-53452771D02*
X60508619Y-53376580D01*
X60508619Y-53376580D02*
X60584809Y-53300390D01*
X60584809Y-53300390D02*
X60699095Y-53262295D01*
X60699095Y-53262295D02*
X60775286Y-53262295D01*
X60775286Y-53262295D02*
X60889571Y-53300390D01*
X60889571Y-53300390D02*
X60927667Y-53338485D01*
X61613381Y-53262295D02*
X61461000Y-53262295D01*
X61461000Y-53262295D02*
X61384809Y-53300390D01*
X61384809Y-53300390D02*
X61346714Y-53338485D01*
X61346714Y-53338485D02*
X61270524Y-53452771D01*
X61270524Y-53452771D02*
X61232428Y-53605152D01*
X61232428Y-53605152D02*
X61232428Y-53909914D01*
X61232428Y-53909914D02*
X61270524Y-53986104D01*
X61270524Y-53986104D02*
X61308619Y-54024200D01*
X61308619Y-54024200D02*
X61384809Y-54062295D01*
X61384809Y-54062295D02*
X61537190Y-54062295D01*
X61537190Y-54062295D02*
X61613381Y-54024200D01*
X61613381Y-54024200D02*
X61651476Y-53986104D01*
X61651476Y-53986104D02*
X61689571Y-53909914D01*
X61689571Y-53909914D02*
X61689571Y-53719438D01*
X61689571Y-53719438D02*
X61651476Y-53643247D01*
X61651476Y-53643247D02*
X61613381Y-53605152D01*
X61613381Y-53605152D02*
X61537190Y-53567057D01*
X61537190Y-53567057D02*
X61384809Y-53567057D01*
X61384809Y-53567057D02*
X61308619Y-53605152D01*
X61308619Y-53605152D02*
X61270524Y-53643247D01*
X61270524Y-53643247D02*
X61232428Y-53719438D01*
X60508619Y-58723247D02*
X60775285Y-58723247D01*
X60889571Y-59142295D02*
X60508619Y-59142295D01*
X60508619Y-59142295D02*
X60508619Y-58342295D01*
X60508619Y-58342295D02*
X60889571Y-58342295D01*
X61575286Y-58342295D02*
X61422905Y-58342295D01*
X61422905Y-58342295D02*
X61346714Y-58380390D01*
X61346714Y-58380390D02*
X61308619Y-58418485D01*
X61308619Y-58418485D02*
X61232429Y-58532771D01*
X61232429Y-58532771D02*
X61194333Y-58685152D01*
X61194333Y-58685152D02*
X61194333Y-58989914D01*
X61194333Y-58989914D02*
X61232429Y-59066104D01*
X61232429Y-59066104D02*
X61270524Y-59104200D01*
X61270524Y-59104200D02*
X61346714Y-59142295D01*
X61346714Y-59142295D02*
X61499095Y-59142295D01*
X61499095Y-59142295D02*
X61575286Y-59104200D01*
X61575286Y-59104200D02*
X61613381Y-59066104D01*
X61613381Y-59066104D02*
X61651476Y-58989914D01*
X61651476Y-58989914D02*
X61651476Y-58799438D01*
X61651476Y-58799438D02*
X61613381Y-58723247D01*
X61613381Y-58723247D02*
X61575286Y-58685152D01*
X61575286Y-58685152D02*
X61499095Y-58647057D01*
X61499095Y-58647057D02*
X61346714Y-58647057D01*
X61346714Y-58647057D02*
X61270524Y-58685152D01*
X61270524Y-58685152D02*
X61232429Y-58723247D01*
X61232429Y-58723247D02*
X61194333Y-58799438D01*
X60737190Y-61263247D02*
X60851476Y-61301342D01*
X60851476Y-61301342D02*
X60889571Y-61339438D01*
X60889571Y-61339438D02*
X60927667Y-61415628D01*
X60927667Y-61415628D02*
X60927667Y-61529914D01*
X60927667Y-61529914D02*
X60889571Y-61606104D01*
X60889571Y-61606104D02*
X60851476Y-61644200D01*
X60851476Y-61644200D02*
X60775286Y-61682295D01*
X60775286Y-61682295D02*
X60470524Y-61682295D01*
X60470524Y-61682295D02*
X60470524Y-60882295D01*
X60470524Y-60882295D02*
X60737190Y-60882295D01*
X60737190Y-60882295D02*
X60813381Y-60920390D01*
X60813381Y-60920390D02*
X60851476Y-60958485D01*
X60851476Y-60958485D02*
X60889571Y-61034676D01*
X60889571Y-61034676D02*
X60889571Y-61110866D01*
X60889571Y-61110866D02*
X60851476Y-61187057D01*
X60851476Y-61187057D02*
X60813381Y-61225152D01*
X60813381Y-61225152D02*
X60737190Y-61263247D01*
X60737190Y-61263247D02*
X60470524Y-61263247D01*
X61613381Y-61148961D02*
X61613381Y-61682295D01*
X61422905Y-60844200D02*
X61232428Y-61415628D01*
X61232428Y-61415628D02*
X61727667Y-61415628D01*
X60737190Y-63803247D02*
X60851476Y-63841342D01*
X60851476Y-63841342D02*
X60889571Y-63879438D01*
X60889571Y-63879438D02*
X60927667Y-63955628D01*
X60927667Y-63955628D02*
X60927667Y-64069914D01*
X60927667Y-64069914D02*
X60889571Y-64146104D01*
X60889571Y-64146104D02*
X60851476Y-64184200D01*
X60851476Y-64184200D02*
X60775286Y-64222295D01*
X60775286Y-64222295D02*
X60470524Y-64222295D01*
X60470524Y-64222295D02*
X60470524Y-63422295D01*
X60470524Y-63422295D02*
X60737190Y-63422295D01*
X60737190Y-63422295D02*
X60813381Y-63460390D01*
X60813381Y-63460390D02*
X60851476Y-63498485D01*
X60851476Y-63498485D02*
X60889571Y-63574676D01*
X60889571Y-63574676D02*
X60889571Y-63650866D01*
X60889571Y-63650866D02*
X60851476Y-63727057D01*
X60851476Y-63727057D02*
X60813381Y-63765152D01*
X60813381Y-63765152D02*
X60737190Y-63803247D01*
X60737190Y-63803247D02*
X60470524Y-63803247D01*
X61651476Y-63422295D02*
X61270524Y-63422295D01*
X61270524Y-63422295D02*
X61232428Y-63803247D01*
X61232428Y-63803247D02*
X61270524Y-63765152D01*
X61270524Y-63765152D02*
X61346714Y-63727057D01*
X61346714Y-63727057D02*
X61537190Y-63727057D01*
X61537190Y-63727057D02*
X61613381Y-63765152D01*
X61613381Y-63765152D02*
X61651476Y-63803247D01*
X61651476Y-63803247D02*
X61689571Y-63879438D01*
X61689571Y-63879438D02*
X61689571Y-64069914D01*
X61689571Y-64069914D02*
X61651476Y-64146104D01*
X61651476Y-64146104D02*
X61613381Y-64184200D01*
X61613381Y-64184200D02*
X61537190Y-64222295D01*
X61537190Y-64222295D02*
X61346714Y-64222295D01*
X61346714Y-64222295D02*
X61270524Y-64184200D01*
X61270524Y-64184200D02*
X61232428Y-64146104D01*
%TO.C,S9*%
D12*
X129775000Y-50687500D02*
X129775000Y-65887500D01*
X129775000Y-65887500D02*
X144975000Y-65887500D01*
X144975000Y-50687500D02*
X129775000Y-50687500D01*
X144975000Y-65887500D02*
X144975000Y-50687500D01*
%TO.C,S16*%
X110725000Y-62087500D02*
X110725000Y-77287500D01*
X110725000Y-77287500D02*
X125925000Y-77287500D01*
X125925000Y-62087500D02*
X110725000Y-62087500D01*
X125925000Y-77287500D02*
X125925000Y-62087500D01*
%TO.C,S20*%
X91675000Y-90662500D02*
X91675000Y-105862500D01*
X91675000Y-105862500D02*
X106875000Y-105862500D01*
X106875000Y-90662500D02*
X91675000Y-90662500D01*
X106875000Y-105862500D02*
X106875000Y-90662500D01*
%TO.C,S5*%
X91675000Y-28750000D02*
X91675000Y-43950000D01*
X91675000Y-43950000D02*
X106875000Y-43950000D01*
X106875000Y-28750000D02*
X91675000Y-28750000D01*
X106875000Y-43950000D02*
X106875000Y-28750000D01*
%TO.C,S7*%
X167875000Y-63837500D02*
X167875000Y-79037500D01*
X167875000Y-79037500D02*
X183075000Y-79037500D01*
X183075000Y-63837500D02*
X167875000Y-63837500D01*
X183075000Y-79037500D02*
X183075000Y-63837500D01*
%TO.C,S2*%
X148900000Y-40251000D02*
X148900000Y-55451000D01*
X148900000Y-55451000D02*
X164100000Y-55451000D01*
X164100000Y-40251000D02*
X148900000Y-40251000D01*
X164100000Y-55451000D02*
X164100000Y-40251000D01*
%TO.C,S1*%
X167875000Y-44787500D02*
X167875000Y-59987500D01*
X167875000Y-59987500D02*
X183075000Y-59987500D01*
X183075000Y-44787500D02*
X167875000Y-44787500D01*
X183075000Y-59987500D02*
X183075000Y-44787500D01*
%TO.C,S12*%
X72625000Y-52562500D02*
X72625000Y-67762500D01*
X72625000Y-67762500D02*
X87825000Y-67762500D01*
X87825000Y-52562500D02*
X72625000Y-52562500D01*
X87825000Y-67762500D02*
X87825000Y-52562500D01*
%TO.C,S15*%
X129775000Y-69737500D02*
X129775000Y-84937500D01*
X129775000Y-84937500D02*
X144975000Y-84937500D01*
X144975000Y-69737500D02*
X129775000Y-69737500D01*
X144975000Y-84937500D02*
X144975000Y-69737500D01*
%TO.C,S10*%
X110725000Y-43037500D02*
X110725000Y-58237500D01*
X110725000Y-58237500D02*
X125925000Y-58237500D01*
X125925000Y-43037500D02*
X110725000Y-43037500D01*
X125925000Y-58237500D02*
X125925000Y-43037500D01*
%TO.C,S14*%
X148825000Y-78125000D02*
X148825000Y-93325000D01*
X148825000Y-93325000D02*
X164025000Y-93325000D01*
X164025000Y-78125000D02*
X148825000Y-78125000D01*
X164025000Y-93325000D02*
X164025000Y-78125000D01*
%TO.C,S19*%
X110725000Y-90662500D02*
X110725000Y-105862500D01*
X110725000Y-105862500D02*
X125925000Y-105862500D01*
X125925000Y-90662500D02*
X110725000Y-90662500D01*
X125925000Y-105862500D02*
X125925000Y-90662500D01*
%TO.C,S21*%
X72625000Y-90662500D02*
X72625000Y-105862500D01*
X72625000Y-105862500D02*
X87825000Y-105862500D01*
X87825000Y-90662500D02*
X72625000Y-90662500D01*
X87825000Y-105862500D02*
X87825000Y-90662500D01*
%TO.C,S8*%
X148825000Y-59075000D02*
X148825000Y-74275000D01*
X148825000Y-74275000D02*
X164025000Y-74275000D01*
X164025000Y-59075000D02*
X148825000Y-59075000D01*
X164025000Y-74275000D02*
X164025000Y-59075000D01*
%TO.C,S4*%
X110725000Y-23987500D02*
X110725000Y-39187500D01*
X110725000Y-39187500D02*
X125925000Y-39187500D01*
X125925000Y-23987500D02*
X110725000Y-23987500D01*
X125925000Y-39187500D02*
X125925000Y-23987500D01*
%TO.C,S13*%
X167875000Y-82887500D02*
X167875000Y-98087500D01*
X167875000Y-98087500D02*
X183075000Y-98087500D01*
X183075000Y-82887500D02*
X167875000Y-82887500D01*
X183075000Y-98087500D02*
X183075000Y-82887500D01*
%TO.C,S18*%
X72625000Y-71612500D02*
X72625000Y-86812500D01*
X72625000Y-86812500D02*
X87825000Y-86812500D01*
X87825000Y-71612500D02*
X72625000Y-71612500D01*
X87825000Y-86812500D02*
X87825000Y-71612500D01*
%TO.C,S3*%
X129775000Y-31637500D02*
X129775000Y-46837500D01*
X129775000Y-46837500D02*
X144975000Y-46837500D01*
X144975000Y-31637500D02*
X129775000Y-31637500D01*
X144975000Y-46837500D02*
X144975000Y-31637500D01*
%TO.C,S6*%
X72625000Y-33512500D02*
X72625000Y-48712500D01*
X72625000Y-48712500D02*
X87825000Y-48712500D01*
X87825000Y-33512500D02*
X72625000Y-33512500D01*
X87825000Y-48712500D02*
X87825000Y-33512500D01*
%TO.C,S17*%
X91675000Y-66850000D02*
X91675000Y-82050000D01*
X91675000Y-82050000D02*
X106875000Y-82050000D01*
X106875000Y-66850000D02*
X91675000Y-66850000D01*
X106875000Y-82050000D02*
X106875000Y-66850000D01*
%TO.C,S11*%
X91675000Y-47800000D02*
X91675000Y-63000000D01*
X91675000Y-63000000D02*
X106875000Y-63000000D01*
X106875000Y-47800000D02*
X91675000Y-47800000D01*
X106875000Y-63000000D02*
X106875000Y-47800000D01*
%TO.C,D6*%
D11*
X70150000Y-51600000D02*
X70700000Y-51600000D01*
X70300000Y-51000000D02*
X70700000Y-51600000D01*
X70700000Y-50500000D02*
X70700000Y-51000000D01*
X70700000Y-51600000D02*
X70700000Y-52000000D01*
X70700000Y-51600000D02*
X71100000Y-51000000D01*
X71100000Y-51000000D02*
X70300000Y-51000000D01*
X71250000Y-51600000D02*
X70700000Y-51600000D01*
%TO.C,D5*%
X89200000Y-45200000D02*
X89750000Y-45200000D01*
X89350000Y-44600000D02*
X89750000Y-45200000D01*
X89750000Y-44100000D02*
X89750000Y-44600000D01*
X89750000Y-45200000D02*
X89750000Y-45600000D01*
X89750000Y-45200000D02*
X90150000Y-44600000D01*
X90150000Y-44600000D02*
X89350000Y-44600000D01*
X90300000Y-45200000D02*
X89750000Y-45200000D01*
%TO.C,D16*%
X108250000Y-77181250D02*
X108800000Y-77181250D01*
X108400000Y-76581250D02*
X108800000Y-77181250D01*
X108800000Y-76081250D02*
X108800000Y-76581250D01*
X108800000Y-77181250D02*
X108800000Y-77581250D01*
X108800000Y-77181250D02*
X109200000Y-76581250D01*
X109200000Y-76581250D02*
X108400000Y-76581250D01*
X109350000Y-77181250D02*
X108800000Y-77181250D01*
%TO.C,D10*%
X107950000Y-57850000D02*
X108500000Y-57850000D01*
X108100000Y-57250000D02*
X108500000Y-57850000D01*
X108500000Y-56750000D02*
X108500000Y-57250000D01*
X108500000Y-57850000D02*
X108500000Y-58250000D01*
X108500000Y-57850000D02*
X108900000Y-57250000D01*
X108900000Y-57250000D02*
X108100000Y-57250000D01*
X109050000Y-57850000D02*
X108500000Y-57850000D01*
%TO.C,D2*%
X146550000Y-48850000D02*
X147100000Y-48850000D01*
X146700000Y-48250000D02*
X147100000Y-48850000D01*
X147100000Y-47750000D02*
X147100000Y-48250000D01*
X147100000Y-48850000D02*
X147100000Y-49250000D01*
X147100000Y-48850000D02*
X147500000Y-48250000D01*
X147500000Y-48250000D02*
X146700000Y-48250000D01*
X147650000Y-48850000D02*
X147100000Y-48850000D01*
%TO.C,D9*%
X127450000Y-56350000D02*
X128000000Y-56350000D01*
X127600000Y-55750000D02*
X128000000Y-56350000D01*
X128000000Y-55250000D02*
X128000000Y-55750000D01*
X128000000Y-56350000D02*
X128000000Y-56750000D01*
X128000000Y-56350000D02*
X128400000Y-55750000D01*
X128400000Y-55750000D02*
X127600000Y-55750000D01*
X128550000Y-56350000D02*
X128000000Y-56350000D01*
%TO.C,D4*%
X108250000Y-39081250D02*
X108800000Y-39081250D01*
X108400000Y-38481250D02*
X108800000Y-39081250D01*
X108800000Y-37981250D02*
X108800000Y-38481250D01*
X108800000Y-39081250D02*
X108800000Y-39481250D01*
X108800000Y-39081250D02*
X109200000Y-38481250D01*
X109200000Y-38481250D02*
X108400000Y-38481250D01*
X109350000Y-39081250D02*
X108800000Y-39081250D01*
%TO.C,D18*%
X70150000Y-81943750D02*
X70700000Y-81943750D01*
X70300000Y-81343750D02*
X70700000Y-81943750D01*
X70700000Y-80843750D02*
X70700000Y-81343750D01*
X70700000Y-81943750D02*
X70700000Y-82343750D01*
X70700000Y-81943750D02*
X71100000Y-81343750D01*
X71100000Y-81343750D02*
X70300000Y-81343750D01*
X71250000Y-81943750D02*
X70700000Y-81943750D01*
%TO.C,D15*%
X127300000Y-80068750D02*
X127850000Y-80068750D01*
X127450000Y-79468750D02*
X127850000Y-80068750D01*
X127850000Y-78968750D02*
X127850000Y-79468750D01*
X127850000Y-80068750D02*
X127850000Y-80468750D01*
X127850000Y-80068750D02*
X128250000Y-79468750D01*
X128250000Y-79468750D02*
X127450000Y-79468750D01*
X128400000Y-80068750D02*
X127850000Y-80068750D01*
%TO.C,D14*%
X146550000Y-93150000D02*
X147100000Y-93150000D01*
X146700000Y-92550000D02*
X147100000Y-93150000D01*
X147100000Y-92050000D02*
X147100000Y-92550000D01*
X147100000Y-93150000D02*
X147100000Y-93550000D01*
X147100000Y-93150000D02*
X147500000Y-92550000D01*
X147500000Y-92550000D02*
X146700000Y-92550000D01*
X147650000Y-93150000D02*
X147100000Y-93150000D01*
%TO.C,D1*%
X165400000Y-52737500D02*
X165950000Y-52737500D01*
X165550000Y-52137500D02*
X165950000Y-52737500D01*
X165950000Y-51637500D02*
X165950000Y-52137500D01*
X165950000Y-52737500D02*
X165950000Y-53137500D01*
X165950000Y-52737500D02*
X166350000Y-52137500D01*
X166350000Y-52137500D02*
X165550000Y-52137500D01*
X166500000Y-52737500D02*
X165950000Y-52737500D01*
%TO.C,D13*%
X165400000Y-93218750D02*
X165950000Y-93218750D01*
X165550000Y-92618750D02*
X165950000Y-93218750D01*
X165950000Y-92118750D02*
X165950000Y-92618750D01*
X165950000Y-93218750D02*
X165950000Y-93618750D01*
X165950000Y-93218750D02*
X166350000Y-92618750D01*
X166350000Y-92618750D02*
X165550000Y-92618750D01*
X166500000Y-93218750D02*
X165950000Y-93218750D01*
%TO.C,D7*%
X165400000Y-73437500D02*
X165950000Y-73437500D01*
X165550000Y-72837500D02*
X165950000Y-73437500D01*
X165950000Y-72337500D02*
X165950000Y-72837500D01*
X165950000Y-73437500D02*
X165950000Y-73837500D01*
X165950000Y-73437500D02*
X166350000Y-72837500D01*
X166350000Y-72837500D02*
X165550000Y-72837500D01*
X166500000Y-73437500D02*
X165950000Y-73437500D01*
%TO.C,U1*%
D13*
X46710000Y-32110000D02*
X64490000Y-32110000D01*
X46710000Y-65130000D02*
X46710000Y-32110000D01*
X61950000Y-34650000D02*
X61950000Y-37190000D01*
X61950000Y-34650000D02*
X64490000Y-34650000D01*
X61950000Y-37190000D02*
X64490000Y-37190000D01*
X64490000Y-32110000D02*
X64490000Y-65130000D01*
X64490000Y-65130000D02*
X46710000Y-65130000D01*
D11*
X49355365Y-40539030D02*
X49355365Y-41339030D01*
X49255365Y-41339030D01*
X49255365Y-40539030D01*
X49355365Y-40539030D01*
G36*
X49355365Y-41339030D02*
G01*
X49255365Y-41339030D01*
X49255365Y-40539030D01*
X49355365Y-40539030D01*
X49355365Y-41339030D01*
G37*
X49555365Y-40939030D02*
X49555365Y-41039030D01*
X49455365Y-41039030D01*
X49455365Y-40939030D01*
X49555365Y-40939030D01*
G36*
X49555365Y-41039030D02*
G01*
X49455365Y-41039030D01*
X49455365Y-40939030D01*
X49555365Y-40939030D01*
X49555365Y-41039030D01*
G37*
X49755365Y-40539030D02*
X49755365Y-40639030D01*
X49255365Y-40639030D01*
X49255365Y-40539030D01*
X49755365Y-40539030D01*
G36*
X49755365Y-40639030D02*
G01*
X49255365Y-40639030D01*
X49255365Y-40539030D01*
X49755365Y-40539030D01*
X49755365Y-40639030D01*
G37*
X49755365Y-40539030D02*
X49755365Y-40839030D01*
X49655365Y-40839030D01*
X49655365Y-40539030D01*
X49755365Y-40539030D01*
G36*
X49755365Y-40839030D02*
G01*
X49655365Y-40839030D01*
X49655365Y-40539030D01*
X49755365Y-40539030D01*
X49755365Y-40839030D01*
G37*
X49755365Y-41139030D02*
X49755365Y-41339030D01*
X49655365Y-41339030D01*
X49655365Y-41139030D01*
X49755365Y-41139030D01*
G36*
X49755365Y-41339030D02*
G01*
X49655365Y-41339030D01*
X49655365Y-41139030D01*
X49755365Y-41139030D01*
X49755365Y-41339030D01*
G37*
%TO.C,D3*%
X127300000Y-41968750D02*
X127850000Y-41968750D01*
X127450000Y-41368750D02*
X127850000Y-41968750D01*
X127850000Y-40868750D02*
X127850000Y-41368750D01*
X127850000Y-41968750D02*
X127850000Y-42368750D01*
X127850000Y-41968750D02*
X128250000Y-41368750D01*
X128250000Y-41368750D02*
X127450000Y-41368750D01*
X128400000Y-41968750D02*
X127850000Y-41968750D01*
%TO.C,D17*%
X89450000Y-82350000D02*
X90000000Y-82350000D01*
X89600000Y-81750000D02*
X90000000Y-82350000D01*
X90000000Y-81250000D02*
X90000000Y-81750000D01*
X90000000Y-82350000D02*
X90000000Y-82750000D01*
X90000000Y-82350000D02*
X90400000Y-81750000D01*
X90400000Y-81750000D02*
X89600000Y-81750000D01*
X90550000Y-82350000D02*
X90000000Y-82350000D01*
%TO.C,D20*%
X89200000Y-103375000D02*
X89750000Y-103375000D01*
X89350000Y-102775000D02*
X89750000Y-103375000D01*
X89750000Y-102275000D02*
X89750000Y-102775000D01*
X89750000Y-103375000D02*
X89750000Y-103775000D01*
X89750000Y-103375000D02*
X90150000Y-102775000D01*
X90150000Y-102775000D02*
X89350000Y-102775000D01*
X90300000Y-103375000D02*
X89750000Y-103375000D01*
%TO.C,D12*%
X70150000Y-62893750D02*
X70700000Y-62893750D01*
X70300000Y-62293750D02*
X70700000Y-62893750D01*
X70700000Y-61793750D02*
X70700000Y-62293750D01*
X70700000Y-62893750D02*
X70700000Y-63293750D01*
X70700000Y-62893750D02*
X71100000Y-62293750D01*
X71100000Y-62293750D02*
X70300000Y-62293750D01*
X71250000Y-62893750D02*
X70700000Y-62893750D01*
%TO.C,D21*%
X70150000Y-103375000D02*
X70700000Y-103375000D01*
X70300000Y-102775000D02*
X70700000Y-103375000D01*
X70700000Y-102275000D02*
X70700000Y-102775000D01*
X70700000Y-103375000D02*
X70700000Y-103775000D01*
X70700000Y-103375000D02*
X71100000Y-102775000D01*
X71100000Y-102775000D02*
X70300000Y-102775000D01*
X71250000Y-103375000D02*
X70700000Y-103375000D01*
%TO.C,D11*%
X88950000Y-61350000D02*
X89500000Y-61350000D01*
X89100000Y-60750000D02*
X89500000Y-61350000D01*
X89500000Y-60250000D02*
X89500000Y-60750000D01*
X89500000Y-61350000D02*
X89500000Y-61750000D01*
X89500000Y-61350000D02*
X89900000Y-60750000D01*
X89900000Y-60750000D02*
X89100000Y-60750000D01*
X90050000Y-61350000D02*
X89500000Y-61350000D01*
%TO.C,D19*%
X108250000Y-103375000D02*
X108800000Y-103375000D01*
X108400000Y-102775000D02*
X108800000Y-103375000D01*
X108800000Y-102275000D02*
X108800000Y-102775000D01*
X108800000Y-103375000D02*
X108800000Y-103775000D01*
X108800000Y-103375000D02*
X109200000Y-102775000D01*
X109200000Y-102775000D02*
X108400000Y-102775000D01*
X109350000Y-103375000D02*
X108800000Y-103375000D01*
%TD*%
D14*
%TO.C,U1*%
X63220000Y-35920000D03*
D15*
X63220000Y-38460000D03*
X63220000Y-41000000D03*
X63220000Y-43540000D03*
X63220000Y-46080000D03*
X63220000Y-48620000D03*
X63220000Y-51160000D03*
X63220000Y-53700000D03*
X63220000Y-56240000D03*
X63220000Y-58780000D03*
X63220000Y-61320000D03*
X63220000Y-63860000D03*
X47980000Y-63860000D03*
X47980000Y-61320000D03*
X47980000Y-58780000D03*
X47980000Y-56240000D03*
X47980000Y-53700000D03*
X47980000Y-51160000D03*
X47980000Y-48620000D03*
X47980000Y-46080000D03*
X47980000Y-43540000D03*
X47980000Y-41000000D03*
X47980000Y-38460000D03*
X47980000Y-35920000D03*
%TD*%
M02*
