M48
; DRILL file KiCad 10.0.3 date 2026-07-04T20:48:48
; FORMAT={-:-/ absolute / metric / decimal}
; #@! TF.CreationDate,2026-07-04T20:48:48+05:45
; #@! TF.GenerationSoftware,Kicad,Pcbnew,10.0.3
; #@! TF.FileFunction,NonPlated,1,2,NPTH
FMAT,2
METRIC
; #@! TA.AperFunction,NonPlated,NPTH,ComponentDrill
T1C0.800
; #@! TA.AperFunction,NonPlated,NPTH,ComponentDrill
T2C1.900
; #@! TA.AperFunction,NonPlated,NPTH,ComponentDrill
T3C3.050
; #@! TA.AperFunction,NonPlated,NPTH,ComponentDrill
T4C3.450
%
G90
G05
T1
X42.76Y-35.487
X42.76Y-42.487
T2
X74.725Y-41.112
X74.725Y-60.162
X74.725Y-79.212
X74.725Y-98.262
X85.725Y-41.112
X85.725Y-60.162
X85.725Y-79.212
X85.725Y-98.262
X93.775Y-36.35
X93.775Y-55.4
X93.775Y-74.45
X93.775Y-98.262
X104.775Y-36.35
X104.775Y-55.4
X104.775Y-74.45
X104.775Y-98.262
X112.825Y-31.587
X112.825Y-50.637
X112.825Y-69.688
X112.825Y-98.262
X123.825Y-31.587
X123.825Y-50.637
X123.825Y-69.688
X123.825Y-98.262
X131.875Y-39.237
X131.875Y-58.287
X131.875Y-77.337
X142.875Y-39.237
X142.875Y-58.287
X142.875Y-77.337
X150.925Y-66.675
X150.925Y-85.725
X151.0Y-47.851
X161.925Y-66.675
X161.925Y-85.725
X162.0Y-47.851
X169.975Y-52.387
X169.975Y-71.438
X169.975Y-90.487
X180.975Y-52.387
X180.975Y-71.438
X180.975Y-90.487
T3
X80.225Y-35.212
X80.225Y-54.262
X80.225Y-73.312
X80.225Y-92.362
X85.225Y-37.312
X85.225Y-56.362
X85.225Y-75.412
X85.225Y-94.462
X99.275Y-30.45
X99.275Y-49.5
X99.275Y-68.55
X99.275Y-92.362
X104.275Y-32.55
X104.275Y-51.6
X104.275Y-70.65
X104.275Y-94.462
X118.325Y-25.688
X118.325Y-44.737
X118.325Y-63.787
X118.325Y-92.362
X123.325Y-27.787
X123.325Y-46.837
X123.325Y-65.888
X123.325Y-94.462
X137.375Y-33.337
X137.375Y-52.387
X137.375Y-71.438
X142.375Y-35.438
X142.375Y-54.487
X142.375Y-73.537
X156.425Y-60.775
X156.425Y-79.825
X156.5Y-41.951
X161.425Y-62.875
X161.425Y-81.925
X161.5Y-44.051
X175.475Y-46.487
X175.475Y-65.537
X175.475Y-84.587
X180.475Y-48.587
X180.475Y-67.638
X180.475Y-86.688
T4
X80.225Y-41.112
X80.225Y-60.162
X80.225Y-79.212
X80.225Y-98.262
X99.275Y-36.35
X99.275Y-55.4
X99.275Y-74.45
X99.275Y-98.262
X118.325Y-31.587
X118.325Y-50.637
X118.325Y-69.688
X118.325Y-98.262
X137.375Y-39.237
X137.375Y-58.287
X137.375Y-77.337
X156.425Y-66.675
X156.425Y-85.725
X156.5Y-47.851
X175.475Y-52.387
X175.475Y-71.438
X175.475Y-90.487
M30
