M48
; DRILL file {KiCad 9.0.9-9.0.9~ubuntu24.04.1} date 2026-05-08T09:47:00+0545
; FORMAT={-:-/ absolute / metric / decimal}
; #@! TF.CreationDate,2026-05-08T09:47:00+05:45
; #@! TF.GenerationSoftware,Kicad,Pcbnew,9.0.9-9.0.9~ubuntu24.04.1
; #@! TF.FileFunction,Plated,1,2,PTH
FMAT,2
METRIC
; #@! TA.AperFunction,Plated,PTH,ViaDrill
T1C0.200
; #@! TA.AperFunction,Plated,PTH,ComponentDrill
T2C1.092
; #@! TA.AperFunction,Plated,PTH,ComponentDrill
T3C1.500
; #@! TA.AperFunction,Plated,PTH,ViaDrill
T4C3.500
%
G90
G05
T1
X99.65Y-68.25
X99.65Y-109.25
X100.15Y-68.25
X100.15Y-109.25
X100.65Y-65.39
X100.65Y-66.82
X100.65Y-68.25
X100.65Y-69.68
X100.65Y-71.11
X100.65Y-106.39
X100.65Y-107.82
X100.65Y-109.25
X100.65Y-110.68
X100.65Y-112.11
X101.15Y-63.96
X101.15Y-65.39
X101.15Y-66.82
X101.15Y-68.25
X101.15Y-69.68
X101.15Y-71.11
X101.15Y-72.54
X101.15Y-104.96
X101.15Y-106.39
X101.15Y-107.82
X101.15Y-109.25
X101.15Y-110.68
X101.15Y-112.11
X101.15Y-113.54
X101.65Y-63.96
X101.65Y-65.39
X101.65Y-66.82
X101.65Y-68.25
X101.65Y-69.68
X101.65Y-71.11
X101.65Y-72.54
X101.65Y-104.96
X101.65Y-106.39
X101.65Y-107.82
X101.65Y-109.25
X101.65Y-110.68
X101.65Y-112.11
X101.65Y-113.54
X102.15Y-65.39
X102.15Y-66.82
X102.15Y-68.25
X102.15Y-69.68
X102.15Y-71.11
X102.15Y-106.39
X102.15Y-107.82
X102.15Y-109.25
X102.15Y-110.68
X102.15Y-112.11
X102.65Y-68.25
X102.65Y-109.25
X103.15Y-68.25
X103.15Y-109.25
X106.46Y-58.65
X106.46Y-59.15
X106.46Y-118.35
X106.46Y-118.85
X107.89Y-58.15
X107.89Y-58.65
X107.89Y-59.15
X107.89Y-59.65
X107.89Y-117.85
X107.89Y-118.35
X107.89Y-118.85
X107.89Y-119.35
X109.32Y-58.15
X109.32Y-58.65
X109.32Y-59.15
X109.32Y-59.65
X109.32Y-117.85
X109.32Y-118.35
X109.32Y-118.85
X109.32Y-119.35
X110.75Y-57.15
X110.75Y-57.65
X110.75Y-58.15
X110.75Y-58.65
X110.75Y-59.15
X110.75Y-59.65
X110.75Y-60.15
X110.75Y-60.65
X110.75Y-74.75
X110.75Y-76.75
X110.75Y-78.75
X110.75Y-80.75
X110.75Y-82.75
X110.75Y-84.75
X110.75Y-86.75
X110.75Y-88.75
X110.75Y-90.75
X110.75Y-92.75
X110.75Y-94.75
X110.75Y-96.75
X110.75Y-98.75
X110.75Y-100.75
X110.75Y-102.75
X110.75Y-116.85
X110.75Y-117.35
X110.75Y-117.85
X110.75Y-118.35
X110.75Y-118.85
X110.75Y-119.35
X110.75Y-119.85
X110.75Y-120.35
X112.18Y-58.15
X112.18Y-58.65
X112.18Y-59.15
X112.18Y-59.65
X112.18Y-117.85
X112.18Y-118.35
X112.18Y-118.85
X112.18Y-119.35
X113.61Y-58.15
X113.61Y-58.65
X113.61Y-59.15
X113.61Y-59.65
X113.61Y-117.85
X113.61Y-118.35
X113.61Y-118.85
X113.61Y-119.35
X113.75Y-68.25
X113.75Y-109.25
X115.04Y-58.65
X115.04Y-59.15
X115.04Y-118.35
X115.04Y-118.85
X115.75Y-68.25
X117.75Y-68.25
X117.75Y-109.25
X119.75Y-68.25
X119.75Y-109.25
X121.75Y-68.25
X121.75Y-109.25
X123.75Y-68.25
X123.75Y-78.75
X123.75Y-98.75
X123.75Y-109.25
X125.75Y-68.25
X125.75Y-76.75
X125.75Y-78.75
X125.75Y-80.75
X125.75Y-96.75
X125.75Y-98.75
X125.75Y-100.75
X125.75Y-109.25
X127.75Y-68.25
X127.75Y-76.75
X127.75Y-78.75
X127.75Y-80.75
X127.75Y-88.75
X127.75Y-96.75
X127.75Y-98.75
X127.75Y-100.75
X127.75Y-109.25
X129.75Y-68.25
X129.75Y-76.75
X129.75Y-78.75
X129.75Y-80.75
X129.75Y-86.75
X129.75Y-88.75
X129.75Y-90.75
X129.75Y-96.75
X129.75Y-98.75
X129.75Y-100.75
X129.75Y-109.25
X131.75Y-68.25
X131.75Y-76.75
X131.75Y-78.75
X131.75Y-80.75
X131.75Y-88.75
X131.75Y-96.75
X131.75Y-98.75
X131.75Y-100.75
X131.75Y-109.25
X133.75Y-68.25
X133.75Y-78.75
X133.75Y-80.75
X133.75Y-96.75
X133.75Y-98.75
X133.75Y-100.75
X133.75Y-109.25
X135.75Y-68.25
X135.75Y-78.75
X135.75Y-98.75
X135.75Y-109.25
X137.75Y-68.25
X137.75Y-109.25
X139.75Y-68.25
X139.75Y-109.25
X141.75Y-68.25
X141.75Y-109.25
X143.75Y-68.25
X143.75Y-109.25
X145.75Y-68.25
X145.75Y-109.25
X147.75Y-68.25
X147.75Y-109.25
X149.75Y-68.25
X149.75Y-109.25
X151.75Y-68.25
X151.75Y-109.25
X153.75Y-68.25
X153.75Y-109.25
X155.75Y-68.25
X155.75Y-109.25
X157.75Y-68.25
X157.75Y-109.25
X159.75Y-68.25
X159.75Y-109.25
X161.75Y-68.25
X161.75Y-78.75
X161.75Y-98.75
X161.75Y-109.25
X163.75Y-68.25
X163.75Y-76.75
X163.75Y-78.75
X163.75Y-80.75
X163.75Y-96.75
X163.75Y-98.75
X163.75Y-100.75
X163.75Y-109.25
X165.75Y-68.25
X165.75Y-76.75
X165.75Y-78.75
X165.75Y-80.75
X165.75Y-88.75
X165.75Y-96.75
X165.75Y-98.75
X165.75Y-100.75
X165.75Y-109.25
X167.75Y-68.25
X167.75Y-76.75
X167.75Y-78.75
X167.75Y-80.75
X167.75Y-86.75
X167.75Y-88.75
X167.75Y-90.75
X167.75Y-96.75
X167.75Y-98.75
X167.75Y-100.75
X167.75Y-109.25
X169.75Y-68.25
X169.75Y-76.75
X169.75Y-78.75
X169.75Y-80.75
X169.75Y-88.75
X169.75Y-96.75
X169.75Y-98.75
X169.75Y-100.75
X169.75Y-109.25
X171.75Y-68.25
X171.75Y-76.75
X171.75Y-78.75
X171.75Y-80.75
X171.75Y-96.75
X171.75Y-98.75
X171.75Y-100.75
X171.75Y-109.25
X173.75Y-68.25
X173.75Y-78.75
X173.75Y-98.75
X173.75Y-109.25
X175.75Y-68.25
X175.75Y-109.25
X177.75Y-68.25
X177.75Y-109.25
X179.75Y-68.25
X179.75Y-109.25
X181.75Y-68.25
X181.75Y-109.25
X182.46Y-58.65
X182.46Y-59.15
X182.46Y-118.35
X182.46Y-118.85
X183.75Y-68.25
X183.75Y-109.25
X183.89Y-58.15
X183.89Y-58.65
X183.89Y-59.15
X183.89Y-59.65
X183.89Y-117.85
X183.89Y-118.35
X183.89Y-118.85
X183.89Y-119.35
X185.32Y-58.15
X185.32Y-58.65
X185.32Y-59.15
X185.32Y-59.65
X185.32Y-117.85
X185.32Y-118.35
X185.32Y-118.85
X185.32Y-119.35
X186.75Y-57.15
X186.75Y-57.65
X186.75Y-58.15
X186.75Y-58.65
X186.75Y-59.15
X186.75Y-59.65
X186.75Y-60.15
X186.75Y-60.65
X186.75Y-74.75
X186.75Y-76.75
X186.75Y-78.75
X186.75Y-80.75
X186.75Y-82.75
X186.75Y-84.75
X186.75Y-86.75
X186.75Y-88.75
X186.75Y-90.75
X186.75Y-92.75
X186.75Y-94.75
X186.75Y-96.75
X186.75Y-98.75
X186.75Y-100.75
X186.75Y-102.75
X186.75Y-116.85
X186.75Y-117.35
X186.75Y-117.85
X186.75Y-118.35
X186.75Y-118.85
X186.75Y-119.35
X186.75Y-119.85
X186.75Y-120.35
X188.18Y-58.15
X188.18Y-58.65
X188.18Y-59.15
X188.18Y-59.65
X188.18Y-117.85
X188.18Y-118.35
X188.18Y-118.85
X188.18Y-119.35
X189.61Y-58.15
X189.61Y-58.65
X189.61Y-59.15
X189.61Y-59.65
X189.61Y-117.85
X189.61Y-118.35
X189.61Y-118.85
X189.61Y-119.35
X191.04Y-58.65
X191.04Y-59.15
X191.04Y-118.35
X191.04Y-118.85
X194.35Y-68.25
X194.35Y-109.25
X194.85Y-68.25
X194.85Y-109.25
X195.35Y-65.39
X195.35Y-66.82
X195.35Y-68.25
X195.35Y-69.68
X195.35Y-71.11
X195.35Y-106.39
X195.35Y-107.82
X195.35Y-109.25
X195.35Y-110.68
X195.35Y-112.11
X195.85Y-63.96
X195.85Y-65.39
X195.85Y-66.82
X195.85Y-68.25
X195.85Y-69.68
X195.85Y-71.11
X195.85Y-72.54
X195.85Y-104.96
X195.85Y-106.39
X195.85Y-107.82
X195.85Y-109.25
X195.85Y-110.68
X195.85Y-112.11
X195.85Y-113.54
X196.35Y-63.96
X196.35Y-65.39
X196.35Y-66.82
X196.35Y-68.25
X196.35Y-69.68
X196.35Y-71.11
X196.35Y-72.54
X196.35Y-104.96
X196.35Y-106.39
X196.35Y-107.82
X196.35Y-109.25
X196.35Y-110.68
X196.35Y-112.11
X196.35Y-113.54
X196.85Y-65.39
X196.85Y-66.82
X196.85Y-68.25
X196.85Y-69.68
X196.85Y-71.11
X196.85Y-106.39
X196.85Y-107.82
X196.85Y-109.25
X196.85Y-110.68
X196.85Y-112.11
X197.35Y-68.25
X197.35Y-109.25
X197.85Y-68.25
X197.85Y-109.25
T2
X106.38Y-79.03
X106.38Y-81.57
X106.38Y-84.11
X106.38Y-86.65
X106.38Y-89.19
X106.38Y-91.73
X106.38Y-94.27
X106.38Y-96.81
X106.38Y-99.35
X106.38Y-101.89
X106.38Y-104.43
X106.38Y-106.97
X114.0Y-84.11
X116.54Y-84.11
X119.08Y-84.11
X121.62Y-79.03
X121.62Y-81.57
X121.62Y-84.11
X121.62Y-86.65
X121.62Y-89.19
X121.62Y-91.73
X121.62Y-94.27
X121.62Y-96.81
X121.62Y-99.35
X121.62Y-101.89
X121.62Y-104.43
X121.62Y-106.97
T3
X139.11Y-75.46
X139.15Y-96.04
X145.46Y-72.92
X145.5Y-93.5
X156.61Y-75.46
X156.65Y-96.04
X162.96Y-72.92
X163.0Y-93.5
X174.11Y-75.46
X174.11Y-95.96
X180.46Y-72.92
X180.46Y-93.42
T4
X110.0Y-70.5
X110.0Y-107.0
X187.5Y-70.5
X187.5Y-107.0
M30
