%TF.GenerationSoftware,KiCad,Pcbnew,9.0.9-9.0.9~ubuntu24.04.1*%
%TF.CreationDate,2026-05-08T09:47:02+05:45*%
%TF.ProjectId,05-media,30352d6d-6564-4696-912e-6b696361645f,rev?*%
%TF.SameCoordinates,Original*%
%TF.FileFunction,Profile,NP*%
%FSLAX46Y46*%
G04 Gerber Fmt 4.6, Leading zero omitted, Abs format (unit mm)*
G04 Created by KiCad (PCBNEW 9.0.9-9.0.9~ubuntu24.04.1) date 2026-05-08 09:47:02*
%MOMM*%
%LPD*%
G01*
G04 APERTURE LIST*
%TA.AperFunction,Profile*%
%ADD10C,0.050000*%
%TD*%
G04 APERTURE END LIST*
D10*
X98750000Y-56250000D02*
X198750000Y-56250000D01*
X98750000Y-121250000D02*
X98750000Y-56250000D01*
X118378912Y-119000000D02*
G75*
G02*
X118744944Y-117633987I865988J500000D01*
G01*
X118744937Y-117633975D02*
X120043975Y-116883975D01*
X119744937Y-119366028D02*
G75*
G02*
X118378866Y-119000026I-500037J866028D01*
G01*
X120043975Y-116883975D02*
G75*
G02*
X121410030Y-117249983I500025J-866025D01*
G01*
X121043975Y-118616028D02*
X119744937Y-119366028D01*
X121410000Y-117250000D02*
G75*
G02*
X121043970Y-118616018I-866000J-500000D01*
G01*
X147750000Y-58250000D02*
X147750000Y-59750000D01*
X147750000Y-58250000D02*
G75*
G02*
X148750000Y-57250000I1000000J0D01*
G01*
X148750000Y-57250000D02*
G75*
G02*
X149750000Y-58250000I0J-1000000D01*
G01*
X148750000Y-60750000D02*
G75*
G02*
X147750000Y-59750000I0J1000000D01*
G01*
X149750000Y-59750000D02*
G75*
G02*
X148750000Y-60750000I-1000000J0D01*
G01*
X149750000Y-59750000D02*
X149750000Y-58250000D01*
X176090000Y-117250000D02*
G75*
G02*
X177456008Y-116884005I866000J-500000D01*
G01*
X176456026Y-118616028D02*
G75*
G02*
X176089990Y-117249994I499974J866028D01*
G01*
X176456025Y-118616028D02*
X177755062Y-119366028D01*
X178755062Y-117633975D02*
X177456025Y-116883975D01*
X178755062Y-117633975D02*
G75*
G02*
X179121099Y-119000007I-499962J-866025D01*
G01*
X179121088Y-119000000D02*
G75*
G02*
X177755089Y-119365982I-865988J500000D01*
G01*
X198750000Y-56250000D02*
X198750000Y-121250000D01*
X198750000Y-121250000D02*
X98750000Y-121250000D01*
M02*
